<?xml version="1.0" encoding="utf-8"?>
<!-- Generator: Adobe Illustrator 22.1.0, SVG Export Plug-In . SVG Version: 6.00 Build 0)  -->
<svg version="1.1" id="Layer_1" xmlns="http://www.w3.org/2000/svg" xmlns:xlink="http://www.w3.org/1999/xlink" x="0px" y="0px"
	 viewBox="0 0 576 576" style="enable-background:new 0 0 576 576;" xml:space="preserve">
<style type="text/css">
	.st0{fill:#31393D;}
	.st1{fill:#9AD450;}
</style>
<path d="M149.2,318.3c-0.9,0.5-1.9,1-3,1.4C147.2,319.3,148.2,318.9,149.2,318.3z M146.2,319.7c-1.1,0.4-2.4,0.7-3.7,1
	C143.8,320.5,145,320.1,146.2,319.7z"/>
<path class="st0" d="M327.4,319.6H318v-70.2h9.4V319.6z"/>
<path class="st0" d="M361.8,270c6.5,0,12.9,2.2,17.6,8.8v-7.8h9.4v48.5h-9.4v-7.8c-4.7,6.6-11.1,8.8-17.6,8.8
	c-14.6,0-24.1-11.4-24.1-25.3S347.3,270,361.8,270z M363,278.4c-10.1,0-15.8,7.8-15.8,17c0,9.2,5.7,17,15.8,17
	c9.8,0,16.5-7.2,16.6-17C379.5,285.6,372.8,278.4,363,278.4z"/>
<path class="st0" d="M426.1,320.7c-6.5,0-12.9-2.2-17.6-8.8v7.8h-9.4v-70.2h9.4v29.4c4.7-6.6,11.1-8.8,17.6-8.8
	c14.6,0,24.1,11.4,24.1,25.3S440.6,320.7,426.1,320.7z M424.9,312.3c10.1,0,15.8-7.8,15.8-17c0-9.2-5.7-17-15.8-17
	c-9.8,0-16.5,7.2-16.6,17C408.4,305.2,415.1,312.3,424.9,312.3z"/>
<g>
	<rect x="236.9" y="263.3" class="st1" width="9.4" height="56.4"/>
</g>
<path class="st1" d="M217.2,271.1v8.1c-4.7-6.6-11.1-8.8-17.6-8.8c-14.6,0-24.1,11.4-24.1,25.3s9.5,25.3,24.1,25.3
	c6.5,0,12.9-2.2,17.6-8.8v6.5c0,10.4-6.5,15.8-15.9,15.8c-6.1,0-11.4-1.7-16.7-5.9l-3.5,7.6c4.6,3.6,10.3,6.5,20.2,6.5
	c13.3,0,25.3-7.1,25.3-23.2v-48.5H217.2z M200.8,312.7c-10.1,0-15.8-7.8-15.8-17c0-9.2,5.7-17,15.8-17c9.8,0,16.5,7.2,16.6,17
	C217.3,305.5,210.6,312.7,200.8,312.7z"/>
<path class="st1" d="M165.3,303.8c0-0.4,0-32.7,0-32.7h-9.4v8.1c-4.6-6.6-11.1-8.8-17.6-8.8c-14.6,0-24.1,11.4-24.1,25.3
	s9.5,25.3,24.1,25.3h0.1c0.6,0,1.1,0,1.7-0.1c0.2,0,0.4,0,0.6-0.1c0.6-0.1,1.2-0.1,1.8-0.2c1.3-0.2,2.5-0.6,3.7-1
	c1.1-0.4,2.1-0.9,3-1.4c0.7-0.4,1.4-0.9,2.1-1.4c0.6-0.5,1.2-1,1.8-1.5c0.3-0.3,0.6-0.6,1-1c0.7-0.8,1.3-1.5,1.8-2.3
	c0.3-0.4,0.6-0.9,0.8-1.4c0.1-0.3,0.3-0.5,0.4-0.8c1.2,6,4.3,12.1,8.1,15.3l4.1-8.8C167,313.5,165.3,309.3,165.3,303.8z
	 M139.5,312.7c-10.1,0-15.8-7.8-15.8-17c0-9.2,5.7-17,15.8-17c9.8,0,16.5,7.2,16.6,17C156,305.5,149.3,312.7,139.5,312.7z"/>
<path class="st1" d="M282.3,270.4c14.1,0,25.5,11.4,25.5,25.3c0,14-11.4,25.3-25.5,25.3c-14,0-25.4-11.3-25.4-25.3
	C256.8,281.7,268.3,270.4,282.3,270.4z M282.3,312.7c8.9,0,16.1-7.6,16.1-16.9c0-9.4-7.2-17.1-16.1-17.1c-8.8,0-16,7.7-16,17.1
	C266.2,305.1,273.4,312.7,282.3,312.7z"/>
<path class="st1" d="M265.5,261.3c-3,0.4-5,0.1-7.9,0.7c-0.8,0.1-1.7,0.3-2.4,0.6c-4.2,1.5-7.6,5.4-8.9,11.3v19.1
	c-0.1-13.9,3.7-18.9,7.2-20.6c1.4-0.7,2.9-1.3,4.6-1.4c0.4,0,0.7,0,1.1-0.1c1.3-0.1,2.5-0.2,3.8-0.4c0.2,0,0.5-0.1,0.7-0.1
	c7.2-1.5,9.6-8.4,12.3-14.4C275.9,255.9,270.7,260.6,265.5,261.3z"/>
<g>
	<path d="M243.3,333.5c1.6,0.2,2.4,1.2,2.4,2.5c0,1.6-1.3,2.7-3.3,2.7h-4v-10.1h3.6c1.9,0,3.3,1,3.3,2.6
		C245.3,332.3,244.7,333.2,243.3,333.5z M241.4,333.1c1.8,0,2.4-0.9,2.4-1.8c0-1-0.9-1.5-1.8-1.5h-2.1v3.3H241.4z M239.8,334.2v3.3
		h2.6c1.1,0,1.9-0.6,1.9-1.5c0-0.9-0.8-1.8-2.6-1.8H239.8z"/>
	<path d="M257.7,338.7h-1.4v-10.1h1.4V338.7z"/>
	<path d="M273.4,328.5c2.9,0,5.2,2.3,5.2,5.2c0,2.9-2.3,5.2-5.2,5.2c-2.9,0-5.2-2.3-5.2-5.2C268.2,330.8,270.6,328.5,273.4,328.5z
		 M273.4,337.6c2.1,0,3.7-1.7,3.7-3.9c0-2.2-1.7-3.9-3.7-3.9s-3.7,1.7-3.7,3.9C269.7,335.9,271.4,337.6,273.4,337.6z"/>
	<path d="M301.8,336c0.2,0.8,1.1,1.6,2.3,1.6c1.3,0,2.1-0.7,2.1-1.5c0-0.8-0.7-1.3-1.5-1.6l-1.5-0.5c-2-0.6-2.3-1.8-2.3-2.7
		c0-1.7,1.5-2.8,3.2-2.8c1.8,0,3,1,3.3,2.4l-1.3,0.4c-0.2-1-1-1.5-2-1.5c-1,0-1.8,0.5-1.8,1.5c0,0.4,0.1,1,1.3,1.4l1.5,0.6
		c1.7,0.5,2.4,1.6,2.4,2.7c0,1.8-1.4,2.9-3.5,2.9c-2,0-3.4-1.1-3.7-2.5L301.8,336z"/>
	<path d="M322.7,328.5c2.9,0,5.2,2.3,5.2,5.2c0,2.9-2.3,5.2-5.2,5.2c-2.9,0-5.2-2.3-5.2-5.2C317.5,330.8,319.8,328.5,322.7,328.5z
		 M322.7,337.6c2.1,0,3.7-1.7,3.7-3.9c0-2.2-1.7-3.9-3.7-3.9c-2.1,0-3.7,1.7-3.7,3.9C318.9,335.9,320.6,337.6,322.7,337.6z"/>
	<path d="M344.4,338.7h-6v-10.1h1.4v8.9h4.6V338.7z"/>
	<path d="M362,328.6v6.3c0,2.5-1.8,3.9-4,3.9s-4-1.3-4-3.9v-6.3h1.4v6.3c0,1.7,1.2,2.6,2.5,2.6c1.4,0,2.5-0.8,2.5-2.6v-6.3H362z"/>
	<path d="M380.1,328.6v1.2h-3.3v8.9h-1.4v-8.9H372v-1.2H380.1z"/>
	<path d="M391.7,338.7h-1.4v-10.1h1.4V338.7z"/>
	<path d="M407.4,328.5c2.9,0,5.2,2.3,5.2,5.2c0,2.9-2.3,5.2-5.2,5.2c-2.9,0-5.2-2.3-5.2-5.2C402.2,330.8,404.5,328.5,407.4,328.5z
		 M407.4,337.6c2.1,0,3.7-1.7,3.7-3.9c0-2.2-1.7-3.9-3.7-3.9c-2.1,0-3.7,1.7-3.7,3.9C403.7,335.9,405.3,337.6,407.4,337.6z"/>
	<path d="M424.6,331.2v7.4h-1.4v-10.1h1.1l5.5,7.4v-7.4h1.5v10.1h-1.1L424.6,331.2z"/>
	<path d="M442.8,336c0.2,0.8,1.1,1.6,2.3,1.6c1.3,0,2.1-0.7,2.1-1.5c0-0.8-0.7-1.3-1.5-1.6l-1.5-0.5c-2-0.6-2.3-1.8-2.3-2.7
		c0-1.7,1.5-2.8,3.2-2.8c1.8,0,3,1,3.3,2.4l-1.3,0.4c-0.2-1-1-1.5-2-1.5c-1,0-1.8,0.5-1.8,1.5c0,0.4,0.1,1,1.3,1.4l1.5,0.6
		c1.7,0.5,2.4,1.6,2.4,2.7c0,1.8-1.4,2.9-3.5,2.9c-2,0-3.4-1.1-3.7-2.5L442.8,336z"/>
</g>
</svg>
