<?xml version="1.0" encoding="utf-8"?>
<!-- Generator: Adobe Illustrator 22.1.0, SVG Export Plug-In . SVG Version: 6.00 Build 0)  -->
<svg version="1.1" id="Layer_1" xmlns="http://www.w3.org/2000/svg" xmlns:xlink="http://www.w3.org/1999/xlink" x="0px" y="0px"
	 viewBox="0 0 576 655.8" style="enable-background:new 0 0 576 655.8;" xml:space="preserve">
<style type="text/css">
	.st0{fill:#31393D;}
	.st1{fill:#9AD450;}
	.st2{fill:#FFFFFF;}
</style>
<g>
	<path d="M149.4,145.7c-0.9,0.5-1.9,1-3,1.4C147.4,146.7,148.4,146.3,149.4,145.7z M146.4,147.1c-1.1,0.4-2.4,0.7-3.7,1
		C144,147.9,145.2,147.5,146.4,147.1z"/>
	<path class="st0" d="M327.6,147h-9.4V76.8h9.4V147z"/>
	<path class="st0" d="M362,97.4c6.5,0,12.9,2.2,17.6,8.8v-7.8h9.4v48.5h-9.4v-7.8c-4.7,6.6-11.1,8.8-17.6,8.8
		c-14.6,0-24.1-11.4-24.1-25.3S347.5,97.4,362,97.4z M363.2,105.8c-10.1,0-15.8,7.8-15.8,17s5.7,17,15.8,17c9.8,0,16.5-7.2,16.6-17
		C379.7,113,373,105.8,363.2,105.8z"/>
	<path class="st0" d="M426.3,148.1c-6.5,0-12.9-2.2-17.6-8.8v7.8h-9.4V76.9h9.4v29.4c4.7-6.6,11.1-8.8,17.6-8.8
		c14.6,0,24.1,11.4,24.1,25.3S440.8,148.1,426.3,148.1z M425.1,139.7c10.1,0,15.8-7.8,15.8-17s-5.7-17-15.8-17
		c-9.8,0-16.5,7.2-16.6,17C408.6,132.6,415.3,139.7,425.1,139.7z"/>
	<path class="st1" d="M217.4,98.5v8.1c-4.7-6.6-11.1-8.8-17.6-8.8c-14.6,0-24.1,11.4-24.1,25.3s9.5,25.3,24.1,25.3
		c6.5,0,12.9-2.2,17.6-8.8v6.5c0,10.4-6.5,15.8-15.9,15.8c-6.1,0-11.4-1.7-16.7-5.9l-3.5,7.6c4.6,3.6,10.3,6.5,20.2,6.5
		c13.3,0,25.3-7.1,25.3-23.2V98.4L217.4,98.5L217.4,98.5L217.4,98.5z M201,140.1c-10.1,0-15.8-7.8-15.8-17s5.7-17,15.8-17
		c9.8,0,16.5,7.2,16.6,17C217.5,132.9,210.8,140.1,201,140.1z"/>
	<path class="st1" d="M165.5,131.2c0-0.4,0-32.7,0-32.7h-9.4v8.1c-4.6-6.6-11.1-8.8-17.6-8.8c-14.6,0-24.1,11.4-24.1,25.3
		s9.5,25.3,24.1,25.3h0.1c0.6,0,1.1,0,1.7-0.1c0.2,0,0.4,0,0.6-0.1c0.6-0.1,1.2-0.1,1.8-0.2c1.3-0.2,2.5-0.6,3.7-1
		c1.1-0.4,2.1-0.9,3-1.4c0.7-0.4,1.4-0.9,2.1-1.4c0.6-0.5,1.2-1,1.8-1.5c0.3-0.3,0.6-0.6,1-1c0.7-0.8,1.3-1.5,1.8-2.3
		c0.3-0.4,0.6-0.9,0.8-1.4c0.1-0.3,0.3-0.5,0.4-0.8c1.2,6,4.3,12.1,8.1,15.3l4.1-8.8C167.2,140.9,165.5,136.7,165.5,131.2z
		 M139.7,140.1c-10.1,0-15.8-7.8-15.8-17s5.7-17,15.8-17c9.8,0,16.5,7.2,16.6,17C156.2,132.9,149.5,140.1,139.7,140.1z"/>
	<path class="st1" d="M282.5,97.8c14.1,0,25.5,11.4,25.5,25.3c0,14-11.4,25.3-25.5,25.3c-14,0-25.4-11.3-25.4-25.3
		C257,109.1,268.5,97.8,282.5,97.8z M282.5,140.1c8.9,0,16.1-7.6,16.1-16.9c0-9.4-7.2-17.1-16.1-17.1c-8.8,0-16,7.7-16,17.1
		C266.4,132.5,273.6,140.1,282.5,140.1z"/>
	<path class="st1" d="M265.7,88.7c-3,0.4-5,0.1-7.9,0.7c-0.8,0.1-1.7,0.3-2.4,0.6c-4.2,1.5-7.6,5.4-8.9,11.3V90.7h-9.4v56.4h9.4
		v-26.7c-0.1-13.9,3.7-18.9,7.2-20.6c1.4-0.7,2.9-1.3,4.6-1.4c0.4,0,0.7,0,1.1-0.1c1.3-0.1,2.5-0.2,3.8-0.4c0.2,0,0.5-0.1,0.7-0.1
		c7.2-1.5,9.6-8.4,12.3-14.4C276.1,83.3,270.9,88,265.7,88.7z"/>
	<g>
		<path d="M243.5,160.9c1.6,0.2,2.4,1.2,2.4,2.5c0,1.6-1.3,2.7-3.3,2.7h-4V156h3.6c1.9,0,3.3,1,3.3,2.6
			C245.5,159.7,244.9,160.6,243.5,160.9z M241.6,160.5c1.8,0,2.4-0.9,2.4-1.8c0-1-0.9-1.5-1.8-1.5h-2.1v3.3H241.6z M240,161.6v3.3
			h2.6c1.1,0,1.9-0.6,1.9-1.5s-0.8-1.8-2.6-1.8H240z"/>
		<path d="M257.9,166.1h-1.4V156h1.4V166.1z"/>
		<path d="M273.6,155.9c2.9,0,5.2,2.3,5.2,5.2s-2.3,5.2-5.2,5.2c-2.9,0-5.2-2.3-5.2-5.2S270.8,155.9,273.6,155.9z M273.6,165
			c2.1,0,3.7-1.7,3.7-3.9s-1.7-3.9-3.7-3.9s-3.7,1.7-3.7,3.9S271.6,165,273.6,165z"/>
		<path d="M302,163.4c0.2,0.8,1.1,1.6,2.3,1.6c1.3,0,2.1-0.7,2.1-1.5s-0.7-1.3-1.5-1.6l-1.5-0.5c-2-0.6-2.3-1.8-2.3-2.7
			c0-1.7,1.5-2.8,3.2-2.8c1.8,0,3,1,3.3,2.4l-1.3,0.4c-0.2-1-1-1.5-2-1.5s-1.8,0.5-1.8,1.5c0,0.4,0.1,1,1.3,1.4l1.5,0.6
			c1.7,0.5,2.4,1.6,2.4,2.7c0,1.8-1.4,2.9-3.5,2.9c-2,0-3.4-1.1-3.7-2.5L302,163.4z"/>
		<path d="M322.9,155.9c2.9,0,5.2,2.3,5.2,5.2s-2.3,5.2-5.2,5.2c-2.9,0-5.2-2.3-5.2-5.2S320,155.9,322.9,155.9z M322.9,165
			c2.1,0,3.7-1.7,3.7-3.9s-1.7-3.9-3.7-3.9c-2.1,0-3.7,1.7-3.7,3.9C319.1,163.3,320.8,165,322.9,165z"/>
		<path d="M344.6,166.1h-6V156h1.4v8.9h4.6V166.1z"/>
		<path d="M362.2,156v6.3c0,2.5-1.8,3.9-4,3.9s-4-1.3-4-3.9V156h1.4v6.3c0,1.7,1.2,2.6,2.5,2.6c1.4,0,2.5-0.8,2.5-2.6V156H362.2z"/>
		<path d="M380.3,156v1.2H377v8.9h-1.4v-8.9h-3.4V156H380.3z"/>
		<path d="M391.9,166.1h-1.4V156h1.4V166.1z"/>
		<path d="M407.6,155.9c2.9,0,5.2,2.3,5.2,5.2s-2.3,5.2-5.2,5.2c-2.9,0-5.2-2.3-5.2-5.2S404.7,155.9,407.6,155.9z M407.6,165
			c2.1,0,3.7-1.7,3.7-3.9s-1.7-3.9-3.7-3.9c-2.1,0-3.7,1.7-3.7,3.9S405.5,165,407.6,165z"/>
		<path d="M424.8,158.6v7.4h-1.4v-10.1h1.1l5.5,7.4v-7.4h1.5V166h-1.1L424.8,158.6z"/>
		<path d="M443,163.4c0.2,0.8,1.1,1.6,2.3,1.6c1.3,0,2.1-0.7,2.1-1.5s-0.7-1.3-1.5-1.6l-1.5-0.5c-2-0.6-2.3-1.8-2.3-2.7
			c0-1.7,1.5-2.8,3.2-2.8c1.8,0,3,1,3.3,2.4l-1.3,0.4c-0.2-1-1-1.5-2-1.5s-1.8,0.5-1.8,1.5c0,0.4,0.1,1,1.3,1.4l1.5,0.6
			c1.7,0.5,2.4,1.6,2.4,2.7c0,1.8-1.4,2.9-3.5,2.9c-2,0-3.4-1.1-3.7-2.5L443,163.4z"/>
	</g>
</g>
<g>
	<g>
		<path class="st0" d="M88.8,336.4c-0.3,0.2-0.6,0.3-1,0.4C88.1,336.7,88.4,336.6,88.8,336.4z"/>
		<path class="st0" d="M87.8,336.9c-0.7,0.3-1.5,0.4-2.4,0.6C86.2,337.4,87,337.1,87.8,336.9z"/>
		<path class="st0" d="M88.8,336.4c0.3-0.2,0.6-0.3,0.9-0.5C89.4,336.2,89.1,336.3,88.8,336.4z"/>
		<rect x="197.6" y="291.9" class="st0" width="6" height="44.9"/>
		<path class="st0" d="M236.8,310.7c-3-4.2-7.1-5.6-11.2-5.6c-9.3,0-15.4,7.2-15.4,16.1s6.1,16.2,15.4,16.2c4.2,0,8.2-1.4,11.2-5.6
			v5h6v-31h-6V310.7z M226.3,332.2c-6.5,0-10.1-5-10.1-10.9s3.6-10.9,10.1-10.9c6.3,0,10.5,4.6,10.6,10.9
			C236.9,327.6,232.6,332.2,226.3,332.2z"/>
		<path class="st0" d="M255.4,331.9c3,4.2,7.1,5.6,11.2,5.6c9.3,0,15.4-7.3,15.4-16.2s-6.1-16.2-15.4-16.2c-4.2,0-8.2,1.4-11.2,5.6
			V292h-6v44.9h6L255.4,331.9L255.4,331.9z M265.9,310.4c6.5,0,10.1,5,10.1,10.9s-3.6,10.9-10.1,10.9c-6.3,0-10.5-4.5-10.6-10.9
			C255.3,315,259.6,310.4,265.9,310.4z"/>
		<path class="st0" d="M133.1,305.8v5.2c-3-4.2-7.1-5.6-11.2-5.6c-9.3,0-15.4,7.3-15.4,16.2c0,8.9,6.1,16.2,15.4,16.2
			c4.2,0,8.2-1.4,11.2-5.6v4.2c0,6.6-4.2,10.1-10.2,10.1c-3.9,0-7.3-1.1-10.7-3.8l-2.2,4.9c2.9,2.3,6.6,4.2,12.9,4.2
			c8.5,0,16.2-4.5,16.2-14.8v-31L133.1,305.8L133.1,305.8z M122.7,332.4c-6.5,0-10.1-5-10.1-10.9s3.6-10.9,10.1-10.9
			c6.3,0,10.5,4.6,10.6,10.9C133.2,327.8,128.9,332.4,122.7,332.4z"/>
		<path class="st0" d="M100,305.8h-6v5.2c-2.9-4.2-7.1-5.6-11.2-5.6c-9.3,0-15.4,7.3-15.4,16.2c0,8.9,6.1,16.2,15.4,16.2h0.1
			c0.4,0,0.7,0,1.1-0.1c0.1,0,0.3,0,0.4-0.1c0.4-0.1,0.8-0.1,1.2-0.1c0.8-0.1,1.6-0.4,2.4-0.6c0.7-0.3,1.3-0.6,1.9-0.9
			c0.4-0.3,0.9-0.6,1.3-0.9s0.8-0.6,1.2-1c0.2-0.2,0.4-0.4,0.6-0.6c0.4-0.5,0.8-1,1.2-1.5c0.2-0.3,0.4-0.6,0.5-0.9
			c0.1-0.2,0.2-0.3,0.3-0.5c0.8,3.8,2.7,7.7,5.2,9.8l2.6-5.6c-1.5-1.8-2.6-4.5-2.6-8C100,326.5,100,305.8,100,305.8z M83.5,332.4
			c-6.5,0-10.1-5-10.1-10.9s3.6-10.9,10.1-10.9c6.3,0,10.5,4.6,10.6,10.9C94,327.8,89.8,332.4,83.5,332.4z"/>
		<path class="st0" d="M174.7,305.4c-8.9,0-16.3,7.2-16.2,16.2c0,8.9,7.3,16.2,16.2,16.2c9,0,16.3-7.2,16.3-16.2
			S183.8,305.4,174.7,305.4z M174.7,332.4c-5.7,0-10.3-4.9-10.2-10.8c0-6,4.6-10.9,10.2-10.9c5.7,0,10.3,4.9,10.3,10.9
			C185,327.5,180.4,332.4,174.7,332.4z"/>
		<path class="st0" d="M149.8,345.7c0.9-0.2,1.3-0.8,1.3-1.5c0-1-0.9-1.7-2.1-1.7h-2.3v6.5h2.6c1.3,0,2.1-0.7,2.1-1.7
			C151.4,346.5,150.8,345.8,149.8,345.7z M147.6,343.3h1.3c0.6,0,1.2,0.3,1.2,1c0,0.6-0.4,1.2-1.5,1.2h-1V343.3z M149.2,348.2h-1.7
			v-2.1h1.2c1.2,0,1.7,0.6,1.7,1.2S149.9,348.2,149.2,348.2z"/>
		<rect x="158.1" y="342.6" class="st0" width="0.9" height="6.5"/>
		<path class="st0" d="M169.1,342.5c-1.8,0-3.3,1.5-3.3,3.3s1.5,3.3,3.3,3.3s3.3-1.5,3.3-3.3S170.9,342.5,169.1,342.5z M169.1,348.3
			c-1.3,0-2.4-1.1-2.4-2.5s1.1-2.5,2.4-2.5s2.4,1.1,2.4,2.5S170.4,348.3,169.1,348.3z"/>
		<path class="st0" d="M189.3,345.6l-1-0.4c-0.8-0.3-0.8-0.6-0.8-0.9c0-0.6,0.5-1,1.2-1s1.2,0.3,1.3,1l0.8-0.3
			c-0.2-0.9-1-1.5-2.1-1.5s-2,0.7-2,1.8c0,0.6,0.2,1.3,1.5,1.7l1,0.3c0.5,0.2,1,0.5,1,1s-0.5,1-1.3,1s-1.3-0.5-1.5-1l-1,0.3
			c0.2,0.9,1.1,1.6,2.4,1.6c1.3,0,2.2-0.7,2.2-1.9C190.8,346.6,190.4,345.9,189.3,345.6z"/>
		<path class="st0" d="M200.6,342.5c-1.9,0-3.3,1.5-3.3,3.3s1.5,3.3,3.3,3.3c1.9,0,3.3-1.5,3.3-3.3S202.4,342.5,200.6,342.5z
			 M200.6,348.3c-1.3,0-2.4-1.1-2.4-2.5s1-2.5,2.4-2.5c1.3,0,2.4,1.1,2.4,2.5S201.9,348.3,200.6,348.3z"/>
		<polygon class="st0" points="211.5,342.6 210.6,342.6 210.6,349 214.4,349 214.4,348.2 211.5,348.2 		"/>
		<path class="st0" d="M224.7,346.6c0,1.2-0.7,1.7-1.6,1.7c-0.8,0-1.6-0.6-1.6-1.7v-4h-0.9v4c0,1.7,1.2,2.5,2.6,2.5s2.6-0.9,2.6-2.5
			v-4h-1v4H224.7z"/>
		<polygon class="st0" points="232.1,343.3 234.2,343.3 234.2,349 235.1,349 235.1,343.3 237.2,343.3 237.2,342.6 232.1,342.6 		"/>
		<rect x="243.8" y="342.6" class="st0" width="0.9" height="6.5"/>
		<path class="st0" d="M254.7,342.5c-1.9,0-3.3,1.5-3.3,3.3s1.5,3.3,3.3,3.3s3.3-1.5,3.3-3.3S256.5,342.5,254.7,342.5z M254.7,348.3
			c-1.3,0-2.4-1.1-2.4-2.5s1-2.5,2.4-2.5c1.3,0,2.4,1.1,2.4,2.5S256,348.3,254.7,348.3z"/>
		<polygon class="st0" points="269,347.2 265.5,342.5 264.8,342.5 264.8,348.9 265.7,348.9 265.7,344.2 269.3,348.9 270,348.9 
			270,342.5 269,342.5 		"/>
		<path class="st0" d="M279.4,345.6l-1-0.4c-0.8-0.3-0.8-0.6-0.8-0.9c0-0.6,0.5-1,1.2-1c0.6,0,1.2,0.3,1.3,1l0.8-0.3
			c-0.2-0.9-1-1.5-2.1-1.5s-2,0.7-2,1.8c0,0.6,0.2,1.3,1.5,1.7l1,0.3c0.5,0.2,1,0.5,1,1s-0.5,1-1.3,1s-1.3-0.5-1.5-1l-1,0.3
			c0.2,0.9,1.1,1.6,2.4,1.6s2.2-0.7,2.2-1.9C281,346.6,280.5,345.9,279.4,345.6z"/>
		<path class="st0" d="M164,299.5c-1.9,0.3-3.2,0.1-5,0.4c-0.5,0.1-1.1,0.2-1.5,0.4c-2.7,1-4.8,3.4-5.7,7.2v-6.8h-6v36h6v-17
			c-0.1-8.9,2.4-12.1,4.6-13.1c0.9-0.4,1.8-0.8,2.9-0.9c0.3,0,0.4,0,0.7-0.1c0.8-0.1,1.6-0.1,2.4-0.3c0.1,0,0.3-0.1,0.4-0.1
			c4.6-1,6.1-5.4,7.8-9.2C170.7,296,167.4,299,164,299.5z"/>
	</g>
	<g>
		<path class="st0" d="M407.2,328.4c-0.3,0.1-0.6,0.3-0.9,0.4C406.6,328.7,406.9,328.6,407.2,328.4z M406.3,328.8
			c-0.3,0.1-0.7,0.2-1.1,0.3C405.6,329.1,406,329,406.3,328.8z"/>
		<path class="st0" d="M460.6,328.8h-2.8v-21h2.8V328.8z"/>
		<path class="st0" d="M470.9,313.9c1.9,0,3.9,0.7,5.3,2.6v-2.3h2.8v14.5h-2.8v-2.3c-1.4,2-3.3,2.6-5.3,2.6c-4.4,0-7.2-3.4-7.2-7.6
			S466.6,313.9,470.9,313.9z M471.3,316.5c-3,0-4.7,2.3-4.7,5.1c0,2.8,1.7,5.1,4.7,5.1c2.9,0,4.9-2.2,5-5.1
			C476.2,318.6,474.2,316.5,471.3,316.5z"/>
		<path class="st0" d="M490.2,329.1c-1.9,0-3.9-0.7-5.3-2.6v2.3h-2.8v-21h2.8v8.8c1.4-2,3.3-2.6,5.3-2.6c4.4,0,7.2,3.4,7.2,7.6
			S494.5,329.1,490.2,329.1z M489.8,326.6c3,0,4.7-2.3,4.7-5.1c0-2.8-1.7-5.1-4.7-5.1c-2.9,0-4.9,2.2-5,5.1
			C484.9,324.5,486.9,326.6,489.8,326.6z"/>
		<g>
			<rect x="433.5" y="311.9" class="st0" width="2.8" height="16.9"/>
		</g>
		<path class="st0" d="M427.6,314.3v2.4c-1.4-2-3.3-2.6-5.3-2.6c-4.4,0-7.2,3.4-7.2,7.6s2.8,7.6,7.2,7.6c1.9,0,3.9-0.7,5.3-2.6v1.9
			c0,3.1-1.9,4.7-4.8,4.7c-1.8,0-3.4-0.5-5-1.8l-1,2.3c1.4,1.1,3.1,1.9,6.1,1.9c4,0,7.6-2.1,7.6-7v-14.5L427.6,314.3L427.6,314.3z
			 M422.7,326.7c-3,0-4.7-2.3-4.7-5.1c0-2.8,1.7-5.1,4.7-5.1c2.9,0,4.9,2.2,5,5.1C427.6,324.6,425.6,326.7,422.7,326.7z"/>
		<path class="st0" d="M412,324.1c0-0.1,0-9.8,0-9.8h-2.8v2.4c-1.4-2-3.3-2.6-5.3-2.6c-4.4,0-7.2,3.4-7.2,7.6s2.8,7.6,7.2,7.6l0,0
			c0.2,0,0.3,0,0.5,0c0.1,0,0.1,0,0.2,0c0.2,0,0.4,0,0.5-0.1c0.4-0.1,0.7-0.2,1.1-0.3c0.3-0.1,0.6-0.3,0.9-0.4
			c0.2-0.1,0.4-0.3,0.6-0.4s0.4-0.3,0.5-0.4s0.2-0.2,0.3-0.3c0.2-0.2,0.4-0.4,0.5-0.7c0.1-0.1,0.2-0.3,0.2-0.4s0.1-0.1,0.1-0.2
			c0.4,1.8,1.3,3.6,2.4,4.6l1.2-2.6C412.5,327,412,325.7,412,324.1z M404.3,326.7c-3,0-4.7-2.3-4.7-5.1c0-2.8,1.7-5.1,4.7-5.1
			c2.9,0,4.9,2.2,5,5.1C409.2,324.6,407.2,326.7,404.3,326.7z"/>
		<path class="st0" d="M447.1,314.1c4.2,0,7.6,3.4,7.6,7.6s-3.4,7.6-7.6,7.6s-7.6-3.4-7.6-7.6C439.4,317.5,442.9,314.1,447.1,314.1z
			 M447.1,326.7c2.7,0,4.8-2.3,4.8-5.1c0-2.8-2.2-5.1-4.8-5.1c-2.6,0-4.8,2.3-4.8,5.1C442.3,324.5,444.4,326.7,447.1,326.7z"/>
		<path class="st0" d="M442.1,311.3c-0.9,0.1-1.5,0-2.4,0.2c-0.2,0-0.5,0.1-0.7,0.2c-1.3,0.4-2.3,1.6-2.7,3.4v5.7
			c0-4.2,1.1-5.7,2.2-6.2c0.4-0.2,0.9-0.4,1.4-0.4c0.1,0,0.2,0,0.3,0c0.4,0,0.7-0.1,1.1-0.1c0.1,0,0.1,0,0.2,0
			c2.2-0.4,2.9-2.5,3.7-4.3C445.2,309.7,443.6,311.1,442.1,311.3z"/>
	</g>
</g>
<rect x="-0.2" y="440.9" class="st0" width="575.3" height="216.8"/>
<g>
	<g>
		<path class="st2" d="M89.7,564.9c-0.6,0.3-1.2,0.6-1.9,0.9C88.4,565.5,89,565.3,89.7,564.9z M87.8,565.8c-0.7,0.3-1.5,0.4-2.4,0.6
			C86.2,566.3,87,566,87.8,565.8z"/>
		<path class="st2" d="M203.6,565.7h-6v-44.9h6V565.7z"/>
		<path class="st2" d="M225.5,534c4.2,0,8.2,1.4,11.2,5.6v-5h6v31h-6v-5c-3,4.2-7.1,5.6-11.2,5.6c-9.3,0-15.4-7.3-15.4-16.2
			C210.1,541.2,216.3,534,225.5,534z M226.3,539.4c-6.5,0-10.1,5-10.1,10.9s3.6,10.9,10.1,10.9c6.3,0,10.5-4.6,10.6-10.9
			C236.9,544,232.6,539.4,226.3,539.4z"/>
		<path class="st2" d="M266.6,566.4c-4.2,0-8.2-1.4-11.2-5.6v5h-6v-44.9h6v18.8c3-4.2,7.1-5.6,11.2-5.6c9.3,0,15.4,7.3,15.4,16.2
			C282,559.1,275.9,566.4,266.6,566.4z M265.9,561.1c6.5,0,10.1-5,10.1-10.9s-3.6-10.9-10.1-10.9c-6.3,0-10.5,4.6-10.6,10.9
			C255.3,556.5,259.6,561.1,265.9,561.1z"/>
		<path class="st2" d="M133.1,534.7v5.2c-3-4.2-7.1-5.6-11.2-5.6c-9.3,0-15.4,7.3-15.4,16.2s6.1,16.2,15.4,16.2
			c4.2,0,8.2-1.4,11.2-5.6v4.2c0,6.6-4.2,10.1-10.2,10.1c-3.9,0-7.3-1.1-10.7-3.8l-2.2,4.9c2.9,2.3,6.6,4.2,12.9,4.2
			c8.5,0,16.2-4.5,16.2-14.8v-31L133.1,534.7L133.1,534.7z M122.7,561.3c-6.5,0-10.1-5-10.1-10.9s3.6-10.9,10.1-10.9
			c6.3,0,10.5,4.6,10.6,10.9C133.2,556.7,128.9,561.3,122.7,561.3z"/>
		<path class="st2" d="M100,555.6c0-0.3,0-20.9,0-20.9h-6v5.2c-2.9-4.2-7.1-5.6-11.2-5.6c-9.3,0-15.4,7.3-15.4,16.2
			s6.1,16.2,15.4,16.2h0.1c0.4,0,0.7,0,1.1-0.1c0.1,0,0.3,0,0.4-0.1c0.4-0.1,0.8-0.1,1.2-0.1c0.8-0.1,1.6-0.4,2.4-0.6
			c0.7-0.3,1.3-0.6,1.9-0.9c0.4-0.3,0.9-0.6,1.3-0.9c0.4-0.3,0.8-0.6,1.2-1c0.2-0.2,0.4-0.4,0.6-0.6c0.4-0.5,0.8-1,1.2-1.5
			c0.2-0.3,0.4-0.6,0.5-0.9c0.1-0.2,0.2-0.3,0.3-0.5c0.8,3.8,2.7,7.7,5.2,9.8l2.6-5.6C101.1,561.8,100,559.1,100,555.6z M83.5,561.3
			c-6.5,0-10.1-5-10.1-10.9s3.6-10.9,10.1-10.9c6.3,0,10.5,4.6,10.6,10.9C94,556.7,89.8,561.3,83.5,561.3z"/>
		<path class="st2" d="M174.7,534.3c9,0,16.3,7.3,16.3,16.2s-7.3,16.2-16.3,16.2c-8.9,0-16.2-7.2-16.2-16.2
			C158.4,541.5,165.8,534.3,174.7,534.3z M174.7,561.3c5.7,0,10.3-4.9,10.3-10.8c0-6-4.6-10.9-10.3-10.9c-5.6,0-10.2,4.9-10.2,10.9
			S169.1,561.3,174.7,561.3z"/>
		<path class="st2" d="M164,528.5c-1.9,0.3-3.2,0.1-5,0.4c-0.5,0.1-1.1,0.2-1.5,0.4c-2.7,1-4.9,3.5-5.7,7.2v-6.8h-6v36h6v-17.1
			c-0.1-8.9,2.4-12.1,4.6-13.2c0.9-0.4,1.9-0.8,2.9-0.9c0.3,0,0.4,0,0.7-0.1c0.8-0.1,1.6-0.1,2.4-0.3c0.1,0,0.3-0.1,0.4-0.1
			c4.6-1,6.1-5.4,7.9-9.2C170.7,525,167.3,528,164,528.5z"/>
		<g>
			<path class="st2" d="M149.8,574.6c1,0.1,1.5,0.8,1.5,1.6c0,1-0.8,1.7-2.1,1.7h-2.6v-6.5h2.3c1.2,0,2.1,0.6,2.1,1.7
				C151.1,573.8,150.7,574.4,149.8,574.6z M148.6,574.3c1.2,0,1.5-0.6,1.5-1.2c0-0.6-0.6-1-1.2-1h-1.3v2.1h1V574.3z M147.6,575v2.1
				h1.7c0.7,0,1.2-0.4,1.2-1s-0.5-1.2-1.7-1.2h-1.2V575z"/>
			<path class="st2" d="M159,577.9h-0.9v-6.5h0.9V577.9z"/>
			<path class="st2" d="M169.1,571.4c1.9,0,3.3,1.5,3.3,3.3s-1.5,3.3-3.3,3.3c-1.9,0-3.3-1.5-3.3-3.3
				C165.7,572.9,167.3,571.4,169.1,571.4z M169.1,577.2c1.3,0,2.4-1.1,2.4-2.5s-1.1-2.5-2.4-2.5c-1.3,0-2.4,1.1-2.4,2.5
				C166.7,576.1,167.8,577.2,169.1,577.2z"/>
			<path class="st2" d="M187.2,576.2c0.1,0.5,0.7,1,1.5,1s1.3-0.4,1.3-1s-0.4-0.8-1-1l-1-0.3c-1.3-0.4-1.5-1.2-1.5-1.7
				c0-1.1,1-1.8,2-1.8c1.2,0,1.9,0.6,2.1,1.5l-0.8,0.3c-0.1-0.6-0.6-1-1.3-1s-1.2,0.3-1.2,1c0,0.3,0.1,0.6,0.8,0.9l1,0.4
				c1.1,0.3,1.5,1,1.5,1.7c0,1.2-0.9,1.9-2.2,1.9s-2.2-0.7-2.4-1.6L187.2,576.2z"/>
			<path class="st2" d="M200.6,571.4c1.9,0,3.3,1.5,3.3,3.3s-1.5,3.3-3.3,3.3c-1.9,0-3.3-1.5-3.3-3.3S198.7,571.4,200.6,571.4z
				 M200.6,577.2c1.3,0,2.4-1.1,2.4-2.5s-1.1-2.5-2.4-2.5c-1.3,0-2.4,1.1-2.4,2.5C198.1,576.1,199.2,577.2,200.6,577.2z"/>
			<path class="st2" d="M214.4,577.9h-3.8v-6.5h0.9v5.7h2.9L214.4,577.9L214.4,577.9z"/>
			<path class="st2" d="M225.7,571.5v4c0,1.6-1.2,2.5-2.6,2.5c-1.4,0-2.6-0.8-2.6-2.5v-4h0.9v4c0,1.1,0.8,1.7,1.6,1.7
				c0.9,0,1.6-0.5,1.6-1.7v-4H225.7z"/>
			<path class="st2" d="M237.2,571.5v0.8h-2.1v5.7h-0.9v-5.7H232v-0.8H237.2z"/>
			<path class="st2" d="M244.7,577.9h-0.9v-6.5h0.9V577.9z"/>
			<path class="st2" d="M254.7,571.4c1.9,0,3.3,1.5,3.3,3.3s-1.5,3.3-3.3,3.3c-1.9,0-3.3-1.5-3.3-3.3S252.8,571.4,254.7,571.4z
				 M254.7,577.2c1.3,0,2.4-1.1,2.4-2.5s-1.1-2.5-2.4-2.5c-1.3,0-2.4,1.1-2.4,2.5C252.3,576.1,253.3,577.2,254.7,577.2z"/>
			<path class="st2" d="M265.7,573.1v4.7h-0.9v-6.5h0.7l3.5,4.7v-4.7h1v6.5h-0.7L265.7,573.1z"/>
			<path class="st2" d="M277.3,576.2c0.1,0.5,0.7,1,1.5,1s1.3-0.4,1.3-1s-0.4-0.8-1-1l-1-0.3c-1.3-0.4-1.5-1.2-1.5-1.7
				c0-1.1,1-1.8,2-1.8c1.2,0,1.9,0.6,2.1,1.5l-0.8,0.3c-0.1-0.6-0.6-1-1.3-1s-1.2,0.3-1.2,1c0,0.3,0.1,0.6,0.8,0.9l1,0.4
				c1.1,0.3,1.5,1,1.5,1.7c0,1.2-0.9,1.9-2.2,1.9c-1.3,0-2.2-0.7-2.4-1.6L277.3,576.2z"/>
		</g>
	</g>
	<g>
		<path class="st2" d="M407.2,557.3c-0.3,0.1-0.6,0.3-0.9,0.4C406.6,557.6,406.9,557.5,407.2,557.3z M406.3,557.8
			c-0.3,0.1-0.7,0.2-1.1,0.3C405.6,558,406,557.9,406.3,557.8z"/>
		<path class="st2" d="M460.6,557.7h-2.8v-21h2.8V557.7z"/>
		<path class="st2" d="M470.9,542.9c1.9,0,3.9,0.7,5.3,2.6v-2.3h2.8v14.5h-2.8v-2.3c-1.4,2-3.3,2.6-5.3,2.6c-4.4,0-7.2-3.4-7.2-7.6
			S466.6,542.9,470.9,542.9z M471.3,545.4c-3,0-4.7,2.3-4.7,5.1s1.7,5.1,4.7,5.1c2.9,0,4.9-2.2,5-5.1
			C476.2,547.5,474.2,545.4,471.3,545.4z"/>
		<path class="st2" d="M490.2,558.1c-1.9,0-3.9-0.7-5.3-2.6v2.3h-2.8v-21h2.8v8.8c1.4-2,3.3-2.6,5.3-2.6c4.4,0,7.2,3.4,7.2,7.6
			S494.5,558.1,490.2,558.1z M489.8,555.5c3,0,4.7-2.3,4.7-5.1s-1.7-5.1-4.7-5.1c-2.9,0-4.9,2.2-5,5.1
			C484.9,553.4,486.9,555.5,489.8,555.5z"/>
		<g>
			<rect x="433.5" y="540.9" class="st2" width="2.8" height="16.9"/>
		</g>
		<path class="st2" d="M427.6,543.2v2.4c-1.4-2-3.3-2.6-5.3-2.6c-4.4,0-7.2,3.4-7.2,7.6s2.8,7.6,7.2,7.6c1.9,0,3.9-0.7,5.3-2.6v1.9
			c0,3.1-1.9,4.7-4.8,4.7c-1.8,0-3.4-0.5-5-1.8l-1,2.3c1.4,1.1,3.1,1.9,6.1,1.9c4,0,7.6-2.1,7.6-7v-14.5L427.6,543.2L427.6,543.2z
			 M422.7,555.7c-3,0-4.7-2.3-4.7-5.1s1.7-5.1,4.7-5.1c2.9,0,4.9,2.2,5,5.1C427.6,553.5,425.6,555.7,422.7,555.7z"/>
		<path class="st2" d="M412,553c0-0.1,0-9.8,0-9.8h-2.8v2.4c-1.4-2-3.3-2.6-5.3-2.6c-4.4,0-7.2,3.4-7.2,7.6s2.8,7.6,7.2,7.6l0,0
			c0.2,0,0.3,0,0.5,0c0.1,0,0.1,0,0.2,0c0.2,0,0.4,0,0.5-0.1c0.4-0.1,0.7-0.2,1.1-0.3c0.3-0.1,0.6-0.3,0.9-0.4
			c0.2-0.1,0.4-0.3,0.6-0.4c0.2-0.1,0.4-0.3,0.5-0.4c0.1-0.1,0.2-0.2,0.3-0.3c0.2-0.2,0.4-0.4,0.5-0.7c0.1-0.1,0.2-0.3,0.2-0.4
			c0-0.1,0.1-0.1,0.1-0.2c0.4,1.8,1.3,3.6,2.4,4.6l1.2-2.6C412.5,555.9,412,554.6,412,553z M404.3,555.7c-3,0-4.7-2.3-4.7-5.1
			s1.7-5.1,4.7-5.1c2.9,0,4.9,2.2,5,5.1C409.2,553.5,407.2,555.7,404.3,555.7z"/>
		<path class="st2" d="M447.1,543c4.2,0,7.6,3.4,7.6,7.6c0,4.2-3.4,7.6-7.6,7.6s-7.6-3.4-7.6-7.6C439.4,546.4,442.9,543,447.1,543z
			 M447.1,555.7c2.7,0,4.8-2.3,4.8-5.1s-2.2-5.1-4.8-5.1c-2.6,0-4.8,2.3-4.8,5.1C442.3,553.4,444.4,555.7,447.1,555.7z"/>
		<path class="st2" d="M442.1,540.3c-0.9,0.1-1.5,0-2.4,0.2c-0.2,0-0.5,0.1-0.7,0.2c-1.3,0.4-2.3,1.6-2.7,3.4v5.7
			c0-4.2,1.1-5.7,2.2-6.2c0.4-0.2,0.9-0.4,1.4-0.4c0.1,0,0.2,0,0.3,0c0.4,0,0.7-0.1,1.1-0.1c0.1,0,0.1,0,0.2,0
			c2.2-0.4,2.9-2.5,3.7-4.3C445.2,538.6,443.6,540,442.1,540.3z"/>
	</g>
</g>
</svg>
