<?xml version="1.0" encoding="utf-8"?>
<!-- Generator: Adobe Illustrator 22.1.0, SVG Export Plug-In . SVG Version: 6.00 Build 0)  -->
<svg version="1.1" id="Layer_1" xmlns="http://www.w3.org/2000/svg" xmlns:xlink="http://www.w3.org/1999/xlink" x="0px" y="0px"
	 viewBox="0 0 576 576" style="enable-background:new 0 0 576 576;" xml:space="preserve">
<style type="text/css">
	.st0{fill:#31393D;}
	.st1{fill:#9AD450;}
</style>
<path d="M-391.8,318.3c-0.9,0.5-1.9,1-3,1.4C-393.8,319.3-392.8,318.9-391.8,318.3z M-394.8,319.7c-1.1,0.4-2.4,0.7-3.7,1
	C-397.2,320.5-396,320.1-394.8,319.7z"/>
<path class="st0" d="M-213.6,319.6h-9.4v-70.2h9.4V319.6z"/>
<path class="st0" d="M-179.2,270c6.5,0,12.9,2.2,17.6,8.8V271h9.4v48.5h-9.4v-7.8c-4.7,6.6-11.1,8.8-17.6,8.8
	c-14.6,0-24.1-11.4-24.1-25.3S-193.7,270-179.2,270z M-178,278.4c-10.1,0-15.8,7.8-15.8,17s5.7,17,15.8,17c9.8,0,16.5-7.2,16.6-17
	C-161.5,285.6-168.2,278.4-178,278.4z"/>
<path class="st0" d="M-114.9,320.7c-6.5,0-12.9-2.2-17.6-8.8v7.8h-9.4v-70.2h9.4v29.4c4.7-6.6,11.1-8.8,17.6-8.8
	c14.6,0,24.1,11.4,24.1,25.3S-100.4,320.7-114.9,320.7z M-116.1,312.3c10.1,0,15.8-7.8,15.8-17s-5.7-17-15.8-17
	c-9.8,0-16.5,7.2-16.6,17C-132.6,305.2-125.9,312.3-116.1,312.3z"/>
<g>
	<rect x="-304.1" y="263.3" class="st1" width="9.4" height="56.4"/>
</g>
<path class="st1" d="M-323.8,271.1v8.1c-4.7-6.6-11.1-8.8-17.6-8.8c-14.6,0-24.1,11.4-24.1,25.3s9.5,25.3,24.1,25.3
	c6.5,0,12.9-2.2,17.6-8.8v6.5c0,10.4-6.5,15.8-15.9,15.8c-6.1,0-11.4-1.7-16.7-5.9l-3.5,7.6c4.6,3.6,10.3,6.5,20.2,6.5
	c13.3,0,25.3-7.1,25.3-23.2V271h-9.4V271.1z M-340.2,312.7c-10.1,0-15.8-7.8-15.8-17s5.7-17,15.8-17c9.8,0,16.5,7.2,16.6,17
	C-323.7,305.5-330.4,312.7-340.2,312.7z"/>
<path class="st1" d="M-375.7,303.8c0-0.4,0-32.7,0-32.7h-9.4v8.1c-4.6-6.6-11.1-8.8-17.6-8.8c-14.6,0-24.1,11.4-24.1,25.3
	s9.5,25.3,24.1,25.3h0.1c0.6,0,1.1,0,1.7-0.1c0.2,0,0.4,0,0.6-0.1c0.6-0.1,1.2-0.1,1.8-0.2c1.3-0.2,2.5-0.6,3.7-1
	c1.1-0.4,2.1-0.9,3-1.4c0.7-0.4,1.4-0.9,2.1-1.4c0.6-0.5,1.2-1,1.8-1.5c0.3-0.3,0.6-0.6,1-1c0.7-0.8,1.3-1.5,1.8-2.3
	c0.3-0.4,0.6-0.9,0.8-1.4c0.1-0.3,0.3-0.5,0.4-0.8c1.2,6,4.3,12.1,8.1,15.3l4.1-8.8C-374,313.5-375.7,309.3-375.7,303.8z
	 M-401.5,312.7c-10.1,0-15.8-7.8-15.8-17s5.7-17,15.8-17c9.8,0,16.5,7.2,16.6,17C-385,305.5-391.7,312.7-401.5,312.7z"/>
<path class="st1" d="M-258.7,270.4c14.1,0,25.5,11.4,25.5,25.3c0,14-11.4,25.3-25.5,25.3c-14,0-25.4-11.3-25.4-25.3
	C-284.2,281.7-272.7,270.4-258.7,270.4z M-258.7,312.7c8.9,0,16.1-7.6,16.1-16.9c0-9.4-7.2-17.1-16.1-17.1c-8.8,0-16,7.7-16,17.1
	C-274.8,305.1-267.6,312.7-258.7,312.7z"/>
<path class="st1" d="M-275.5,261.3c-3,0.4-5,0.1-7.9,0.7c-0.8,0.1-1.7,0.3-2.4,0.6c-4.2,1.5-7.6,5.4-8.9,11.3V293
	c-0.1-13.9,3.7-18.9,7.2-20.6c1.4-0.7,2.9-1.3,4.6-1.4c0.4,0,0.7,0,1.1-0.1c1.3-0.1,2.5-0.2,3.8-0.4c0.2,0,0.5-0.1,0.7-0.1
	c7.2-1.5,9.6-8.4,12.3-14.4C-265.1,255.9-270.3,260.6-275.5,261.3z"/>
<g>
	<path d="M-297.7,333.5c1.6,0.2,2.4,1.2,2.4,2.5c0,1.6-1.3,2.7-3.3,2.7h-4v-10.1h3.6c1.9,0,3.3,1,3.3,2.6
		C-295.7,332.3-296.3,333.2-297.7,333.5z M-299.6,333.1c1.8,0,2.4-0.9,2.4-1.8c0-1-0.9-1.5-1.8-1.5h-2.1v3.3H-299.6z M-301.2,334.2
		v3.3h2.6c1.1,0,1.9-0.6,1.9-1.5s-0.8-1.8-2.6-1.8H-301.2z"/>
	<path d="M-283.3,338.7h-1.4v-10.1h1.4V338.7z"/>
	<path d="M-267.6,328.5c2.9,0,5.2,2.3,5.2,5.2c0,2.9-2.3,5.2-5.2,5.2c-2.9,0-5.2-2.3-5.2-5.2C-272.8,330.8-270.4,328.5-267.6,328.5z
		 M-267.6,337.6c2.1,0,3.7-1.7,3.7-3.9c0-2.2-1.7-3.9-3.7-3.9s-3.7,1.7-3.7,3.9C-271.3,335.9-269.6,337.6-267.6,337.6z"/>
	<path d="M-239.2,336c0.2,0.8,1.1,1.6,2.3,1.6c1.3,0,2.1-0.7,2.1-1.5s-0.7-1.3-1.5-1.6l-1.5-0.5c-2-0.6-2.3-1.8-2.3-2.7
		c0-1.7,1.5-2.8,3.2-2.8c1.8,0,3,1,3.3,2.4l-1.3,0.4c-0.2-1-1-1.5-2-1.5s-1.8,0.5-1.8,1.5c0,0.4,0.1,1,1.3,1.4l1.5,0.6
		c1.7,0.5,2.4,1.6,2.4,2.7c0,1.8-1.4,2.9-3.5,2.9c-2,0-3.4-1.1-3.7-2.5L-239.2,336z"/>
	<path d="M-218.3,328.5c2.9,0,5.2,2.3,5.2,5.2c0,2.9-2.3,5.2-5.2,5.2c-2.9,0-5.2-2.3-5.2-5.2S-221.2,328.5-218.3,328.5z
		 M-218.3,337.6c2.1,0,3.7-1.7,3.7-3.9c0-2.2-1.7-3.9-3.7-3.9c-2.1,0-3.7,1.7-3.7,3.9C-222.1,335.9-220.4,337.6-218.3,337.6z"/>
	<path d="M-196.6,338.7h-6v-10.1h1.4v8.9h4.6V338.7z"/>
	<path d="M-179,328.6v6.3c0,2.5-1.8,3.9-4,3.9s-4-1.3-4-3.9v-6.3h1.4v6.3c0,1.7,1.2,2.6,2.5,2.6c1.4,0,2.5-0.8,2.5-2.6v-6.3H-179z"
		/>
	<path d="M-160.9,328.6v1.2h-3.3v8.9h-1.4v-8.9h-3.4v-1.2H-160.9z"/>
	<path d="M-149.3,338.7h-1.4v-10.1h1.4V338.7z"/>
	<path d="M-133.6,328.5c2.9,0,5.2,2.3,5.2,5.2c0,2.9-2.3,5.2-5.2,5.2c-2.9,0-5.2-2.3-5.2-5.2C-138.8,330.8-136.5,328.5-133.6,328.5z
		 M-133.6,337.6c2.1,0,3.7-1.7,3.7-3.9c0-2.2-1.7-3.9-3.7-3.9c-2.1,0-3.7,1.7-3.7,3.9C-137.3,335.9-135.7,337.6-133.6,337.6z"/>
	<path d="M-116.4,331.2v7.4h-1.4v-10.1h1.1l5.5,7.4v-7.4h1.5v10.1h-1.1L-116.4,331.2z"/>
	<path d="M-98.2,336c0.2,0.8,1.1,1.6,2.3,1.6c1.3,0,2.1-0.7,2.1-1.5s-0.7-1.3-1.5-1.6l-1.5-0.5c-2-0.6-2.3-1.8-2.3-2.7
		c0-1.7,1.5-2.8,3.2-2.8c1.8,0,3,1,3.3,2.4l-1.3,0.4c-0.2-1-1-1.5-2-1.5s-1.8,0.5-1.8,1.5c0,0.4,0.1,1,1.3,1.4l1.5,0.6
		c1.7,0.5,2.4,1.6,2.4,2.7c0,1.8-1.4,2.9-3.5,2.9c-2,0-3.4-1.1-3.7-2.5L-98.2,336z"/>
</g>
<path d="M149.2,318.3c-1,0.5-2,1-3,1.4C147.2,319.3,148.2,318.9,149.2,318.3z M146.2,319.7c-1.2,0.4-2.4,0.8-3.7,1
	C143.8,320.5,145,320.1,146.2,319.7L146.2,319.7z"/>
<path class="st0" d="M327.4,319.6H318v-70.1h9.4L327.4,319.6z"/>
<path class="st0" d="M361.8,270c6.5,0,12.9,2.2,17.6,8.8v-7.7h9.4v48.5h-9.4v-7.8c-4.6,6.6-11.1,8.8-17.6,8.8
	c-14.5,0-24.1-11.5-24.1-25.3S347.3,270,361.8,270z M363,278.4c-10.1,0-15.8,7.8-15.8,17s5.7,17,15.8,17c9.8,0,16.5-7.2,16.6-17
	C379.5,285.6,372.8,278.4,363,278.4L363,278.4z"/>
<path class="st0" d="M426.1,320.7c-6.5,0-12.9-2.2-17.6-8.8v7.8h-9.4v-70.2h9.4v29.4c4.6-6.6,11.1-8.8,17.6-8.8
	c14.5,0,24.1,11.5,24.1,25.3S440.6,320.7,426.1,320.7z M424.9,312.3c10.1,0,15.8-7.8,15.8-17s-5.7-17-15.8-17
	c-9.8,0-16.5,7.2-16.6,17C408.4,305.2,415.1,312.3,424.9,312.3L424.9,312.3z"/>
<rect x="236.9" y="263.3" class="st1" width="9.4" height="56.4"/>
<path class="st1" d="M217.2,271.1v8.1c-4.7-6.6-11.1-8.8-17.6-8.8c-14.6,0-24.1,11.5-24.1,25.3s9.5,25.3,24.1,25.3
	c6.5,0,12.9-2.2,17.6-8.8v6.5c0,10.4-6.5,15.8-15.9,15.8c-6.1,0.1-12-2-16.7-5.9l-3.5,7.6c4.6,3.6,10.3,6.5,20.2,6.5
	c13.3,0,25.3-7.1,25.3-23.2v-48.4H217.2z M200.8,312.7c-10.1,0-15.8-7.8-15.8-17s5.7-17,15.8-17c9.8,0,16.5,7.2,16.6,17
	C217.3,305.5,210.6,312.7,200.8,312.7L200.8,312.7z"/>
<path class="st1" d="M165.3,303.8c0-0.4,0-32.7,0-32.7h-9.4v8.1c-4.6-6.6-11.1-8.8-17.6-8.8c-14.6,0-24.1,11.4-24.1,25.3
	s9.5,25.3,24.1,25.3h0.1c0.6,0,1.1,0,1.7-0.1l0.6-0.1c0.6,0,1.2-0.1,1.8-0.2c1.3-0.2,2.5-0.6,3.7-1c1-0.4,2-0.8,3-1.4
	c0.7-0.4,1.4-0.9,2.1-1.4c0.6-0.5,1.2-1,1.8-1.5c0.3-0.3,0.6-0.6,1-1c0.7-0.7,1.3-1.5,1.8-2.3c0.3-0.4,0.5-0.9,0.8-1.4
	c0.1-0.3,0.3-0.5,0.4-0.8c1.2,6,4.2,12.1,8.1,15.3l4.1-8.8C166.6,312.8,165.2,308.3,165.3,303.8z M139.5,312.7
	c-10.1,0-15.8-7.8-15.8-17s5.7-17,15.8-17c9.8,0,16.5,7.2,16.6,17C156,305.5,149.3,312.7,139.5,312.7z"/>
<path class="st1" d="M282.2,270.4c14,0,25.3,11.4,25.2,25.4s-11.4,25.3-25.4,25.2c-14,0-25.2-11.4-25.2-25.3
	C256.9,281.7,268.3,270.4,282.2,270.4z M282.2,312.7c8.9,0,16.1-7.6,16.1-16.9s-7.2-17.1-16.1-17.1s-16,7.7-16,17.1
	S273.4,312.7,282.2,312.7L282.2,312.7z"/>
<path class="st1" d="M264.9,260.2c-3,0.6-5,0.4-7.8,1c-0.8,0.1-1.6,0.4-2.4,0.7c-4.1,1.7-7.4,5.8-8.4,11.7v18.8
	c-0.7-13.9,3.7-18.7,7.1-20.7c1.4-0.8,2.9-1.4,4.5-1.6l1.1-0.1c1.3-0.1,2.5-0.3,3.8-0.6l0.7-0.2c7.1-1.9,9.2-8.9,11.6-15
	C275.1,254.3,270,259.3,264.9,260.2z"/>
<path d="M243.3,333.5c1.3,0,2.4,1.1,2.4,2.4c0,0,0,0,0,0c0,1.6-1.4,2.7-3.3,2.7h-4v-10h3.6c1.9,0,3.3,1,3.3,2.6
	C245.3,332.4,244.5,333.4,243.3,333.5z M241.3,333.1c1.8,0,2.4-0.9,2.4-1.8s-0.9-1.5-1.8-1.5h-2.1v3.3H241.3z M239.8,334.2v3.3h2.6
	c1.1,0,1.9-0.6,1.9-1.5s-0.8-1.8-2.6-1.8H239.8z"/>
<path d="M257.7,338.7h-1.4v-10h1.4V338.7z"/>
<path d="M273.4,328.5c2.9,0,5.2,2.3,5.1,5.2c0,2.9-2.3,5.2-5.2,5.1c-2.8,0-5.1-2.3-5.1-5.2C268.2,330.8,270.6,328.5,273.4,328.5z
	 M273.4,337.6c2.1,0.1,4-1.6,4-3.7c0.1-2.1-1.6-4-3.7-4c-2.1-0.1-4,1.6-4,3.7c0,0,0,0.1,0,0.1C269.6,335.8,271.3,337.5,273.4,337.6
	C273.4,337.5,273.4,337.5,273.4,337.6L273.4,337.6z"/>
<path d="M301.8,336c0.3,1,1.3,1.7,2.3,1.6c1.3,0,2.1-0.7,2.1-1.5s-0.7-1.3-1.5-1.6l-1.5-0.5c-2-0.6-2.3-1.8-2.3-2.7
	c0.1-1.7,1.6-2.9,3.2-2.8c0,0,0,0,0,0c1.5-0.1,2.9,0.9,3.3,2.4l-1.3,0.4c-0.2-0.9-1.1-1.6-2-1.5c-1,0-1.8,0.5-1.8,1.5
	c0,0.4,0.1,1,1.3,1.4l1.5,0.6c1.3,0.2,2.3,1.4,2.4,2.7c0,1.8-1.4,2.9-3.5,2.9c-1.7,0.1-3.2-0.9-3.7-2.5L301.8,336z"/>
<path d="M322.7,328.5c2.9,0,5.2,2.3,5.1,5.2c0,2.9-2.3,5.2-5.2,5.1c-2.8,0-5.1-2.3-5.1-5.2C317.5,330.8,319.8,328.5,322.7,328.5z
	 M322.7,337.6c2.1,0.1,4-1.6,4-3.7c0.1-2.1-1.6-4-3.7-4c-2.1-0.1-4,1.6-4,3.7c0,0,0,0.1,0,0.1C318.9,335.8,320.5,337.5,322.7,337.6
	C322.6,337.5,322.7,337.5,322.7,337.6L322.7,337.6z"/>
<path d="M344.4,338.7h-6v-10h1.4v8.9h4.6L344.4,338.7z"/>
<path d="M362,328.6v6.4c0,2.2-1.8,4-4,4s-4-1.8-4-4v-6.3h1.4v6.3c0,1.4,1.1,2.5,2.5,2.5s2.5-1.1,2.5-2.5c0,0,0,0,0,0v-6.3L362,328.6
	z"/>
<path d="M380.1,328.6v1.2h-3.4v8.9h-1.4v-8.9H372v-1.2H380.1z"/>
<path d="M391.7,338.7h-1.4v-10h1.4V338.7z"/>
<path d="M407.4,328.5c2.9,0,5.2,2.3,5.1,5.2c0,2.9-2.3,5.2-5.2,5.1c-2.8,0-5.1-2.3-5.1-5.2C402.2,330.8,404.5,328.5,407.4,328.5z
	 M407.4,337.6c2.1,0.1,4-1.6,4-3.7c0.1-2.1-1.6-4-3.7-4c-2.1-0.1-4,1.6-4,3.7c0,0,0,0.1,0,0.1C403.6,335.8,405.3,337.5,407.4,337.6
	C407.4,337.5,407.4,337.5,407.4,337.6L407.4,337.6z"/>
<path d="M424.6,331.2v7.4h-1.4v-10h1.1l5.5,7.4v-7.4h1.5v10h-1.1L424.6,331.2z"/>
<path d="M442.8,336c0.3,1,1.3,1.7,2.3,1.6c1.3,0,2.1-0.7,2.1-1.5s-0.7-1.3-1.5-1.6l-1.5-0.5c-2-0.6-2.3-1.8-2.3-2.7
	c0.1-1.7,1.6-2.9,3.2-2.8c0,0,0,0,0,0c1.5-0.1,2.9,0.9,3.3,2.4l-1.3,0.4c-0.2-0.9-1.1-1.6-2-1.5c-1,0-1.8,0.5-1.8,1.5
	c0,0.4,0.1,1,1.3,1.4l1.5,0.6c1.3,0.2,2.3,1.4,2.4,2.7c0,1.8-1.4,2.9-3.5,2.9c-1.7,0.1-3.2-0.9-3.7-2.5L442.8,336z"/>
</svg>
