<?xml version="1.0" encoding="utf-8"?>
<!-- Generator: Adobe Illustrator 22.1.0, SVG Export Plug-In . SVG Version: 6.00 Build 0)  -->
<svg version="1.1" id="Layer_1" xmlns="http://www.w3.org/2000/svg" xmlns:xlink="http://www.w3.org/1999/xlink" x="0px" y="0px"
	 viewBox="0 0 576 655.8" style="enable-background:new 0 0 576 655.8;" xml:space="preserve">
<style type="text/css">
	.st0{fill:#31393D;}
	.st1{fill:#9AD450;}
	.st2{fill:none;stroke:#31393D;stroke-width:0.6364;stroke-miterlimit:10;}
	.st3{fill:none;stroke:#31393D;stroke-width:0.9972;stroke-miterlimit:10;}
	.st4{fill:#FFFFFF;}
</style>
<g>
	<path d="M653,145.7c-0.9,0.5-1.9,1-3,1.4C651,146.7,652,146.3,653,145.7z M650,147.1c-1.1,0.4-2.4,0.7-3.7,1
		C647.6,147.9,648.8,147.5,650,147.1z"/>
	<path class="st0" d="M831.2,147h-9.4V76.8h9.4V147z"/>
	<path class="st0" d="M865.6,97.4c6.5,0,12.9,2.2,17.6,8.8v-7.8h9.4v48.5h-9.4v-7.8c-4.7,6.6-11.1,8.8-17.6,8.8
		c-14.6,0-24.1-11.4-24.1-25.3S851.1,97.4,865.6,97.4z M866.8,105.8c-10.1,0-15.8,7.8-15.8,17s5.7,17,15.8,17
		c9.8,0,16.5-7.2,16.6-17C883.3,113,876.6,105.8,866.8,105.8z"/>
	<path class="st0" d="M929.9,148.1c-6.5,0-12.9-2.2-17.6-8.8v7.8h-9.4V76.9h9.4v29.4c4.7-6.6,11.1-8.8,17.6-8.8
		c14.6,0,24.1,11.4,24.1,25.3S944.4,148.1,929.9,148.1z M928.7,139.7c10.1,0,15.8-7.8,15.8-17s-5.7-17-15.8-17
		c-9.8,0-16.5,7.2-16.6,17C912.2,132.6,918.9,139.7,928.7,139.7z"/>
	<path class="st1" d="M721,98.5v8.1c-4.7-6.6-11.1-8.8-17.6-8.8c-14.6,0-24.1,11.4-24.1,25.3s9.5,25.3,24.1,25.3
		c6.5,0,12.9-2.2,17.6-8.8v6.5c0,10.4-6.5,15.8-15.9,15.8c-6.1,0-11.4-1.7-16.7-5.9l-3.5,7.6c4.6,3.6,10.3,6.5,20.2,6.5
		c13.3,0,25.3-7.1,25.3-23.2V98.4L721,98.5L721,98.5L721,98.5z M704.6,140.1c-10.1,0-15.8-7.8-15.8-17s5.7-17,15.8-17
		c9.8,0,16.5,7.2,16.6,17C721.1,132.9,714.4,140.1,704.6,140.1z"/>
	<path class="st1" d="M669.1,131.2c0-0.4,0-32.7,0-32.7h-9.4v8.1c-4.6-6.6-11.1-8.8-17.6-8.8c-14.6,0-24.1,11.4-24.1,25.3
		s9.5,25.3,24.1,25.3h0.1c0.6,0,1.1,0,1.7-0.1c0.2,0,0.4,0,0.6-0.1c0.6-0.1,1.2-0.1,1.8-0.2c1.3-0.2,2.5-0.6,3.7-1
		c1.1-0.4,2.1-0.9,3-1.4c0.7-0.4,1.4-0.9,2.1-1.4c0.6-0.5,1.2-1,1.8-1.5c0.3-0.3,0.6-0.6,1-1c0.7-0.8,1.3-1.5,1.8-2.3
		c0.3-0.4,0.6-0.9,0.8-1.4c0.1-0.3,0.3-0.5,0.4-0.8c1.2,6,4.3,12.1,8.1,15.3l4.1-8.8C670.8,140.9,669.1,136.7,669.1,131.2z
		 M643.3,140.1c-10.1,0-15.8-7.8-15.8-17s5.7-17,15.8-17c9.8,0,16.5,7.2,16.6,17C659.8,132.9,653.1,140.1,643.3,140.1z"/>
	<path class="st1" d="M786.1,97.8c14.1,0,25.5,11.4,25.5,25.3c0,14-11.4,25.3-25.5,25.3c-14,0-25.4-11.3-25.4-25.3
		C760.6,109.1,772.1,97.8,786.1,97.8z M786.1,140.1c8.9,0,16.1-7.6,16.1-16.9c0-9.4-7.2-17.1-16.1-17.1c-8.8,0-16,7.7-16,17.1
		C770,132.5,777.2,140.1,786.1,140.1z"/>
	<path class="st1" d="M769.3,88.7c-3,0.4-5,0.1-7.9,0.7c-0.8,0.1-1.7,0.3-2.4,0.6c-4.2,1.5-7.6,5.4-8.9,11.3V90.7h-9.4v56.4h9.4
		v-26.7c-0.1-13.9,3.7-18.9,7.2-20.6c1.4-0.7,2.9-1.3,4.6-1.4c0.4,0,0.7,0,1.1-0.1c1.3-0.1,2.5-0.2,3.8-0.4c0.2,0,0.5-0.1,0.7-0.1
		c7.2-1.5,9.6-8.4,12.3-14.4C779.7,83.3,774.5,88,769.3,88.7z"/>
	<g>
		<path d="M747.1,160.9c1.6,0.2,2.4,1.2,2.4,2.5c0,1.6-1.3,2.7-3.3,2.7h-4V156h3.6c1.9,0,3.3,1,3.3,2.6
			C749.1,159.7,748.5,160.6,747.1,160.9z M745.2,160.5c1.8,0,2.4-0.9,2.4-1.8c0-1-0.9-1.5-1.8-1.5h-2.1v3.3H745.2z M743.6,161.6v3.3
			h2.6c1.1,0,1.9-0.6,1.9-1.5s-0.8-1.8-2.6-1.8H743.6z"/>
		<path d="M761.5,166.1h-1.4V156h1.4V166.1z"/>
		<path d="M777.2,155.9c2.9,0,5.2,2.3,5.2,5.2s-2.3,5.2-5.2,5.2s-5.2-2.3-5.2-5.2S774.4,155.9,777.2,155.9z M777.2,165
			c2.1,0,3.7-1.7,3.7-3.9s-1.7-3.9-3.7-3.9s-3.7,1.7-3.7,3.9S775.2,165,777.2,165z"/>
		<path d="M805.6,163.4c0.2,0.8,1.1,1.6,2.3,1.6c1.3,0,2.1-0.7,2.1-1.5s-0.7-1.3-1.5-1.6l-1.5-0.5c-2-0.6-2.3-1.8-2.3-2.7
			c0-1.7,1.5-2.8,3.2-2.8c1.8,0,3,1,3.3,2.4l-1.3,0.4c-0.2-1-1-1.5-2-1.5s-1.8,0.5-1.8,1.5c0,0.4,0.1,1,1.3,1.4l1.5,0.6
			c1.7,0.5,2.4,1.6,2.4,2.7c0,1.8-1.4,2.9-3.5,2.9c-2,0-3.4-1.1-3.7-2.5L805.6,163.4z"/>
		<path d="M826.5,155.9c2.9,0,5.2,2.3,5.2,5.2s-2.3,5.2-5.2,5.2s-5.2-2.3-5.2-5.2S823.6,155.9,826.5,155.9z M826.5,165
			c2.1,0,3.7-1.7,3.7-3.9s-1.7-3.9-3.7-3.9c-2.1,0-3.7,1.7-3.7,3.9C822.7,163.3,824.4,165,826.5,165z"/>
		<path d="M848.2,166.1h-6V156h1.4v8.9h4.6V166.1z"/>
		<path d="M865.8,156v6.3c0,2.5-1.8,3.9-4,3.9s-4-1.3-4-3.9V156h1.4v6.3c0,1.7,1.2,2.6,2.5,2.6c1.4,0,2.5-0.8,2.5-2.6V156H865.8z"/>
		<path d="M883.9,156v1.2h-3.3v8.9h-1.4v-8.9h-3.4V156H883.9z"/>
		<path d="M895.5,166.1h-1.4V156h1.4V166.1z"/>
		<path d="M911.2,155.9c2.9,0,5.2,2.3,5.2,5.2s-2.3,5.2-5.2,5.2s-5.2-2.3-5.2-5.2S908.3,155.9,911.2,155.9z M911.2,165
			c2.1,0,3.7-1.7,3.7-3.9s-1.7-3.9-3.7-3.9c-2.1,0-3.7,1.7-3.7,3.9S909.1,165,911.2,165z"/>
		<path d="M928.4,158.6v7.4H927v-10.1h1.1l5.5,7.4v-7.4h1.5V166H934L928.4,158.6z"/>
		<path d="M946.6,163.4c0.2,0.8,1.1,1.6,2.3,1.6c1.3,0,2.1-0.7,2.1-1.5s-0.7-1.3-1.5-1.6l-1.5-0.5c-2-0.6-2.3-1.8-2.3-2.7
			c0-1.7,1.5-2.8,3.2-2.8c1.8,0,3,1,3.3,2.4l-1.3,0.4c-0.2-1-1-1.5-2-1.5s-1.8,0.5-1.8,1.5c0,0.4,0.1,1,1.3,1.4l1.5,0.6
			c1.7,0.5,2.4,1.6,2.4,2.7c0,1.8-1.4,2.9-3.5,2.9c-2,0-3.4-1.1-3.7-2.5L946.6,163.4z"/>
	</g>
</g>
<g>
	<g>
		<path d="M90.3,336.4c-0.6,0.3-1.3,0.6-1.9,0.9C89,337.1,89.6,336.8,90.3,336.4z M88.3,337.3c-0.8,0.3-1.5,0.5-2.3,0.6
			C86.8,337.8,87.6,337.6,88.3,337.3L88.3,337.3z"/>
		<path class="st0" d="M204,337.2h-6v-44.8h6V337.2z"/>
		<path class="st0" d="M226,305.6c4.1,0,8.2,1.4,11.2,5.6v-4.9h6v31h-6v-5c-3,4.2-7.1,5.6-11.2,5.6c-9.3,0-15.4-7.3-15.4-16.2
			C210.6,312.9,216.7,305.6,226,305.6z M226.7,310.9c-6.4,0-10.1,5-10.1,10.9s3.7,10.9,10.1,10.9c6.3,0,10.5-4.6,10.6-10.9
			C237.2,315.5,233,310.9,226.7,310.9L226.7,310.9z"/>
		<path class="st0" d="M267,337.9c-4.1,0-8.2-1.4-11.2-5.6v5h-6v-44.8h6v18.8c3-4.2,7.1-5.6,11.2-5.6c9.3,0,15.4,7.3,15.4,16.2
			C282.3,330.6,276.3,337.9,267,337.9z M266.2,332.6c6.4,0,10.1-5,10.1-10.9s-3.7-10.9-10.1-10.9c-6.3,0-10.5,4.6-10.6,10.9
			C255.7,328,260,332.6,266.2,332.6L266.2,332.6z"/>
		<rect x="146.2" y="301.3" class="st0" width="6" height="36"/>
		<path class="st0" d="M133.7,306.3v5.2c-3-4.2-7.1-5.6-11.2-5.6c-9.3,0-15.4,7.3-15.4,16.2c0,8.9,6.1,16.2,15.4,16.2
			c4.1,0,8.2-1.4,11.2-5.6v4.1c0,6.6-4.1,10.1-10.2,10.1c-3.9,0-7.6-1.3-10.6-3.7l-2.2,4.8c2.9,2.3,6.6,4.2,12.9,4.2
			c8.5,0,16.2-4.5,16.2-14.8v-30.9h-6.1V306.3z M123.2,332.8c-6.4,0-10.1-5-10.1-10.9s3.7-10.9,10.1-10.9c6.3,0,10.5,4.6,10.6,10.9
			C133.7,328.2,129.5,332.8,123.2,332.8L123.2,332.8z"/>
		<path class="st0" d="M100.5,327.2c0-0.2,0-20.9,0-20.9h-6v5.2c-3-4.2-7.1-5.6-11.2-5.6c-9.3,0-15.4,7.3-15.4,16.2
			s6.1,16.2,15.4,16.2h0.1c0.4,0,0.7,0,1.1,0h0.4c0.4,0,0.8-0.1,1.1-0.1c0.8-0.1,1.6-0.4,2.3-0.6c0.7-0.2,1.3-0.5,1.9-0.9
			c0.5-0.3,0.9-0.6,1.3-0.9s0.8-0.6,1.1-1c0.2-0.2,0.4-0.4,0.6-0.6c0.4-0.5,0.8-0.9,1.2-1.5c0.2-0.3,0.3-0.6,0.5-0.9
			c0.1-0.2,0.2-0.3,0.3-0.5c0.8,3.8,2.7,7.7,5.2,9.7l2.6-5.6C101.4,332.9,100.5,330.1,100.5,327.2z M84.1,332.8
			c-6.5,0-10.1-5-10.1-10.9S77.6,311,84.1,311c6.2,0,10.5,4.6,10.6,10.9C94.6,328.2,90.3,332.8,84.1,332.8z"/>
		<path class="st0" d="M175.2,305.8c8.9,0,16.1,7.3,16.1,16.2c0,8.9-7.3,16.1-16.2,16.1s-16.1-7.3-16.1-16.2
			C159,313.1,166.3,305.8,175.2,305.8z M175.2,332.8c5.7,0,10.3-4.8,10.3-10.8s-4.6-10.9-10.3-10.9S165,316,165,322
			S169.5,332.8,175.2,332.8L175.2,332.8z"/>
		<path class="st0" d="M163.9,299.3c-1.9,0.4-3.2,0.2-5,0.7c-0.5,0.1-1,0.2-1.5,0.5c-2.6,1.1-4.7,3.7-5.3,7.5v12
			c-0.5-8.9,2.3-12,4.5-13.2c0.9-0.5,1.8-0.9,2.9-1l0.7-0.1c0.8-0.1,1.6-0.2,2.4-0.4l0.4-0.1c4.5-1.2,5.9-5.7,7.4-9.6
			C170.4,295.6,167.2,298.7,163.9,299.3z"/>
		<path class="st0" d="M150.3,346.1c0.9,0,1.5,0.7,1.5,1.5l0,0c0,1-0.9,1.7-2.1,1.7h-2.5V343h2.3c1.2,0,2.1,0.6,2.1,1.6
			C151.6,345.4,151.1,346,150.3,346.1z M149.1,345.8c1.1,0,1.5-0.6,1.5-1.1c0-0.6-0.5-1-1.2-1h-1.3v2.1H149.1z M148.1,346.6v2.1h1.7
			c0.7,0,1.2-0.4,1.2-1s-0.5-1.1-1.7-1.1H148.1z"/>
		<path class="st0" d="M159.5,349.4h-0.9V343h0.9V349.4z"/>
		<path class="st0" d="M169.5,342.9c1.8,0,3.3,1.5,3.3,3.3s-1.5,3.3-3.3,3.3s-3.3-1.5-3.3-3.3S167.7,342.9,169.5,342.9z
			 M169.5,348.7c1.4,0,2.5-1,2.6-2.4c0-1.4-1-2.5-2.4-2.6c-1.4,0-2.5,1-2.6,2.4v0.1C167.1,347.6,168.1,348.7,169.5,348.7
			L169.5,348.7L169.5,348.7z"/>
		<path class="st0" d="M187.6,347.7c0.2,0.6,0.8,1.1,1.5,1c0.8,0,1.4-0.4,1.4-1s-0.4-0.8-0.9-1l-1-0.3c-1.3-0.4-1.5-1.2-1.5-1.7
			c0.1-1.1,1-1.8,2-1.8l0,0c1-0.1,1.9,0.6,2.1,1.5l-0.8,0.2c-0.1-0.6-0.7-1-1.3-0.9c-0.6,0-1.1,0.3-1.1,0.9c0,0.3,0.1,0.6,0.8,0.9
			l1,0.4c0.8,0.2,1.5,0.9,1.6,1.7c0,1.1-0.9,1.9-2.2,1.9c-1.1,0.1-2-0.6-2.4-1.6L187.6,347.7z"/>
		<path class="st0" d="M200.8,342.9c1.8,0,3.3,1.5,3.3,3.3s-1.5,3.3-3.3,3.3s-3.3-1.5-3.3-3.3S199,342.9,200.8,342.9z M200.8,348.7
			c1.4,0,2.5-1,2.6-2.4s-1-2.5-2.4-2.6c-1.4,0-2.5,1-2.6,2.4v0.1C198.4,347.6,199.5,348.7,200.8,348.7L200.8,348.7L200.8,348.7z"/>
		<path class="st0" d="M214.7,349.4h-3.8V343h0.9v5.6h2.9L214.7,349.4z"/>
		<path class="st0" d="M225.9,343v4c0,1.4-1.1,2.5-2.5,2.5s-2.5-1.1-2.5-2.5v-4h0.9v4c0,0.9,0.7,1.6,1.6,1.6c0.9,0,1.6-0.7,1.6-1.6
			l0,0v-4H225.9z"/>
		<path class="st0" d="M237.4,343v0.7h-2.1v5.7h-0.9v-5.7h-2.1V343H237.4z"/>
		<path class="st0" d="M244.7,349.4h-0.9V343h0.9V349.4z"/>
		<path class="st0" d="M254.8,342.9c1.8,0,3.3,1.5,3.3,3.3s-1.5,3.3-3.3,3.3s-3.3-1.5-3.3-3.3C251.4,344.4,252.9,342.9,254.8,342.9z
			 M254.8,348.7c1.4,0,2.5-1,2.6-2.4s-1-2.5-2.4-2.6c-1.4,0-2.5,1-2.6,2.4v0.1C252.3,347.6,253.4,348.7,254.8,348.7
			C254.7,348.7,254.7,348.7,254.8,348.7L254.8,348.7z"/>
		<path class="st0" d="M265.7,344.7v4.7h-0.9V343h0.7l3.5,4.7V343h0.9v6.4h-0.7L265.7,344.7z"/>
		<path class="st0" d="M277.3,347.7c0.2,0.6,0.8,1.1,1.5,1c0.8,0,1.4-0.4,1.4-1s-0.4-0.8-0.9-1l-1-0.3c-1.3-0.4-1.5-1.2-1.5-1.7
			c0.1-1.1,1-1.8,2-1.8l0,0c1-0.1,1.9,0.6,2.1,1.5l-0.8,0.2c-0.1-0.6-0.7-1-1.3-0.9c-0.6,0-1.1,0.3-1.1,0.9c0,0.3,0.1,0.6,0.8,0.9
			l1,0.4c0.8,0.2,1.5,0.9,1.6,1.7c0,1.1-0.9,1.9-2.2,1.9c-1.1,0.1-2-0.6-2.4-1.6L277.3,347.7z"/>
		<path class="st2" d="M150.3,346.1c0.9,0,1.5,0.7,1.5,1.5l0,0c0,1-0.9,1.7-2.1,1.7h-2.5V343h2.3c1.2,0,2.1,0.6,2.1,1.6
			C151.6,345.4,151.1,346,150.3,346.1z M149.1,345.8c1.1,0,1.5-0.6,1.5-1.1c0-0.6-0.5-1-1.2-1h-1.3v2.1H149.1z M148.1,346.6v2.1h1.7
			c0.7,0,1.2-0.4,1.2-1s-0.5-1.1-1.7-1.1H148.1z"/>
		<path class="st2" d="M159.5,349.4h-0.9V343h0.9V349.4z"/>
		<path class="st2" d="M169.5,342.9c1.8,0,3.3,1.5,3.3,3.3s-1.5,3.3-3.3,3.3s-3.3-1.5-3.3-3.3S167.7,342.9,169.5,342.9z
			 M169.5,348.7c1.4,0,2.5-1,2.6-2.4c0-1.4-1-2.5-2.4-2.6c-1.4,0-2.5,1-2.6,2.4v0.1C167.1,347.6,168.1,348.7,169.5,348.7
			L169.5,348.7L169.5,348.7z"/>
		<path class="st2" d="M187.6,347.7c0.2,0.6,0.8,1.1,1.5,1c0.8,0,1.4-0.4,1.4-1s-0.4-0.8-0.9-1l-1-0.3c-1.3-0.4-1.5-1.2-1.5-1.7
			c0.1-1.1,1-1.8,2-1.8l0,0c1-0.1,1.9,0.6,2.1,1.5l-0.8,0.2c-0.1-0.6-0.7-1-1.3-0.9c-0.6,0-1.1,0.3-1.1,0.9c0,0.3,0.1,0.6,0.8,0.9
			l1,0.4c0.8,0.2,1.5,0.9,1.6,1.7c0,1.1-0.9,1.9-2.2,1.9c-1.1,0.1-2-0.6-2.4-1.6L187.6,347.7z"/>
		<path class="st2" d="M200.8,342.9c1.8,0,3.3,1.5,3.3,3.3s-1.5,3.3-3.3,3.3s-3.3-1.5-3.3-3.3S199,342.9,200.8,342.9z M200.8,348.7
			c1.4,0,2.5-1,2.6-2.4s-1-2.5-2.4-2.6c-1.4,0-2.5,1-2.6,2.4v0.1C198.4,347.6,199.5,348.7,200.8,348.7L200.8,348.7L200.8,348.7z"/>
		<path class="st2" d="M214.7,349.4h-3.8V343h0.9v5.6h2.9L214.7,349.4z"/>
		<path class="st2" d="M225.9,343v4c0,1.4-1.1,2.5-2.5,2.5s-2.5-1.1-2.5-2.5v-4h0.9v4c0,0.9,0.7,1.6,1.6,1.6c0.9,0,1.6-0.7,1.6-1.6
			l0,0v-4H225.9z"/>
		<path class="st2" d="M237.4,343v0.7h-2.1v5.7h-0.9v-5.7h-2.1V343H237.4z"/>
		<path class="st2" d="M244.7,349.4h-0.9V343h0.9V349.4z"/>
		<path class="st2" d="M254.8,342.9c1.8,0,3.3,1.5,3.3,3.3s-1.5,3.3-3.3,3.3s-3.3-1.5-3.3-3.3C251.4,344.4,252.9,342.9,254.8,342.9z
			 M254.8,348.7c1.4,0,2.5-1,2.6-2.4s-1-2.5-2.4-2.6c-1.4,0-2.5,1-2.6,2.4v0.1C252.3,347.6,253.4,348.7,254.8,348.7
			C254.7,348.7,254.7,348.7,254.8,348.7L254.8,348.7z"/>
		<path class="st2" d="M265.7,344.7v4.7h-0.9V343h0.7l3.5,4.7V343h0.9v6.4h-0.7L265.7,344.7z"/>
		<path class="st2" d="M277.3,347.7c0.2,0.6,0.8,1.1,1.5,1c0.8,0,1.4-0.4,1.4-1s-0.4-0.8-0.9-1l-1-0.3c-1.3-0.4-1.5-1.2-1.5-1.7
			c0.1-1.1,1-1.8,2-1.8l0,0c1-0.1,1.9,0.6,2.1,1.5l-0.8,0.2c-0.1-0.6-0.7-1-1.3-0.9c-0.6,0-1.1,0.3-1.1,0.9c0,0.3,0.1,0.6,0.8,0.9
			l1,0.4c0.8,0.2,1.5,0.9,1.6,1.7c0,1.1-0.9,1.9-2.2,1.9c-1.1,0.1-2-0.6-2.4-1.6L277.3,347.7z"/>
	</g>
	<path class="st0" d="M460.7,329.2h-2.8v-21h2.8V329.2z"/>
	<path class="st0" d="M471,314.4c1.9,0,3.9,0.7,5.3,2.6v-2.3h2.8v14.5h-2.8v-2.3c-1.4,2-3.3,2.6-5.3,2.6c-4.4,0-7.2-3.4-7.2-7.6
		C463.8,317.8,466.7,314.4,471,314.4z M471.4,316.9c-3,0-4.7,2.3-4.7,5.1s1.7,5.1,4.7,5.1c2.9,0,4.9-2.1,5-5.1
		C476.3,319,474.3,316.9,471.4,316.9L471.4,316.9z"/>
	<path class="st0" d="M490.2,329.5c-1.9,0-3.9-0.7-5.3-2.6v2.3h-2.8v-21h2.8v8.8c1.4-2,3.3-2.6,5.3-2.6c4.4,0,7.2,3.4,7.2,7.6
		S494.6,329.5,490.2,329.5z M489.9,327c3,0,4.7-2.3,4.7-5.1s-1.7-5.1-4.7-5.1c-2.9,0-4.9,2.1-5,5.1C484.9,324.9,486.9,327,489.9,327
		L489.9,327z"/>
	<rect x="433.7" y="312.4" class="st0" width="2.8" height="16.9"/>
	<path class="st0" d="M427.8,314.7v2.4c-1.4-2-3.3-2.6-5.3-2.6c-4.4,0-7.2,3.4-7.2,7.6c0,4.1,2.8,7.6,7.2,7.6c1.9,0,3.9-0.7,5.3-2.6
		v1.9c0,3.1-1.9,4.7-4.8,4.7c-1.8,0-3.6-0.6-5-1.8l-1.1,2.3c1.4,1.1,3.1,2,6,2c4,0,7.6-2.1,7.6-6.9v-14.5h-2.7V314.7z M422.9,327.1
		c-3,0-4.7-2.3-4.7-5.1s1.7-5.1,4.7-5.1c2.9,0,4.9,2.1,5,5.1C427.8,325,425.8,327.1,422.9,327.1L422.9,327.1z"/>
	<path class="st0" d="M412.2,324.5c0-0.1,0-9.8,0-9.8h-2.8v2.4c-1.4-2-3.3-2.6-5.2-2.6c-4.4,0-7.2,3.4-7.2,7.6
		c0,4.1,2.9,7.6,7.2,7.6l0,0c0.2,0,0.3,0,0.5,0h0.2c0.2,0,0.4,0,0.5-0.1c0.4-0.1,0.7-0.2,1.1-0.3c0.3-0.1,0.6-0.2,0.9-0.4
		c0.2-0.1,0.4-0.3,0.6-0.4s0.4-0.3,0.5-0.5c0.1-0.1,0.2-0.2,0.3-0.3c0.2-0.2,0.4-0.4,0.5-0.7c0.1-0.1,0.2-0.3,0.2-0.4
		s0.1-0.2,0.1-0.2c0.4,1.8,1.3,3.6,2.4,4.6l1.2-2.6C412.6,327.2,412.2,325.8,412.2,324.5z M404.5,327.1c-3,0-4.7-2.3-4.7-5.1
		s1.7-5.1,4.7-5.1c2.9,0,4.9,2.1,5,5.1C409.5,325,407.4,327.1,404.5,327.1z"/>
	<path class="st0" d="M447.2,314.5c4.2,0,7.6,3.4,7.5,7.6s-3.4,7.6-7.6,7.5c-4.2,0-7.5-3.4-7.5-7.6
		C439.6,317.9,443,314.5,447.2,314.5z M447.2,327.1c2.7,0,4.8-2.3,4.8-5s-2.1-5.1-4.8-5.1s-4.8,2.3-4.8,5.1
		C442.4,324.9,444.6,327.1,447.2,327.1L447.2,327.1z"/>
	<path class="st0" d="M441.9,311.6c-0.9,0.2-1.5,0.1-2.3,0.3c-0.2,0-0.5,0.1-0.7,0.2c-1.2,0.5-2.2,1.7-2.5,3.5v5.6
		c-0.2-4.1,1.1-5.6,2.1-6.2c0.4-0.2,0.9-0.4,1.3-0.5h0.3c0.4,0,0.8-0.1,1.1-0.2h0.2c2.1-0.6,2.7-2.7,3.5-4.5
		C445,309.8,443.5,311.3,441.9,311.6z"/>
</g>
<rect x="-0.2" y="440.9" class="st0" width="576.5" height="216.8"/>
<path class="st0" d="M327.4,146.6H318V76.5h9.4V146.6z"/>
<path class="st0" d="M361.8,97c6.5,0,12.9,2.2,17.6,8.8v-7.7h9.4v48.5h-9.4v-7.8c-4.6,6.6-11.1,8.8-17.6,8.8
	c-14.5,0-24.1-11.5-24.1-25.3S347.3,97,361.8,97z M363,105.4c-10.1,0-15.8,7.8-15.8,17s5.7,17,15.8,17c9.8,0,16.5-7.2,16.6-17
	C379.5,112.6,372.8,105.4,363,105.4L363,105.4z"/>
<path class="st0" d="M426.1,147.7c-6.5,0-12.9-2.2-17.6-8.8v7.8h-9.4V76.5h9.4v29.4c4.6-6.6,11.1-8.8,17.6-8.8
	c14.5,0,24.1,11.5,24.1,25.3S440.6,147.7,426.1,147.7z M424.9,139.3c10.1,0,15.8-7.8,15.8-17s-5.7-17-15.8-17
	c-9.8,0-16.5,7.2-16.6,17C408.4,132.2,415.1,139.3,424.9,139.3L424.9,139.3z"/>
<rect x="236.9" y="90.3" class="st1" width="9.4" height="56.4"/>
<path class="st1" d="M217.2,98.1v8.1c-4.7-6.6-11.1-8.8-17.6-8.8c-14.6,0-24.1,11.5-24.1,25.3S185,148,199.6,148
	c6.5,0,12.9-2.2,17.6-8.8v6.5c0,10.4-6.5,15.8-15.9,15.8c-6.1,0.1-12-2-16.7-5.9l-3.5,7.6c4.6,3.6,10.3,6.5,20.2,6.5
	c13.3,0,25.3-7.1,25.3-23.2V98.1H217.2z M200.8,139.7c-10.1,0-15.8-7.8-15.8-17s5.7-17,15.8-17c9.8,0,16.5,7.2,16.6,17
	C217.3,132.5,210.6,139.7,200.8,139.7L200.8,139.7z"/>
<path class="st1" d="M165.3,130.8c0-0.4,0-32.7,0-32.7h-9.4v8.1c-4.6-6.6-11.1-8.8-17.6-8.8c-14.6,0-24.1,11.4-24.1,25.3
	c0,4,0.8,8,2.5,11.7c1.6,3.4,4,6.5,7,8.8c3.1,2.4,6.9,3.9,10.8,4.5c2.3,0.3,4.5,0.3,6.8,0c2.6-0.4,5.2-1,7.5-2.2
	c0.9-0.5,1.7-1.1,2.6-1.7c0.6-0.5,1.2-1,1.8-1.5c0.3-0.3,0.6-0.6,1-1c0.7-0.7,1.3-1.5,1.8-2.3c0.3-0.4,0.5-0.9,0.8-1.4
	c0.1-0.3,0.3-0.5,0.4-0.8c1.2,6,4.2,12.1,8.1,15.3l4.1-8.8C166.6,139.8,165.2,135.3,165.3,130.8z M139.5,139.7
	c-10.1,0-15.8-7.8-15.8-17s5.7-17,15.8-17c9.8,0,16.5,7.2,16.6,17C156,132.5,149.3,139.7,139.5,139.7z"/>
<path class="st1" d="M282.2,97.4c14,0,25.3,11.4,25.2,25.4S296,148.1,282,148c-14,0-25.2-11.4-25.2-25.3
	C256.9,108.7,268.3,97.4,282.2,97.4z M282.2,139.7c8.9,0,16.1-7.6,16.1-16.9s-7.2-17.1-16.1-17.1s-16,7.7-16,17.1
	S273.4,139.7,282.2,139.7L282.2,139.7z"/>
<path class="st1" d="M264.8,87.2c-3,0.6-5,0.4-7.8,1c-0.8,0.1-1.6,0.4-2.4,0.7c-4.1,1.7-7.4,5.8-8.4,11.7v18.8
	c-0.7-13.9,3.7-18.7,7.1-20.7c1.4-0.8,2.9-1.4,4.5-1.6l1.1-0.1c1.3-0.1,2.5-0.3,3.8-0.6l0.7-0.2c7.1-1.9,9.2-8.9,11.6-15
	C275,81.3,269.9,86.3,264.8,87.2z"/>
<path class="st0" d="M243.3,160.6c1.3,0,2.4,1.1,2.4,2.4l0,0c0,1.6-1.3,2.7-3.3,2.7h-4v-10h3.6c1.9,0,3.3,1,3.3,2.6
	C245.3,159.4,244.5,160.4,243.3,160.6z M241.3,160.1c1.7,0,2.4-0.9,2.4-1.7s-0.9-1.5-1.8-1.5h-2.1v3.3h1.5V160.1z M239.8,161.2v3.3
	h2.6c1.1,0,1.9-0.6,1.9-1.5s-0.8-1.8-2.6-1.8H239.8z"/>
<path class="st0" d="M257.6,165.7h-1.4v-10h1.4V165.7z"/>
<path class="st0" d="M273.3,155.5c2.9,0,5.2,2.3,5.1,5.2c0,2.9-2.3,5.2-5.2,5.1c-2.8,0-5.1-2.3-5.1-5.2
	C268.2,157.8,270.5,155.5,273.3,155.5z M273.3,164.5c2.1,0.1,3.9-1.6,4-3.7c0.1-2.1-1.6-3.9-3.7-4s-3.9,1.6-4,3.7v0.1
	C269.6,162.8,271.2,164.5,273.3,164.5L273.3,164.5L273.3,164.5z"/>
<path class="st0" d="M301.7,163c0.3,1,1.3,1.7,2.3,1.6c1.3,0,2.1-0.7,2.1-1.5s-0.7-1.3-1.5-1.6l-1.5-0.5c-2-0.6-2.3-1.8-2.3-2.7
	c0.1-1.6,1.6-2.9,3.2-2.8l0,0c1.5-0.1,2.9,0.9,3.3,2.4l-1.3,0.4c-0.2-0.9-1-1.6-2-1.5c-1,0-1.8,0.5-1.8,1.4c0,0.4,0.1,1,1.3,1.4
	l1.5,0.6c1.3,0.2,2.3,1.3,2.4,2.7c0,1.8-1.4,2.9-3.5,2.9c-1.7,0.1-3.2-0.9-3.7-2.5L301.7,163z"/>
<path class="st0" d="M322.4,155.5c2.9,0,5.2,2.3,5.1,5.2c0,2.9-2.3,5.2-5.2,5.1c-2.8,0-5.1-2.3-5.1-5.2
	C317.2,157.8,319.6,155.5,322.4,155.5z M322.4,164.5c2.1,0.1,3.9-1.6,4-3.7c0.1-2.1-1.6-3.9-3.7-4s-3.9,1.6-4,3.7v0.1
	C318.6,162.8,320.3,164.5,322.4,164.5L322.4,164.5L322.4,164.5z"/>
<path class="st0" d="M344.1,165.7h-6v-10h1.4v8.8h4.6V165.7z"/>
<path class="st0" d="M361.7,155.7v6.3c0,2.2-1.8,4-4,4s-4-1.8-4-4v-6.3h1.4v6.3c0,1.4,1.1,2.5,2.5,2.5s2.5-1.1,2.5-2.5l0,0v-6.3
	H361.7z"/>
<path class="st0" d="M379.7,155.7v1.2h-3.3v8.9H375v-8.9h-3.3v-1.2H379.7z"/>
<path class="st0" d="M391.2,165.7h-1.4v-10h1.4V165.7z"/>
<path class="st0" d="M406.9,155.5c2.9,0,5.2,2.3,5.1,5.2c0,2.9-2.3,5.2-5.2,5.1c-2.8,0-5.1-2.3-5.1-5.2
	C401.7,157.8,404.1,155.5,406.9,155.5z M406.9,164.5c2.1,0.1,3.9-1.6,4-3.7c0.1-2.1-1.6-3.9-3.7-4s-3.9,1.6-4,3.7v0.1
	C403.1,162.8,404.8,164.5,406.9,164.5L406.9,164.5L406.9,164.5z"/>
<path class="st0" d="M424,158.3v7.4h-1.4v-10h1.1l5.5,7.4v-7.4h1.4v10h-1.1L424,158.3z"/>
<path class="st0" d="M442.3,163c0.3,1,1.3,1.7,2.3,1.6c1.3,0,2.1-0.7,2.1-1.5s-0.7-1.3-1.5-1.6l-1.5-0.5c-2-0.6-2.3-1.8-2.3-2.7
	c0.1-1.6,1.6-2.9,3.2-2.8l0,0c1.5-0.1,2.9,0.9,3.3,2.4l-1.3,0.4c-0.2-0.9-1-1.6-2-1.5c-1,0-1.8,0.5-1.8,1.4c0,0.4,0.1,1,1.3,1.4
	l1.5,0.6c1.3,0.2,2.3,1.3,2.4,2.7c0,1.8-1.4,2.9-3.5,2.9c-1.7,0.1-3.2-0.9-3.7-2.5L442.3,163z"/>
<path class="st3" d="M243.3,160.6c1.3,0,2.4,1.1,2.4,2.4l0,0c0,1.6-1.3,2.7-3.3,2.7h-4v-10h3.6c1.9,0,3.3,1,3.3,2.6
	C245.3,159.4,244.5,160.4,243.3,160.6z M241.3,160.1c1.7,0,2.4-0.9,2.4-1.7s-0.9-1.5-1.8-1.5h-2.1v3.3h1.5V160.1z M239.8,161.2v3.3
	h2.6c1.1,0,1.9-0.6,1.9-1.5s-0.8-1.8-2.6-1.8H239.8z"/>
<path class="st3" d="M257.6,165.7h-1.4v-10h1.4V165.7z"/>
<path class="st3" d="M273.3,155.5c2.9,0,5.2,2.3,5.1,5.2c0,2.9-2.3,5.2-5.2,5.1c-2.8,0-5.1-2.3-5.1-5.2
	C268.2,157.8,270.5,155.5,273.3,155.5z M273.3,164.5c2.1,0.1,3.9-1.6,4-3.7c0.1-2.1-1.6-3.9-3.7-4s-3.9,1.6-4,3.7v0.1
	C269.6,162.8,271.2,164.5,273.3,164.5L273.3,164.5L273.3,164.5z"/>
<path class="st3" d="M301.7,163c0.3,1,1.3,1.7,2.3,1.6c1.3,0,2.1-0.7,2.1-1.5s-0.7-1.3-1.5-1.6l-1.5-0.5c-2-0.6-2.3-1.8-2.3-2.7
	c0.1-1.6,1.6-2.9,3.2-2.8l0,0c1.5-0.1,2.9,0.9,3.3,2.4l-1.3,0.4c-0.2-0.9-1-1.6-2-1.5c-1,0-1.8,0.5-1.8,1.4c0,0.4,0.1,1,1.3,1.4
	l1.5,0.6c1.3,0.2,2.3,1.3,2.4,2.7c0,1.8-1.4,2.9-3.5,2.9c-1.7,0.1-3.2-0.9-3.7-2.5L301.7,163z"/>
<path class="st3" d="M322.4,155.5c2.9,0,5.2,2.3,5.1,5.2c0,2.9-2.3,5.2-5.2,5.1c-2.8,0-5.1-2.3-5.1-5.2
	C317.2,157.8,319.6,155.5,322.4,155.5z M322.4,164.5c2.1,0.1,3.9-1.6,4-3.7c0.1-2.1-1.6-3.9-3.7-4s-3.9,1.6-4,3.7v0.1
	C318.6,162.8,320.3,164.5,322.4,164.5L322.4,164.5L322.4,164.5z"/>
<path class="st3" d="M344.1,165.7h-6v-10h1.4v8.8h4.6V165.7z"/>
<path class="st3" d="M361.7,155.7v6.3c0,2.2-1.8,4-4,4s-4-1.8-4-4v-6.3h1.4v6.3c0,1.4,1.1,2.5,2.5,2.5s2.5-1.1,2.5-2.5l0,0v-6.3
	H361.7z"/>
<path class="st3" d="M379.7,155.7v1.2h-3.3v8.9H375v-8.9h-3.3v-1.2H379.7z"/>
<path class="st3" d="M391.2,165.7h-1.4v-10h1.4V165.7z"/>
<path class="st3" d="M406.9,155.5c2.9,0,5.2,2.3,5.1,5.2c0,2.9-2.3,5.2-5.2,5.1c-2.8,0-5.1-2.3-5.1-5.2
	C401.7,157.8,404.1,155.5,406.9,155.5z M406.9,164.5c2.1,0.1,3.9-1.6,4-3.7c0.1-2.1-1.6-3.9-3.7-4s-3.9,1.6-4,3.7v0.1
	C403.1,162.8,404.8,164.5,406.9,164.5L406.9,164.5L406.9,164.5z"/>
<path class="st3" d="M424,158.3v7.4h-1.4v-10h1.1l5.5,7.4v-7.4h1.4v10h-1.1L424,158.3z"/>
<path class="st3" d="M442.3,163c0.3,1,1.3,1.7,2.3,1.6c1.3,0,2.1-0.7,2.1-1.5s-0.7-1.3-1.5-1.6l-1.5-0.5c-2-0.6-2.3-1.8-2.3-2.7
	c0.1-1.6,1.6-2.9,3.2-2.8l0,0c1.5-0.1,2.9,0.9,3.3,2.4l-1.3,0.4c-0.2-0.9-1-1.6-2-1.5c-1,0-1.8,0.5-1.8,1.4c0,0.4,0.1,1,1.3,1.4
	l1.5,0.6c1.3,0.2,2.3,1.3,2.4,2.7c0,1.8-1.4,2.9-3.5,2.9c-1.7,0.1-3.2-0.9-3.7-2.5L442.3,163z"/>
<g>
	<g>
		<path class="st4" d="M89.9,564.9c-0.6,0.3-1.3,0.6-1.9,0.9C88.6,565.6,89.3,565.3,89.9,564.9z M88,565.8c-0.8,0.3-1.5,0.5-2.3,0.6
			C86.4,566.3,87.2,566.1,88,565.8L88,565.8z"/>
		<path class="st4" d="M203.7,565.8h-6V521h6V565.8z"/>
		<path class="st4" d="M225.6,534.1c4.1,0,8.2,1.4,11.2,5.6v-4.9h6v31h-6v-5c-3,4.2-7.1,5.6-11.2,5.6c-9.3,0-15.4-7.3-15.4-16.2
			S216.3,534.1,225.6,534.1z M226.4,539.4c-6.4,0-10.1,5-10.1,10.9s3.7,10.9,10.1,10.9c6.3,0,10.5-4.6,10.6-10.9
			C236.9,544,232.6,539.4,226.4,539.4L226.4,539.4z"/>
		<path class="st4" d="M266.6,566.4c-4.1,0-8.2-1.4-11.2-5.6v5h-6V521h6v18.8c3-4.2,7.1-5.6,11.2-5.6c9.3,0,15.4,7.3,15.4,16.2
			S275.9,566.4,266.6,566.4z M265.9,561.1c6.4,0,10.1-5,10.1-10.9s-3.7-10.9-10.1-10.9c-6.3,0-10.5,4.6-10.6,10.9
			C255.3,556.5,259.6,561.1,265.9,561.1L265.9,561.1z"/>
		<rect x="145.9" y="529.8" class="st4" width="6" height="36"/>
		<path class="st4" d="M133.3,534.8v5.2c-3-4.2-7.1-5.6-11.2-5.6c-9.3,0-15.4,7.3-15.4,16.2s6.1,16.2,15.4,16.2
			c4.1,0,8.2-1.4,11.2-5.6v4.1c0,6.6-4.1,10.1-10.2,10.1c-3.9,0-7.6-1.3-10.6-3.7l-2.2,4.8c2.9,2.3,6.6,4.2,12.9,4.2
			c8.5,0,16.2-4.5,16.2-14.8V535h-6.1V534.8z M122.8,561.3c-6.4,0-10.1-5-10.1-10.9s3.7-10.9,10.1-10.9c6.3,0,10.5,4.6,10.6,10.9
			C133.4,556.7,129.1,561.3,122.8,561.3L122.8,561.3z"/>
		<path class="st4" d="M100.2,555.7c0-0.2,0-20.9,0-20.9h-6v5.2c-3-4.2-7.1-5.6-11.2-5.6c-9.3,0-15.4,7.3-15.4,16.2
			s6.1,16.2,15.4,16.2l0,0c0.4,0,0.7,0,1.1,0h0.4c0.4,0,0.8-0.1,1.1-0.1c0.8-0.1,1.6-0.4,2.3-0.6c0.7-0.2,1.3-0.5,1.9-0.9
			c0.5-0.3,0.9-0.6,1.3-0.9c0.4-0.3,0.8-0.6,1.1-1c0.2-0.2,0.4-0.4,0.6-0.6c0.4-0.5,0.8-0.9,1.2-1.5c0.2-0.3,0.3-0.6,0.5-0.9
			c0.1-0.2,0.2-0.3,0.3-0.5c0.8,3.8,2.7,7.7,5.2,9.7l2.6-5.6C101,561.4,100.1,558.6,100.2,555.7z M83.7,561.3
			c-6.5,0-10.1-5-10.1-10.9s3.6-10.9,10.1-10.9c6.2,0,10.5,4.6,10.6,10.9C94.2,556.7,89.9,561.3,83.7,561.3z"/>
		<path class="st4" d="M174.8,534.3c8.9,0,16.1,7.3,16.1,16.2s-7.3,16.1-16.2,16.1s-16.1-7.3-16.1-16.2
			C158.7,541.6,165.9,534.4,174.8,534.3z M174.8,561.3c5.7,0,10.3-4.8,10.3-10.8s-4.6-10.9-10.3-10.9s-10.2,4.9-10.2,10.9
			S169.2,561.3,174.8,561.3L174.8,561.3z"/>
		<path class="st4" d="M163.7,527.8c-1.9,0.4-3.2,0.2-5,0.7c-0.5,0.1-1,0.2-1.5,0.5c-2.6,1.1-4.7,3.7-5.3,7.5v12
			c-0.5-8.9,2.3-12,4.5-13.2c0.9-0.5,1.8-0.9,2.9-1l0.7-0.1c0.8-0.1,1.6-0.2,2.4-0.4l0.4-0.1c4.5-1.2,5.9-5.7,7.4-9.6
			C170.1,524.1,166.9,527.2,163.7,527.8z"/>
		<path class="st4" d="M150,574.7c0.9,0,1.5,0.7,1.5,1.5l0,0c0,1-0.9,1.7-2.1,1.7h-2.5v-6.4h2.3c1.2,0,2.1,0.6,2.1,1.6
			C151.2,573.9,150.7,574.5,150,574.7z M148.7,574.3c1.1,0,1.5-0.6,1.5-1.1s-0.5-1-1.2-1h-1.3v2.1H148.7z M147.7,575.1v2.1h1.7
			c0.7,0,1.2-0.4,1.2-1s-0.5-1.1-1.7-1.1H147.7z"/>
		<path class="st4" d="M159.1,577.9h-0.9v-6.4h0.9V577.9z"/>
		<path class="st4" d="M169.1,571.4c1.8,0,3.3,1.5,3.3,3.3s-1.5,3.3-3.3,3.3s-3.3-1.5-3.3-3.3S167.3,571.4,169.1,571.4z
			 M169.1,577.2c1.4,0,2.5-1,2.6-2.4c0-1.4-1-2.5-2.4-2.6c-1.4,0-2.5,1-2.6,2.4v0.1C166.7,576.1,167.8,577.2,169.1,577.2
			L169.1,577.2L169.1,577.2z"/>
		<path class="st4" d="M187.2,576.2c0.2,0.6,0.8,1.1,1.5,1c0.8,0,1.4-0.4,1.4-1s-0.4-0.8-0.9-1l-1-0.3c-1.3-0.4-1.5-1.2-1.5-1.7
			c0.1-1.1,1-1.8,2-1.8l0,0c1-0.1,1.9,0.6,2.1,1.5l-0.8,0.2c-0.1-0.6-0.7-1-1.3-0.9c-0.6,0-1.1,0.3-1.1,0.9c0,0.3,0.1,0.6,0.8,0.9
			l1,0.4c0.8,0.2,1.5,0.9,1.6,1.7c0,1.1-0.9,1.9-2.2,1.9c-1.1,0.1-2-0.6-2.4-1.6L187.2,576.2z"/>
		<path class="st4" d="M200.5,571.4c1.8,0,3.3,1.5,3.3,3.3s-1.5,3.3-3.3,3.3s-3.3-1.5-3.3-3.3S198.6,571.4,200.5,571.4z
			 M200.5,577.2c1.4,0,2.5-1,2.6-2.4c0-1.4-1-2.5-2.4-2.6c-1.4,0-2.5,1-2.6,2.4v0.1C198,576.1,199.1,577.2,200.5,577.2L200.5,577.2
			L200.5,577.2z"/>
		<path class="st4" d="M214.3,577.9h-3.8v-6.4h0.9v5.6h2.9L214.3,577.9z"/>
		<path class="st4" d="M225.5,571.5v4c0,1.4-1.1,2.5-2.5,2.5s-2.5-1.1-2.5-2.5v-4h0.9v4c0,0.9,0.7,1.6,1.6,1.6
			c0.9,0,1.6-0.7,1.6-1.6l0,0v-4H225.5z"/>
		<path class="st4" d="M237,571.5v0.7h-2.1v5.7H234v-5.7h-2.1v-0.7H237z"/>
		<path class="st4" d="M244.4,577.9h-0.9v-6.4h0.9V577.9z"/>
		<path class="st4" d="M254.4,571.4c1.8,0,3.3,1.5,3.3,3.3s-1.5,3.3-3.3,3.3s-3.3-1.5-3.3-3.3C251.1,572.9,252.6,571.4,254.4,571.4z
			 M254.4,577.2c1.4,0,2.5-1,2.6-2.4c0-1.4-1-2.5-2.4-2.6c-1.4,0-2.5,1-2.6,2.4v0.1C252,576.1,253,577.2,254.4,577.2L254.4,577.2
			L254.4,577.2z"/>
		<path class="st4" d="M265.3,573.2v4.7h-0.9v-6.4h0.7l3.5,4.7v-4.7h0.9v6.4h-0.7L265.3,573.2z"/>
		<path class="st4" d="M276.9,576.2c0.2,0.6,0.8,1.1,1.5,1c0.8,0,1.4-0.4,1.4-1s-0.4-0.8-0.9-1l-1-0.3c-1.3-0.4-1.5-1.2-1.5-1.7
			c0.1-1.1,1-1.8,2-1.8l0,0c1-0.1,1.9,0.6,2.1,1.5l-0.8,0.2c-0.1-0.6-0.7-1-1.3-0.9c-0.6,0-1.1,0.3-1.1,0.9c0,0.3,0.1,0.6,0.8,0.9
			l1,0.4c0.8,0.2,1.5,0.9,1.6,1.7c0,1.1-0.9,1.9-2.2,1.9c-1.1,0.1-2-0.6-2.4-1.6L276.9,576.2z"/>
		<path class="st4" d="M150,574.7c0.9,0,1.5,0.7,1.5,1.5l0,0c0,1-0.9,1.7-2.1,1.7h-2.5v-6.4h2.3c1.2,0,2.1,0.6,2.1,1.6
			C151.2,573.9,150.7,574.5,150,574.7z M148.7,574.3c1.1,0,1.5-0.6,1.5-1.1s-0.5-1-1.2-1h-1.3v2.1H148.7z M147.7,575.1v2.1h1.7
			c0.7,0,1.2-0.4,1.2-1s-0.5-1.1-1.7-1.1H147.7z"/>
		<path class="st4" d="M159.1,577.9h-0.9v-6.4h0.9V577.9z"/>
		<path class="st4" d="M169.1,571.4c1.8,0,3.3,1.5,3.3,3.3s-1.5,3.3-3.3,3.3s-3.3-1.5-3.3-3.3S167.3,571.4,169.1,571.4z
			 M169.1,577.2c1.4,0,2.5-1,2.6-2.4c0-1.4-1-2.5-2.4-2.6c-1.4,0-2.5,1-2.6,2.4v0.1C166.7,576.1,167.8,577.2,169.1,577.2
			L169.1,577.2L169.1,577.2z"/>
		<path class="st4" d="M187.2,576.2c0.2,0.6,0.8,1.1,1.5,1c0.8,0,1.4-0.4,1.4-1s-0.4-0.8-0.9-1l-1-0.3c-1.3-0.4-1.5-1.2-1.5-1.7
			c0.1-1.1,1-1.8,2-1.8l0,0c1-0.1,1.9,0.6,2.1,1.5l-0.8,0.2c-0.1-0.6-0.7-1-1.3-0.9c-0.6,0-1.1,0.3-1.1,0.9c0,0.3,0.1,0.6,0.8,0.9
			l1,0.4c0.8,0.2,1.5,0.9,1.6,1.7c0,1.1-0.9,1.9-2.2,1.9c-1.1,0.1-2-0.6-2.4-1.6L187.2,576.2z"/>
		<path class="st4" d="M200.5,571.4c1.8,0,3.3,1.5,3.3,3.3s-1.5,3.3-3.3,3.3s-3.3-1.5-3.3-3.3S198.6,571.4,200.5,571.4z
			 M200.5,577.2c1.4,0,2.5-1,2.6-2.4c0-1.4-1-2.5-2.4-2.6c-1.4,0-2.5,1-2.6,2.4v0.1C198,576.1,199.1,577.2,200.5,577.2L200.5,577.2
			L200.5,577.2z"/>
		<path class="st4" d="M214.3,577.9h-3.8v-6.4h0.9v5.6h2.9L214.3,577.9z"/>
		<path class="st4" d="M225.5,571.5v4c0,1.4-1.1,2.5-2.5,2.5s-2.5-1.1-2.5-2.5v-4h0.9v4c0,0.9,0.7,1.6,1.6,1.6
			c0.9,0,1.6-0.7,1.6-1.6l0,0v-4H225.5z"/>
		<path class="st4" d="M237,571.5v0.7h-2.1v5.7H234v-5.7h-2.1v-0.7H237z"/>
		<path class="st4" d="M244.4,577.9h-0.9v-6.4h0.9V577.9z"/>
		<path class="st4" d="M254.4,571.4c1.8,0,3.3,1.5,3.3,3.3s-1.5,3.3-3.3,3.3s-3.3-1.5-3.3-3.3C251.1,572.9,252.6,571.4,254.4,571.4z
			 M254.4,577.2c1.4,0,2.5-1,2.6-2.4c0-1.4-1-2.5-2.4-2.6c-1.4,0-2.5,1-2.6,2.4v0.1C252,576.1,253,577.2,254.4,577.2L254.4,577.2
			L254.4,577.2z"/>
		<path class="st4" d="M265.3,573.2v4.7h-0.9v-6.4h0.7l3.5,4.7v-4.7h0.9v6.4h-0.7L265.3,573.2z"/>
		<path class="st4" d="M276.9,576.2c0.2,0.6,0.8,1.1,1.5,1c0.8,0,1.4-0.4,1.4-1s-0.4-0.8-0.9-1l-1-0.3c-1.3-0.4-1.5-1.2-1.5-1.7
			c0.1-1.1,1-1.8,2-1.8l0,0c1-0.1,1.9,0.6,2.1,1.5l-0.8,0.2c-0.1-0.6-0.7-1-1.3-0.9c-0.6,0-1.1,0.3-1.1,0.9c0,0.3,0.1,0.6,0.8,0.9
			l1,0.4c0.8,0.2,1.5,0.9,1.6,1.7c0,1.1-0.9,1.9-2.2,1.9c-1.1,0.1-2-0.6-2.4-1.6L276.9,576.2z"/>
	</g>
	<path class="st4" d="M460.4,557.7h-2.8v-21h2.8V557.7z"/>
	<path class="st4" d="M470.6,542.9c1.9,0,3.9,0.7,5.3,2.6v-2.3h2.8v14.5h-2.8v-2.3c-1.4,2-3.3,2.6-5.3,2.6c-4.4,0-7.2-3.4-7.2-7.6
		C463.5,546.3,466.3,542.9,470.6,542.9z M471,545.4c-3,0-4.7,2.3-4.7,5.1s1.7,5.1,4.7,5.1c2.9,0,4.9-2.1,5-5.1
		C475.9,547.5,473.9,545.4,471,545.4L471,545.4z"/>
	<path class="st4" d="M489.8,558c-1.9,0-3.9-0.7-5.3-2.6v2.3h-2.8v-21h2.8v8.8c1.4-2,3.3-2.6,5.3-2.6c4.4,0,7.2,3.4,7.2,7.6
		S494.2,558,489.8,558z M489.5,555.5c3,0,4.7-2.3,4.7-5.1s-1.7-5.1-4.7-5.1c-2.9,0-4.9,2.1-5,5.1
		C484.6,553.4,486.6,555.5,489.5,555.5L489.5,555.5z"/>
	<rect x="433.3" y="540.9" class="st4" width="2.8" height="16.9"/>
	<path class="st4" d="M427.4,543.2v2.4c-1.4-2-3.3-2.6-5.3-2.6c-4.4,0-7.2,3.4-7.2,7.6s2.8,7.6,7.2,7.6c1.9,0,3.9-0.7,5.3-2.6v1.9
		c0,3.1-1.9,4.7-4.8,4.7c-1.8,0-3.6-0.6-5-1.8l-1.1,2.3c1.4,1.1,3.1,2,6,2c4,0,7.6-2.1,7.6-6.9v-14.5h-2.7V543.2z M422.5,555.6
		c-3,0-4.7-2.3-4.7-5.1s1.7-5.1,4.7-5.1c2.9,0,4.9,2.1,5,5.1C427.4,553.5,425.4,555.6,422.5,555.6L422.5,555.6z"/>
	<path class="st4" d="M411.9,553c0-0.1,0-9.8,0-9.8h-2.8v2.4c-1.4-2-3.3-2.6-5.2-2.6c-4.4,0-7.2,3.4-7.2,7.6s2.9,7.6,7.2,7.6l0,0
		c0.2,0,0.3,0,0.5,0h0.2c0.2,0,0.4,0,0.5-0.1c0.4-0.1,0.7-0.2,1.1-0.3c0.3-0.1,0.6-0.2,0.9-0.4c0.2-0.1,0.4-0.3,0.6-0.4
		c0.2-0.1,0.4-0.3,0.5-0.5c0.1-0.1,0.2-0.2,0.3-0.3c0.2-0.2,0.4-0.4,0.5-0.7c0.1-0.1,0.2-0.3,0.2-0.4c0-0.1,0.1-0.2,0.1-0.2
		c0.4,1.8,1.3,3.6,2.4,4.6l1.2-2.6C412.3,555.7,411.9,554.4,411.9,553z M404.2,555.6c-3,0-4.7-2.3-4.7-5.1s1.7-5.1,4.7-5.1
		c2.9,0,4.9,2.1,5,5.1C409.1,553.5,407.1,555.6,404.2,555.6z"/>
	<path class="st4" d="M446.9,543c4.2,0,7.6,3.4,7.5,7.6c0,4.2-3.4,7.6-7.6,7.5c-4.2,0-7.5-3.4-7.5-7.6
		C439.3,546.4,442.7,543,446.9,543z M446.9,555.6c2.7,0,4.8-2.3,4.8-5c0-2.8-2.1-5.1-4.8-5.1s-4.8,2.3-4.8,5.1
		S444.2,555.6,446.9,555.6L446.9,555.6z"/>
	<path class="st4" d="M441.6,540c-0.9,0.2-1.5,0.1-2.3,0.3c-0.2,0-0.5,0.1-0.7,0.2c-1.2,0.5-2.2,1.7-2.5,3.5v5.6
		c-0.2-4.1,1.1-5.6,2.1-6.2c0.4-0.2,0.9-0.4,1.3-0.5h0.3c0.4,0,0.8-0.1,1.1-0.2h0.2c2.1-0.6,2.7-2.7,3.5-4.5
		C444.6,538.2,443.1,539.7,441.6,540z"/>
</g>
</svg>
