<svg id="Layer_1" data-name="Layer 1" xmlns="http://www.w3.org/2000/svg" viewBox="0 0 576 576"><defs><style>.cls-1{fill:#31393d;}.cls-2{fill:#9ad450;}</style></defs><title>agrolab</title><path d="M149.2,318.33a20.08,20.08,0,0,1-3,1.36A20.17,20.17,0,0,0,149.2,318.33Zm-3,1.36a23,23,0,0,1-3.68,1A19.72,19.72,0,0,0,146.2,319.69Z"/><path class="cls-1" d="M327.44,319.61H318V249.46h9.41Z"/><path class="cls-1" d="M361.83,270c6.5,0,12.91,2.23,17.56,8.83V271.1h9.42v48.51h-9.42v-7.76c-4.65,6.6-11.06,8.83-17.56,8.83-14.55,0-24.06-11.45-24.06-25.32S347.28,270,361.83,270Zm1.17,8.35c-10.1,0-15.82,7.76-15.82,17s5.72,17,15.82,17c9.8,0,16.49-7.18,16.59-17C379.49,285.56,372.8,278.38,363,278.38Z"/><path class="cls-1" d="M426.06,320.68c-6.5,0-12.91-2.23-17.56-8.83v7.76h-9.41V249.46h9.41v29.4c4.65-6.6,11.06-8.83,17.56-8.83,14.55,0,24.06,11.45,24.06,25.33S440.61,320.68,426.06,320.68Zm-1.17-8.34c10.09,0,15.82-7.76,15.82-17s-5.73-17-15.82-17c-9.8,0-16.49,7.18-16.59,17C408.4,305.16,415.09,312.34,424.89,312.34Z"/><rect class="cls-2" x="236.9" y="263.27" width="9.41" height="56.4"/><path class="cls-2" d="M217.21,271.1v8.09c-4.66-6.6-11.06-8.83-17.56-8.83-14.56,0-24.07,11.45-24.07,25.33S185.09,321,199.65,321c6.5,0,12.9-2.23,17.56-8.83v6.5c0,10.38-6.5,15.82-15.91,15.82a25.8,25.8,0,0,1-16.67-5.87l-3.52,7.57c4.56,3.58,10.31,6.55,20.19,6.55,13.29,0,25.32-7.09,25.32-23.2V271.1Zm-16.4,41.56c-10.09,0-15.82-7.76-15.82-17s5.73-17,15.82-17c9.8,0,16.5,7.18,16.59,17C217.31,305.49,210.61,312.66,200.81,312.66Z"/><path class="cls-2" d="M165.27,303.82c0-.36,0-32.72,0-32.72h-9.44v8.08c-4.64-6.59-11.05-8.82-17.55-8.82-14.55,0-24.08,11.43-24.08,25.31S123.74,321,138.29,321h.15c.59,0,1.11,0,1.67-.06l.62-.06a16.81,16.81,0,0,0,1.79-.23,23,23,0,0,0,3.68-1,20.08,20.08,0,0,0,3-1.36c.73-.44,1.41-.88,2.05-1.35a21.15,21.15,0,0,0,1.8-1.53c.32-.32.64-.64,1-1a20.49,20.49,0,0,0,1.82-2.29,10.31,10.31,0,0,0,.77-1.35c.14-.26.28-.52.4-.78,1.19,6,4.25,12.14,8.08,15.26l4.1-8.81A21,21,0,0,1,165.27,303.82Zm-25.8,8.84c-10.12,0-15.82-7.76-15.82-17s5.7-17,15.82-17c9.79,0,16.49,7.17,16.58,17C156,305.49,149.26,312.66,139.47,312.66Z"/><path class="cls-2" d="M282.25,270.36a25.33,25.33,0,1,1-25.42,25.33A25.51,25.51,0,0,1,282.25,270.36Zm0,42.3c8.93,0,16.11-7.56,16.11-16.88s-7.18-17.07-16.11-17.07-16,7.66-16,17.07S273.42,312.66,282.25,312.66Z"/><path class="cls-2" d="M265.51,261.3c-3,.41-5,.14-7.86.65a11.37,11.37,0,0,0-2.45.59C251,264,247.55,268,246.29,273.8v19.1c-.06-13.89,3.65-18.85,7.17-20.64a11.66,11.66,0,0,1,4.55-1.37l1.12-.06c1.26-.08,2.52-.17,3.81-.37l.71-.13c7.19-1.52,9.59-8.44,12.29-14.42C275.94,255.91,270.68,260.61,265.51,261.3Z"/><path d="M243.33,333.55a2.42,2.42,0,0,1,2.41,2.47c0,1.6-1.35,2.67-3.34,2.67h-4V328.64h3.58c1.91,0,3.32,1,3.32,2.58A2.34,2.34,0,0,1,243.33,333.55Zm-2-.48c1.75,0,2.41-.87,2.41-1.75s-.86-1.51-1.84-1.51H239.8v3.26Zm-1.57,1.12v3.32h2.6c1.08,0,1.87-.6,1.87-1.54s-.77-1.78-2.6-1.78Z"/><path d="M257.7,338.69h-1.43V328.64h1.43Z"/><path d="M273.44,328.48a5.18,5.18,0,1,1-5.21,5.18A5.2,5.2,0,0,1,273.44,328.48Zm0,9.07a3.89,3.89,0,1,0-3.75-3.89A3.8,3.8,0,0,0,273.44,337.55Z"/><path d="M301.84,336a2.25,2.25,0,0,0,2.32,1.58c1.32,0,2.13-.66,2.13-1.54s-.66-1.28-1.48-1.58l-1.51-.52c-2-.64-2.33-1.81-2.33-2.68a3,3,0,0,1,3.23-2.77,3.11,3.11,0,0,1,3.29,2.38l-1.29.39a1.84,1.84,0,0,0-2-1.48c-1,0-1.78.53-1.78,1.45,0,.43.13,1,1.31,1.44l1.52.57a3,3,0,0,1,2.44,2.7c0,1.78-1.4,2.91-3.5,2.91a3.56,3.56,0,0,1-3.7-2.51Z"/><path d="M322.67,328.48a5.18,5.18,0,1,1-5.21,5.18A5.2,5.2,0,0,1,322.67,328.48Zm0,9.07a3.89,3.89,0,1,0-3.75-3.89A3.8,3.8,0,0,0,322.67,337.55Z"/><path d="M344.43,338.69h-6V328.64h1.44v8.87h4.59Z"/><path d="M362,328.64V335a4,4,0,0,1-8,0v-6.33h1.44V335a2.54,2.54,0,1,0,5.08,0v-6.33Z"/><path d="M380.11,328.64v1.17h-3.35v8.88h-1.43v-8.88H372v-1.17Z"/><path d="M391.67,338.69h-1.44V328.64h1.44Z"/><path d="M407.4,328.48a5.18,5.18,0,1,1-5.21,5.18A5.2,5.2,0,0,1,407.4,328.48Zm0,9.07a3.89,3.89,0,1,0-3.75-3.89A3.8,3.8,0,0,0,407.4,337.55Z"/><path d="M424.57,331.25v7.44h-1.43V328.64h1.06l5.5,7.4v-7.4h1.45v10.05h-1.06Z"/><path d="M442.83,336a2.27,2.27,0,0,0,2.33,1.58c1.32,0,2.13-.66,2.13-1.54s-.67-1.28-1.48-1.58l-1.51-.52c-2-.64-2.33-1.81-2.33-2.68a3,3,0,0,1,3.23-2.77,3.11,3.11,0,0,1,3.29,2.38l-1.29.39a1.85,1.85,0,0,0-2-1.48c-1,0-1.78.53-1.78,1.45,0,.43.13,1,1.31,1.44l1.52.57a3,3,0,0,1,2.44,2.7c0,1.78-1.4,2.91-3.5,2.91a3.58,3.58,0,0,1-3.71-2.51Z"/></svg>