<?xml version="1.0" encoding="utf-8"?>
<!-- Generator: Adobe Illustrator 22.1.0, SVG Export Plug-In . SVG Version: 6.00 Build 0)  -->
<svg version="1.1" id="Layer_1" xmlns="http://www.w3.org/2000/svg" xmlns:xlink="http://www.w3.org/1999/xlink" x="0px" y="0px"
	 viewBox="0 0 576 576" style="enable-background:new 0 0 576 576;" xml:space="preserve">
<style type="text/css">
	.st0{fill:#FFFFFF;}
	.st1{fill:#FFFFFF;stroke:#000000;stroke-width:0.9339;stroke-linecap:round;stroke-miterlimit:10;}
	.st2{fill:none;}
	.st3{font-family:'FilsonProBook';}
	.st4{font-size:16.1542px;}
</style>
<g>
	<g>
		<path d="M-132.5,244.5C-132.5,244.5-132.5,244.5-132.5,244.5c-0.3,0-0.6-0.3-0.5-0.6c0.4-3.8,2.4-6.9,6.5-8.2c0,0-7.5,2.6-8.8-3.4
			l0,13.8h0c0,0.9,1.3,0.9,2.8,0.9c1.5,0,2.8-0.1,2.8-1C-129.7,245.2-130.9,244.5-132.5,244.5z"/>
		<path d="M-109.3,254.1c-0.5,1.7-1.2,3.3-2.1,4.8c1.2,1.1,1.1,3.4,0.7,5.1c-0.1,0.7-0.6,1.8-2.7,2.5c-0.2,0.1-0.3,0.2-0.4,0.2
			c0,0.1,0,0.1-0.1,0.2c0.5,0.2,1.3,0.2,2.2,0.2c1.5,0,2.7-0.1,2.8-0.9h0c1.1-4.6,1.5-10.4,1.8-16.4
			C-107.5,251.6-108.3,253-109.3,254.1z"/>
		<path d="M-137.9,248.7C-137.9,248.7-137.9,248.7-137.9,248.7c-0.3,0-0.6-0.3-0.5-0.6c0.4-3.8,2.4-6.9,6.5-8.2c0,0-7.5,2.6-8.8-3.4
			l0,13.8h0c0,0.9,1.3,0.9,2.8,0.9c1.5,0,2.8-0.1,2.8-1C-135.1,249.4-136.3,248.7-137.9,248.7z"/>
		<path class="st0" d="M-126.2,227.1c-4.8,0-11.7,2.2-13.4,7.3c-0.5,1.5-0.5,3.3,0.5,4.7c1.3,1.7,4,1.2,5.8,0.6
			c1.5-0.5,2.6-1,4.2-1.3c4-0.6,7.2,1.3,8.8,4.1c1.3,2.3,2.1,7.2,0.2,9.5c-0.3,0.3-1.8-0.6-3.4,1.7c-0.4,0.5-1,0.4-2.8,1
			c-2,0.6-4.1,1.4-4.7,3.8c-0.1,0.5-0.5,0.9-1,1.1l-1.3,0.5l-1.8,0.6l-0.6,0.2c0,0-0.4,0.2-0.4,0.2l-2.3,0.8
			c-0.5,0.2-0.7,0.8-0.3,1.2l1.9,2.3l0,0l0.2,0.3c0.5,0.5,1.1,0.8,1.8,0.9c0.1,0,0.2,0,0.4,0h0l8.6,0.5c0.5,0.1,1.1,0.1,1.6,0.1
			c1.4,0,2.8-0.2,4.2-0.6c0.8-0.2,1.6-0.6,2.4-0.9v0c6.2-3,9.2-9.1,9.6-15.6C-107.2,238.9-114.1,227.1-126.2,227.1z"/>
		<path d="M-124,267.7c-0.6,0-1.2,0-1.7-0.1l-8.5-0.5c-0.2,0-0.3,0-0.5,0c-0.8-0.1-1.6-0.5-2.2-1.1l0,0l-2.2-2.6
			c-0.3-0.4-0.4-0.9-0.3-1.4c0.1-0.5,0.5-0.9,1-1l2.3-0.8c0,0,0.3-0.1,0.4-0.1l0.1,0l3.6-1.3c0.2-0.1,0.4-0.3,0.5-0.6
			c0.8-2.7,3.1-3.7,5.3-4.3c0.6-0.2,0.9-0.2,1.3-0.3c1.3-0.2,1.8-0.2,1.8-0.3c0.8-1.3,2.1-1.9,2.9-2c0,0,0,0,0,0
			c1.3-2,0.6-6.3-0.6-8.5c-1.2-2.2-3.9-4.4-8-3.7c-1.1,0.2-2,0.5-3.1,0.9c-0.3,0.1-0.7,0.2-1,0.4c-1.8,0.6-5.1,1.3-6.7-0.8
			c-1.1-1.4-1.3-3.4-0.6-5.4c1.7-5.1,8.6-7.8,14.1-7.8c5,0,9.4,1.9,12.9,5.6c4.3,4.5,6.6,11.2,6.2,18c-0.4,7.3-3.9,13.1-9.6,16.1v0
			l-0.4,0.2c-0.8,0.4-1.6,0.7-2.5,1C-121,267.5-122.5,267.7-124,267.7z M-135.8,264.9c0.3,0.4,0.8,0.6,1.3,0.6c0.1,0,0.2,0,0.3,0
			l0.1,0l8.6,0.5c0.5,0.1,1,0.1,1.6,0.1c1.4,0,2.7-0.2,4-0.6c0.7-0.2,1.3-0.4,1.9-0.7l0.3-0.2c5.4-2.6,8.7-8.1,9.1-15
			c0.4-6.3-1.8-12.6-5.8-16.8c-3.2-3.3-7.2-5.1-11.7-5.1c-7.5,0-11.7,4.1-12.6,6.7c-0.2,0.7-0.7,2.5,0.4,4c1.1,1.4,3.8,0.7,4.9,0.3
			c0.3-0.1,0.7-0.2,1-0.4c1.1-0.4,2.1-0.8,3.4-1c4-0.6,7.8,1.1,9.6,4.5c1.2,2.3,2.6,7.7,0.3,10.4c-0.4,0.4-1,0.3-1.4,0.4
			c-0.7,0.3-1,0.8-1.5,1.6c-0.4,0.6-1.1,0.3-2.3,0.5c-0.4,0.1-1,0.2-1.6,0.3c-1.9,0.6-3.6,1.3-4.2,3.2c-0.2,0.8-0.8,1.4-1.5,1.6
			l-3.6,1.3l0,0c-0.1,0-0.2,0.1-0.4,0.2l-1.6,0.6c-0.3,0.1-0.4,0.5-0.2,0.7L-135.8,264.9z"/>
		<g>
			<path d="M-130.5,258.2L-130.5,258.2c-0.3-0.1-0.4-0.4-0.3-0.7c0.6-1.2,2-2.2,3.2-2.7c3.5-1.4,6.3-1.2,8,0.5
				c0.2,0.2,0.2,0.5,0,0.7l0,0c-0.2,0.1-0.5,0.1-0.6,0c-1.4-1.4-3.9-1.5-7-0.3c-1,0.4-2.3,1.3-2.7,2.3
				C-130.1,258.2-130.3,258.3-130.5,258.2z"/>
		</g>
		<g>
			<path class="st0" d="M-117.1,259.3c1.2,0.9,2,2.4,2,4.1c0,2.7-2.8,4.9-5.3,4.9c-2.5,0-4.6-2.2-4.6-4.9"/>
			<path d="M-120.3,268.8c-2.6,0-4.8-2.1-5-4.9c0-0.3,0.2-0.5,0.5-0.5h0c0.2,0,0.4,0.2,0.5,0.4c0.2,2.2,2,4,4.1,4c0,0,0,0,0,0
				c1.1,0,2.3-0.5,3.3-1.3c1-0.9,1.5-2,1.5-3.1c0-1.3-0.6-2.6-1.5-3.4c-0.2-0.2-0.2-0.4-0.1-0.6l0,0c0.2-0.2,0.5-0.3,0.7-0.1
				c1.1,1,1.8,2.5,1.8,4.1c0,1.4-0.7,2.8-1.9,3.8C-117.5,268.2-119,268.8-120.3,268.8C-120.3,268.8-120.3,268.8-120.3,268.8z"/>
		</g>
	</g>
	<path d="M-111.9,268c0.8-0.1,1.6-0.5,2.2-0.8c0.6-0.4,1.1-1,0.7-1.5c-0.7-1-4.1-0.7-5.2,1.1C-114.7,267.8-113.2,268.2-111.9,268z"
		/>
</g>
<path d="M-195.7,247.2c6.7,0.8,10.1,5.2,10.1,10.3c0,6.4-5.3,10.4-13.1,10.4h-16.1v-40.6h14.2c7.3,0,13,3.7,13,10.3
	C-187.6,242-190.1,245.8-195.7,247.2z M-203,245.8c7.7,0,10.7-3.9,10.7-7.9c0-4.6-3.9-6.8-8.4-6.8h-9.7v14.7H-203z M-210.3,249.3
	v14.9h11.6c4.9,0,8.5-2.6,8.5-6.8c0-4.3-3.6-8.1-11.5-8.1H-210.3z"/>
<path d="M-174.6,259.2l-3.4,8.7h-4.7l16-40.6h5.3l16,40.6h-4.6l-3.4-8.7H-174.6z M-154.7,255.5l-9.3-23.8l-9.3,23.8H-154.7z"/>
<rect x="-178.2" y="275.5" class="st2" width="33.1" height="17.3"/>
<text transform="matrix(1 0 0 1 -170.4217 287.1699)" class="st4" style="font-family:'FilsonProBold';">to</text>
<rect x="136.7" y="-35.7" class="st2" width="311" height="17.3"/>
<text transform="matrix(1 0 0 1 207.9601 -23.9873)" class="st4" style="font-family:'FilsonProBold';">dog training services</text>
<rect x="-259" y="349.7" class="st2" width="197.7" height="17.3"/>
<text transform="matrix(1 0 0 1 -244.3094 361.3721)" class="st4" style="font-family:'FilsonProBold';">dog training services</text>
<g>
	<path d="M340.2-83.5c11.2,0,20.3,9.1,20.3,20.2s-9.1,20.2-20.3,20.2c-11.2,0-20.3-9.1-20.3-20.2S329-83.5,340.2-83.5z M340.2-47
		c8.7,0,15.9-7.1,15.9-16.3s-7.2-16.3-15.9-16.3c-8.7,0-15.9,7.1-15.9,16.3S331.5-47,340.2-47z"/>
</g>
<g>
	<path d="M386.3-83.5c11.2,0,20.3,9.1,20.3,20.2s-9.1,20.2-20.3,20.2c-11.2,0-20.3-9.1-20.3-20.2S375.1-83.5,386.3-83.5z M386.3-47
		c8.7,0,15.9-7.1,15.9-16.3s-7.2-16.3-15.9-16.3c-8.7,0-15.9,7.1-15.9,16.3S377.6-47,386.3-47z"/>
</g>
<g>
	<path d="M426.8-43.7h-11.7v-39.2h11.7c12.7,0,20.3,8.8,20.3,19.6S439.5-43.7,426.8-43.7z M426.8-79.3h-7.4v32h7.4
		c10,0,15.9-7.2,15.9-16S436.7-79.3,426.8-79.3z"/>
</g>
<g>
	<g>
		<path d="M219.2-66.6C219.2-66.6,219.2-66.6,219.2-66.6c-0.3,0-0.6-0.3-0.5-0.6c0.4-3.8,2.4-6.9,6.5-8.2c0,0-7.5,2.6-8.8-3.4
			l0,13.8h0c0,0.9,1.3,0.9,2.8,0.9c1.5,0,2.8-0.1,2.8-1C222-65.9,220.7-66.6,219.2-66.6z"/>
		<path d="M242.4-57.1c-0.5,1.7-1.2,3.3-2.1,4.8c1.2,1.1,1.1,3.4,0.7,5.1c-0.1,0.7-0.6,1.8-2.7,2.5c-0.2,0.1-0.3,0.2-0.4,0.2
			c0,0.1,0,0.1-0.1,0.2c0.5,0.2,1.3,0.2,2.2,0.2c1.5,0,2.7-0.1,2.8-0.9h0c1.1-4.6,1.5-10.4,1.8-16.4
			C244.2-59.5,243.4-58.1,242.4-57.1z"/>
		<path d="M213.8-62.4C213.8-62.4,213.8-62.4,213.8-62.4c-0.3,0-0.6-0.3-0.5-0.6c0.4-3.8,2.4-6.9,6.5-8.2c0,0-7.5,2.6-8.8-3.4
			l0,13.8h0c0,0.9,1.3,0.9,2.8,0.9c1.5,0,2.8-0.1,2.8-1C216.6-61.7,215.3-62.4,213.8-62.4z"/>
		<path class="st0" d="M225.5-84.1c-4.8,0-11.7,2.2-13.4,7.3c-0.5,1.5-0.5,3.3,0.5,4.7c1.3,1.7,4,1.2,5.8,0.6c1.5-0.5,2.6-1,4.2-1.3
			c4-0.6,7.2,1.3,8.8,4.1c1.3,2.3,2.1,7.2,0.2,9.5c-0.3,0.3-1.8-0.6-3.4,1.7c-0.4,0.5-1,0.4-2.8,1c-2,0.6-4.1,1.4-4.7,3.8
			c-0.1,0.5-0.5,0.9-1,1.1l-1.3,0.5l-1.8,0.6l-0.6,0.2c0,0-0.4,0.2-0.4,0.2l-2.3,0.8c-0.5,0.2-0.7,0.8-0.3,1.2L215-46l0,0l0.2,0.3
			c0.5,0.5,1.1,0.8,1.8,0.9c0.1,0,0.2,0,0.4,0h0l8.6,0.5c0.5,0.1,1.1,0.1,1.6,0.1c1.4,0,2.8-0.2,4.2-0.6c0.8-0.2,1.6-0.6,2.4-0.9v0
			c6.2-3,9.2-9.1,9.6-15.6C244.4-72.2,237.6-84.1,225.5-84.1z"/>
		<path d="M227.7-43.4c-0.6,0-1.2,0-1.7-0.1l-8.5-0.5c-0.2,0-0.3,0-0.5,0c-0.8-0.1-1.6-0.5-2.2-1.1l0,0l-2.2-2.6
			c-0.3-0.4-0.4-0.9-0.3-1.4c0.1-0.5,0.5-0.9,1-1l2.3-0.8c0,0,0.3-0.1,0.4-0.1l0.1,0l3.6-1.3c0.2-0.1,0.4-0.3,0.5-0.6
			c0.8-2.7,3.1-3.7,5.3-4.3c0.6-0.2,0.9-0.2,1.3-0.3c1.3-0.2,1.8-0.2,1.8-0.3c0.8-1.3,2.1-1.9,2.9-2c0,0,0,0,0,0
			c1.3-2,0.6-6.3-0.6-8.5c-1.2-2.2-3.9-4.4-8-3.7c-1.1,0.2-2,0.5-3.1,0.9c-0.3,0.1-0.7,0.2-1,0.4c-1.8,0.6-5.1,1.3-6.7-0.8
			c-1.1-1.4-1.3-3.4-0.6-5.4c1.7-5.1,8.6-7.8,14.1-7.8c5,0,9.4,1.9,12.9,5.6c4.3,4.5,6.6,11.2,6.2,18c-0.4,7.3-3.9,13.1-9.6,16.1v0
			l-0.4,0.2c-0.8,0.4-1.6,0.7-2.5,1C230.7-43.6,229.2-43.4,227.7-43.4z M215.9-46.3c0.3,0.4,0.8,0.6,1.3,0.6c0.1,0,0.2,0,0.3,0
			l0.1,0l8.6,0.5c0.5,0.1,1,0.1,1.6,0.1c1.4,0,2.7-0.2,4-0.6c0.7-0.2,1.3-0.4,1.9-0.7l0.3-0.2c5.4-2.6,8.7-8.1,9.1-15
			c0.4-6.3-1.8-12.6-5.8-16.8c-3.2-3.3-7.2-5.1-11.7-5.1c-7.5,0-11.7,4.1-12.6,6.7c-0.2,0.7-0.7,2.5,0.4,4c1.1,1.4,3.8,0.7,4.9,0.3
			c0.3-0.1,0.7-0.2,1-0.4c1.1-0.4,2.1-0.8,3.4-1c4-0.6,7.8,1.1,9.6,4.5c1.2,2.3,2.6,7.7,0.3,10.4c-0.4,0.4-1,0.3-1.4,0.4
			c-0.7,0.3-1,0.8-1.5,1.6c-0.4,0.6-1.1,0.3-2.3,0.5c-0.4,0.1-1,0.2-1.6,0.3c-1.9,0.6-3.6,1.3-4.2,3.2c-0.2,0.8-0.8,1.4-1.5,1.6
			l-3.6,1.3l0,0c-0.1,0-0.2,0.1-0.4,0.2l-1.6,0.6c-0.3,0.1-0.4,0.5-0.2,0.7L215.9-46.3z"/>
		<g>
			<path d="M221.1-52.9L221.1-52.9c-0.3-0.1-0.4-0.4-0.3-0.7c0.6-1.2,2-2.2,3.2-2.7c3.5-1.4,6.3-1.2,8,0.5c0.2,0.2,0.2,0.5,0,0.7
				l0,0c-0.2,0.1-0.5,0.1-0.6,0c-1.4-1.4-3.9-1.5-7-0.3c-1,0.4-2.3,1.3-2.7,2.3C221.6-53,221.4-52.9,221.1-52.9z"/>
		</g>
		<g>
			<path class="st0" d="M234.6-51.9c1.2,0.9,2,2.4,2,4.1c0,2.7-2.8,4.9-5.3,4.9c-2.5,0-4.6-2.2-4.6-4.9"/>
			<path d="M231.3-42.4c-2.6,0-4.8-2.1-5-4.9c0-0.3,0.2-0.5,0.5-0.5h0c0.2,0,0.4,0.2,0.5,0.4c0.2,2.2,2,4,4.1,4c0,0,0,0,0,0
				c1.1,0,2.3-0.5,3.3-1.3c1-0.9,1.5-2,1.5-3.1c0-1.3-0.6-2.6-1.5-3.4c-0.2-0.2-0.2-0.4-0.1-0.6l0,0c0.2-0.2,0.5-0.3,0.7-0.1
				c1.1,1,1.8,2.5,1.8,4.1c0,1.4-0.7,2.8-1.9,3.8C234.1-43,232.7-42.4,231.3-42.4C231.3-42.4,231.3-42.4,231.3-42.4z"/>
		</g>
	</g>
	<path d="M239.8-43.2c0.8-0.1,1.6-0.5,2.2-0.8c0.6-0.4,1.1-1,0.7-1.5c-0.7-1-4.1-0.7-5.2,1.1C236.9-43.3,238.5-43,239.8-43.2z"/>
</g>
<g>
	<path d="M156-64.4c6.7,0.8,10.1,5.2,10.1,10.3c0,6.4-5.3,10.4-13.1,10.4h-16.1v-40.6H151c7.3,0,13,3.7,13,10.3
		C164-69.7,161.5-65.8,156-64.4z M148.7-65.8c7.7,0,10.7-3.9,10.7-7.9c0-4.6-3.9-6.8-8.4-6.8h-9.7v14.7H148.7z M141.4-62.3v14.9H153
		c4.9,0,8.5-2.6,8.5-6.8c0-4.3-3.6-8.1-11.5-8.1H141.4z"/>
</g>
<g>
	<path d="M177.1-52.4l-3.4,8.7H169l16-40.6h5.3l16,40.6h-4.6l-3.4-8.7H177.1z M197-56.1l-9.3-23.8l-9.3,23.8H197z"/>
</g>
<rect x="244.4" y="-69" class="st2" width="33.1" height="17.3"/>
<text transform="matrix(1 0 0 1 252.1628 -57.3369)" class="st4" style="font-family:'FilsonProBold';">to</text>
<g>
	<path d="M-231.4,339.3c-1.7,0-3.8-0.1-6.1-0.5c-3.6-0.6-6-1.7-7-3.2c-0.3-0.4-0.2-0.8,0.2-1.1c0.4-0.3,0.8-0.2,1.1,0.2
		c0.8,1.1,3,2,6,2.5c2.8,0.5,5.7,0.6,7.4,0.4c8.2-0.6,13.4-4,13.7-8.8c0.3-3.8-1.2-5.7-4.9-6.1c-0.4,0-0.7-0.4-0.7-0.9
		c0-0.4,0.4-0.7,0.9-0.7c4.6,0.5,6.7,3.1,6.3,7.8c-0.3,5.6-6.2,9.5-15.2,10.3C-230.2,339.3-230.8,339.3-231.4,339.3z"/>
</g>
<g>
	<ellipse cx="-233.5" cy="321.1" rx="2.7" ry="1.5"/>
</g>
<g>
	<path d="M-238.1,311c1.5,2.9,3.1,5.7,1.9,10h2.7c0,0.1,0.4-11.7,0.4-11.7S-235.8,311.3-238.1,311z"/>
</g>
<g>
	<path class="st0" d="M-214.9,304.5l-2.3-0.6c0,0-0.4-0.1-0.4-0.1l-0.6-0.2l-1.8-0.5l-1.3-0.4c-0.5-0.1-0.9-0.5-1.1-1
		c-1.9-3.8-5.9-4.1-9.5-3.9c-5.5,0.2-14,6.3-17.6,12.7c-3.3,5.9-4.2,15.2,1.3,21.6c2.5,2.9,8,6.6,12.3,5.6c2.6-0.7,4.9-2.9,5.1-5.6
		c0.2-2.6-0.4-5.7-6.3-8.9c-2.3-1.3-2.2-6.2-1.1-8.1c1.2-2.2,4.6-4.9,7.1-5c0,0,0.7-0.7,0.7-0.7c1.4,0.3,1.1,0.7,2.5,0.6
		c0.5,0,1.1-0.1,1.6-0.2l8.1-0.9l0,0c0.1,0,0.2,0,0.4,0c0.7-0.1,1.2-0.4,1.6-0.9l0.2-0.3l0,0l1.5-2.2
		C-214.2,305.2-214.4,304.6-214.9,304.5z"/>
	<path d="M-237.3,338.7c-4.2,0-9-3.3-11.4-6c-5.8-6.8-4.8-16.4-1.4-22.5c3.7-6.6,12.3-12.9,18.2-13.1c4.1-0.2,8.2,0.3,10.3,4.4
		c0.1,0.2,0.3,0.5,0.6,0.6l3.7,1c0.1,0,0.4,0.1,0.4,0.1l2.3,0.6c0.5,0.1,0.9,0.5,1.1,1c0.2,0.5,0.1,0.9-0.2,1.3l-1.8,2.5
		c-0.5,0.6-1.2,1.1-2.1,1.2c-0.1,0-0.3,0-0.4,0.1l0,0l-8.1,0.9c-0.5,0.1-1.1,0.1-1.6,0.2c-0.9,0-1.3-0.1-1.8-0.3
		c-0.1-0.1-0.3-0.1-0.5-0.2c0,0,0,0,0,0c-0.4,0.4-0.6,0.6-1,0.6c-2.1,0.1-5.2,2.6-6.3,4.6c-0.6,1.1-0.9,3.4-0.4,5.2
		c0.2,0.6,0.5,1.4,1.2,1.8c6.3,3.5,6.9,7,6.7,9.7c-0.2,2.9-2.5,5.5-5.7,6.3C-236.1,338.6-236.7,338.7-237.3,338.7z M-230.5,298.6
		c-0.5,0-0.9,0-1.4,0c-5.3,0.2-13.5,6.2-16.9,12.3c-4.5,8.1-2.5,16.4,1.2,20.7c2.3,2.7,7.6,6.3,11.5,5.3c2.4-0.6,4.3-2.7,4.5-4.9
		c0.2-2.3-0.4-5.1-5.9-8.2c-0.9-0.5-1.6-1.5-1.9-2.8c-0.6-2-0.3-4.9,0.6-6.5c1.8-3.1,5.4-5.1,7.4-5.3c0,0,0.1-0.1,0.1-0.1
		c0.4-0.4,0.6-0.7,1.1-0.6c0.7,0.1,1,0.3,1.3,0.5c0.3,0.1,0.4,0.2,1,0.2c0.5,0,1-0.1,1.5-0.2l0,0l8.2-0.9c0.1,0,0.2,0,0.2,0
		c0.4-0.1,0.8-0.3,1.1-0.6l1.6-2.3l-2.2-0.6c-0.3-0.1-0.4-0.1-0.4-0.1v0l-3.6-1c-0.7-0.2-1.2-0.7-1.6-1.4
		C-224.6,299.1-227.5,298.6-230.5,298.6z M-231,309.3C-231,309.3-231,309.3-231,309.3C-231,309.3-231,309.3-231,309.3L-231,309.3z"
		/>
</g>
<g>
	<path class="st0" d="M-234,302.4c-1.2,0.8-1.9,2.3-1.9,3.9c0,2.6,2.6,4.7,5,4.7c2.4,0,4.4-2.1,4.4-4.7"/>
	<path d="M-230.9,311.5C-230.9,311.5-230.9,311.5-230.9,311.5c-1.3,0-2.7-0.6-3.7-1.5c-1.1-1-1.8-2.3-1.8-3.7c0-1.7,0.8-3.3,2.1-4.3
		c0.2-0.2,0.5-0.1,0.7,0.1c0.2,0.2,0.1,0.5-0.1,0.7c-1.1,0.8-1.7,2.1-1.7,3.5c0,1.1,0.5,2.1,1.5,3c0.9,0.8,2.1,1.3,3.1,1.3
		c0,0,0,0,0,0c2.1,0,3.9-1.9,3.9-4.2c0-0.3,0.2-0.5,0.5-0.5h0c0.3,0,0.5,0.2,0.5,0.5C-226,309.2-228.2,311.5-230.9,311.5z"/>
</g>
<g>
	<path d="M-235.1,325.2c-0.1,0-0.2,0-0.3-0.1c-3.4-2.3-6-2.6-6.8-2.6c-0.3,0-0.5-0.2-0.5-0.4c0-0.3,0.2-0.5,0.4-0.5
		c1-0.1,3.9,0.4,7.3,2.7c0.2,0.1,0.3,0.4,0.1,0.7C-234.8,325.1-234.9,325.2-235.1,325.2z"/>
</g>
<path d="M-186.3,298.9c11.2,0,20.3,9.1,20.3,20.2s-9.1,20.2-20.3,20.2c-11.2,0-20.3-9.1-20.3-20.2S-197.5,298.9-186.3,298.9z
	 M-186.3,335.4c8.7,0,15.9-7.1,15.9-16.3s-7.2-16.3-15.9-16.3c-8.7,0-15.9,7.1-15.9,16.3S-195,335.4-186.3,335.4z"/>
<path d="M-140.2,298.9c11.2,0,20.3,9.1,20.3,20.2s-9.1,20.2-20.3,20.2s-20.3-9.1-20.3-20.2S-151.4,298.9-140.2,298.9z M-140.2,335.4
	c8.7,0,15.9-7.1,15.9-16.3s-7.2-16.3-15.9-16.3c-8.7,0-15.9,7.1-15.9,16.3S-148.9,335.4-140.2,335.4z"/>
<path d="M-99.7,338.7h-11.7v-39.2h11.7c12.7,0,20.3,8.8,20.3,19.6S-87,338.7-99.7,338.7z M-99.7,303.1h-7.4v32h7.4
	c10,0,15.9-7.2,15.9-16S-89.8,303.1-99.7,303.1z"/>
<g>
	<path d="M297.6-41.7c-1.7,0-3.8-0.1-6.1-0.5c-3.6-0.6-6-1.7-7-3.2c-0.3-0.4-0.2-0.8,0.2-1.1c0.4-0.3,0.8-0.2,1.1,0.2
		c0.8,1.1,3,2,6,2.5c2.8,0.5,5.7,0.6,7.4,0.4c8.2-0.6,13.4-4,13.7-8.8c0.3-3.8-1.2-5.7-4.9-6.1c-0.4,0-0.7-0.4-0.7-0.9
		c0-0.4,0.4-0.7,0.9-0.7c4.6,0.5,6.7,3.1,6.3,7.8c-0.3,5.6-6.2,9.5-15.2,10.3C298.9-41.7,298.3-41.7,297.6-41.7z"/>
</g>
<g>
	<ellipse cx="295.6" cy="-59.9" rx="2.7" ry="1.5"/>
</g>
<g>
	<path d="M290.9-69.9c1.5,2.9,3.1,5.7,1.9,10h2.7c0,0.1,0.4-11.7,0.4-11.7S293.2-69.7,290.9-69.9z"/>
</g>
<g>
	<path class="st0" d="M314.1-76.5l-2.3-0.6c0,0-0.4-0.1-0.4-0.1l-0.6-0.2l-1.8-0.5l-1.3-0.4c-0.5-0.1-0.9-0.5-1.1-1
		c-1.9-3.8-5.9-4.1-9.5-3.9c-5.5,0.2-14,6.3-17.6,12.7c-3.3,5.9-4.2,15.2,1.3,21.6c2.5,2.9,8,6.6,12.3,5.6c2.6-0.7,4.9-2.9,5.1-5.6
		c0.2-2.6-0.4-5.7-6.3-8.9c-2.3-1.3-2.2-6.2-1.1-8.1c1.2-2.2,4.6-4.9,7.1-5c0,0,0.7-0.7,0.7-0.7c1.4,0.3,1.1,0.7,2.5,0.6
		c0.5,0,1.1-0.1,1.6-0.2l8.1-0.9l0,0c0.1,0,0.2,0,0.4,0c0.7-0.1,1.2-0.4,1.6-0.9l0.2-0.3l0,0l1.5-2.2
		C314.8-75.8,314.6-76.3,314.1-76.5z"/>
	<path d="M291.7-42.3c-4.2,0-9-3.3-11.4-6c-5.8-6.8-4.8-16.4-1.4-22.5c3.7-6.6,12.3-12.9,18.2-13.1c4.1-0.2,8.2,0.3,10.3,4.4
		c0.1,0.2,0.3,0.5,0.6,0.6l3.7,1c0.1,0,0.4,0.1,0.4,0.1l2.3,0.6c0.5,0.1,0.9,0.5,1.1,1c0.2,0.5,0.1,0.9-0.2,1.3l-1.8,2.5
		c-0.5,0.6-1.2,1.1-2.1,1.2c-0.1,0-0.3,0-0.4,0.1l0,0l-8.1,0.9c-0.5,0.1-1.1,0.1-1.6,0.2c-0.9,0-1.3-0.1-1.8-0.3
		c-0.1-0.1-0.3-0.1-0.5-0.2c0,0,0,0,0,0c-0.4,0.4-0.6,0.6-1,0.6c-2.1,0.1-5.2,2.6-6.3,4.6c-0.6,1.1-0.9,3.4-0.4,5.2
		c0.2,0.6,0.5,1.4,1.2,1.8c6.3,3.5,6.9,7,6.7,9.7c-0.2,2.9-2.5,5.5-5.7,6.3C292.9-42.4,292.3-42.3,291.7-42.3z M298.5-82.4
		c-0.5,0-0.9,0-1.4,0c-5.3,0.2-13.5,6.2-16.9,12.3c-4.5,8.1-2.5,16.4,1.2,20.7c2.3,2.7,7.6,6.3,11.5,5.3c2.4-0.6,4.3-2.7,4.5-4.9
		c0.2-2.3-0.4-5.1-5.9-8.2c-0.9-0.5-1.6-1.5-1.9-2.8c-0.6-2-0.3-4.9,0.6-6.5c1.8-3.1,5.4-5.1,7.4-5.3c0,0,0.1-0.1,0.1-0.1
		c0.4-0.4,0.6-0.7,1.1-0.6c0.7,0.1,1,0.3,1.3,0.5c0.3,0.1,0.4,0.2,1,0.2c0.5,0,1-0.1,1.5-0.2l0,0l8.2-0.9c0.1,0,0.2,0,0.3,0
		c0.4-0.1,0.8-0.3,1.1-0.6l1.6-2.3l-2.2-0.6c-0.2-0.1-0.4-0.1-0.4-0.1v0l-3.6-1c-0.7-0.2-1.2-0.7-1.6-1.4
		C304.5-81.9,301.5-82.4,298.5-82.4z M298-71.7C298-71.7,298-71.7,298-71.7C298-71.7,298-71.7,298-71.7L298-71.7z"/>
</g>
<g>
	<path class="st0" d="M295-78.6c-1.2,0.8-1.9,2.3-1.9,3.9c0,2.6,2.6,4.7,5,4.7c2.4,0,4.4-2.1,4.4-4.7"/>
	<path d="M298.2-69.5C298.2-69.5,298.2-69.5,298.2-69.5c-1.3,0-2.7-0.6-3.7-1.5c-1.1-1-1.8-2.3-1.8-3.7c0-1.7,0.8-3.3,2.1-4.3
		c0.2-0.2,0.5-0.1,0.7,0.1c0.2,0.2,0.1,0.5-0.1,0.7c-1.1,0.8-1.7,2.1-1.7,3.5c0,1.1,0.5,2.1,1.5,3c0.9,0.8,2.1,1.3,3.1,1.3
		c0,0,0,0,0,0c1,0,2-0.4,2.7-1.2c0.7-0.8,1.2-1.9,1.2-3c0-0.3,0.2-0.5,0.5-0.5c0,0,0,0,0,0c0.3,0,0.5,0.2,0.5,0.5
		c0,1.4-0.5,2.7-1.4,3.6C300.7-70,299.5-69.5,298.2-69.5z"/>
</g>
<g>
	<path d="M294-55.8c-0.1,0-0.2,0-0.3-0.1c-3.4-2.3-6-2.6-6.8-2.6c-0.3,0-0.5-0.2-0.5-0.4c0-0.3,0.2-0.5,0.4-0.5
		c1-0.1,3.9,0.4,7.3,2.8c0.2,0.1,0.3,0.4,0.1,0.7C294.3-55.8,294.1-55.8,294-55.8z"/>
</g>
<g>
	<path d="M-221.2,454c-4.1,0-10.8-1.2-13.6-3.6c-0.4-0.3-0.4-0.9-0.1-1.3c0.3-0.4,0.9-0.4,1.3-0.1c2.6,2.2,10,3.4,13.5,3.1
		c8.1-0.6,13.3-4,13.6-8.7c0.3-3.7-1.2-5.6-4.8-6c-0.5-0.1-0.9-0.5-0.8-1c0.1-0.5,0.5-0.9,1-0.8c4.7,0.5,6.8,3.2,6.5,7.9
		c-0.3,5.7-6.2,9.7-15.3,10.4C-220.3,453.9-220.7,454-221.2,454z"/>
</g>
<g>
	<ellipse cx="-223.7" cy="435.6" rx="2.7" ry="1.5"/>
</g>
<g>
	<path d="M-228.4,425.6c1.5,2.9,3.1,5.7,1.9,10h2.7c0,0.1,0.4-11.7,0.4-11.7S-226.1,425.8-228.4,425.6z"/>
</g>
<g>
	<path class="st0" d="M-205.2,419l-2.3-0.6c0,0-0.4-0.1-0.4-0.1l-0.6-0.2l-1.8-0.5l-1.3-0.4c-0.5-0.1-0.9-0.5-1.1-1
		c-1.9-3.8-5.9-4.1-9.5-3.9c-5.5,0.2-14,6.3-17.6,12.7c-3.3,5.9-4.2,15.2,1.3,21.6c2.5,2.9,8,6.6,12.3,5.6c2.6-0.7,4.9-2.9,5.1-5.6
		c0.2-2.6-0.4-5.7-6.3-8.9c-2.3-1.3-2.2-6.2-1.1-8.1c1.2-2.2,4.6-4.9,7.1-5c0,0,0.7-0.7,0.7-0.7c1.4,0.3,1.1,0.7,2.5,0.6
		c0.5,0,1.1-0.1,1.6-0.2l8.1-0.9l0,0c0.1,0,0.2,0,0.4,0c0.7-0.1,1.2-0.4,1.6-0.9l0.2-0.3l0,0l1.5-2.2
		C-204.5,419.7-204.7,419.2-205.2,419z"/>
	<path d="M-227.6,453.2c-4.2,0-9-3.3-11.3-6c-5.8-6.7-4.8-16.4-1.4-22.5c3.6-6.6,12.3-12.8,18.2-13.1c4.1-0.2,8.2,0.3,10.2,4.3
		c0.1,0.2,0.3,0.5,0.6,0.6l3.7,1c0.1,0,0.4,0.1,0.4,0.1l2.3,0.6c0.5,0.1,0.9,0.5,1,1c0.2,0.4,0.1,0.9-0.2,1.3l-1.8,2.5
		c-0.5,0.6-1.2,1-2,1.2c-0.1,0-0.3,0-0.4,0.1l0,0l-8.1,0.9c-0.5,0.1-1.1,0.1-1.6,0.2c-0.9,0-1.3-0.1-1.7-0.3
		c-0.1-0.1-0.3-0.2-0.5-0.2c0,0,0,0,0,0c-0.4,0.4-0.6,0.6-0.9,0.6c-2.1,0.1-5.2,2.6-6.4,4.6c-0.6,1.1-0.9,3.5-0.4,5.3
		c0.2,0.6,0.5,1.5,1.2,1.8c6.3,3.5,6.9,7,6.7,9.6c-0.2,2.9-2.5,5.5-5.6,6.2C-226.4,453.1-227,453.2-227.6,453.2z M-220.8,413.1
		c-0.5,0-0.9,0-1.4,0c-5.3,0.2-13.6,6.2-16.9,12.3c-4.5,8.1-2.5,16.5,1.3,20.8c2.4,2.7,7.7,6.3,11.6,5.3c2.4-0.6,4.3-2.7,4.5-4.9
		c0.2-2.3-0.4-5.2-5.9-8.2c-0.9-0.5-1.6-1.4-1.9-2.7c-0.6-2-0.3-4.9,0.6-6.4c1.3-2.3,4.8-5.1,7.4-5.3c0,0,0.1-0.1,0.1-0.1
		c0.4-0.4,0.6-0.7,1-0.6c0.7,0.1,1,0.3,1.3,0.5c0.3,0.1,0.4,0.2,1,0.2c0.5,0,1-0.1,1.5-0.2l0,0l8.2-0.9c0.1,0,0.2,0,0.3,0
		c0.5-0.1,0.8-0.3,1.1-0.6l1.7-2.4c0,0,0,0,0,0l-2.3-0.6c-0.2-0.1-0.4-0.1-0.4-0.1v0l-3.6-1c-0.7-0.2-1.2-0.7-1.6-1.3
		C-214.8,413.6-217.8,413.1-220.8,413.1z M-221.3,423.9C-221.3,423.9-221.3,423.9-221.3,423.9C-221.3,423.9-221.3,423.9-221.3,423.9
		L-221.3,423.9z"/>
</g>
<g>
	<path class="st0" d="M-224.3,416.9c-1.2,0.8-1.9,2.3-1.9,3.9c0,2.6,2.6,4.7,5,4.7c2.4,0,4.4-2.1,4.4-4.7"/>
	<path d="M-221.1,426C-221.1,426-221.1,426-221.1,426c-2.5,0-5.5-2.3-5.5-5.2c0-1.7,0.8-3.3,2.1-4.3c0.2-0.1,0.5-0.1,0.6,0.1
		c0.1,0.2,0.1,0.5-0.1,0.6c-1.1,0.8-1.7,2.1-1.7,3.5c0,2,2,4.3,4.6,4.3c0,0,0,0,0,0c2.2,0,3.9-1.9,3.9-4.2c0-0.3,0.2-0.5,0.5-0.5
		c0,0,0,0,0,0c0.3,0,0.5,0.2,0.5,0.5C-216.3,423.7-218.5,426-221.1,426z"/>
</g>
<g>
	<path d="M-225.3,439.7c-0.1,0-0.2,0-0.3-0.1c-3.4-2.3-6-2.6-6.8-2.6c-0.3,0-0.5-0.2-0.5-0.4c0-0.3,0.2-0.5,0.4-0.5
		c1-0.1,3.9,0.4,7.3,2.7c0.2,0.1,0.3,0.4,0.1,0.6C-225,439.6-225.2,439.7-225.3,439.7z"/>
</g>
<g>
	<g>
		<g>
			<path d="M-187.3,430.5C-187.3,430.5-187.3,430.5-187.3,430.5c-0.3,0-0.6-0.3-0.5-0.6c0.4-3.8,2.4-6.9,6.5-8.2
				c0,0-7.5,2.6-8.8-3.4l0,13.8h0c0,0.9,1.3,0.9,2.8,0.9c1.5,0,2.8-0.1,2.8-1S-185.8,430.5-187.3,430.5z"/>
		</g>
		<g>
			<path d="M-164.1,440c-0.5,1.7-1.2,3.3-2.1,4.8c1.2,1.1,1.1,3.4,0.7,5.1c-0.1,0.7-0.6,1.8-2.7,2.5c-0.2,0.1-0.3,0.2-0.4,0.2
				c0,0.1,0,0.1-0.1,0.2c0.5,0.2,1.3,0.2,2.2,0.2c1.5,0,2.7-0.1,2.8-0.9h0c1.1-4.6,1.5-10.4,1.8-16.4
				C-162.3,437.6-163.2,439-164.1,440z"/>
		</g>
		<g>
			<path d="M-192.7,434.7C-192.7,434.7-192.7,434.7-192.7,434.7c-0.3,0-0.6-0.3-0.5-0.6c0.4-3.8,2.4-6.9,6.5-8.2
				c0,0-7.5,2.6-8.8-3.4l0,13.8h0c0,0.9,1.3,0.9,2.8,0.9c1.5,0,2.8-0.1,2.8-1C-189.9,435.4-191.2,434.7-192.7,434.7z"/>
		</g>
		<g>
			<path class="st0" d="M-181,413c-4.8,0-11.7,2.2-13.4,7.3c-0.5,1.5-0.5,3.3,0.5,4.7c1.3,1.7,4,1.2,5.8,0.6c1.5-0.5,2.6-1,4.2-1.3
				c4-0.6,7.2,1.3,8.8,4.1c1.3,2.3,2.1,7.2,0.2,9.5c-0.3,0.3-1.8-0.6-3.4,1.7c-0.4,0.5-1,0.4-2.8,1c-2,0.6-4.1,1.4-4.7,3.8
				c-0.1,0.5-0.5,0.9-1,1.1l-1.3,0.5l-1.8,0.6l-0.6,0.2c0,0-0.4,0.2-0.4,0.2l-2.3,0.8c-0.5,0.2-0.7,0.8-0.3,1.2l1.9,2.3l0,0l0.2,0.3
				c0.5,0.5,1.1,0.8,1.8,0.9c0.1,0,0.2,0,0.4,0h0l8.6,0.5c0.5,0.1,1.1,0.1,1.6,0.1c1.4,0,2.8-0.2,4.2-0.6c0.8-0.2,1.6-0.6,2.4-0.9v0
				c6.2-3,9.2-9.1,9.6-15.6C-162.1,424.9-169,413-181,413z"/>
		</g>
		<g>
			<path d="M-178.9,453.7c-0.6,0-1.2,0-1.7-0.1l-8.5-0.5c-0.2,0-0.3,0-0.5,0c-0.8-0.1-1.6-0.5-2.2-1.1l0,0l-2.2-2.6
				c-0.3-0.4-0.4-0.9-0.3-1.4c0.1-0.5,0.5-0.9,1-1l2.3-0.8c0,0,0.3-0.1,0.4-0.1l0.1,0l3.6-1.3c0.2-0.1,0.4-0.3,0.5-0.6
				c0.8-2.7,3.1-3.7,5.3-4.3c0.6-0.2,0.9-0.2,1.3-0.3c1.3-0.2,1.8-0.2,1.8-0.3c0.8-1.3,2.1-1.9,2.9-2c0,0,0,0,0,0
				c1.3-2,0.6-6.3-0.6-8.5c-1.2-2.2-3.9-4.4-8-3.7c-1.1,0.2-2,0.5-3.1,0.9c-0.3,0.1-0.7,0.2-1,0.4c-1.8,0.6-5.1,1.3-6.7-0.8
				c-1.1-1.4-1.3-3.4-0.6-5.4c1.7-5.1,8.6-7.8,14.1-7.8c5,0,9.4,1.9,12.9,5.6c4.3,4.5,6.6,11.2,6.2,18c-0.4,7.3-3.9,13.1-9.6,16.1v0
				l-0.4,0.2c-0.8,0.4-1.6,0.7-2.5,1C-175.9,453.5-177.3,453.7-178.9,453.7z M-190.7,450.8c0.3,0.4,0.8,0.6,1.3,0.6
				c0.1,0,0.2,0,0.3,0l0.1,0l8.6,0.5c0.5,0.1,1,0.1,1.6,0.1c1.4,0,2.7-0.2,4-0.6c0.7-0.2,1.3-0.4,1.9-0.7l0.3-0.2
				c5.4-2.6,8.7-8.1,9.1-15c0.4-6.3-1.8-12.6-5.8-16.8c-3.2-3.3-7.2-5.1-11.7-5.1c-7.5,0-11.7,4.1-12.6,6.7c-0.2,0.7-0.7,2.5,0.4,4
				c1.1,1.4,3.8,0.7,4.9,0.3c0.3-0.1,0.7-0.2,1-0.4c1.1-0.4,2.1-0.8,3.4-1c4-0.6,7.8,1.1,9.6,4.5c1.2,2.3,2.6,7.7,0.3,10.4
				c-0.4,0.4-1,0.3-1.4,0.4c-0.7,0.3-1,0.8-1.5,1.6c-0.4,0.6-1.1,0.3-2.3,0.5c-0.4,0.1-1,0.2-1.6,0.3c-1.9,0.6-3.6,1.3-4.2,3.2
				c-0.2,0.8-0.8,1.4-1.5,1.6l-3.6,1.3l0,0c-0.1,0-0.2,0.1-0.4,0.2l-1.6,0.6c-0.3,0.1-0.4,0.5-0.2,0.7L-190.7,450.8z"/>
		</g>
		<g>
			<g>
				<path d="M-185.4,444.2L-185.4,444.2c-0.3-0.1-0.4-0.4-0.3-0.7c0.6-1.2,2-2.2,3.2-2.7c3.5-1.4,6.3-1.2,8,0.5
					c0.2,0.2,0.2,0.5,0,0.7l0,0c-0.2,0.1-0.5,0.1-0.6,0c-1.4-1.4-3.9-1.5-7-0.3c-1,0.4-2.3,1.3-2.7,2.3
					C-184.9,444.1-185.2,444.2-185.4,444.2z"/>
			</g>
		</g>
		<g>
			<g>
				<path class="st0" d="M-171.9,445.2c1.2,0.9,2,2.4,2,4.1c0,2.7-2.8,4.9-5.3,4.9s-4.6-2.2-4.6-4.9"/>
			</g>
			<g>
				<path d="M-175.2,454.7c-2.6,0-4.8-2.1-5-4.9c0-0.3,0.2-0.5,0.5-0.5h0c0.2,0,0.4,0.2,0.5,0.4c0.2,2.2,2,4,4.1,4c0,0,0,0,0,0
					c1.1,0,2.3-0.5,3.3-1.3c1-0.9,1.5-2,1.5-3.1c0-1.3-0.6-2.6-1.5-3.4c-0.2-0.2-0.2-0.4-0.1-0.6l0,0c0.2-0.2,0.5-0.3,0.7-0.1
					c1.1,1,1.8,2.5,1.8,4.1c0,1.4-0.7,2.8-1.9,3.8C-172.4,454.1-173.8,454.7-175.2,454.7C-175.2,454.7-175.2,454.7-175.2,454.7z"/>
			</g>
		</g>
	</g>
	<g>
		<path d="M-166.7,453.9c0.8-0.1,1.6-0.5,2.2-0.8c0.6-0.4,1.1-1,0.7-1.5c-0.7-1-4.1-0.7-5.2,1.1C-169.6,453.8-168,454.1-166.7,453.9
			z"/>
	</g>
</g>
<g>
	<g>
		<path class="st1" d="M236.3,162.2"/>
	</g>
	<g>
		<path d="M238.4,131.5c-3.6-3.7-8.5-5.6-14-5.6c-5.5,0.1-13,0.9-13.5,7.5c0,0.3,0,0.6,0,0.9c0,0,0,0,0-0.1v15h0
			c0,0.8,1.2,1.3,2.7,1.3c1.5,0,2.7-0.5,2.7-1.3c0-0.9-1.2-1.5-2.7-1.5c-0.1,0-0.2,0-0.3,0c0.2-2.2,1-6,4.3-8v5.9
			c0,0.8,1.2,1.3,2.7,1.3c1.5,0,2.7-0.5,2.7-1.3s-1.2-1.5-2.7-1.5c-0.1,0-0.2,0-0.3,0c0.1-1.5,0.5-3.8,1.8-5.7
			c0.2,0,0.4-0.1,0.7-0.1c3.4-0.3,7.1,1.4,8.6,3.9c1.5,2.6,1.5,6.3-0.1,8.3c0,0-0.1,0-0.1,0c-0.7,0-2,0.2-3.3,1.8l0,0
			c-0.1,0.1-0.4,0.1-0.7,0.2c-0.4,0.1-1,0.2-1.8,0.5c-1.4,0.5-4.4,1.5-5.4,4.3c-0.1,0.4-0.3,0.6-0.5,0.7l-3.4,1.5l0,0
			c-0.1,0-0.4,0.2-0.4,0.2l-2.2,1c-0.5,0.2-0.8,0.6-0.9,1.1c-0.1,0.5,0.1,1,0.4,1.3l2.3,2.4l0,0c0.6,0.6,1.4,0.9,2.3,0.9
			c0.1,0,0.1,0,0.2,0c0.1,0,0.2,0,0.3,0l8.4-0.1c0.6,0,1.1,0,1.7,0c0.3,0,0.6-0.1,1-0.1c0.8,0.5,1.8,0.8,2.8,0.8c0,0,0.1,0,0.1,0
			c1.3,0,2.6-0.7,3.6-1.8c0.4-0.5,0.8-1,1.1-1.6c0.5-0.4,1.1-0.9,2-1.8c0.8-0.8,1.5-1.6,2.1-2.5c0.3,1.5,0.1,3.1-0.1,4.2
			c-0.3,0-0.7,0-1.1,0.1c-1.6,0.4-2.7,1.5-2.1,2.4c0.5,0.8,2.2,0.8,3.5,0.2c0.8-0.4,1.3-1,1.4-1.6h0c0.7-4.1,1.7-9.6,2.1-14.2
			c0,0,0,0,0,0c0.2-0.9,0.2-1.8,0.3-2.7C244.6,141.5,242.4,135.6,238.4,131.5z M239.8,157.7c-0.7,1.1-1.6,2.2-2.5,3.1
			c-0.2,0.2-0.3,0.3-0.5,0.5c-0.2-1.7-1.1-3.2-2.5-4.1c-0.2-0.1-0.5-0.1-0.6,0.2c-0.1,0.2-0.1,0.5,0.2,0.6c0.4,0.2,0.7,0.5,1,0.8
			c0.3,0.4,0.6,0.8,0.8,1.3c0,0,0,0,0,0c0.2,0.4,0.3,0.8,0.3,1.3v0c0,0,0,0,0,0c0,0,0,0,0,0c0,0.2,0,0.4,0,0.6
			c-0.1,0.4-0.2,0.9-0.4,1.3c-0.2,0.4-0.5,0.9-0.9,1.3c-0.2,0.2-0.3,0.3-0.5,0.5c-0.8,0.7-1.7,1-2.5,1c-0.4,0-0.8-0.1-1.2-0.2
			c-0.4-0.1-0.8-0.3-1.2-0.5c-0.3-0.2-0.6-0.4-0.8-0.7c-0.7-0.7-1.1-1.6-1.2-2.6v0c0-0.3-0.2-0.4-0.5-0.4c-0.3,0-0.5,0.2-0.4,0.5
			c0.1,1,0.4,1.9,1,2.7c-0.4,0-0.7,0-1.1,0h0l-8.5,0.1l-0.1,0c-0.1,0-0.2,0-0.3,0c-0.5,0-0.9-0.2-1.3-0.5l-2.2-2.3l2.1-0.9
			c0,0,0.1,0,0.2-0.1c0.1,0,0.2-0.1,0.2-0.1l3.4-1.5c0.6-0.3,1.1-0.8,1.3-1.6c0.7-2.1,3.1-2.9,4.4-3.4c0.7-0.2,1.2-0.3,1.6-0.4
			c0.2,0,0.3-0.1,0.4-0.1c1.1,0,1.9,0.3,2.7,0.9c0.2,0.1,0.5,0.1,0.7-0.1c0.1-0.2,0.1-0.5-0.1-0.6c-0.7-0.4-1.3-0.8-2-0.9
			c0.8-1,1.6-1,2.2-1.1c0.4,0,0.8-0.1,1.1-0.4c2.1-2.5,2.2-7,0.3-10.3c-1.6-2.8-5.4-4.7-9.1-4.7c-0.3,0-0.7,0-1,0
			c-0.8,0.1-1.7,0.2-2.5,0.4c-0.8,0.2-1.5,0.3-2.2,0.4c-0.8,0.1-1.6,0.1-2.3-0.1c-2.6-0.6-2.8-2.7-2.7-3.9c0.3-4.1,4-6,11.9-6.1
			c5.1,0,9.5,1.7,12.9,5.1c3.7,3.8,5.8,9.3,5.6,15.1c0,1.5-0.3,3.1-0.7,4.6C241.7,154.2,240.9,156.1,239.8,157.7z"/>
	</g>
</g>
<g>
	<path d="M308.4,150.4c-1.5-1.5-3.7-1.6-5.9-1.5c-0.4,0-0.8,0.4-0.7,0.8c0,0.2,0.1,0.3,0.1,0.4c0.1,0.2,0.4,0.3,0.7,0.3
		c2.5-0.1,3.9,0.2,4.8,1c0.9,0.9,1.3,2.7,1.2,5.6c-0.3,5.1-4.8,8.4-12.3,9c-1.1,0.1-2.6,0-4.1-0.1c1.7-0.8,3.1-2.3,3.8-4.8
		c0.5-1.7,0.3-4.1-1.1-6.1c-0.9-1.5-2.4-2.8-4.7-3.6c-3-1-4-2.7-3.4-5.9c0.1-0.6,0.4-1.3,0.7-2c0.3,2.2,1.2,4.6,1.2,5.4
		c0,0.1,0,0.2,0,0.3c0,0.8,1.2,1.3,2.6,1.3c1.5,0,2.6-0.5,2.6-1.3c0-0.8-1.2-1.5-2.6-1.5c-0.2,0-0.3,0-0.5,0
		c-0.2-1.9-0.8-5.1,0.1-7.5h0c0.1,0,0.2,0,0.3,0c1.6-0.1,2.9-0.7,3.8-1.6c0.2,0,0.5-0.1,0.7-0.1c0.1,0,10.1-1.2,10.3-1.3
		c0.8-0.2,1.5-0.6,2-1.3l1.6-2.5c0.2-0.4,0.3-0.9,0.1-1.3c-0.2-0.5-0.6-0.8-1.1-0.9l-6.1-1.5c-0.3-0.1-0.5-0.4-0.6-0.5
		c-2.2-3.9-5.9-3.9-8.1-3.8l-0.3,0c-1.8,0-3.6,0.4-5.5,1.2c-1.8,0.8-3.7,2-5.6,3.6c-2.4,2.1-4.3,4.7-5.4,6.5l-0.2,0.3
		c-0.2,0.4-0.5,0.8-0.7,1.3c-3.1,6-4.1,15.1,2.3,22.4c1.7,2,3.9,3.6,6,4.6c0,0,0,0,0,0c3,1.6,7.4,2.3,10.5,2.3c0.5,0,1,0,1.4,0
		c11.8-0.9,13.5-7.6,13.7-10.5C310.2,153.8,309.7,151.7,308.4,150.4z M288.2,165c-0.9-0.2-1.9-0.5-2.8-0.9c-0.6-0.3-1.2-0.6-1.8-1
		c-0.2-0.1-0.4-0.3-0.6-0.4c-1.2-0.8-2.3-1.8-3.3-2.9c-5.9-6.7-5-15.1-2.1-20.7c0.2-0.4,0.4-0.8,0.7-1.2l0.2-0.3
		c1.1-1.7,2.8-4.2,5.1-6.1c3.4-3,6.8-4.5,10-4.5l0.3,0c2.1,0,5,0,6.8,3.1c0.4,0.7,1,1.1,1.6,1.3l6,1.4l-1.5,2.4
		c-0.2,0.3-0.6,0.5-1,0.6c-0.5,0.1-7.6,0.9-9.6,1.2c0.1-0.4,0.2-0.8,0.3-1.3c0-0.3-0.2-0.5-0.4-0.5c-0.2,0-0.4,0.1-0.5,0.3
		c0,0,0,0.1,0,0.1c0,0.6-0.2,1.1-0.4,1.5c-0.2,0.3-0.4,0.6-0.6,0.9c-0.7,0.8-1.8,1.3-3.1,1.4c0,0-0.1,0-0.1,0c-0.3,0-0.6,0-0.9,0
		c-0.3,0-0.6-0.1-0.9-0.2c0,0-0.1,0-0.1,0c-0.8-0.3-1.5-0.9-2-1.7c-0.8-1.2-0.4-3.6,0.7-4.8c0,0,0.1-0.1,0.1-0.1
		c0.1-0.2,0-0.4-0.1-0.5c-0.2-0.2-0.5-0.2-0.7,0c-1.4,1.5-1.8,4.3-0.8,5.9c0.4,0.6,0.9,1.2,1.5,1.6c0.2,0.1,0.4,0.2,0.6,0.3
		c-0.5,0.5-0.9,1-1.3,1.6c-0.9,1.3-1.6,2.8-1.9,4c-0.5,2.4-0.1,4.2,1.1,5.6c0.1,0.1,0.1,0.1,0.2,0.2c-1.3-0.2-2-0.3-2-0.3
		c0,0,0,0,0,0c-0.3,0-0.5,0.2-0.5,0.5c0,0.3,0.2,0.5,0.5,0.5c0,0,1.6,0,4.1,0.8c0,0,0,0,0,0c0.1,0,0.3,0.1,0.4,0.1c0,0,0,0,0,0
		c0.2,0.1,0.4,0.1,0.5,0.2c1.9,0.6,3.1,1.7,3.9,3c1,1.6,1.2,3.5,0.8,4.8C293.1,165.7,288.7,165.1,288.2,165z"/>
</g>
<g>
	<path d="M338.8,126.1c-11.3,0-20.5,9.2-20.5,20.4s9.2,20.4,20.5,20.4s20.5-9.2,20.5-20.4S350.1,126.1,338.8,126.1z M357.5,146.5
		c0,10.3-8.4,18.8-18.7,18.8s-18.7-8.4-18.7-18.8s8.4-18.8,18.7-18.8S357.5,136.2,357.5,146.5z"/>
	<path d="M385.5,126.1c-11.3,0-20.5,9.2-20.5,20.4s9.2,20.4,20.5,20.4s20.5-9.2,20.5-20.4S396.8,126.1,385.5,126.1z M404.2,146.5
		c0,10.3-8.4,18.8-18.7,18.8s-18.7-8.4-18.7-18.8s8.4-18.8,18.7-18.8S404.2,136.2,404.2,146.5z"/>
	<path d="M440.6,132.6c-3.6-3.7-8.5-5.8-13.7-5.8H415v39.6h11.9c10.8,0,19.3-8.7,19.3-19.8C446.2,141.2,444.2,136.3,440.6,132.6z
		 M444.4,146.5c0,10.2-7.7,18.2-17.5,18.2h-10.1v-36.3h10.1C436.6,128.4,444.4,136.5,444.4,146.5z"/>
</g>
<g>
	<g>
		<path d="M156.9,146.3c7.1,1.2,10.9,5.5,10.9,10.7c0,6-5.2,9.5-12.1,9.5h-15.3v-39.9h13.3c6.3,0,12,3,12,9.6
			C165.7,140.8,162.9,144.8,156.9,146.3z M141.8,127.9v17.8h9.6c8.9,0,12.9-4.5,12.9-9.6c0-5.7-5-8.3-10.5-8.3H141.8z M141.8,147.1
			v18.1h13.9c6.2,0,10.7-3,10.7-8.3c0-5.4-4.8-9.9-13.6-9.9H141.8z"/>
		<path d="M155.7,166.7h-15.5v-40.3h13.5c5.6,0,12.2,2.6,12.2,9.8c0,4.9-3,8.5-8.2,10.1c6.4,1.3,10.3,5.4,10.3,10.7
			C168,162.9,163.2,166.7,155.7,166.7z M140.6,166.3h15.2c7.3,0,12-3.7,12-9.3c0-5.4-4.1-9.4-10.8-10.5l-0.8-0.1l0.8-0.2
			c5.5-1.4,8.7-5,8.7-9.9c0-6.9-6.4-9.4-11.9-9.4h-13.2V166.3z M155.7,165.4h-14.1v-18.5h11.2c8.2,0,13.7,4,13.7,10
			C166.6,162,162.3,165.4,155.7,165.4z M142,165h13.7c6.4,0,10.5-3.2,10.5-8.1c0-5.8-5.4-9.7-13.4-9.7H142V165z M151.4,145.9h-9.8
			v-18.2h12.1c4.9,0,10.7,2.2,10.7,8.4C164.4,140.9,161,145.9,151.4,145.9z M142,145.6h9.4c9.4,0,12.7-4.9,12.7-9.4
			c0-3.9-2.7-8.1-10.4-8.1H142V145.6z"/>
	</g>
	<g>
		<path d="M171.4,166.5l16.5-39.9h2.1l16.5,39.9h-1.7l-3.8-9.3h-24.2l-3.8,9.3H171.4z M177.3,155.9h23.1l-11.5-28L177.3,155.9z"/>
		<path d="M206.8,166.7h-2l-3.8-9.3h-24l-3.8,9.3h-2l16.7-40.3h2.3l0,0.1L206.8,166.7z M205,166.3h1.3l-16.4-39.6H188l-16.4,39.6
			h1.2l3.8-9.3h24.5L205,166.3z M200.7,156.1h-23.7l11.9-28.6l0.2,0.4L200.7,156.1z M177.6,155.7h22.6l-11.3-27.4L177.6,155.7z"/>
	</g>
</g>
<rect x="246.6" y="140.7" class="st2" width="26.2" height="17.3"/>
<text transform="matrix(1 0 0 1 251.4918 152.3786)" class="st3 st4">to</text>
<rect x="141.5" y="174.2" class="st2" width="311" height="17.3"/>
<text transform="matrix(1 0 0 1 217.0752 185.8582)" class="st3 st4">dog training services</text>
<g>
	<g>
		<path class="st1" d="M328.8,286.2"/>
	</g>
	<g>
		<path d="M331,255.4c-3.6-3.7-8.5-5.6-14-5.6c-5.5,0.1-13,0.9-13.5,7.5c0,0.3,0,0.6,0,0.9c0,0,0,0,0-0.1v15h0
			c0,0.8,1.2,1.3,2.7,1.3c1.5,0,2.7-0.5,2.7-1.3c0-0.9-1.2-1.5-2.7-1.5c-0.1,0-0.2,0-0.3,0c0.2-2.2,1-6,4.3-8v5.9
			c0,0.8,1.2,1.3,2.7,1.3s2.7-0.5,2.7-1.3c0-0.8-1.2-1.5-2.7-1.5c-0.1,0-0.2,0-0.3,0c0.1-1.5,0.5-3.8,1.8-5.7c0.2,0,0.4-0.1,0.7-0.1
			c3.4-0.3,7.1,1.4,8.6,3.9c1.5,2.6,1.5,6.3-0.1,8.3c0,0-0.1,0-0.1,0c-0.7,0-2,0.2-3.3,1.8l0,0c-0.1,0.1-0.4,0.1-0.7,0.2
			c-0.4,0.1-1,0.2-1.8,0.5c-1.4,0.5-4.4,1.5-5.4,4.3c-0.1,0.4-0.3,0.6-0.5,0.7l-3.4,1.5l0,0c-0.1,0-0.4,0.2-0.4,0.2l-2.2,1
			c-0.5,0.2-0.8,0.6-0.9,1.1c-0.1,0.5,0.1,1,0.4,1.3l2.3,2.4l0,0c0.6,0.6,1.4,0.9,2.3,0.9c0.1,0,0.1,0,0.2,0c0.1,0,0.2,0,0.3,0
			l8.4-0.1c0.6,0,1.1,0,1.7,0c0.3,0,0.6-0.1,1-0.1c0.8,0.5,1.8,0.8,2.8,0.8c0,0,0.1,0,0.1,0c1.3,0,2.6-0.7,3.6-1.8
			c0.4-0.5,0.8-1,1.1-1.6c0.5-0.4,1.1-0.9,2-1.8c0.8-0.8,1.5-1.6,2.1-2.5c0.3,1.5,0.1,3.1-0.1,4.2c-0.3,0-0.7,0-1.1,0.1
			c-1.6,0.4-2.7,1.5-2.1,2.4c0.5,0.8,2.2,0.8,3.5,0.2c0.8-0.4,1.3-1,1.4-1.6h0c0.7-4.1,1.7-9.6,2.1-14.2c0,0,0,0,0,0
			c0.2-0.9,0.2-1.8,0.3-2.7C337.2,265.4,335,259.5,331,255.4z M332.4,281.6c-0.7,1.1-1.6,2.2-2.5,3.1c-0.2,0.2-0.3,0.3-0.5,0.5
			c-0.2-1.7-1.1-3.2-2.5-4.1c-0.2-0.1-0.5-0.1-0.6,0.2c-0.1,0.2-0.1,0.5,0.2,0.6c0.4,0.2,0.7,0.5,1,0.8c0.3,0.4,0.6,0.8,0.8,1.3
			c0,0,0,0,0,0c0.2,0.4,0.3,0.8,0.3,1.3v0c0,0,0,0,0,0c0,0,0,0,0,0c0,0.2,0,0.4,0,0.6c-0.1,0.4-0.2,0.9-0.4,1.3
			c-0.2,0.4-0.5,0.9-0.9,1.3c-0.2,0.2-0.3,0.3-0.5,0.5c-0.8,0.7-1.7,1-2.5,1c-0.4,0-0.8-0.1-1.2-0.2c-0.4-0.1-0.8-0.3-1.2-0.5
			c-0.3-0.2-0.6-0.4-0.8-0.7c-0.7-0.7-1.1-1.6-1.2-2.6v0c0-0.3-0.2-0.4-0.5-0.4c-0.3,0-0.5,0.2-0.4,0.5c0.1,1,0.4,1.9,1,2.7
			c-0.4,0-0.7,0-1.1,0h0l-8.5,0.1l-0.1,0c-0.1,0-0.2,0-0.3,0c-0.5,0-0.9-0.2-1.3-0.5l-2.2-2.3l2.1-0.9c0,0,0.1,0,0.2-0.1
			c0.1,0,0.2-0.1,0.2-0.1l3.4-1.5c0.6-0.3,1.1-0.8,1.3-1.6c0.7-2.1,3.1-2.9,4.4-3.4c0.7-0.2,1.2-0.3,1.6-0.4c0.2,0,0.3-0.1,0.4-0.1
			c1.1,0,1.9,0.3,2.7,0.9c0.2,0.1,0.5,0.1,0.7-0.1c0.1-0.2,0.1-0.5-0.1-0.6c-0.7-0.4-1.3-0.8-2-0.9c0.8-1,1.6-1,2.2-1.1
			c0.4,0,0.8-0.1,1.1-0.4c2.1-2.5,2.2-7,0.3-10.3c-1.6-2.8-5.4-4.7-9.1-4.7c-0.3,0-0.7,0-1,0c-0.8,0.1-1.7,0.2-2.5,0.4
			c-0.8,0.2-1.5,0.3-2.2,0.4c-0.8,0.1-1.6,0.1-2.3-0.1c-2.6-0.6-2.8-2.7-2.7-3.9c0.3-4.1,4-6,11.9-6.1c5.1,0,9.5,1.7,12.9,5.1
			c3.7,3.8,5.8,9.3,5.6,15.1c0,1.5-0.3,3.1-0.7,4.6C334.2,278.1,333.4,280,332.4,281.6z"/>
	</g>
</g>
<g>
	<path d="M230.6,340.3c-1.5-1.5-3.7-1.6-5.9-1.5c-0.4,0-0.8,0.4-0.7,0.8c0,0.2,0.1,0.3,0.1,0.4c0.1,0.2,0.4,0.3,0.7,0.3
		c2.5-0.1,3.9,0.2,4.8,1c0.9,0.9,1.3,2.7,1.2,5.6c-0.3,5.1-4.8,8.4-12.3,9c-1.1,0.1-2.6,0-4.1-0.1c1.7-0.8,3.1-2.3,3.8-4.8
		c0.5-1.7,0.3-4.1-1.1-6.1c-0.9-1.5-2.4-2.8-4.7-3.6c-3-1-4-2.7-3.4-5.9c0.1-0.6,0.4-1.3,0.7-2c0.3,2.2,1.2,4.6,1.2,5.4
		c0,0.1,0,0.2,0,0.3c0,0.8,1.2,1.3,2.6,1.3c1.5,0,2.6-0.5,2.6-1.3c0-0.8-1.2-1.5-2.6-1.5c-0.2,0-0.3,0-0.5,0
		c-0.2-1.9-0.8-5.1,0.1-7.5h0c0.1,0,0.2,0,0.3,0c1.6-0.1,2.9-0.7,3.8-1.6c0.2,0,0.5-0.1,0.7-0.1c0.1,0,10.1-1.2,10.3-1.3
		c0.8-0.2,1.5-0.6,2-1.3l1.6-2.5c0.2-0.4,0.3-0.9,0.1-1.3c-0.2-0.5-0.6-0.8-1.1-0.9l-6.1-1.5c-0.3-0.1-0.5-0.4-0.6-0.5
		c-2.2-3.9-5.9-3.9-8.1-3.8l-0.3,0c-1.8,0-3.6,0.4-5.5,1.2c-1.8,0.8-3.7,2-5.6,3.6c-2.4,2.1-4.3,4.7-5.4,6.5l-0.2,0.3
		c-0.2,0.4-0.5,0.8-0.7,1.3c-3.1,6-4.1,15.1,2.3,22.4c1.7,2,3.9,3.6,6,4.6c0,0,0,0,0,0c3,1.6,7.4,2.3,10.5,2.3c0.5,0,1,0,1.4,0
		c11.8-0.9,13.5-7.6,13.7-10.5C232.5,343.7,231.9,341.6,230.6,340.3z M210.4,354.9c-0.9-0.2-1.9-0.5-2.8-0.9c-0.6-0.3-1.2-0.6-1.8-1
		c-0.2-0.1-0.4-0.3-0.6-0.4c-1.2-0.8-2.3-1.8-3.3-2.9c-5.9-6.7-5-15.1-2.1-20.7c0.2-0.4,0.4-0.8,0.7-1.2l0.2-0.3
		c1.1-1.7,2.8-4.2,5.1-6.1c3.4-3,6.8-4.5,10-4.5l0.3,0c2.1,0,5,0,6.8,3.1c0.4,0.7,1,1.1,1.6,1.3l6,1.4L229,325
		c-0.2,0.3-0.6,0.5-1,0.6c-0.5,0.1-7.6,0.9-9.6,1.2c0.1-0.4,0.2-0.8,0.3-1.3c0-0.3-0.2-0.5-0.4-0.5c-0.2,0-0.4,0.1-0.5,0.3
		c0,0,0,0.1,0,0.1c0,0.6-0.2,1.1-0.4,1.5c-0.2,0.3-0.4,0.6-0.6,0.9c-0.7,0.8-1.8,1.3-3.1,1.4c0,0-0.1,0-0.1,0c-0.3,0-0.6,0-0.9,0
		c-0.3,0-0.6-0.1-0.9-0.2c0,0-0.1,0-0.1,0c-0.8-0.3-1.5-0.9-2-1.7c-0.8-1.2-0.4-3.6,0.7-4.8c0,0,0.1-0.1,0.1-0.1
		c0.1-0.2,0-0.4-0.1-0.5c-0.2-0.2-0.5-0.2-0.7,0c-1.4,1.5-1.8,4.3-0.8,5.9c0.4,0.6,0.9,1.2,1.5,1.6c0.2,0.1,0.4,0.2,0.6,0.3
		c-0.5,0.5-0.9,1-1.3,1.6c-0.9,1.3-1.6,2.8-1.9,4c-0.5,2.4-0.1,4.2,1.1,5.6c0.1,0.1,0.1,0.1,0.2,0.2c-1.3-0.2-2-0.3-2-0.3
		c0,0,0,0,0,0c-0.3,0-0.5,0.2-0.5,0.5c0,0.3,0.2,0.5,0.5,0.5c0,0,1.6,0,4.1,0.8c0,0,0,0,0,0c0.1,0,0.3,0.1,0.4,0.1c0,0,0,0,0,0
		c0.2,0.1,0.4,0.1,0.5,0.2c1.9,0.6,3.1,1.7,3.9,3c1,1.6,1.2,3.5,0.8,4.8C215.3,355.6,210.9,355,210.4,354.9z"/>
</g>
<g>
	<path d="M261,316c-11.3,0-20.5,9.2-20.5,20.4s9.2,20.4,20.5,20.4c11.3,0,20.5-9.2,20.5-20.4S272.3,316,261,316z M279.7,336.4
		c0,10.3-8.4,18.8-18.7,18.8c-10.3,0-18.7-8.4-18.7-18.8s8.4-18.8,18.7-18.8C271.3,317.7,279.7,326.1,279.7,336.4z"/>
	<path d="M307.7,316c-11.3,0-20.5,9.2-20.5,20.4s9.2,20.4,20.5,20.4s20.5-9.2,20.5-20.4S319,316,307.7,316z M326.4,336.4
		c0,10.3-8.4,18.8-18.7,18.8s-18.7-8.4-18.7-18.8s8.4-18.8,18.7-18.8S326.4,326.1,326.4,336.4z"/>
	<path d="M362.8,322.5c-3.6-3.7-8.5-5.8-13.7-5.8h-11.9v39.6h11.9c10.8,0,19.3-8.7,19.3-19.8C368.4,331.1,366.4,326.2,362.8,322.5z
		 M366.6,336.4c0,10.2-7.7,18.2-17.5,18.2H339v-36.3h10.1C358.8,318.3,366.6,326.4,366.6,336.4z"/>
</g>
<g>
	<g>
		<path d="M249.5,270.2c7.1,1.2,10.9,5.5,10.9,10.7c0,6-5.2,9.5-12.1,9.5h-15.3v-39.9h13.3c6.3,0,12,3,12,9.6
			C258.3,264.7,255.4,268.7,249.5,270.2z M234.4,251.8v17.8h9.6c8.9,0,12.9-4.5,12.9-9.6c0-5.7-5-8.3-10.5-8.3H234.4z M234.4,271
			v18.1h13.9c6.2,0,10.7-3,10.7-8.3c0-5.4-4.8-9.9-13.6-9.9H234.4z"/>
		<path d="M248.3,290.6h-15.5v-40.3h13.5c5.6,0,12.2,2.6,12.2,9.8c0,4.9-3,8.5-8.2,10.1c6.4,1.3,10.3,5.4,10.3,10.7
			C260.6,286.8,255.7,290.6,248.3,290.6z M233.1,290.2h15.2c7.3,0,12-3.7,12-9.3c0-5.4-4.1-9.4-10.8-10.5l-0.8-0.1l0.8-0.2
			c5.5-1.4,8.7-5,8.7-9.9c0-6.9-6.4-9.4-11.9-9.4h-13.2V290.2z M248.3,289.3h-14.1v-18.5h11.2c8.2,0,13.7,4,13.7,10
			C259.1,286,254.8,289.3,248.3,289.3z M234.5,288.9h13.7c6.4,0,10.5-3.2,10.5-8.1c0-5.8-5.4-9.7-13.4-9.7h-10.8V288.9z
			 M243.9,269.8h-9.8v-18.2h12.1c4.9,0,10.7,2.2,10.7,8.4C257,264.8,253.6,269.8,243.9,269.8z M234.5,269.5h9.4
			c9.4,0,12.7-4.9,12.7-9.4c0-3.9-2.7-8.1-10.4-8.1h-11.7V269.5z"/>
	</g>
	<g>
		<path d="M263.9,290.4l16.5-39.9h2.1l16.5,39.9h-1.7l-3.8-9.3h-24.2l-3.8,9.3H263.9z M269.9,279.8H293l-11.5-28L269.9,279.8z"/>
		<path d="M299.3,290.6h-2l-3.8-9.3h-24l-3.8,9.3h-2l16.7-40.3h2.3l0,0.1L299.3,290.6z M297.5,290.2h1.3l-16.4-39.6h-1.8l-16.4,39.6
			h1.2l3.8-9.3h24.5L297.5,290.2z M293.3,280h-23.7l11.9-28.6l0.2,0.4L293.3,280z M270.1,279.6h22.6l-11.3-27.4L270.1,279.6z"/>
	</g>
</g>
<rect x="271.3" y="298" class="st2" width="26.2" height="17.3"/>
<text transform="matrix(1 0 0 1 276.1674 309.6777)" class="st3 st4">to</text>
<rect x="198.7" y="364" class="st2" width="172.3" height="17.3"/>
<text transform="matrix(1 0 0 1 204.9364 375.6544)" class="st3 st4">dog training services</text>
<g>
	<path class="st1" d="M318.1,483.1"/>
</g>
<g>
	<path d="M320.3,452.4c-3.6-3.7-8.5-5.6-14-5.6c-5.5,0.1-13,0.9-13.5,7.5c0,0.3,0,0.6,0,0.9c0,0,0,0,0-0.1v15h0
		c0,0.8,1.2,1.3,2.7,1.3c1.5,0,2.7-0.5,2.7-1.3c0-0.9-1.2-1.5-2.7-1.5c-0.1,0-0.2,0-0.3,0c0.2-2.2,1-6,4.3-8v5.9
		c0,0.8,1.2,1.3,2.7,1.3c1.5,0,2.7-0.5,2.7-1.3c0-0.8-1.2-1.5-2.7-1.5c-0.1,0-0.2,0-0.3,0c0.1-1.5,0.5-3.8,1.8-5.7
		c0.2,0,0.4-0.1,0.7-0.1c3.4-0.3,7.1,1.4,8.6,3.9c1.5,2.6,1.5,6.3-0.1,8.3c0,0-0.1,0-0.1,0c-0.7,0-2,0.2-3.3,1.8l0,0
		c-0.1,0.1-0.4,0.1-0.7,0.2c-0.4,0.1-1,0.2-1.8,0.5c-1.4,0.5-4.4,1.5-5.4,4.3c-0.1,0.4-0.3,0.6-0.5,0.7l-3.4,1.5l0,0
		c-0.1,0-0.4,0.2-0.4,0.2l-2.2,1c-0.5,0.2-0.8,0.6-0.9,1.1c-0.1,0.5,0.1,1,0.4,1.3l2.3,2.4l0,0c0.6,0.6,1.4,0.9,2.3,0.9
		c0.1,0,0.1,0,0.2,0c0.1,0,0.2,0,0.3,0l8.4-0.1c0.6,0,1.1,0,1.7,0c0.3,0,0.6-0.1,1-0.1c0.8,0.5,1.8,0.8,2.8,0.8c0,0,0.1,0,0.1,0
		c1.3,0,2.6-0.7,3.6-1.8c0.4-0.5,0.8-1,1.1-1.6c0.5-0.4,1.1-0.9,2-1.8c0.8-0.8,1.5-1.6,2.1-2.5c0.3,1.5,0.1,3.1-0.1,4.2
		c-0.3,0-0.7,0-1.1,0.1c-1.6,0.4-2.7,1.5-2.1,2.4c0.5,0.8,2.2,0.8,3.5,0.2c0.8-0.4,1.3-1,1.4-1.6h0c0.7-4.1,1.7-9.6,2.1-14.2
		c0,0,0,0,0,0c0.2-0.9,0.2-1.8,0.3-2.7C326.5,462.4,324.3,456.4,320.3,452.4z M321.7,478.6c-0.7,1.1-1.6,2.2-2.5,3.1
		c-0.2,0.2-0.3,0.3-0.5,0.5c-0.2-1.7-1.1-3.2-2.5-4.1c-0.2-0.1-0.5-0.1-0.6,0.2c-0.1,0.2-0.1,0.5,0.2,0.6c0.4,0.2,0.7,0.5,1,0.8
		c0.3,0.4,0.6,0.8,0.8,1.3c0,0,0,0,0,0c0.2,0.4,0.3,0.8,0.3,1.3v0c0,0,0,0,0,0c0,0,0,0,0,0c0,0.2,0,0.4,0,0.6
		c-0.1,0.4-0.2,0.9-0.4,1.3c-0.2,0.4-0.5,0.9-0.9,1.3c-0.2,0.2-0.3,0.3-0.5,0.5c-0.8,0.7-1.7,1-2.5,1c-0.4,0-0.8-0.1-1.2-0.2
		c-0.4-0.1-0.8-0.3-1.2-0.5c-0.3-0.2-0.6-0.4-0.8-0.7c-0.7-0.7-1.1-1.6-1.2-2.6v0c0-0.3-0.2-0.4-0.5-0.4c-0.3,0-0.5,0.2-0.4,0.5
		c0.1,1,0.4,1.9,1,2.7c-0.4,0-0.7,0-1.1,0h0l-8.5,0.1l-0.1,0c-0.1,0-0.2,0-0.3,0c-0.5,0-0.9-0.2-1.3-0.5l-2.2-2.3l2.1-0.9
		c0,0,0.1,0,0.2-0.1c0.1,0,0.2-0.1,0.2-0.1l3.4-1.5c0.6-0.3,1.1-0.8,1.3-1.6c0.7-2.1,3.1-2.9,4.4-3.4c0.7-0.2,1.2-0.3,1.6-0.4
		c0.2,0,0.3-0.1,0.4-0.1c1.1,0,1.9,0.3,2.7,0.9c0.2,0.1,0.5,0.1,0.7-0.1c0.1-0.2,0.1-0.5-0.1-0.6c-0.7-0.4-1.3-0.8-2-0.9
		c0.8-1,1.6-1,2.2-1.1c0.4,0,0.8-0.1,1.1-0.4c2.1-2.5,2.2-7,0.3-10.3c-1.6-2.8-5.4-4.7-9.1-4.7c-0.3,0-0.7,0-1,0
		c-0.8,0.1-1.7,0.2-2.5,0.4c-0.8,0.2-1.5,0.3-2.2,0.4c-0.8,0.1-1.6,0.1-2.3-0.1c-2.6-0.6-2.8-2.7-2.7-3.9c0.3-4.1,4-6,11.9-6.1
		c5.1,0,9.5,1.7,12.9,5.1c3.7,3.8,5.8,9.3,5.6,15.1c0,1.5-0.3,3.1-0.7,4.6C323.5,475.1,322.7,476.9,321.7,478.6z"/>
</g>
<g>
	<path d="M287.2,471.3c-1.5-1.5-3.7-1.6-5.9-1.5c-0.4,0-0.8,0.4-0.7,0.8c0,0.2,0.1,0.3,0.1,0.4c0.1,0.2,0.4,0.3,0.7,0.3
		c2.5-0.1,3.9,0.2,4.8,1c0.9,0.9,1.3,2.7,1.2,5.6c-0.3,5.1-4.8,8.4-12.3,9c-1.1,0.1-2.6,0-4.1-0.1c1.7-0.8,3.1-2.3,3.8-4.8
		c0.5-1.7,0.3-4.1-1.1-6.1c-0.9-1.5-2.4-2.8-4.7-3.6c-3-1-4-2.7-3.4-5.9c0.1-0.6,0.4-1.3,0.7-2c0.3,2.2,1.2,4.6,1.2,5.4
		c0,0.1,0,0.2,0,0.3c0,0.8,1.2,1.3,2.6,1.3c1.5,0,2.6-0.5,2.6-1.3c0-0.8-1.2-1.5-2.6-1.5c-0.2,0-0.3,0-0.5,0
		c-0.2-1.9-0.8-5.1,0.1-7.5h0c0.1,0,0.2,0,0.3,0c1.6-0.1,2.9-0.7,3.8-1.6c0.2,0,0.5-0.1,0.7-0.1c0.1,0,10.1-1.2,10.3-1.3
		c0.8-0.2,1.5-0.6,2-1.3l1.6-2.5c0.2-0.4,0.3-0.9,0.1-1.3c-0.2-0.5-0.6-0.8-1.1-0.9l-6.1-1.5c-0.3-0.1-0.5-0.4-0.6-0.5
		c-2.2-3.9-5.9-3.9-8.1-3.8l-0.3,0c-1.8,0-3.6,0.4-5.5,1.2c-1.8,0.8-3.7,2-5.6,3.6c-2.4,2.1-4.3,4.7-5.4,6.5l-0.2,0.3
		c-0.2,0.4-0.5,0.8-0.7,1.3c-3.1,6-4.1,15.1,2.3,22.4c1.7,2,3.9,3.6,6,4.6c0,0,0,0,0,0c3,1.6,7.4,2.3,10.5,2.3c0.5,0,1,0,1.4,0
		c11.8-0.9,13.5-7.6,13.7-10.5C289,474.7,288.5,472.5,287.2,471.3z M267,485.9c-0.9-0.2-1.9-0.5-2.8-0.9c-0.6-0.3-1.2-0.6-1.8-1
		c-0.2-0.1-0.4-0.3-0.6-0.4c-1.2-0.8-2.3-1.8-3.3-2.9c-5.9-6.7-5-15.1-2.1-20.7c0.2-0.4,0.4-0.8,0.7-1.2l0.2-0.3
		c1.1-1.7,2.8-4.2,5.1-6.1c3.4-3,6.8-4.5,10-4.5l0.3,0c2.1,0,5,0,6.8,3.1c0.4,0.7,1,1.1,1.6,1.3l6,1.4l-1.5,2.4
		c-0.2,0.3-0.6,0.5-1,0.6c-0.5,0.1-7.6,0.9-9.6,1.2c0.1-0.4,0.2-0.8,0.3-1.3c0-0.3-0.2-0.5-0.4-0.5c-0.2,0-0.4,0.1-0.5,0.3
		c0,0,0,0.1,0,0.1c0,0.6-0.2,1.1-0.4,1.5c-0.2,0.3-0.4,0.6-0.6,0.9c-0.7,0.8-1.8,1.3-3.1,1.4c0,0-0.1,0-0.1,0c-0.3,0-0.6,0-0.9,0
		c-0.3,0-0.6-0.1-0.9-0.2c0,0-0.1,0-0.1,0c-0.8-0.3-1.5-0.9-2-1.7c-0.8-1.2-0.4-3.6,0.7-4.8c0,0,0.1-0.1,0.1-0.1
		c0.1-0.2,0-0.4-0.1-0.5c-0.2-0.2-0.5-0.2-0.7,0c-1.4,1.5-1.8,4.3-0.8,5.9c0.4,0.6,0.9,1.2,1.5,1.6c0.2,0.1,0.4,0.2,0.6,0.3
		c-0.5,0.5-0.9,1-1.3,1.6c-0.9,1.3-1.6,2.8-1.9,4c-0.5,2.4-0.1,4.2,1.1,5.6c0.1,0.1,0.1,0.1,0.2,0.2c-1.3-0.2-2-0.3-2-0.3
		c0,0,0,0,0,0c-0.3,0-0.5,0.2-0.5,0.5c0,0.3,0.2,0.5,0.5,0.5c0,0,1.6,0,4.1,0.8c0,0,0,0,0,0c0.1,0,0.3,0.1,0.4,0.1c0,0,0,0,0,0
		c0.2,0.1,0.4,0.1,0.5,0.2c1.9,0.6,3.1,1.7,3.9,3c1,1.6,1.2,3.5,0.8,4.8C271.9,486.6,267.5,485.9,267,485.9z"/>
</g>
<rect x="662.3" y="377.3" width="134" height="134"/>
<g>
	<g>
		<path class="st1" d="M757.4,460.2"/>
	</g>
	<g>
		<path class="st0" d="M759.5,429.5c-3.6-3.7-8.5-5.6-14-5.6c-5.5,0.1-13,0.9-13.5,7.5c0,0.3,0,0.6,0,0.9c0,0,0,0,0-0.1v15h0
			c0,0.8,1.2,1.3,2.7,1.3c1.5,0,2.7-0.5,2.7-1.3c0-0.9-1.2-1.5-2.7-1.5c-0.1,0-0.2,0-0.3,0c0.2-2.2,1-6,4.3-8v5.9
			c0,0.8,1.2,1.3,2.7,1.3c1.5,0,2.7-0.5,2.7-1.3c0-0.8-1.2-1.5-2.7-1.5c-0.1,0-0.2,0-0.3,0c0.1-1.5,0.5-3.8,1.8-5.7
			c0.2,0,0.4-0.1,0.7-0.1c3.4-0.3,7.1,1.4,8.6,3.9c1.5,2.6,1.5,6.3-0.1,8.3c0,0-0.1,0-0.1,0c-0.7,0-2,0.2-3.3,1.8l0,0
			c-0.1,0.1-0.4,0.1-0.7,0.2c-0.4,0.1-1,0.2-1.8,0.5c-1.4,0.5-4.4,1.5-5.4,4.3c-0.1,0.4-0.3,0.6-0.5,0.7l-3.4,1.5l0,0
			c-0.1,0-0.4,0.2-0.4,0.2l-2.2,1c-0.5,0.2-0.8,0.6-0.9,1.1c-0.1,0.5,0.1,1,0.4,1.3l2.3,2.4l0,0c0.6,0.6,1.4,0.9,2.3,0.9
			c0.1,0,0.1,0,0.2,0c0.1,0,0.2,0,0.3,0l8.4-0.1c0.6,0,1.1,0,1.7,0c0.3,0,0.6-0.1,1-0.1c0.8,0.5,1.8,0.8,2.8,0.8c0,0,0.1,0,0.1,0
			c1.3,0,2.6-0.7,3.6-1.8c0.4-0.5,0.8-1,1.1-1.6c0.5-0.4,1.1-0.9,2-1.8c0.8-0.8,1.5-1.6,2.1-2.5c0.3,1.5,0.1,3.1-0.1,4.2
			c-0.3,0-0.7,0-1.1,0.1c-1.6,0.4-2.7,1.5-2.1,2.4c0.5,0.8,2.2,0.8,3.5,0.2c0.8-0.4,1.3-1,1.4-1.6h0c0.7-4.1,1.7-9.6,2.1-14.2
			c0,0,0,0,0,0c0.2-0.9,0.2-1.8,0.3-2.7C765.7,439.5,763.5,433.6,759.5,429.5z M760.9,455.7c-0.7,1.1-1.6,2.2-2.5,3.1
			c-0.2,0.2-0.3,0.3-0.5,0.5c-0.2-1.7-1.1-3.2-2.5-4.1c-0.2-0.1-0.5-0.1-0.6,0.2c-0.1,0.2-0.1,0.5,0.2,0.6c0.4,0.2,0.7,0.5,1,0.8
			c0.3,0.4,0.6,0.8,0.8,1.3c0,0,0,0,0,0c0.2,0.4,0.3,0.8,0.3,1.3v0c0,0,0,0,0,0c0,0,0,0,0,0c0,0.2,0,0.4,0,0.6
			c-0.1,0.4-0.2,0.9-0.4,1.3c-0.2,0.4-0.5,0.9-0.9,1.3c-0.2,0.2-0.3,0.3-0.5,0.5c-0.8,0.7-1.7,1-2.5,1c-0.4,0-0.8-0.1-1.2-0.2
			c-0.4-0.1-0.8-0.3-1.2-0.5c-0.3-0.2-0.6-0.4-0.8-0.7c-0.7-0.7-1.1-1.6-1.2-2.6v0c0-0.3-0.2-0.4-0.5-0.4c-0.3,0-0.5,0.2-0.4,0.5
			c0.1,1,0.4,1.9,1,2.7c-0.4,0-0.7,0-1.1,0h0l-8.5,0.1l-0.1,0c-0.1,0-0.2,0-0.3,0c-0.5,0-0.9-0.2-1.3-0.5l-2.2-2.3l2.1-0.9
			c0,0,0.1,0,0.2-0.1c0.1,0,0.2-0.1,0.2-0.1l3.4-1.5c0.6-0.3,1.1-0.8,1.3-1.6c0.7-2.1,3.1-2.9,4.4-3.4c0.7-0.2,1.2-0.3,1.6-0.4
			c0.2,0,0.3-0.1,0.4-0.1c1.1,0,1.9,0.3,2.7,0.9c0.2,0.1,0.5,0.1,0.7-0.1c0.1-0.2,0.1-0.5-0.1-0.6c-0.7-0.4-1.3-0.8-2-0.9
			c0.8-1,1.6-1,2.2-1.1c0.4,0,0.8-0.1,1.1-0.4c2.1-2.5,2.2-7,0.3-10.3c-1.6-2.8-5.4-4.7-9.1-4.7c-0.3,0-0.7,0-1,0
			c-0.8,0.1-1.7,0.2-2.5,0.4c-0.8,0.2-1.5,0.3-2.2,0.4c-0.8,0.1-1.6,0.1-2.3-0.1c-2.6-0.6-2.8-2.7-2.7-3.9c0.3-4.1,4-6,11.9-6.1
			c5.1,0,9.5,1.7,12.9,5.1c3.7,3.8,5.8,9.3,5.6,15.1c0,1.5-0.3,3.1-0.7,4.6C762.8,452.2,762,454.1,760.9,455.7z"/>
	</g>
</g>
<g>
	<path class="st0" d="M723,448.5c-1.5-1.5-3.7-1.6-5.9-1.5c-0.4,0-0.8,0.4-0.7,0.8c0,0.2,0.1,0.3,0.1,0.4c0.1,0.2,0.4,0.3,0.7,0.3
		c2.5-0.1,3.9,0.2,4.8,1c0.9,0.9,1.3,2.7,1.2,5.6c-0.3,5.1-4.8,8.4-12.3,9c-1.1,0.1-2.6,0-4.1-0.1c1.7-0.8,3.1-2.3,3.8-4.8
		c0.5-1.7,0.3-4.1-1.1-6.1c-0.9-1.5-2.4-2.8-4.7-3.6c-3-1-4-2.7-3.4-5.9c0.1-0.6,0.4-1.3,0.7-2c0.3,2.2,1.2,4.6,1.2,5.4
		c0,0.1,0,0.2,0,0.3c0,0.8,1.2,1.3,2.6,1.3c1.5,0,2.6-0.5,2.6-1.3c0-0.8-1.2-1.5-2.6-1.5c-0.2,0-0.3,0-0.5,0
		c-0.2-1.9-0.8-5.1,0.1-7.5h0c0.1,0,0.2,0,0.3,0c1.6-0.1,2.9-0.7,3.8-1.6c0.2,0,0.5-0.1,0.7-0.1c0.1,0,10.1-1.2,10.3-1.3
		c0.8-0.2,1.5-0.6,2-1.3l1.6-2.5c0.2-0.4,0.3-0.9,0.1-1.3c-0.2-0.5-0.6-0.8-1.1-0.9l-6.1-1.5c-0.3-0.1-0.5-0.4-0.6-0.5
		c-2.2-3.9-5.9-3.9-8.1-3.8l-0.3,0c-1.8,0-3.6,0.4-5.5,1.2c-1.8,0.8-3.7,2-5.6,3.6c-2.4,2.1-4.3,4.7-5.4,6.5l-0.2,0.3
		c-0.2,0.4-0.5,0.8-0.7,1.3c-3.1,6-4.1,15.1,2.3,22.4c1.7,2,3.9,3.6,6,4.6c0,0,0,0,0,0c3,1.6,7.4,2.3,10.5,2.3c0.5,0,1,0,1.4,0
		c11.8-0.9,13.5-7.6,13.7-10.5C724.8,451.9,724.2,449.8,723,448.5z M702.7,463.1c-0.9-0.2-1.9-0.5-2.8-0.9c-0.6-0.3-1.2-0.6-1.8-1
		c-0.2-0.1-0.4-0.3-0.6-0.4c-1.2-0.8-2.3-1.8-3.3-2.9c-5.9-6.7-5-15.1-2.1-20.7c0.2-0.4,0.4-0.8,0.7-1.2l0.2-0.3
		c1.1-1.7,2.8-4.2,5.1-6.1c3.4-3,6.8-4.5,10-4.5l0.3,0c2.1,0,5,0,6.8,3.1c0.4,0.7,1,1.1,1.6,1.3l6,1.4l-1.5,2.4
		c-0.2,0.3-0.6,0.5-1,0.6c-0.5,0.1-7.6,0.9-9.6,1.2c0.1-0.4,0.2-0.8,0.3-1.3c0-0.3-0.2-0.5-0.4-0.5c-0.2,0-0.4,0.1-0.5,0.3
		c0,0,0,0.1,0,0.1c0,0.6-0.2,1.1-0.4,1.5c-0.2,0.3-0.4,0.6-0.6,0.9c-0.7,0.8-1.8,1.3-3.1,1.4c0,0-0.1,0-0.1,0c-0.3,0-0.6,0-0.9,0
		c-0.3,0-0.6-0.1-0.9-0.2c0,0-0.1,0-0.1,0c-0.8-0.3-1.5-0.9-2-1.7c-0.8-1.2-0.4-3.6,0.7-4.8c0,0,0.1-0.1,0.1-0.1
		c0.1-0.2,0-0.4-0.1-0.5c-0.2-0.2-0.5-0.2-0.7,0c-1.4,1.5-1.8,4.3-0.8,5.9c0.4,0.6,0.9,1.2,1.5,1.6c0.2,0.1,0.4,0.2,0.6,0.3
		c-0.5,0.5-0.9,1-1.3,1.6c-0.9,1.3-1.6,2.8-1.9,4c-0.5,2.4-0.1,4.2,1.1,5.6c0.1,0.1,0.1,0.1,0.2,0.2c-1.3-0.2-2-0.3-2-0.3
		c0,0,0,0,0,0c-0.3,0-0.5,0.2-0.5,0.5c0,0.3,0.2,0.5,0.5,0.5c0,0,1.6,0,4.1,0.8c0,0,0,0,0,0c0.1,0,0.3,0.1,0.4,0.1c0,0,0,0,0,0
		c0.2,0.1,0.4,0.1,0.5,0.2c1.9,0.6,3.1,1.7,3.9,3c1,1.6,1.2,3.5,0.8,4.8C707.7,463.8,703.2,463.2,702.7,463.1z"/>
</g>
</svg>
