<?xml version="1.0" encoding="utf-8"?>
<!-- Generator: Adobe Illustrator 22.1.0, SVG Export Plug-In . SVG Version: 6.00 Build 0)  -->
<svg version="1.1" id="Layer_1" xmlns="http://www.w3.org/2000/svg" xmlns:xlink="http://www.w3.org/1999/xlink" x="0px" y="0px"
	 viewBox="0 0 576 1348" style="enable-background:new 0 0 576 1348;" xml:space="preserve">
<style type="text/css">
	.st0{fill:#FFFFFF;}
	.st1{fill:#FFFFFF;stroke:#000000;stroke-width:0.9339;stroke-linecap:round;stroke-miterlimit:10;}
	.st2{fill:none;}
	.st3{font-family:'FilsonProBook';}
	.st4{font-size:16.1542px;}
	.st5{fill:#F1F1FF;}
	.st6{fill:#3475FF;}
</style>
<g>
	<g>
		<path d="M-132.5,244.5C-132.5,244.5-132.5,244.5-132.5,244.5c-0.3,0-0.6-0.3-0.5-0.6c0.4-3.8,2.4-6.9,6.5-8.2c0,0-7.5,2.6-8.8-3.4
			l0,13.8h0c0,0.9,1.3,0.9,2.8,0.9c1.5,0,2.8-0.1,2.8-1C-129.7,245.2-130.9,244.5-132.5,244.5z"/>
		<path d="M-109.3,254.1c-0.5,1.7-1.2,3.3-2.1,4.8c1.2,1.1,1.1,3.4,0.7,5.1c-0.1,0.7-0.6,1.8-2.7,2.5c-0.2,0.1-0.3,0.2-0.4,0.2
			c0,0.1,0,0.1-0.1,0.2c0.5,0.2,1.3,0.2,2.2,0.2c1.5,0,2.7-0.1,2.8-0.9h0c1.1-4.6,1.5-10.4,1.8-16.4
			C-107.5,251.6-108.3,253-109.3,254.1z"/>
		<path d="M-137.9,248.7C-137.9,248.7-137.9,248.7-137.9,248.7c-0.3,0-0.6-0.3-0.5-0.6c0.4-3.8,2.4-6.9,6.5-8.2c0,0-7.5,2.6-8.8-3.4
			l0,13.8h0c0,0.9,1.3,0.9,2.8,0.9c1.5,0,2.8-0.1,2.8-1C-135.1,249.4-136.3,248.7-137.9,248.7z"/>
		<path class="st0" d="M-126.2,227.1c-4.8,0-11.7,2.2-13.4,7.3c-0.5,1.5-0.5,3.3,0.5,4.7c1.3,1.7,4,1.2,5.8,0.6
			c1.5-0.5,2.6-1,4.2-1.3c4-0.6,7.2,1.3,8.8,4.1c1.3,2.3,2.1,7.2,0.2,9.5c-0.3,0.3-1.8-0.6-3.4,1.7c-0.4,0.5-1,0.4-2.8,1
			c-2,0.6-4.1,1.4-4.7,3.8c-0.1,0.5-0.5,0.9-1,1.1l-1.3,0.5l-1.8,0.6l-0.6,0.2c0,0-0.4,0.2-0.4,0.2l-2.3,0.8
			c-0.5,0.2-0.7,0.8-0.3,1.2l1.9,2.3l0,0l0.2,0.3c0.5,0.5,1.1,0.8,1.8,0.9c0.1,0,0.2,0,0.4,0h0l8.6,0.5c0.5,0.1,1.1,0.1,1.6,0.1
			c1.4,0,2.8-0.2,4.2-0.6c0.8-0.2,1.6-0.6,2.4-0.9v0c6.2-3,9.2-9.1,9.6-15.6C-107.2,238.9-114.1,227.1-126.2,227.1z"/>
		<path d="M-124,267.7c-0.6,0-1.2,0-1.7-0.1l-8.5-0.5c-0.2,0-0.3,0-0.5,0c-0.8-0.1-1.6-0.5-2.2-1.1l0,0l-2.2-2.6
			c-0.3-0.4-0.4-0.9-0.3-1.4c0.1-0.5,0.5-0.9,1-1l2.3-0.8c0,0,0.3-0.1,0.4-0.1l0.1,0l3.6-1.3c0.2-0.1,0.4-0.3,0.5-0.6
			c0.8-2.7,3.1-3.7,5.3-4.3c0.6-0.2,0.9-0.2,1.3-0.3c1.3-0.2,1.8-0.2,1.8-0.3c0.8-1.3,2.1-1.9,2.9-2c0,0,0,0,0,0
			c1.3-2,0.6-6.3-0.6-8.5c-1.2-2.2-3.9-4.4-8-3.7c-1.1,0.2-2,0.5-3.1,0.9c-0.3,0.1-0.7,0.2-1,0.4c-1.8,0.6-5.1,1.3-6.7-0.8
			c-1.1-1.4-1.3-3.4-0.6-5.4c1.7-5.1,8.6-7.8,14.1-7.8c5,0,9.4,1.9,12.9,5.6c4.3,4.5,6.6,11.2,6.2,18c-0.4,7.3-3.9,13.1-9.6,16.1v0
			l-0.4,0.2c-0.8,0.4-1.6,0.7-2.5,1C-121,267.5-122.5,267.7-124,267.7z M-135.8,264.9c0.3,0.4,0.8,0.6,1.3,0.6c0.1,0,0.2,0,0.3,0
			l0.1,0l8.6,0.5c0.5,0.1,1,0.1,1.6,0.1c1.4,0,2.7-0.2,4-0.6c0.7-0.2,1.3-0.4,1.9-0.7l0.3-0.2c5.4-2.6,8.7-8.1,9.1-15
			c0.4-6.3-1.8-12.6-5.8-16.8c-3.2-3.3-7.2-5.1-11.7-5.1c-7.5,0-11.7,4.1-12.6,6.7c-0.2,0.7-0.7,2.5,0.4,4c1.1,1.4,3.8,0.7,4.9,0.3
			c0.3-0.1,0.7-0.2,1-0.4c1.1-0.4,2.1-0.8,3.4-1c4-0.6,7.8,1.1,9.6,4.5c1.2,2.3,2.6,7.7,0.3,10.4c-0.4,0.4-1,0.3-1.4,0.4
			c-0.7,0.3-1,0.8-1.5,1.6c-0.4,0.6-1.1,0.3-2.3,0.5c-0.4,0.1-1,0.2-1.6,0.3c-1.9,0.6-3.6,1.3-4.2,3.2c-0.2,0.8-0.8,1.4-1.5,1.6
			l-3.6,1.3l0,0c-0.1,0-0.2,0.1-0.4,0.2l-1.6,0.6c-0.3,0.1-0.4,0.5-0.2,0.7L-135.8,264.9z"/>
		<g>
			<path d="M-130.5,258.2L-130.5,258.2c-0.3-0.1-0.4-0.4-0.3-0.7c0.6-1.2,2-2.2,3.2-2.7c3.5-1.4,6.3-1.2,8,0.5
				c0.2,0.2,0.2,0.5,0,0.7l0,0c-0.2,0.1-0.5,0.1-0.6,0c-1.4-1.4-3.9-1.5-7-0.3c-1,0.4-2.3,1.3-2.7,2.3
				C-130.1,258.2-130.3,258.3-130.5,258.2z"/>
		</g>
		<g>
			<path class="st0" d="M-117.1,259.3c1.2,0.9,2,2.4,2,4.1c0,2.7-2.8,4.9-5.3,4.9c-2.5,0-4.6-2.2-4.6-4.9"/>
			<path d="M-120.3,268.8c-2.6,0-4.8-2.1-5-4.9c0-0.3,0.2-0.5,0.5-0.5h0c0.2,0,0.4,0.2,0.5,0.4c0.2,2.2,2,4,4.1,4c0,0,0,0,0,0
				c1.1,0,2.3-0.5,3.3-1.3c1-0.9,1.5-2,1.5-3.1c0-1.3-0.6-2.6-1.5-3.4c-0.2-0.2-0.2-0.4-0.1-0.6l0,0c0.2-0.2,0.5-0.3,0.7-0.1
				c1.1,1,1.8,2.5,1.8,4.1c0,1.4-0.7,2.8-1.9,3.8C-117.5,268.2-119,268.8-120.3,268.8C-120.3,268.8-120.3,268.8-120.3,268.8z"/>
		</g>
	</g>
	<path d="M-111.9,268c0.8-0.1,1.6-0.5,2.2-0.8c0.6-0.4,1.1-1,0.7-1.5c-0.7-1-4.1-0.7-5.2,1.1C-114.7,267.8-113.2,268.2-111.9,268z"
		/>
</g>
<path d="M-195.7,247.2c6.7,0.8,10.1,5.2,10.1,10.3c0,6.4-5.3,10.4-13.1,10.4h-16.1v-40.6h14.2c7.3,0,13,3.7,13,10.3
	C-187.6,242-190.1,245.8-195.7,247.2z M-203,245.8c7.7,0,10.7-3.9,10.7-7.9c0-4.6-3.9-6.8-8.4-6.8h-9.7v14.7H-203z M-210.3,249.3
	v14.9h11.6c4.9,0,8.5-2.6,8.5-6.8c0-4.3-3.6-8.1-11.5-8.1H-210.3z"/>
<path d="M-174.6,259.2l-3.4,8.7h-4.7l16-40.6h5.3l16,40.6h-4.6l-3.4-8.7H-174.6z M-154.7,255.5l-9.3-23.8l-9.3,23.8H-154.7z"/>
<rect x="-178.2" y="275.5" class="st2" width="33.1" height="17.3"/>
<text transform="matrix(1 0 0 1 -170.4217 287.1699)" class="st4" style="font-family:'FilsonProBold';">to</text>
<rect x="136.7" y="-35.7" class="st2" width="311" height="17.3"/>
<text transform="matrix(1 0 0 1 207.9601 -23.9873)" class="st4" style="font-family:'FilsonProBold';">dog training services</text>
<rect x="-259" y="349.7" class="st2" width="197.7" height="17.3"/>
<text transform="matrix(1 0 0 1 -244.3094 361.3721)" class="st4" style="font-family:'FilsonProBold';">dog training services</text>
<g>
	<path d="M340.2-83.5c11.2,0,20.3,9.1,20.3,20.2s-9.1,20.2-20.3,20.2c-11.2,0-20.3-9.1-20.3-20.2S329-83.5,340.2-83.5z M340.2-47
		c8.7,0,15.9-7.1,15.9-16.3s-7.2-16.3-15.9-16.3c-8.7,0-15.9,7.1-15.9,16.3S331.5-47,340.2-47z"/>
</g>
<g>
	<path d="M386.3-83.5c11.2,0,20.3,9.1,20.3,20.2s-9.1,20.2-20.3,20.2c-11.2,0-20.3-9.1-20.3-20.2S375.1-83.5,386.3-83.5z M386.3-47
		c8.7,0,15.9-7.1,15.9-16.3s-7.2-16.3-15.9-16.3c-8.7,0-15.9,7.1-15.9,16.3S377.6-47,386.3-47z"/>
</g>
<g>
	<path d="M426.8-43.7h-11.7v-39.2h11.7c12.7,0,20.3,8.8,20.3,19.6S439.5-43.7,426.8-43.7z M426.8-79.3h-7.4v32h7.4
		c10,0,15.9-7.2,15.9-16S436.7-79.3,426.8-79.3z"/>
</g>
<g>
	<g>
		<path d="M219.2-66.6C219.2-66.6,219.2-66.6,219.2-66.6c-0.3,0-0.6-0.3-0.5-0.6c0.4-3.8,2.4-6.9,6.5-8.2c0,0-7.5,2.6-8.8-3.4
			l0,13.8h0c0,0.9,1.3,0.9,2.8,0.9c1.5,0,2.8-0.1,2.8-1C222-65.9,220.7-66.6,219.2-66.6z"/>
		<path d="M242.4-57.1c-0.5,1.7-1.2,3.3-2.1,4.8c1.2,1.1,1.1,3.4,0.7,5.1c-0.1,0.7-0.6,1.8-2.7,2.5c-0.2,0.1-0.3,0.2-0.4,0.2
			c0,0.1,0,0.1-0.1,0.2c0.5,0.2,1.3,0.2,2.2,0.2c1.5,0,2.7-0.1,2.8-0.9h0c1.1-4.6,1.5-10.4,1.8-16.4
			C244.2-59.5,243.4-58.1,242.4-57.1z"/>
		<path d="M213.8-62.4C213.8-62.4,213.8-62.4,213.8-62.4c-0.3,0-0.6-0.3-0.5-0.6c0.4-3.8,2.4-6.9,6.5-8.2c0,0-7.5,2.6-8.8-3.4
			l0,13.8h0c0,0.9,1.3,0.9,2.8,0.9c1.5,0,2.8-0.1,2.8-1C216.6-61.7,215.3-62.4,213.8-62.4z"/>
		<path class="st0" d="M225.5-84.1c-4.8,0-11.7,2.2-13.4,7.3c-0.5,1.5-0.5,3.3,0.5,4.7c1.3,1.7,4,1.2,5.8,0.6c1.5-0.5,2.6-1,4.2-1.3
			c4-0.6,7.2,1.3,8.8,4.1c1.3,2.3,2.1,7.2,0.2,9.5c-0.3,0.3-1.8-0.6-3.4,1.7c-0.4,0.5-1,0.4-2.8,1c-2,0.6-4.1,1.4-4.7,3.8
			c-0.1,0.5-0.5,0.9-1,1.1l-1.3,0.5l-1.8,0.6l-0.6,0.2c0,0-0.4,0.2-0.4,0.2l-2.3,0.8c-0.5,0.2-0.7,0.8-0.3,1.2L215-46l0,0l0.2,0.3
			c0.5,0.5,1.1,0.8,1.8,0.9c0.1,0,0.2,0,0.4,0h0l8.6,0.5c0.5,0.1,1.1,0.1,1.6,0.1c1.4,0,2.8-0.2,4.2-0.6c0.8-0.2,1.6-0.6,2.4-0.9v0
			c6.2-3,9.2-9.1,9.6-15.6C244.4-72.2,237.6-84.1,225.5-84.1z"/>
		<path d="M227.7-43.4c-0.6,0-1.2,0-1.7-0.1l-8.5-0.5c-0.2,0-0.3,0-0.5,0c-0.8-0.1-1.6-0.5-2.2-1.1l0,0l-2.2-2.6
			c-0.3-0.4-0.4-0.9-0.3-1.4c0.1-0.5,0.5-0.9,1-1l2.3-0.8c0,0,0.3-0.1,0.4-0.1l0.1,0l3.6-1.3c0.2-0.1,0.4-0.3,0.5-0.6
			c0.8-2.7,3.1-3.7,5.3-4.3c0.6-0.2,0.9-0.2,1.3-0.3c1.3-0.2,1.8-0.2,1.8-0.3c0.8-1.3,2.1-1.9,2.9-2c0,0,0,0,0,0
			c1.3-2,0.6-6.3-0.6-8.5c-1.2-2.2-3.9-4.4-8-3.7c-1.1,0.2-2,0.5-3.1,0.9c-0.3,0.1-0.7,0.2-1,0.4c-1.8,0.6-5.1,1.3-6.7-0.8
			c-1.1-1.4-1.3-3.4-0.6-5.4c1.7-5.1,8.6-7.8,14.1-7.8c5,0,9.4,1.9,12.9,5.6c4.3,4.5,6.6,11.2,6.2,18c-0.4,7.3-3.9,13.1-9.6,16.1v0
			l-0.4,0.2c-0.8,0.4-1.6,0.7-2.5,1C230.7-43.6,229.2-43.4,227.7-43.4z M215.9-46.3c0.3,0.4,0.8,0.6,1.3,0.6c0.1,0,0.2,0,0.3,0
			l0.1,0l8.6,0.5c0.5,0.1,1,0.1,1.6,0.1c1.4,0,2.7-0.2,4-0.6c0.7-0.2,1.3-0.4,1.9-0.7l0.3-0.2c5.4-2.6,8.7-8.1,9.1-15
			c0.4-6.3-1.8-12.6-5.8-16.8c-3.2-3.3-7.2-5.1-11.7-5.1c-7.5,0-11.7,4.1-12.6,6.7c-0.2,0.7-0.7,2.5,0.4,4c1.1,1.4,3.8,0.7,4.9,0.3
			c0.3-0.1,0.7-0.2,1-0.4c1.1-0.4,2.1-0.8,3.4-1c4-0.6,7.8,1.1,9.6,4.5c1.2,2.3,2.6,7.7,0.3,10.4c-0.4,0.4-1,0.3-1.4,0.4
			c-0.7,0.3-1,0.8-1.5,1.6c-0.4,0.6-1.1,0.3-2.3,0.5c-0.4,0.1-1,0.2-1.6,0.3c-1.9,0.6-3.6,1.3-4.2,3.2c-0.2,0.8-0.8,1.4-1.5,1.6
			l-3.6,1.3l0,0c-0.1,0-0.2,0.1-0.4,0.2l-1.6,0.6c-0.3,0.1-0.4,0.5-0.2,0.7L215.9-46.3z"/>
		<g>
			<path d="M221.1-52.9L221.1-52.9c-0.3-0.1-0.4-0.4-0.3-0.7c0.6-1.2,2-2.2,3.2-2.7c3.5-1.4,6.3-1.2,8,0.5c0.2,0.2,0.2,0.5,0,0.7
				l0,0c-0.2,0.1-0.5,0.1-0.6,0c-1.4-1.4-3.9-1.5-7-0.3c-1,0.4-2.3,1.3-2.7,2.3C221.6-53,221.4-52.9,221.1-52.9z"/>
		</g>
		<g>
			<path class="st0" d="M234.6-51.9c1.2,0.9,2,2.4,2,4.1c0,2.7-2.8,4.9-5.3,4.9c-2.5,0-4.6-2.2-4.6-4.9"/>
			<path d="M231.3-42.4c-2.6,0-4.8-2.1-5-4.9c0-0.3,0.2-0.5,0.5-0.5h0c0.2,0,0.4,0.2,0.5,0.4c0.2,2.2,2,4,4.1,4c0,0,0,0,0,0
				c1.1,0,2.3-0.5,3.3-1.3c1-0.9,1.5-2,1.5-3.1c0-1.3-0.6-2.6-1.5-3.4c-0.2-0.2-0.2-0.4-0.1-0.6l0,0c0.2-0.2,0.5-0.3,0.7-0.1
				c1.1,1,1.8,2.5,1.8,4.1c0,1.4-0.7,2.8-1.9,3.8C234.1-43,232.7-42.4,231.3-42.4C231.3-42.4,231.3-42.4,231.3-42.4z"/>
		</g>
	</g>
	<path d="M239.8-43.2c0.8-0.1,1.6-0.5,2.2-0.8c0.6-0.4,1.1-1,0.7-1.5c-0.7-1-4.1-0.7-5.2,1.1C236.9-43.3,238.5-43,239.8-43.2z"/>
</g>
<g>
	<path d="M156-64.4c6.7,0.8,10.1,5.2,10.1,10.3c0,6.4-5.3,10.4-13.1,10.4h-16.1v-40.6H151c7.3,0,13,3.7,13,10.3
		C164-69.7,161.5-65.8,156-64.4z M148.7-65.8c7.7,0,10.7-3.9,10.7-7.9c0-4.6-3.9-6.8-8.4-6.8h-9.7v14.7H148.7z M141.4-62.3v14.9H153
		c4.9,0,8.5-2.6,8.5-6.8c0-4.3-3.6-8.1-11.5-8.1H141.4z"/>
</g>
<g>
	<path d="M177.1-52.4l-3.4,8.7H169l16-40.6h5.3l16,40.6h-4.6l-3.4-8.7H177.1z M197-56.1l-9.3-23.8l-9.3,23.8H197z"/>
</g>
<rect x="244.4" y="-69" class="st2" width="33.1" height="17.3"/>
<text transform="matrix(1 0 0 1 252.1628 -57.3369)" class="st4" style="font-family:'FilsonProBold';">to</text>
<g>
	<path d="M-231.4,339.3c-1.7,0-3.8-0.1-6.1-0.5c-3.6-0.6-6-1.7-7-3.2c-0.3-0.4-0.2-0.8,0.2-1.1c0.4-0.3,0.8-0.2,1.1,0.2
		c0.8,1.1,3,2,6,2.5c2.8,0.5,5.7,0.6,7.4,0.4c8.2-0.6,13.4-4,13.7-8.8c0.3-3.8-1.2-5.7-4.9-6.1c-0.4,0-0.7-0.4-0.7-0.9
		c0-0.4,0.4-0.7,0.9-0.7c4.6,0.5,6.7,3.1,6.3,7.8c-0.3,5.6-6.2,9.5-15.2,10.3C-230.2,339.3-230.8,339.3-231.4,339.3z"/>
</g>
<g>
	<ellipse cx="-233.5" cy="321.1" rx="2.7" ry="1.5"/>
</g>
<g>
	<path d="M-238.1,311c1.5,2.9,3.1,5.7,1.9,10h2.7c0,0.1,0.4-11.7,0.4-11.7S-235.8,311.3-238.1,311z"/>
</g>
<g>
	<path class="st0" d="M-214.9,304.5l-2.3-0.6c0,0-0.4-0.1-0.4-0.1l-0.6-0.2l-1.8-0.5l-1.3-0.4c-0.5-0.1-0.9-0.5-1.1-1
		c-1.9-3.8-5.9-4.1-9.5-3.9c-5.5,0.2-14,6.3-17.6,12.7c-3.3,5.9-4.2,15.2,1.3,21.6c2.5,2.9,8,6.6,12.3,5.6c2.6-0.7,4.9-2.9,5.1-5.6
		c0.2-2.6-0.4-5.7-6.3-8.9c-2.3-1.3-2.2-6.2-1.1-8.1c1.2-2.2,4.6-4.9,7.1-5c0,0,0.7-0.7,0.7-0.7c1.4,0.3,1.1,0.7,2.5,0.6
		c0.5,0,1.1-0.1,1.6-0.2l8.1-0.9l0,0c0.1,0,0.2,0,0.4,0c0.7-0.1,1.2-0.4,1.6-0.9l0.2-0.3l0,0l1.5-2.2
		C-214.2,305.2-214.4,304.6-214.9,304.5z"/>
	<path d="M-237.3,338.7c-4.2,0-9-3.3-11.4-6c-5.8-6.8-4.8-16.4-1.4-22.5c3.7-6.6,12.3-12.9,18.2-13.1c4.1-0.2,8.2,0.3,10.3,4.4
		c0.1,0.2,0.3,0.5,0.6,0.6l3.7,1c0.1,0,0.4,0.1,0.4,0.1l2.3,0.6c0.5,0.1,0.9,0.5,1.1,1c0.2,0.5,0.1,0.9-0.2,1.3l-1.8,2.5
		c-0.5,0.6-1.2,1.1-2.1,1.2c-0.1,0-0.3,0-0.4,0.1l0,0l-8.1,0.9c-0.5,0.1-1.1,0.1-1.6,0.2c-0.9,0-1.3-0.1-1.8-0.3
		c-0.1-0.1-0.3-0.1-0.5-0.2c0,0,0,0,0,0c-0.4,0.4-0.6,0.6-1,0.6c-2.1,0.1-5.2,2.6-6.3,4.6c-0.6,1.1-0.9,3.4-0.4,5.2
		c0.2,0.6,0.5,1.4,1.2,1.8c6.3,3.5,6.9,7,6.7,9.7c-0.2,2.9-2.5,5.5-5.7,6.3C-236.1,338.6-236.7,338.7-237.3,338.7z M-230.5,298.6
		c-0.5,0-0.9,0-1.4,0c-5.3,0.2-13.5,6.2-16.9,12.3c-4.5,8.1-2.5,16.4,1.2,20.7c2.3,2.7,7.6,6.3,11.5,5.3c2.4-0.6,4.3-2.7,4.5-4.9
		c0.2-2.3-0.4-5.1-5.9-8.2c-0.9-0.5-1.6-1.5-1.9-2.8c-0.6-2-0.3-4.9,0.6-6.5c1.8-3.1,5.4-5.1,7.4-5.3c0,0,0.1-0.1,0.1-0.1
		c0.4-0.4,0.6-0.7,1.1-0.6c0.7,0.1,1,0.3,1.3,0.5c0.3,0.1,0.4,0.2,1,0.2c0.5,0,1-0.1,1.5-0.2l0,0l8.2-0.9c0.1,0,0.2,0,0.2,0
		c0.4-0.1,0.8-0.3,1.1-0.6l1.6-2.3l-2.2-0.6c-0.3-0.1-0.4-0.1-0.4-0.1v0l-3.6-1c-0.7-0.2-1.2-0.7-1.6-1.4
		C-224.6,299.1-227.5,298.6-230.5,298.6z M-231,309.3C-231,309.3-231,309.3-231,309.3C-231,309.3-231,309.3-231,309.3L-231,309.3z"
		/>
</g>
<g>
	<path class="st0" d="M-234,302.4c-1.2,0.8-1.9,2.3-1.9,3.9c0,2.6,2.6,4.7,5,4.7c2.4,0,4.4-2.1,4.4-4.7"/>
	<path d="M-230.9,311.5C-230.9,311.5-230.9,311.5-230.9,311.5c-1.3,0-2.7-0.6-3.7-1.5c-1.1-1-1.8-2.3-1.8-3.7c0-1.7,0.8-3.3,2.1-4.3
		c0.2-0.2,0.5-0.1,0.7,0.1c0.2,0.2,0.1,0.5-0.1,0.7c-1.1,0.8-1.7,2.1-1.7,3.5c0,1.1,0.5,2.1,1.5,3c0.9,0.8,2.1,1.3,3.1,1.3
		c0,0,0,0,0,0c2.1,0,3.9-1.9,3.9-4.2c0-0.3,0.2-0.5,0.5-0.5h0c0.3,0,0.5,0.2,0.5,0.5C-226,309.2-228.2,311.5-230.9,311.5z"/>
</g>
<g>
	<path d="M-235.1,325.2c-0.1,0-0.2,0-0.3-0.1c-3.4-2.3-6-2.6-6.8-2.6c-0.3,0-0.5-0.2-0.5-0.4c0-0.3,0.2-0.5,0.4-0.5
		c1-0.1,3.9,0.4,7.3,2.7c0.2,0.1,0.3,0.4,0.1,0.7C-234.8,325.1-234.9,325.2-235.1,325.2z"/>
</g>
<path d="M-186.3,298.9c11.2,0,20.3,9.1,20.3,20.2s-9.1,20.2-20.3,20.2c-11.2,0-20.3-9.1-20.3-20.2S-197.5,298.9-186.3,298.9z
	 M-186.3,335.4c8.7,0,15.9-7.1,15.9-16.3s-7.2-16.3-15.9-16.3c-8.7,0-15.9,7.1-15.9,16.3S-195,335.4-186.3,335.4z"/>
<path d="M-140.2,298.9c11.2,0,20.3,9.1,20.3,20.2s-9.1,20.2-20.3,20.2s-20.3-9.1-20.3-20.2S-151.4,298.9-140.2,298.9z M-140.2,335.4
	c8.7,0,15.9-7.1,15.9-16.3s-7.2-16.3-15.9-16.3c-8.7,0-15.9,7.1-15.9,16.3S-148.9,335.4-140.2,335.4z"/>
<path d="M-99.7,338.7h-11.7v-39.2h11.7c12.7,0,20.3,8.8,20.3,19.6S-87,338.7-99.7,338.7z M-99.7,303.1h-7.4v32h7.4
	c10,0,15.9-7.2,15.9-16S-89.8,303.1-99.7,303.1z"/>
<g>
	<path d="M297.6-41.7c-1.7,0-3.8-0.1-6.1-0.5c-3.6-0.6-6-1.7-7-3.2c-0.3-0.4-0.2-0.8,0.2-1.1c0.4-0.3,0.8-0.2,1.1,0.2
		c0.8,1.1,3,2,6,2.5c2.8,0.5,5.7,0.6,7.4,0.4c8.2-0.6,13.4-4,13.7-8.8c0.3-3.8-1.2-5.7-4.9-6.1c-0.4,0-0.7-0.4-0.7-0.9
		c0-0.4,0.4-0.7,0.9-0.7c4.6,0.5,6.7,3.1,6.3,7.8c-0.3,5.6-6.2,9.5-15.2,10.3C298.9-41.7,298.3-41.7,297.6-41.7z"/>
</g>
<g>
	<ellipse cx="295.6" cy="-59.9" rx="2.7" ry="1.5"/>
</g>
<g>
	<path d="M290.9-69.9c1.5,2.9,3.1,5.7,1.9,10h2.7c0,0.1,0.4-11.7,0.4-11.7S293.2-69.7,290.9-69.9z"/>
</g>
<g>
	<path class="st0" d="M314.1-76.5l-2.3-0.6c0,0-0.4-0.1-0.4-0.1l-0.6-0.2l-1.8-0.5l-1.3-0.4c-0.5-0.1-0.9-0.5-1.1-1
		c-1.9-3.8-5.9-4.1-9.5-3.9c-5.5,0.2-14,6.3-17.6,12.7c-3.3,5.9-4.2,15.2,1.3,21.6c2.5,2.9,8,6.6,12.3,5.6c2.6-0.7,4.9-2.9,5.1-5.6
		c0.2-2.6-0.4-5.7-6.3-8.9c-2.3-1.3-2.2-6.2-1.1-8.1c1.2-2.2,4.6-4.9,7.1-5c0,0,0.7-0.7,0.7-0.7c1.4,0.3,1.1,0.7,2.5,0.6
		c0.5,0,1.1-0.1,1.6-0.2l8.1-0.9l0,0c0.1,0,0.2,0,0.4,0c0.7-0.1,1.2-0.4,1.6-0.9l0.2-0.3l0,0l1.5-2.2
		C314.8-75.8,314.6-76.3,314.1-76.5z"/>
	<path d="M291.7-42.3c-4.2,0-9-3.3-11.4-6c-5.8-6.8-4.8-16.4-1.4-22.5c3.7-6.6,12.3-12.9,18.2-13.1c4.1-0.2,8.2,0.3,10.3,4.4
		c0.1,0.2,0.3,0.5,0.6,0.6l3.7,1c0.1,0,0.4,0.1,0.4,0.1l2.3,0.6c0.5,0.1,0.9,0.5,1.1,1c0.2,0.5,0.1,0.9-0.2,1.3l-1.8,2.5
		c-0.5,0.6-1.2,1.1-2.1,1.2c-0.1,0-0.3,0-0.4,0.1l0,0l-8.1,0.9c-0.5,0.1-1.1,0.1-1.6,0.2c-0.9,0-1.3-0.1-1.8-0.3
		c-0.1-0.1-0.3-0.1-0.5-0.2c0,0,0,0,0,0c-0.4,0.4-0.6,0.6-1,0.6c-2.1,0.1-5.2,2.6-6.3,4.6c-0.6,1.1-0.9,3.4-0.4,5.2
		c0.2,0.6,0.5,1.4,1.2,1.8c6.3,3.5,6.9,7,6.7,9.7c-0.2,2.9-2.5,5.5-5.7,6.3C292.9-42.4,292.3-42.3,291.7-42.3z M298.5-82.4
		c-0.5,0-0.9,0-1.4,0c-5.3,0.2-13.5,6.2-16.9,12.3c-4.5,8.1-2.5,16.4,1.2,20.7c2.3,2.7,7.6,6.3,11.5,5.3c2.4-0.6,4.3-2.7,4.5-4.9
		c0.2-2.3-0.4-5.1-5.9-8.2c-0.9-0.5-1.6-1.5-1.9-2.8c-0.6-2-0.3-4.9,0.6-6.5c1.8-3.1,5.4-5.1,7.4-5.3c0,0,0.1-0.1,0.1-0.1
		c0.4-0.4,0.6-0.7,1.1-0.6c0.7,0.1,1,0.3,1.3,0.5c0.3,0.1,0.4,0.2,1,0.2c0.5,0,1-0.1,1.5-0.2l0,0l8.2-0.9c0.1,0,0.2,0,0.3,0
		c0.4-0.1,0.8-0.3,1.1-0.6l1.6-2.3l-2.2-0.6c-0.2-0.1-0.4-0.1-0.4-0.1v0l-3.6-1c-0.7-0.2-1.2-0.7-1.6-1.4
		C304.5-81.9,301.5-82.4,298.5-82.4z M298-71.7C298-71.7,298-71.7,298-71.7C298-71.7,298-71.7,298-71.7L298-71.7z"/>
</g>
<g>
	<path class="st0" d="M295-78.6c-1.2,0.8-1.9,2.3-1.9,3.9c0,2.6,2.6,4.7,5,4.7c2.4,0,4.4-2.1,4.4-4.7"/>
	<path d="M298.2-69.5C298.2-69.5,298.2-69.5,298.2-69.5c-1.3,0-2.7-0.6-3.7-1.5c-1.1-1-1.8-2.3-1.8-3.7c0-1.7,0.8-3.3,2.1-4.3
		c0.2-0.2,0.5-0.1,0.7,0.1c0.2,0.2,0.1,0.5-0.1,0.7c-1.1,0.8-1.7,2.1-1.7,3.5c0,1.1,0.5,2.1,1.5,3c0.9,0.8,2.1,1.3,3.1,1.3
		c0,0,0,0,0,0c1,0,2-0.4,2.7-1.2c0.7-0.8,1.2-1.9,1.2-3c0-0.3,0.2-0.5,0.5-0.5c0,0,0,0,0,0c0.3,0,0.5,0.2,0.5,0.5
		c0,1.4-0.5,2.7-1.4,3.6C300.7-70,299.5-69.5,298.2-69.5z"/>
</g>
<g>
	<path d="M294-55.8c-0.1,0-0.2,0-0.3-0.1c-3.4-2.3-6-2.6-6.8-2.6c-0.3,0-0.5-0.2-0.5-0.4c0-0.3,0.2-0.5,0.4-0.5
		c1-0.1,3.9,0.4,7.3,2.8c0.2,0.1,0.3,0.4,0.1,0.7C294.3-55.8,294.1-55.8,294-55.8z"/>
</g>
<g>
	<path d="M-221.2,454c-4.1,0-10.8-1.2-13.6-3.6c-0.4-0.3-0.4-0.9-0.1-1.3c0.3-0.4,0.9-0.4,1.3-0.1c2.6,2.2,10,3.4,13.5,3.1
		c8.1-0.6,13.3-4,13.6-8.7c0.3-3.7-1.2-5.6-4.8-6c-0.5-0.1-0.9-0.5-0.8-1c0.1-0.5,0.5-0.9,1-0.8c4.7,0.5,6.8,3.2,6.5,7.9
		c-0.3,5.7-6.2,9.7-15.3,10.4C-220.3,453.9-220.7,454-221.2,454z"/>
</g>
<g>
	<ellipse cx="-223.7" cy="435.6" rx="2.7" ry="1.5"/>
</g>
<g>
	<path d="M-228.4,425.6c1.5,2.9,3.1,5.7,1.9,10h2.7c0,0.1,0.4-11.7,0.4-11.7S-226.1,425.8-228.4,425.6z"/>
</g>
<g>
	<path class="st0" d="M-205.2,419l-2.3-0.6c0,0-0.4-0.1-0.4-0.1l-0.6-0.2l-1.8-0.5l-1.3-0.4c-0.5-0.1-0.9-0.5-1.1-1
		c-1.9-3.8-5.9-4.1-9.5-3.9c-5.5,0.2-14,6.3-17.6,12.7c-3.3,5.9-4.2,15.2,1.3,21.6c2.5,2.9,8,6.6,12.3,5.6c2.6-0.7,4.9-2.9,5.1-5.6
		c0.2-2.6-0.4-5.7-6.3-8.9c-2.3-1.3-2.2-6.2-1.1-8.1c1.2-2.2,4.6-4.9,7.1-5c0,0,0.7-0.7,0.7-0.7c1.4,0.3,1.1,0.7,2.5,0.6
		c0.5,0,1.1-0.1,1.6-0.2l8.1-0.9l0,0c0.1,0,0.2,0,0.4,0c0.7-0.1,1.2-0.4,1.6-0.9l0.2-0.3l0,0l1.5-2.2
		C-204.5,419.7-204.7,419.2-205.2,419z"/>
	<path d="M-227.6,453.2c-4.2,0-9-3.3-11.3-6c-5.8-6.7-4.8-16.4-1.4-22.5c3.6-6.6,12.3-12.8,18.2-13.1c4.1-0.2,8.2,0.3,10.2,4.3
		c0.1,0.2,0.3,0.5,0.6,0.6l3.7,1c0.1,0,0.4,0.1,0.4,0.1l2.3,0.6c0.5,0.1,0.9,0.5,1,1c0.2,0.4,0.1,0.9-0.2,1.3l-1.8,2.5
		c-0.5,0.6-1.2,1-2,1.2c-0.1,0-0.3,0-0.4,0.1l0,0l-8.1,0.9c-0.5,0.1-1.1,0.1-1.6,0.2c-0.9,0-1.3-0.1-1.7-0.3
		c-0.1-0.1-0.3-0.2-0.5-0.2c0,0,0,0,0,0c-0.4,0.4-0.6,0.6-0.9,0.6c-2.1,0.1-5.2,2.6-6.4,4.6c-0.6,1.1-0.9,3.5-0.4,5.3
		c0.2,0.6,0.5,1.5,1.2,1.8c6.3,3.5,6.9,7,6.7,9.6c-0.2,2.9-2.5,5.5-5.6,6.2C-226.4,453.1-227,453.2-227.6,453.2z M-220.8,413.1
		c-0.5,0-0.9,0-1.4,0c-5.3,0.2-13.6,6.2-16.9,12.3c-4.5,8.1-2.5,16.5,1.3,20.8c2.4,2.7,7.7,6.3,11.6,5.3c2.4-0.6,4.3-2.7,4.5-4.9
		c0.2-2.3-0.4-5.2-5.9-8.2c-0.9-0.5-1.6-1.4-1.9-2.7c-0.6-2-0.3-4.9,0.6-6.4c1.3-2.3,4.8-5.1,7.4-5.3c0,0,0.1-0.1,0.1-0.1
		c0.4-0.4,0.6-0.7,1-0.6c0.7,0.1,1,0.3,1.3,0.5c0.3,0.1,0.4,0.2,1,0.2c0.5,0,1-0.1,1.5-0.2l0,0l8.2-0.9c0.1,0,0.2,0,0.3,0
		c0.5-0.1,0.8-0.3,1.1-0.6l1.7-2.4c0,0,0,0,0,0l-2.3-0.6c-0.2-0.1-0.4-0.1-0.4-0.1v0l-3.6-1c-0.7-0.2-1.2-0.7-1.6-1.3
		C-214.8,413.6-217.8,413.1-220.8,413.1z M-221.3,423.9C-221.3,423.9-221.3,423.9-221.3,423.9C-221.3,423.9-221.3,423.9-221.3,423.9
		L-221.3,423.9z"/>
</g>
<g>
	<path class="st0" d="M-224.3,416.9c-1.2,0.8-1.9,2.3-1.9,3.9c0,2.6,2.6,4.7,5,4.7c2.4,0,4.4-2.1,4.4-4.7"/>
	<path d="M-221.1,426C-221.1,426-221.1,426-221.1,426c-2.5,0-5.5-2.3-5.5-5.2c0-1.7,0.8-3.3,2.1-4.3c0.2-0.1,0.5-0.1,0.6,0.1
		c0.1,0.2,0.1,0.5-0.1,0.6c-1.1,0.8-1.7,2.1-1.7,3.5c0,2,2,4.3,4.6,4.3c0,0,0,0,0,0c2.2,0,3.9-1.9,3.9-4.2c0-0.3,0.2-0.5,0.5-0.5
		c0,0,0,0,0,0c0.3,0,0.5,0.2,0.5,0.5C-216.3,423.7-218.5,426-221.1,426z"/>
</g>
<g>
	<path d="M-225.3,439.7c-0.1,0-0.2,0-0.3-0.1c-3.4-2.3-6-2.6-6.8-2.6c-0.3,0-0.5-0.2-0.5-0.4c0-0.3,0.2-0.5,0.4-0.5
		c1-0.1,3.9,0.4,7.3,2.7c0.2,0.1,0.3,0.4,0.1,0.6C-225,439.6-225.2,439.7-225.3,439.7z"/>
</g>
<g>
	<g>
		<g>
			<path d="M-187.3,430.5C-187.3,430.5-187.3,430.5-187.3,430.5c-0.3,0-0.6-0.3-0.5-0.6c0.4-3.8,2.4-6.9,6.5-8.2
				c0,0-7.5,2.6-8.8-3.4l0,13.8h0c0,0.9,1.3,0.9,2.8,0.9c1.5,0,2.8-0.1,2.8-1S-185.8,430.5-187.3,430.5z"/>
		</g>
		<g>
			<path d="M-164.1,440c-0.5,1.7-1.2,3.3-2.1,4.8c1.2,1.1,1.1,3.4,0.7,5.1c-0.1,0.7-0.6,1.8-2.7,2.5c-0.2,0.1-0.3,0.2-0.4,0.2
				c0,0.1,0,0.1-0.1,0.2c0.5,0.2,1.3,0.2,2.2,0.2c1.5,0,2.7-0.1,2.8-0.9h0c1.1-4.6,1.5-10.4,1.8-16.4
				C-162.3,437.6-163.2,439-164.1,440z"/>
		</g>
		<g>
			<path d="M-192.7,434.7C-192.7,434.7-192.7,434.7-192.7,434.7c-0.3,0-0.6-0.3-0.5-0.6c0.4-3.8,2.4-6.9,6.5-8.2
				c0,0-7.5,2.6-8.8-3.4l0,13.8h0c0,0.9,1.3,0.9,2.8,0.9c1.5,0,2.8-0.1,2.8-1C-189.9,435.4-191.2,434.7-192.7,434.7z"/>
		</g>
		<g>
			<path class="st0" d="M-181,413c-4.8,0-11.7,2.2-13.4,7.3c-0.5,1.5-0.5,3.3,0.5,4.7c1.3,1.7,4,1.2,5.8,0.6c1.5-0.5,2.6-1,4.2-1.3
				c4-0.6,7.2,1.3,8.8,4.1c1.3,2.3,2.1,7.2,0.2,9.5c-0.3,0.3-1.8-0.6-3.4,1.7c-0.4,0.5-1,0.4-2.8,1c-2,0.6-4.1,1.4-4.7,3.8
				c-0.1,0.5-0.5,0.9-1,1.1l-1.3,0.5l-1.8,0.6l-0.6,0.2c0,0-0.4,0.2-0.4,0.2l-2.3,0.8c-0.5,0.2-0.7,0.8-0.3,1.2l1.9,2.3l0,0l0.2,0.3
				c0.5,0.5,1.1,0.8,1.8,0.9c0.1,0,0.2,0,0.4,0h0l8.6,0.5c0.5,0.1,1.1,0.1,1.6,0.1c1.4,0,2.8-0.2,4.2-0.6c0.8-0.2,1.6-0.6,2.4-0.9v0
				c6.2-3,9.2-9.1,9.6-15.6C-162.1,424.9-169,413-181,413z"/>
		</g>
		<g>
			<path d="M-178.9,453.7c-0.6,0-1.2,0-1.7-0.1l-8.5-0.5c-0.2,0-0.3,0-0.5,0c-0.8-0.1-1.6-0.5-2.2-1.1l0,0l-2.2-2.6
				c-0.3-0.4-0.4-0.9-0.3-1.4c0.1-0.5,0.5-0.9,1-1l2.3-0.8c0,0,0.3-0.1,0.4-0.1l0.1,0l3.6-1.3c0.2-0.1,0.4-0.3,0.5-0.6
				c0.8-2.7,3.1-3.7,5.3-4.3c0.6-0.2,0.9-0.2,1.3-0.3c1.3-0.2,1.8-0.2,1.8-0.3c0.8-1.3,2.1-1.9,2.9-2c0,0,0,0,0,0
				c1.3-2,0.6-6.3-0.6-8.5c-1.2-2.2-3.9-4.4-8-3.7c-1.1,0.2-2,0.5-3.1,0.9c-0.3,0.1-0.7,0.2-1,0.4c-1.8,0.6-5.1,1.3-6.7-0.8
				c-1.1-1.4-1.3-3.4-0.6-5.4c1.7-5.1,8.6-7.8,14.1-7.8c5,0,9.4,1.9,12.9,5.6c4.3,4.5,6.6,11.2,6.2,18c-0.4,7.3-3.9,13.1-9.6,16.1v0
				l-0.4,0.2c-0.8,0.4-1.6,0.7-2.5,1C-175.9,453.5-177.3,453.7-178.9,453.7z M-190.7,450.8c0.3,0.4,0.8,0.6,1.3,0.6
				c0.1,0,0.2,0,0.3,0l0.1,0l8.6,0.5c0.5,0.1,1,0.1,1.6,0.1c1.4,0,2.7-0.2,4-0.6c0.7-0.2,1.3-0.4,1.9-0.7l0.3-0.2
				c5.4-2.6,8.7-8.1,9.1-15c0.4-6.3-1.8-12.6-5.8-16.8c-3.2-3.3-7.2-5.1-11.7-5.1c-7.5,0-11.7,4.1-12.6,6.7c-0.2,0.7-0.7,2.5,0.4,4
				c1.1,1.4,3.8,0.7,4.9,0.3c0.3-0.1,0.7-0.2,1-0.4c1.1-0.4,2.1-0.8,3.4-1c4-0.6,7.8,1.1,9.6,4.5c1.2,2.3,2.6,7.7,0.3,10.4
				c-0.4,0.4-1,0.3-1.4,0.4c-0.7,0.3-1,0.8-1.5,1.6c-0.4,0.6-1.1,0.3-2.3,0.5c-0.4,0.1-1,0.2-1.6,0.3c-1.9,0.6-3.6,1.3-4.2,3.2
				c-0.2,0.8-0.8,1.4-1.5,1.6l-3.6,1.3l0,0c-0.1,0-0.2,0.1-0.4,0.2l-1.6,0.6c-0.3,0.1-0.4,0.5-0.2,0.7L-190.7,450.8z"/>
		</g>
		<g>
			<g>
				<path d="M-185.4,444.2L-185.4,444.2c-0.3-0.1-0.4-0.4-0.3-0.7c0.6-1.2,2-2.2,3.2-2.7c3.5-1.4,6.3-1.2,8,0.5
					c0.2,0.2,0.2,0.5,0,0.7l0,0c-0.2,0.1-0.5,0.1-0.6,0c-1.4-1.4-3.9-1.5-7-0.3c-1,0.4-2.3,1.3-2.7,2.3
					C-184.9,444.1-185.2,444.2-185.4,444.2z"/>
			</g>
		</g>
		<g>
			<g>
				<path class="st0" d="M-171.9,445.2c1.2,0.9,2,2.4,2,4.1c0,2.7-2.8,4.9-5.3,4.9s-4.6-2.2-4.6-4.9"/>
			</g>
			<g>
				<path d="M-175.2,454.7c-2.6,0-4.8-2.1-5-4.9c0-0.3,0.2-0.5,0.5-0.5h0c0.2,0,0.4,0.2,0.5,0.4c0.2,2.2,2,4,4.1,4c0,0,0,0,0,0
					c1.1,0,2.3-0.5,3.3-1.3c1-0.9,1.5-2,1.5-3.1c0-1.3-0.6-2.6-1.5-3.4c-0.2-0.2-0.2-0.4-0.1-0.6l0,0c0.2-0.2,0.5-0.3,0.7-0.1
					c1.1,1,1.8,2.5,1.8,4.1c0,1.4-0.7,2.8-1.9,3.8C-172.4,454.1-173.8,454.7-175.2,454.7C-175.2,454.7-175.2,454.7-175.2,454.7z"/>
			</g>
		</g>
	</g>
	<g>
		<path d="M-166.7,453.9c0.8-0.1,1.6-0.5,2.2-0.8c0.6-0.4,1.1-1,0.7-1.5c-0.7-1-4.1-0.7-5.2,1.1C-169.6,453.8-168,454.1-166.7,453.9
			z"/>
	</g>
</g>
<g>
	<g>
		<path class="st1" d="M236.3,370.5"/>
	</g>
	<g>
		<path d="M238.4,339.7c-3.6-3.7-8.5-5.6-14-5.6c-5.5,0.1-13,0.9-13.5,7.5c0,0.3,0,0.6,0,0.9c0,0,0,0,0-0.1v15h0
			c0,0.8,1.2,1.3,2.7,1.3c1.5,0,2.7-0.5,2.7-1.3c0-0.9-1.2-1.5-2.7-1.5c-0.1,0-0.2,0-0.3,0c0.2-2.2,1-6,4.3-8v5.9
			c0,0.8,1.2,1.3,2.7,1.3c1.5,0,2.7-0.5,2.7-1.3c0-0.8-1.2-1.5-2.7-1.5c-0.1,0-0.2,0-0.3,0c0.1-1.5,0.5-3.8,1.8-5.7
			c0.2,0,0.4-0.1,0.7-0.1c3.4-0.3,7.1,1.4,8.6,3.9c1.5,2.6,1.5,6.3-0.1,8.3c0,0-0.1,0-0.1,0c-0.7,0-2,0.2-3.3,1.8l0,0
			c-0.1,0.1-0.4,0.1-0.7,0.2c-0.4,0.1-1,0.2-1.8,0.5c-1.4,0.5-4.4,1.5-5.4,4.3c-0.1,0.4-0.3,0.6-0.5,0.7l-3.4,1.5l0,0
			c-0.1,0-0.4,0.2-0.4,0.2l-2.2,1c-0.5,0.2-0.8,0.6-0.9,1.1c-0.1,0.5,0.1,1,0.4,1.3l2.3,2.4l0,0c0.6,0.6,1.4,0.9,2.3,0.9
			c0.1,0,0.1,0,0.2,0c0.1,0,0.2,0,0.3,0l8.4-0.1c0.6,0,1.1,0,1.7,0c0.3,0,0.6-0.1,1-0.1c0.8,0.5,1.8,0.8,2.8,0.8c0,0,0.1,0,0.1,0
			c1.3,0,2.6-0.7,3.6-1.8c0.4-0.5,0.8-1,1.1-1.6c0.5-0.4,1.1-0.9,2-1.8c0.8-0.8,1.5-1.6,2.1-2.5c0.3,1.5,0.1,3.1-0.1,4.2
			c-0.3,0-0.7,0-1.1,0.1c-1.6,0.4-2.7,1.5-2.1,2.4c0.5,0.8,2.2,0.8,3.5,0.2c0.8-0.4,1.3-1,1.4-1.6h0c0.7-4.1,1.7-9.6,2.1-14.2
			c0,0,0,0,0,0c0.2-0.9,0.2-1.8,0.3-2.7C244.6,349.7,242.4,343.8,238.4,339.7z M239.8,365.9c-0.7,1.1-1.6,2.2-2.5,3.1
			c-0.2,0.2-0.3,0.3-0.5,0.5c-0.2-1.7-1.1-3.2-2.5-4.1c-0.2-0.1-0.5-0.1-0.6,0.2c-0.1,0.2-0.1,0.5,0.2,0.6c0.4,0.2,0.7,0.5,1,0.8
			c0.3,0.4,0.6,0.8,0.8,1.3c0,0,0,0,0,0c0.2,0.4,0.3,0.8,0.3,1.3v0c0,0,0,0,0,0c0,0,0,0,0,0c0,0.2,0,0.4,0,0.6
			c-0.1,0.4-0.2,0.9-0.4,1.3c-0.2,0.4-0.5,0.9-0.9,1.3c-0.2,0.2-0.3,0.3-0.5,0.5c-0.8,0.7-1.7,1-2.5,1c-0.4,0-0.8-0.1-1.2-0.2
			c-0.4-0.1-0.8-0.3-1.2-0.5c-0.3-0.2-0.6-0.4-0.8-0.7c-0.7-0.7-1.1-1.6-1.2-2.6v0c0-0.3-0.2-0.4-0.5-0.4c-0.3,0-0.5,0.2-0.4,0.5
			c0.1,1,0.4,1.9,1,2.7c-0.4,0-0.7,0-1.1,0h0l-8.5,0.1l-0.1,0c-0.1,0-0.2,0-0.3,0c-0.5,0-0.9-0.2-1.3-0.5l-2.2-2.3l2.1-0.9
			c0,0,0.1,0,0.2-0.1c0.1,0,0.2-0.1,0.2-0.1l3.4-1.5c0.6-0.3,1.1-0.8,1.3-1.6c0.7-2.1,3.1-2.9,4.4-3.4c0.7-0.2,1.2-0.3,1.6-0.4
			c0.2,0,0.3-0.1,0.4-0.1c1.1,0,1.9,0.3,2.7,0.9c0.2,0.1,0.5,0.1,0.7-0.1c0.1-0.2,0.1-0.5-0.1-0.6c-0.7-0.4-1.3-0.8-2-0.9
			c0.8-1,1.6-1,2.2-1.1c0.4,0,0.8-0.1,1.1-0.4c2.1-2.5,2.2-7,0.3-10.3c-1.6-2.8-5.4-4.7-9.1-4.7c-0.3,0-0.7,0-1,0
			c-0.8,0.1-1.7,0.2-2.5,0.4c-0.8,0.2-1.5,0.3-2.2,0.4c-0.8,0.1-1.6,0.1-2.3-0.1c-2.6-0.6-2.8-2.7-2.7-3.9c0.3-4.1,4-6,11.9-6.1
			c5.1,0,9.5,1.7,12.9,5.1c3.7,3.8,5.8,9.3,5.6,15.1c0,1.5-0.3,3.1-0.7,4.6C241.7,362.4,240.9,364.3,239.8,365.9z"/>
	</g>
</g>
<g>
	<path d="M308.4,358.6c-1.5-1.5-3.7-1.6-5.9-1.5c-0.4,0-0.8,0.4-0.7,0.8c0,0.2,0.1,0.3,0.1,0.4c0.1,0.2,0.4,0.3,0.7,0.3
		c2.5-0.1,3.9,0.2,4.8,1c0.9,0.9,1.3,2.7,1.2,5.6c-0.3,5.1-4.8,8.4-12.3,9c-1.1,0.1-2.6,0-4.1-0.1c1.7-0.8,3.1-2.3,3.8-4.8
		c0.5-1.7,0.3-4.1-1.1-6.1c-0.9-1.5-2.4-2.8-4.7-3.6c-3-1-4-2.7-3.4-5.9c0.1-0.6,0.4-1.3,0.7-2c0.3,2.2,1.2,4.6,1.2,5.4
		c0,0.1,0,0.2,0,0.3c0,0.8,1.2,1.3,2.6,1.3c1.5,0,2.6-0.5,2.6-1.3c0-0.8-1.2-1.5-2.6-1.5c-0.2,0-0.3,0-0.5,0
		c-0.2-1.9-0.8-5.1,0.1-7.5h0c0.1,0,0.2,0,0.3,0c1.6-0.1,2.9-0.7,3.8-1.6c0.2,0,0.5-0.1,0.7-0.1c0.1,0,10.1-1.2,10.3-1.3
		c0.8-0.2,1.5-0.6,2-1.3l1.6-2.5c0.2-0.4,0.3-0.9,0.1-1.3c-0.2-0.5-0.6-0.8-1.1-0.9l-6.1-1.5c-0.3-0.1-0.5-0.4-0.6-0.5
		c-2.2-3.9-5.9-3.9-8.1-3.8l-0.3,0c-1.8,0-3.6,0.4-5.5,1.2c-1.8,0.8-3.7,2-5.6,3.6c-2.4,2.1-4.3,4.7-5.4,6.5l-0.2,0.3
		c-0.2,0.4-0.5,0.8-0.7,1.3c-3.1,6-4.1,15.1,2.3,22.4c1.7,2,3.9,3.6,6,4.6c0,0,0,0,0,0c3,1.6,7.4,2.3,10.5,2.3c0.5,0,1,0,1.4,0
		c11.8-0.9,13.5-7.6,13.7-10.5C310.2,362,309.7,359.9,308.4,358.6z M288.2,373.2c-0.9-0.2-1.9-0.5-2.8-0.9c-0.6-0.3-1.2-0.6-1.8-1
		c-0.2-0.1-0.4-0.3-0.6-0.4c-1.2-0.8-2.3-1.8-3.3-2.9c-5.9-6.7-5-15.1-2.1-20.7c0.2-0.4,0.4-0.8,0.7-1.2l0.2-0.3
		c1.1-1.7,2.8-4.2,5.1-6.1c3.4-3,6.8-4.5,10-4.5l0.3,0c2.1,0,5,0,6.8,3.1c0.4,0.7,1,1.1,1.6,1.3l6,1.4l-1.5,2.4
		c-0.2,0.3-0.6,0.5-1,0.6c-0.5,0.1-7.6,0.9-9.6,1.2c0.1-0.4,0.2-0.8,0.3-1.3c0-0.3-0.2-0.5-0.4-0.5c-0.2,0-0.4,0.1-0.5,0.3
		c0,0,0,0.1,0,0.1c0,0.6-0.2,1.1-0.4,1.5c-0.2,0.3-0.4,0.6-0.6,0.9c-0.7,0.8-1.8,1.3-3.1,1.4c0,0-0.1,0-0.1,0c-0.3,0-0.6,0-0.9,0
		c-0.3,0-0.6-0.1-0.9-0.2c0,0-0.1,0-0.1,0c-0.8-0.3-1.5-0.9-2-1.7c-0.8-1.2-0.4-3.6,0.7-4.8c0,0,0.1-0.1,0.1-0.1
		c0.1-0.2,0-0.4-0.1-0.5c-0.2-0.2-0.5-0.2-0.7,0c-1.4,1.5-1.8,4.3-0.8,5.9c0.4,0.6,0.9,1.2,1.5,1.6c0.2,0.1,0.4,0.2,0.6,0.3
		c-0.5,0.5-0.9,1-1.3,1.6c-0.9,1.3-1.6,2.8-1.9,4c-0.5,2.4-0.1,4.2,1.1,5.6c0.1,0.1,0.1,0.1,0.2,0.2c-1.3-0.2-2-0.3-2-0.3
		c0,0,0,0,0,0c-0.3,0-0.5,0.2-0.5,0.5c0,0.3,0.2,0.5,0.5,0.5c0,0,1.6,0,4.1,0.8c0,0,0,0,0,0c0.1,0,0.3,0.1,0.4,0.1c0,0,0,0,0,0
		c0.2,0.1,0.4,0.1,0.5,0.2c1.9,0.6,3.1,1.7,3.9,3c1,1.6,1.2,3.5,0.8,4.8C293.1,373.9,288.7,373.3,288.2,373.2z"/>
</g>
<g>
	<path d="M338.8,334.4c-11.3,0-20.5,9.2-20.5,20.4s9.2,20.4,20.5,20.4s20.5-9.2,20.5-20.4S350.1,334.4,338.8,334.4z M357.5,354.8
		c0,10.3-8.4,18.8-18.7,18.8s-18.7-8.4-18.7-18.8s8.4-18.8,18.7-18.8S357.5,344.4,357.5,354.8z"/>
	<path d="M385.5,334.4c-11.3,0-20.5,9.2-20.5,20.4s9.2,20.4,20.5,20.4S406,366,406,354.8S396.8,334.4,385.5,334.4z M404.2,354.8
		c0,10.3-8.4,18.8-18.7,18.8s-18.7-8.4-18.7-18.8s8.4-18.8,18.7-18.8S404.2,344.4,404.2,354.8z"/>
	<path d="M440.6,340.8c-3.6-3.7-8.5-5.8-13.7-5.8H415v39.6h11.9c10.8,0,19.3-8.7,19.3-19.8C446.2,349.5,444.2,344.5,440.6,340.8z
		 M444.4,354.8c0,10.2-7.7,18.2-17.5,18.2h-10.1v-36.3h10.1C436.6,336.6,444.4,344.8,444.4,354.8z"/>
</g>
<g>
	<g>
		<path d="M156.9,354.5c7.1,1.2,10.9,5.5,10.9,10.7c0,6-5.2,9.5-12.1,9.5h-15.3v-39.9h13.3c6.3,0,12,3,12,9.6
			C165.7,349,162.9,353,156.9,354.5z M141.8,336.1V354h9.6c8.9,0,12.9-4.5,12.9-9.6c0-5.7-5-8.3-10.5-8.3H141.8z M141.8,355.3v18.1
			h13.9c6.2,0,10.7-3,10.7-8.3c0-5.4-4.8-9.9-13.6-9.9H141.8z"/>
		<path d="M155.7,374.9h-15.5v-40.3h13.5c5.6,0,12.2,2.6,12.2,9.8c0,4.9-3,8.5-8.2,10.1c6.4,1.3,10.3,5.4,10.3,10.7
			C168,371.1,163.2,374.9,155.7,374.9z M140.6,374.5h15.2c7.3,0,12-3.7,12-9.3c0-5.4-4.1-9.4-10.8-10.5l-0.8-0.1l0.8-0.2
			c5.5-1.4,8.7-5,8.7-9.9c0-6.9-6.4-9.4-11.9-9.4h-13.2V374.5z M155.7,373.6h-14.1v-18.5h11.2c8.2,0,13.7,4,13.7,10
			C166.6,370.3,162.3,373.6,155.7,373.6z M142,373.2h13.7c6.4,0,10.5-3.2,10.5-8.1c0-5.8-5.4-9.7-13.4-9.7H142V373.2z M151.4,354.1
			h-9.8v-18.2h12.1c4.9,0,10.7,2.2,10.7,8.4C164.4,349.1,161,354.1,151.4,354.1z M142,353.8h9.4c9.4,0,12.7-4.9,12.7-9.4
			c0-3.9-2.7-8.1-10.4-8.1H142V353.8z"/>
	</g>
	<g>
		<path d="M171.4,374.7l16.5-39.9h2.1l16.5,39.9h-1.7l-3.8-9.3h-24.2l-3.8,9.3H171.4z M177.3,364.1h23.1l-11.5-28L177.3,364.1z"/>
		<path d="M206.8,374.9h-2l-3.8-9.3h-24l-3.8,9.3h-2l16.7-40.3h2.3l0,0.1L206.8,374.9z M205,374.5h1.3L189.9,335H188l-16.4,39.6h1.2
			l3.8-9.3h24.5L205,374.5z M200.7,364.3h-23.7l11.9-28.6l0.2,0.4L200.7,364.3z M177.6,363.9h22.6l-11.3-27.4L177.6,363.9z"/>
	</g>
</g>
<rect x="246.6" y="348.9" class="st2" width="26.2" height="17.3"/>
<text transform="matrix(1 0 0 1 251.4918 360.5975)" class="st3 st4">to</text>
<rect x="141.5" y="382.4" class="st2" width="311" height="17.3"/>
<text transform="matrix(1 0 0 1 217.0752 394.0771)" class="st3 st4">dog training services</text>
<g>
	<g>
		<path class="st1" d="M328.8,512.4"/>
	</g>
	<g>
		<path d="M331,481.6c-3.6-3.7-8.5-5.6-14-5.6c-5.5,0.1-13,0.9-13.5,7.5c0,0.3,0,0.6,0,0.9c0,0,0,0,0-0.1v15h0
			c0,0.8,1.2,1.3,2.7,1.3c1.5,0,2.7-0.5,2.7-1.3c0-0.9-1.2-1.5-2.7-1.5c-0.1,0-0.2,0-0.3,0c0.2-2.2,1-6,4.3-8v5.9
			c0,0.8,1.2,1.3,2.7,1.3s2.7-0.5,2.7-1.3c0-0.8-1.2-1.5-2.7-1.5c-0.1,0-0.2,0-0.3,0c0.1-1.5,0.5-3.8,1.8-5.7c0.2,0,0.4-0.1,0.7-0.1
			c3.4-0.3,7.1,1.4,8.6,3.9c1.5,2.6,1.5,6.3-0.1,8.3c0,0-0.1,0-0.1,0c-0.7,0-2,0.2-3.3,1.8l0,0c-0.1,0.1-0.4,0.1-0.7,0.2
			c-0.4,0.1-1,0.2-1.8,0.5c-1.4,0.5-4.4,1.5-5.4,4.3c-0.1,0.4-0.3,0.6-0.5,0.7l-3.4,1.5l0,0c-0.1,0-0.4,0.2-0.4,0.2l-2.2,1
			c-0.5,0.2-0.8,0.6-0.9,1.1c-0.1,0.5,0.1,1,0.4,1.3l2.3,2.4l0,0c0.6,0.6,1.4,0.9,2.3,0.9c0.1,0,0.1,0,0.2,0c0.1,0,0.2,0,0.3,0
			l8.4-0.1c0.6,0,1.1,0,1.7,0c0.3,0,0.6-0.1,1-0.1c0.8,0.5,1.8,0.8,2.8,0.8c0,0,0.1,0,0.1,0c1.3,0,2.6-0.7,3.6-1.8
			c0.4-0.5,0.8-1,1.1-1.6c0.5-0.4,1.1-0.9,2-1.8c0.8-0.8,1.5-1.6,2.1-2.5c0.3,1.5,0.1,3.1-0.1,4.2c-0.3,0-0.7,0-1.1,0.1
			c-1.6,0.4-2.7,1.5-2.1,2.4c0.5,0.8,2.2,0.8,3.5,0.2c0.8-0.4,1.3-1,1.4-1.6h0c0.7-4.1,1.7-9.6,2.1-14.2c0,0,0,0,0,0
			c0.2-0.9,0.2-1.8,0.3-2.7C337.2,491.6,335,485.7,331,481.6z M332.4,507.8c-0.7,1.1-1.6,2.2-2.5,3.1c-0.2,0.2-0.3,0.3-0.5,0.5
			c-0.2-1.7-1.1-3.2-2.5-4.1c-0.2-0.1-0.5-0.1-0.6,0.2c-0.1,0.2-0.1,0.5,0.2,0.6c0.4,0.2,0.7,0.5,1,0.8c0.3,0.4,0.6,0.8,0.8,1.3
			c0,0,0,0,0,0c0.2,0.4,0.3,0.8,0.3,1.3v0c0,0,0,0,0,0c0,0,0,0,0,0c0,0.2,0,0.4,0,0.6c-0.1,0.4-0.2,0.9-0.4,1.3
			c-0.2,0.4-0.5,0.9-0.9,1.3c-0.2,0.2-0.3,0.3-0.5,0.5c-0.8,0.7-1.7,1-2.5,1c-0.4,0-0.8-0.1-1.2-0.2c-0.4-0.1-0.8-0.3-1.2-0.5
			c-0.3-0.2-0.6-0.4-0.8-0.7c-0.7-0.7-1.1-1.6-1.2-2.6v0c0-0.3-0.2-0.4-0.5-0.4c-0.3,0-0.5,0.2-0.4,0.5c0.1,1,0.4,1.9,1,2.7
			c-0.4,0-0.7,0-1.1,0h0l-8.5,0.1l-0.1,0c-0.1,0-0.2,0-0.3,0c-0.5,0-0.9-0.2-1.3-0.5l-2.2-2.3l2.1-0.9c0,0,0.1,0,0.2-0.1
			c0.1,0,0.2-0.1,0.2-0.1l3.4-1.5c0.6-0.3,1.1-0.8,1.3-1.6c0.7-2.1,3.1-2.9,4.4-3.4c0.7-0.2,1.2-0.3,1.6-0.4c0.2,0,0.3-0.1,0.4-0.1
			c1.1,0,1.9,0.3,2.7,0.9c0.2,0.1,0.5,0.1,0.7-0.1c0.1-0.2,0.1-0.5-0.1-0.6c-0.7-0.4-1.3-0.8-2-0.9c0.8-1,1.6-1,2.2-1.1
			c0.4,0,0.8-0.1,1.1-0.4c2.1-2.5,2.2-7,0.3-10.3c-1.6-2.8-5.4-4.7-9.1-4.7c-0.3,0-0.7,0-1,0c-0.8,0.1-1.7,0.2-2.5,0.4
			c-0.8,0.2-1.5,0.3-2.2,0.4c-0.8,0.1-1.6,0.1-2.3-0.1c-2.6-0.6-2.8-2.7-2.7-3.9c0.3-4.1,4-6,11.9-6.1c5.1,0,9.5,1.7,12.9,5.1
			c3.7,3.8,5.8,9.3,5.6,15.1c0,1.5-0.3,3.1-0.7,4.6C334.2,504.3,333.4,506.2,332.4,507.8z"/>
	</g>
</g>
<g>
	<path d="M230.6,566.5c-1.5-1.5-3.7-1.6-5.9-1.5c-0.4,0-0.8,0.4-0.7,0.8c0,0.2,0.1,0.3,0.1,0.4c0.1,0.2,0.4,0.3,0.7,0.3
		c2.5-0.1,3.9,0.2,4.8,1c0.9,0.9,1.3,2.7,1.2,5.6c-0.3,5.1-4.8,8.4-12.3,9c-1.1,0.1-2.6,0-4.1-0.1c1.7-0.8,3.1-2.3,3.8-4.8
		c0.5-1.7,0.3-4.1-1.1-6.1c-0.9-1.5-2.4-2.8-4.7-3.6c-3-1-4-2.7-3.4-5.9c0.1-0.6,0.4-1.3,0.7-2c0.3,2.2,1.2,4.6,1.2,5.4
		c0,0.1,0,0.2,0,0.3c0,0.8,1.2,1.3,2.6,1.3c1.5,0,2.6-0.5,2.6-1.3c0-0.8-1.2-1.5-2.6-1.5c-0.2,0-0.3,0-0.5,0
		c-0.2-1.9-0.8-5.1,0.1-7.5h0c0.1,0,0.2,0,0.3,0c1.6-0.1,2.9-0.7,3.8-1.6c0.2,0,0.5-0.1,0.7-0.1c0.1,0,10.1-1.2,10.3-1.3
		c0.8-0.2,1.5-0.6,2-1.3l1.6-2.5c0.2-0.4,0.3-0.9,0.1-1.3c-0.2-0.5-0.6-0.8-1.1-0.9l-6.1-1.5c-0.3-0.1-0.5-0.4-0.6-0.5
		c-2.2-3.9-5.9-3.9-8.1-3.8l-0.3,0c-1.8,0-3.6,0.4-5.5,1.2c-1.8,0.8-3.7,2-5.6,3.6c-2.4,2.1-4.3,4.7-5.4,6.5l-0.2,0.3
		c-0.2,0.4-0.5,0.8-0.7,1.3c-3.1,6-4.1,15.1,2.3,22.4c1.7,2,3.9,3.6,6,4.6c0,0,0,0,0,0c3,1.6,7.4,2.3,10.5,2.3c0.5,0,1,0,1.4,0
		c11.8-0.9,13.5-7.6,13.7-10.5C232.5,569.9,231.9,567.8,230.6,566.5z M210.4,581.1c-0.9-0.2-1.9-0.5-2.8-0.9c-0.6-0.3-1.2-0.6-1.8-1
		c-0.2-0.1-0.4-0.3-0.6-0.4c-1.2-0.8-2.3-1.8-3.3-2.9c-5.9-6.7-5-15.1-2.1-20.7c0.2-0.4,0.4-0.8,0.7-1.2l0.2-0.3
		c1.1-1.7,2.8-4.2,5.1-6.1c3.4-3,6.8-4.5,10-4.5l0.3,0c2.1,0,5,0,6.8,3.1c0.4,0.7,1,1.1,1.6,1.3l6,1.4l-1.5,2.4
		c-0.2,0.3-0.6,0.5-1,0.6c-0.5,0.1-7.6,0.9-9.6,1.2c0.1-0.4,0.2-0.8,0.3-1.3c0-0.3-0.2-0.5-0.4-0.5c-0.2,0-0.4,0.1-0.5,0.3
		c0,0,0,0.1,0,0.1c0,0.6-0.2,1.1-0.4,1.5c-0.2,0.3-0.4,0.6-0.6,0.9c-0.7,0.8-1.8,1.3-3.1,1.4c0,0-0.1,0-0.1,0c-0.3,0-0.6,0-0.9,0
		c-0.3,0-0.6-0.1-0.9-0.2c0,0-0.1,0-0.1,0c-0.8-0.3-1.5-0.9-2-1.7c-0.8-1.2-0.4-3.6,0.7-4.8c0,0,0.1-0.1,0.1-0.1
		c0.1-0.2,0-0.4-0.1-0.5c-0.2-0.2-0.5-0.2-0.7,0c-1.4,1.5-1.8,4.3-0.8,5.9c0.4,0.6,0.9,1.2,1.5,1.6c0.2,0.1,0.4,0.2,0.6,0.3
		c-0.5,0.5-0.9,1-1.3,1.6c-0.9,1.3-1.6,2.8-1.9,4c-0.5,2.4-0.1,4.2,1.1,5.6c0.1,0.1,0.1,0.1,0.2,0.2c-1.3-0.2-2-0.3-2-0.3
		c0,0,0,0,0,0c-0.3,0-0.5,0.2-0.5,0.5c0,0.3,0.2,0.5,0.5,0.5c0,0,1.6,0,4.1,0.8c0,0,0,0,0,0c0.1,0,0.3,0.1,0.4,0.1c0,0,0,0,0,0
		c0.2,0.1,0.4,0.1,0.5,0.2c1.9,0.6,3.1,1.7,3.9,3c1,1.6,1.2,3.5,0.8,4.8C215.3,581.8,210.9,581.2,210.4,581.1z"/>
</g>
<g>
	<path d="M261,542.3c-11.3,0-20.5,9.2-20.5,20.4s9.2,20.4,20.5,20.4c11.3,0,20.5-9.2,20.5-20.4S272.3,542.3,261,542.3z M279.7,562.7
		c0,10.3-8.4,18.8-18.7,18.8c-10.3,0-18.7-8.4-18.7-18.8s8.4-18.8,18.7-18.8C271.3,543.9,279.7,552.3,279.7,562.7z"/>
	<path d="M307.7,542.3c-11.3,0-20.5,9.2-20.5,20.4s9.2,20.4,20.5,20.4s20.5-9.2,20.5-20.4S319,542.3,307.7,542.3z M326.4,562.7
		c0,10.3-8.4,18.8-18.7,18.8S289,573,289,562.7s8.4-18.8,18.7-18.8S326.4,552.3,326.4,562.7z"/>
	<path d="M362.8,548.7c-3.6-3.7-8.5-5.8-13.7-5.8h-11.9v39.6h11.9c10.8,0,19.3-8.7,19.3-19.8C368.4,557.4,366.4,552.4,362.8,548.7z
		 M366.6,562.7c0,10.2-7.7,18.2-17.5,18.2H339v-36.3h10.1C358.8,544.5,366.6,552.7,366.6,562.7z"/>
</g>
<g>
	<g>
		<path d="M249.5,496.4c7.1,1.2,10.9,5.5,10.9,10.7c0,6-5.2,9.5-12.1,9.5h-15.3v-39.9h13.3c6.3,0,12,3,12,9.6
			C258.3,490.9,255.4,494.9,249.5,496.4z M234.4,478v17.8h9.6c8.9,0,12.9-4.5,12.9-9.6c0-5.7-5-8.3-10.5-8.3H234.4z M234.4,497.2
			v18.1h13.9c6.2,0,10.7-3,10.7-8.3c0-5.4-4.8-9.9-13.6-9.9H234.4z"/>
		<path d="M248.3,516.8h-15.5v-40.3h13.5c5.6,0,12.2,2.6,12.2,9.8c0,4.9-3,8.5-8.2,10.1c6.4,1.3,10.3,5.4,10.3,10.7
			C260.6,513,255.7,516.8,248.3,516.8z M233.1,516.4h15.2c7.3,0,12-3.7,12-9.3c0-5.4-4.1-9.4-10.8-10.5l-0.8-0.1l0.8-0.2
			c5.5-1.4,8.7-5,8.7-9.9c0-6.9-6.4-9.4-11.9-9.4h-13.2V516.4z M248.3,515.5h-14.1V497h11.2c8.2,0,13.7,4,13.7,10
			C259.1,512.2,254.8,515.5,248.3,515.5z M234.5,515.1h13.7c6.4,0,10.5-3.2,10.5-8.1c0-5.8-5.4-9.7-13.4-9.7h-10.8V515.1z
			 M243.9,496h-9.8v-18.2h12.1c4.9,0,10.7,2.2,10.7,8.4C257,491,253.6,496,243.9,496z M234.5,495.7h9.4c9.4,0,12.7-4.9,12.7-9.4
			c0-3.9-2.7-8.1-10.4-8.1h-11.7V495.7z"/>
	</g>
	<g>
		<path d="M263.9,516.6l16.5-39.9h2.1l16.5,39.9h-1.7l-3.8-9.3h-24.2l-3.8,9.3H263.9z M269.9,506H293l-11.5-28L269.9,506z"/>
		<path d="M299.3,516.8h-2l-3.8-9.3h-24l-3.8,9.3h-2l16.7-40.3h2.3l0,0.1L299.3,516.8z M297.5,516.4h1.3l-16.4-39.6h-1.8l-16.4,39.6
			h1.2l3.8-9.3h24.5L297.5,516.4z M293.3,506.2h-23.7l11.9-28.6l0.2,0.4L293.3,506.2z M270.1,505.8h22.6l-11.3-27.4L270.1,505.8z"/>
	</g>
</g>
<rect x="271.3" y="524.2" class="st2" width="26.2" height="17.3"/>
<text transform="matrix(1 0 0 1 276.1674 535.8965)" class="st3 st4">to</text>
<rect x="198.7" y="590.2" class="st2" width="172.3" height="17.3"/>
<text transform="matrix(1 0 0 1 204.9364 601.8732)" class="st3 st4">dog training services</text>
<g>
	<path class="st1" d="M318.1,727.3"/>
</g>
<g>
	<path d="M320.3,696.6c-3.6-3.7-8.5-5.6-14-5.6c-5.5,0.1-13,0.9-13.5,7.5c0,0.3,0,0.6,0,0.9c0,0,0,0,0-0.1v15h0
		c0,0.8,1.2,1.3,2.7,1.3c1.5,0,2.7-0.5,2.7-1.3c0-0.9-1.2-1.5-2.7-1.5c-0.1,0-0.2,0-0.3,0c0.2-2.2,1-6,4.3-8v5.9
		c0,0.8,1.2,1.3,2.7,1.3c1.5,0,2.7-0.5,2.7-1.3s-1.2-1.5-2.7-1.5c-0.1,0-0.2,0-0.3,0c0.1-1.5,0.5-3.8,1.8-5.7c0.2,0,0.4-0.1,0.7-0.1
		c3.4-0.3,7.1,1.4,8.6,3.9c1.5,2.6,1.5,6.3-0.1,8.3c0,0-0.1,0-0.1,0c-0.7,0-2,0.2-3.3,1.8l0,0c-0.1,0.1-0.4,0.1-0.7,0.2
		c-0.4,0.1-1,0.2-1.8,0.5c-1.4,0.5-4.4,1.5-5.4,4.3c-0.1,0.4-0.3,0.6-0.5,0.7l-3.4,1.5l0,0c-0.1,0-0.4,0.2-0.4,0.2l-2.2,1
		c-0.5,0.2-0.8,0.6-0.9,1.1c-0.1,0.5,0.1,1,0.4,1.3l2.3,2.4l0,0c0.6,0.6,1.4,0.9,2.3,0.9c0.1,0,0.1,0,0.2,0c0.1,0,0.2,0,0.3,0
		l8.4-0.1c0.6,0,1.1,0,1.7,0c0.3,0,0.6-0.1,1-0.1c0.8,0.5,1.8,0.8,2.8,0.8c0,0,0.1,0,0.1,0c1.3,0,2.6-0.7,3.6-1.8
		c0.4-0.5,0.8-1,1.1-1.6c0.5-0.4,1.1-0.9,2-1.8c0.8-0.8,1.5-1.6,2.1-2.5c0.3,1.5,0.1,3.1-0.1,4.2c-0.3,0-0.7,0-1.1,0.1
		c-1.6,0.4-2.7,1.5-2.1,2.4c0.5,0.8,2.2,0.8,3.5,0.2c0.8-0.4,1.3-1,1.4-1.6h0c0.7-4.1,1.7-9.6,2.1-14.2c0,0,0,0,0,0
		c0.2-0.9,0.2-1.8,0.3-2.7C326.5,706.6,324.3,700.7,320.3,696.6z M321.7,722.8c-0.7,1.1-1.6,2.2-2.5,3.1c-0.2,0.2-0.3,0.3-0.5,0.5
		c-0.2-1.7-1.1-3.2-2.5-4.1c-0.2-0.1-0.5-0.1-0.6,0.2c-0.1,0.2-0.1,0.5,0.2,0.6c0.4,0.2,0.7,0.5,1,0.8c0.3,0.4,0.6,0.8,0.8,1.3
		c0,0,0,0,0,0c0.2,0.4,0.3,0.8,0.3,1.3v0c0,0,0,0,0,0c0,0,0,0,0,0c0,0.2,0,0.4,0,0.6c-0.1,0.4-0.2,0.9-0.4,1.3
		c-0.2,0.4-0.5,0.9-0.9,1.3c-0.2,0.2-0.3,0.3-0.5,0.5c-0.8,0.7-1.7,1-2.5,1c-0.4,0-0.8-0.1-1.2-0.2c-0.4-0.1-0.8-0.3-1.2-0.5
		c-0.3-0.2-0.6-0.4-0.8-0.7c-0.7-0.7-1.1-1.6-1.2-2.6v0c0-0.3-0.2-0.4-0.5-0.4c-0.3,0-0.5,0.2-0.4,0.5c0.1,1,0.4,1.9,1,2.7
		c-0.4,0-0.7,0-1.1,0h0l-8.5,0.1l-0.1,0c-0.1,0-0.2,0-0.3,0c-0.5,0-0.9-0.2-1.3-0.5l-2.2-2.3l2.1-0.9c0,0,0.1,0,0.2-0.1
		c0.1,0,0.2-0.1,0.2-0.1l3.4-1.5c0.6-0.3,1.1-0.8,1.3-1.6c0.7-2.1,3.1-2.9,4.4-3.4c0.7-0.2,1.2-0.3,1.6-0.4c0.2,0,0.3-0.1,0.4-0.1
		c1.1,0,1.9,0.3,2.7,0.9c0.2,0.1,0.5,0.1,0.7-0.1c0.1-0.2,0.1-0.5-0.1-0.6c-0.7-0.4-1.3-0.8-2-0.9c0.8-1,1.6-1,2.2-1.1
		c0.4,0,0.8-0.1,1.1-0.4c2.1-2.5,2.2-7,0.3-10.3c-1.6-2.8-5.4-4.7-9.1-4.7c-0.3,0-0.7,0-1,0c-0.8,0.1-1.7,0.2-2.5,0.4
		c-0.8,0.2-1.5,0.3-2.2,0.4c-0.8,0.1-1.6,0.1-2.3-0.1c-2.6-0.6-2.8-2.7-2.7-3.9c0.3-4.1,4-6,11.9-6.1c5.1,0,9.5,1.7,12.9,5.1
		c3.7,3.8,5.8,9.3,5.6,15.1c0,1.5-0.3,3.1-0.7,4.6C323.5,719.3,322.7,721.2,321.7,722.8z"/>
</g>
<g>
	<path d="M287.2,715.5c-1.5-1.5-3.7-1.6-5.9-1.5c-0.4,0-0.8,0.4-0.7,0.8c0,0.2,0.1,0.3,0.1,0.4c0.1,0.2,0.4,0.3,0.7,0.3
		c2.5-0.1,3.9,0.2,4.8,1c0.9,0.9,1.3,2.7,1.2,5.6c-0.3,5.1-4.8,8.4-12.3,9c-1.1,0.1-2.6,0-4.1-0.1c1.7-0.8,3.1-2.3,3.8-4.8
		c0.5-1.7,0.3-4.1-1.1-6.1c-0.9-1.5-2.4-2.8-4.7-3.6c-3-1-4-2.7-3.4-5.9c0.1-0.6,0.4-1.3,0.7-2c0.3,2.2,1.2,4.6,1.2,5.4
		c0,0.1,0,0.2,0,0.3c0,0.8,1.2,1.3,2.6,1.3c1.5,0,2.6-0.5,2.6-1.3c0-0.8-1.2-1.5-2.6-1.5c-0.2,0-0.3,0-0.5,0
		c-0.2-1.9-0.8-5.1,0.1-7.5h0c0.1,0,0.2,0,0.3,0c1.6-0.1,2.9-0.7,3.8-1.6c0.2,0,0.5-0.1,0.7-0.1c0.1,0,10.1-1.2,10.3-1.3
		c0.8-0.2,1.5-0.6,2-1.3l1.6-2.5c0.2-0.4,0.3-0.9,0.1-1.3c-0.2-0.5-0.6-0.8-1.1-0.9l-6.1-1.5c-0.3-0.1-0.5-0.4-0.6-0.5
		c-2.2-3.9-5.9-3.9-8.1-3.8l-0.3,0c-1.8,0-3.6,0.4-5.5,1.2c-1.8,0.8-3.7,2-5.6,3.6c-2.4,2.1-4.3,4.7-5.4,6.5l-0.2,0.3
		c-0.2,0.4-0.5,0.8-0.7,1.3c-3.1,6-4.1,15.1,2.3,22.4c1.7,2,3.9,3.6,6,4.6c0,0,0,0,0,0c3,1.6,7.4,2.3,10.5,2.3c0.5,0,1,0,1.4,0
		c11.8-0.9,13.5-7.6,13.7-10.5C289,718.9,288.5,716.8,287.2,715.5z M267,730.1c-0.9-0.2-1.9-0.5-2.8-0.9c-0.6-0.3-1.2-0.6-1.8-1
		c-0.2-0.1-0.4-0.3-0.6-0.4c-1.2-0.8-2.3-1.8-3.3-2.9c-5.9-6.7-5-15.1-2.1-20.7c0.2-0.4,0.4-0.8,0.7-1.2l0.2-0.3
		c1.1-1.7,2.8-4.2,5.1-6.1c3.4-3,6.8-4.5,10-4.5l0.3,0c2.1,0,5,0,6.8,3.1c0.4,0.7,1,1.1,1.6,1.3l6,1.4l-1.5,2.4
		c-0.2,0.3-0.6,0.5-1,0.6c-0.5,0.1-7.6,0.9-9.6,1.2c0.1-0.4,0.2-0.8,0.3-1.3c0-0.3-0.2-0.5-0.4-0.5c-0.2,0-0.4,0.1-0.5,0.3
		c0,0,0,0.1,0,0.1c0,0.6-0.2,1.1-0.4,1.5c-0.2,0.3-0.4,0.6-0.6,0.9c-0.7,0.8-1.8,1.3-3.1,1.4c0,0-0.1,0-0.1,0c-0.3,0-0.6,0-0.9,0
		c-0.3,0-0.6-0.1-0.9-0.2c0,0-0.1,0-0.1,0c-0.8-0.3-1.5-0.9-2-1.7c-0.8-1.2-0.4-3.6,0.7-4.8c0,0,0.1-0.1,0.1-0.1
		c0.1-0.2,0-0.4-0.1-0.5c-0.2-0.2-0.5-0.2-0.7,0c-1.4,1.5-1.8,4.3-0.8,5.9c0.4,0.6,0.9,1.2,1.5,1.6c0.2,0.1,0.4,0.2,0.6,0.3
		c-0.5,0.5-0.9,1-1.3,1.6c-0.9,1.3-1.6,2.8-1.9,4c-0.5,2.4-0.1,4.2,1.1,5.6c0.1,0.1,0.1,0.1,0.2,0.2c-1.3-0.2-2-0.3-2-0.3
		c0,0,0,0,0,0c-0.3,0-0.5,0.2-0.5,0.5c0,0.3,0.2,0.5,0.5,0.5c0,0,1.6,0,4.1,0.8c0,0,0,0,0,0c0.1,0,0.3,0.1,0.4,0.1c0,0,0,0,0,0
		c0.2,0.1,0.4,0.1,0.5,0.2c1.9,0.6,3.1,1.7,3.9,3c1,1.6,1.2,3.5,0.8,4.8C271.9,730.8,267.5,730.2,267,730.1z"/>
</g>
<rect x="-29.1" y="793.9" width="668.5" height="556.6"/>
<g>
	<g>
		<path class="st1" d="M757.4,460.2"/>
	</g>
	<g>
		<path class="st0" d="M759.5,429.5c-3.6-3.7-8.5-5.6-14-5.6c-5.5,0.1-13,0.9-13.5,7.5c0,0.3,0,0.6,0,0.9c0,0,0,0,0-0.1v15h0
			c0,0.8,1.2,1.3,2.7,1.3c1.5,0,2.7-0.5,2.7-1.3c0-0.9-1.2-1.5-2.7-1.5c-0.1,0-0.2,0-0.3,0c0.2-2.2,1-6,4.3-8v5.9
			c0,0.8,1.2,1.3,2.7,1.3c1.5,0,2.7-0.5,2.7-1.3c0-0.8-1.2-1.5-2.7-1.5c-0.1,0-0.2,0-0.3,0c0.1-1.5,0.5-3.8,1.8-5.7
			c0.2,0,0.4-0.1,0.7-0.1c3.4-0.3,7.1,1.4,8.6,3.9c1.5,2.6,1.5,6.3-0.1,8.3c0,0-0.1,0-0.1,0c-0.7,0-2,0.2-3.3,1.8l0,0
			c-0.1,0.1-0.4,0.1-0.7,0.2c-0.4,0.1-1,0.2-1.8,0.5c-1.4,0.5-4.4,1.5-5.4,4.3c-0.1,0.4-0.3,0.6-0.5,0.7l-3.4,1.5l0,0
			c-0.1,0-0.4,0.2-0.4,0.2l-2.2,1c-0.5,0.2-0.8,0.6-0.9,1.1c-0.1,0.5,0.1,1,0.4,1.3l2.3,2.4l0,0c0.6,0.6,1.4,0.9,2.3,0.9
			c0.1,0,0.1,0,0.2,0c0.1,0,0.2,0,0.3,0l8.4-0.1c0.6,0,1.1,0,1.7,0c0.3,0,0.6-0.1,1-0.1c0.8,0.5,1.8,0.8,2.8,0.8c0,0,0.1,0,0.1,0
			c1.3,0,2.6-0.7,3.6-1.8c0.4-0.5,0.8-1,1.1-1.6c0.5-0.4,1.1-0.9,2-1.8c0.8-0.8,1.5-1.6,2.1-2.5c0.3,1.5,0.1,3.1-0.1,4.2
			c-0.3,0-0.7,0-1.1,0.1c-1.6,0.4-2.7,1.5-2.1,2.4c0.5,0.8,2.2,0.8,3.5,0.2c0.8-0.4,1.3-1,1.4-1.6h0c0.7-4.1,1.7-9.6,2.1-14.2
			c0,0,0,0,0,0c0.2-0.9,0.2-1.8,0.3-2.7C765.7,439.5,763.5,433.6,759.5,429.5z M760.9,455.7c-0.7,1.1-1.6,2.2-2.5,3.1
			c-0.2,0.2-0.3,0.3-0.5,0.5c-0.2-1.7-1.1-3.2-2.5-4.1c-0.2-0.1-0.5-0.1-0.6,0.2c-0.1,0.2-0.1,0.5,0.2,0.6c0.4,0.2,0.7,0.5,1,0.8
			c0.3,0.4,0.6,0.8,0.8,1.3c0,0,0,0,0,0c0.2,0.4,0.3,0.8,0.3,1.3v0c0,0,0,0,0,0c0,0,0,0,0,0c0,0.2,0,0.4,0,0.6
			c-0.1,0.4-0.2,0.9-0.4,1.3c-0.2,0.4-0.5,0.9-0.9,1.3c-0.2,0.2-0.3,0.3-0.5,0.5c-0.8,0.7-1.7,1-2.5,1c-0.4,0-0.8-0.1-1.2-0.2
			c-0.4-0.1-0.8-0.3-1.2-0.5c-0.3-0.2-0.6-0.4-0.8-0.7c-0.7-0.7-1.1-1.6-1.2-2.6v0c0-0.3-0.2-0.4-0.5-0.4c-0.3,0-0.5,0.2-0.4,0.5
			c0.1,1,0.4,1.9,1,2.7c-0.4,0-0.7,0-1.1,0h0l-8.5,0.1l-0.1,0c-0.1,0-0.2,0-0.3,0c-0.5,0-0.9-0.2-1.3-0.5l-2.2-2.3l2.1-0.9
			c0,0,0.1,0,0.2-0.1c0.1,0,0.2-0.1,0.2-0.1l3.4-1.5c0.6-0.3,1.1-0.8,1.3-1.6c0.7-2.1,3.1-2.9,4.4-3.4c0.7-0.2,1.2-0.3,1.6-0.4
			c0.2,0,0.3-0.1,0.4-0.1c1.1,0,1.9,0.3,2.7,0.9c0.2,0.1,0.5,0.1,0.7-0.1c0.1-0.2,0.1-0.5-0.1-0.6c-0.7-0.4-1.3-0.8-2-0.9
			c0.8-1,1.6-1,2.2-1.1c0.4,0,0.8-0.1,1.1-0.4c2.1-2.5,2.2-7,0.3-10.3c-1.6-2.8-5.4-4.7-9.1-4.7c-0.3,0-0.7,0-1,0
			c-0.8,0.1-1.7,0.2-2.5,0.4c-0.8,0.2-1.5,0.3-2.2,0.4c-0.8,0.1-1.6,0.1-2.3-0.1c-2.6-0.6-2.8-2.7-2.7-3.9c0.3-4.1,4-6,11.9-6.1
			c5.1,0,9.5,1.7,12.9,5.1c3.7,3.8,5.8,9.3,5.6,15.1c0,1.5-0.3,3.1-0.7,4.6C762.8,452.2,762,454.1,760.9,455.7z"/>
	</g>
</g>
<g>
	<path class="st0" d="M723,448.5c-1.5-1.5-3.7-1.6-5.9-1.5c-0.4,0-0.8,0.4-0.7,0.8c0,0.2,0.1,0.3,0.1,0.4c0.1,0.2,0.4,0.3,0.7,0.3
		c2.5-0.1,3.9,0.2,4.8,1c0.9,0.9,1.3,2.7,1.2,5.6c-0.3,5.1-4.8,8.4-12.3,9c-1.1,0.1-2.6,0-4.1-0.1c1.7-0.8,3.1-2.3,3.8-4.8
		c0.5-1.7,0.3-4.1-1.1-6.1c-0.9-1.5-2.4-2.8-4.7-3.6c-3-1-4-2.7-3.4-5.9c0.1-0.6,0.4-1.3,0.7-2c0.3,2.2,1.2,4.6,1.2,5.4
		c0,0.1,0,0.2,0,0.3c0,0.8,1.2,1.3,2.6,1.3c1.5,0,2.6-0.5,2.6-1.3c0-0.8-1.2-1.5-2.6-1.5c-0.2,0-0.3,0-0.5,0
		c-0.2-1.9-0.8-5.1,0.1-7.5h0c0.1,0,0.2,0,0.3,0c1.6-0.1,2.9-0.7,3.8-1.6c0.2,0,0.5-0.1,0.7-0.1c0.1,0,10.1-1.2,10.3-1.3
		c0.8-0.2,1.5-0.6,2-1.3l1.6-2.5c0.2-0.4,0.3-0.9,0.1-1.3c-0.2-0.5-0.6-0.8-1.1-0.9l-6.1-1.5c-0.3-0.1-0.5-0.4-0.6-0.5
		c-2.2-3.9-5.9-3.9-8.1-3.8l-0.3,0c-1.8,0-3.6,0.4-5.5,1.2c-1.8,0.8-3.7,2-5.6,3.6c-2.4,2.1-4.3,4.7-5.4,6.5l-0.2,0.3
		c-0.2,0.4-0.5,0.8-0.7,1.3c-3.1,6-4.1,15.1,2.3,22.4c1.7,2,3.9,3.6,6,4.6c0,0,0,0,0,0c3,1.6,7.4,2.3,10.5,2.3c0.5,0,1,0,1.4,0
		c11.8-0.9,13.5-7.6,13.7-10.5C724.8,451.9,724.2,449.8,723,448.5z M702.7,463.1c-0.9-0.2-1.9-0.5-2.8-0.9c-0.6-0.3-1.2-0.6-1.8-1
		c-0.2-0.1-0.4-0.3-0.6-0.4c-1.2-0.8-2.3-1.8-3.3-2.9c-5.9-6.7-5-15.1-2.1-20.7c0.2-0.4,0.4-0.8,0.7-1.2l0.2-0.3
		c1.1-1.7,2.8-4.2,5.1-6.1c3.4-3,6.8-4.5,10-4.5l0.3,0c2.1,0,5,0,6.8,3.1c0.4,0.7,1,1.1,1.6,1.3l6,1.4l-1.5,2.4
		c-0.2,0.3-0.6,0.5-1,0.6c-0.5,0.1-7.6,0.9-9.6,1.2c0.1-0.4,0.2-0.8,0.3-1.3c0-0.3-0.2-0.5-0.4-0.5c-0.2,0-0.4,0.1-0.5,0.3
		c0,0,0,0.1,0,0.1c0,0.6-0.2,1.1-0.4,1.5c-0.2,0.3-0.4,0.6-0.6,0.9c-0.7,0.8-1.8,1.3-3.1,1.4c0,0-0.1,0-0.1,0c-0.3,0-0.6,0-0.9,0
		c-0.3,0-0.6-0.1-0.9-0.2c0,0-0.1,0-0.1,0c-0.8-0.3-1.5-0.9-2-1.7c-0.8-1.2-0.4-3.6,0.7-4.8c0,0,0.1-0.1,0.1-0.1
		c0.1-0.2,0-0.4-0.1-0.5c-0.2-0.2-0.5-0.2-0.7,0c-1.4,1.5-1.8,4.3-0.8,5.9c0.4,0.6,0.9,1.2,1.5,1.6c0.2,0.1,0.4,0.2,0.6,0.3
		c-0.5,0.5-0.9,1-1.3,1.6c-0.9,1.3-1.6,2.8-1.9,4c-0.5,2.4-0.1,4.2,1.1,5.6c0.1,0.1,0.1,0.1,0.2,0.2c-1.3-0.2-2-0.3-2-0.3
		c0,0,0,0,0,0c-0.3,0-0.5,0.2-0.5,0.5c0,0.3,0.2,0.5,0.5,0.5c0,0,1.6,0,4.1,0.8c0,0,0,0,0,0c0.1,0,0.3,0.1,0.4,0.1c0,0,0,0,0,0
		c0.2,0.1,0.4,0.1,0.5,0.2c1.9,0.6,3.1,1.7,3.9,3c1,1.6,1.2,3.5,0.8,4.8C707.7,463.8,703.2,463.2,702.7,463.1z"/>
</g>
<g>
	<g>
		<g>
			<path d="M-145.9,457.1c-0.5,1.7-1.2,3.3-2.1,4.8c1.2,1.1,1.1,3.4,0.7,5.1c-0.1,0.7-0.6,1.8-2.7,2.5c-0.2,0.1-0.3,0.2-0.4,0.2
				c0,0.1,0,0.1-0.1,0.2c0.5,0.2,1.3,0.2,2.2,0.2c1.5,0,2.7-0.1,2.8-0.9h0c1.1-4.6,1.5-10.4,1.8-16.4
				C-144.1,454.6-145,456.1-145.9,457.1z"/>
		</g>
		<g>
			<path d="M-177.1,451.8C-177.1,451.8-177.1,451.8-177.1,451.8c0.3,0,0.6-0.3,0.5-0.6c-0.4-3.8-0.7-11.3-0.7-11.3s2.2,4.8,9.1,2.5
				c-4.6,1.6-7,5-6.1,11.1l0,0c0,0.9-1.3,0.9-2.8,0.9c-1.5,0-2.8-0.1-2.8-1S-178.6,451.8-177.1,451.8z"/>
		</g>
		<g>
			<path class="st0" d="M-162.9,430.1c-4.8,0-11.7,2.2-13.4,7.3c-0.5,1.5-0.5,3.3,0.5,4.7c1.3,1.7,4,1.2,5.8,0.6
				c1.5-0.5,2.6-1,4.2-1.3c4-0.6,7.2,1.3,8.8,4.1c1.3,2.3,2.1,7.2,0.2,9.5c-0.3,0.3-1.8-0.6-3.4,1.7c-0.4,0.5-1,0.4-2.8,1
				c-2,0.6-4.1,1.4-4.7,3.8c-0.1,0.5-0.5,0.9-1,1.1l-1.3,0.5l-1.8,0.6l-0.6,0.2c0,0-0.4,0.2-0.4,0.2l-2.3,0.8
				c-0.5,0.2-0.7,0.8-0.3,1.2l1.9,2.3l0,0l0.2,0.3c0.5,0.5,1.1,0.8,1.8,0.9c0.1,0,0.2,0,0.4,0h0l8.6,0.5c0.5,0.1,1.1,0.1,1.6,0.1
				c1.4,0,2.8-0.2,4.2-0.6c0.8-0.2,1.6-0.6,2.4-0.9v0c6.2-3,9.2-9.1,9.6-15.6C-143.9,441.9-150.8,430.1-162.9,430.1z"/>
		</g>
		<g>
			<path d="M-160.7,470.8c-0.6,0-1.2,0-1.7-0.1l-8.5-0.5c-0.2,0-0.3,0-0.5,0c-0.8-0.1-1.6-0.5-2.2-1.1l0,0l-2.2-2.6
				c-0.3-0.4-0.4-0.9-0.3-1.4c0.1-0.5,0.5-0.9,1-1l2.3-0.8c0,0,0.3-0.1,0.4-0.1l0.1,0l3.6-1.3c0.2-0.1,0.4-0.3,0.5-0.6
				c0.8-2.7,3.1-3.7,5.3-4.3c0.6-0.2,0.9-0.2,1.3-0.3c1.3-0.2,1.8-0.2,1.8-0.3c0.8-1.3,2.1-1.9,2.9-2c0,0,0,0,0,0
				c1.3-2,0.6-6.3-0.6-8.5c-1.2-2.2-3.9-4.4-8-3.7c-1.1,0.2-2,0.5-3.1,0.9c-0.3,0.1-0.7,0.2-1,0.4c-1.8,0.6-5.1,1.3-6.7-0.8
				c-1.1-1.4-1.3-3.4-0.6-5.4c1.7-5.1,8.6-7.8,14.1-7.8c5,0,9.4,1.9,12.9,5.6c4.3,4.5,6.6,11.2,6.2,18c-0.4,7.3-3.9,13.1-9.6,16.1v0
				l-0.4,0.2c-0.8,0.4-1.6,0.7-2.5,1C-157.7,470.5-159.2,470.8-160.7,470.8z M-172.5,467.9c0.3,0.4,0.8,0.6,1.3,0.6
				c0.1,0,0.2,0,0.3,0l0.1,0l8.6,0.5c0.5,0.1,1,0.1,1.6,0.1c1.4,0,2.7-0.2,4-0.6c0.7-0.2,1.3-0.4,1.9-0.7l0.3-0.2
				c5.4-2.6,8.7-8.1,9.1-15c0.4-6.3-1.8-12.6-5.8-16.8c-3.2-3.3-7.2-5.1-11.7-5.1c-7.5,0-11.7,4.1-12.6,6.7c-0.2,0.7-0.7,2.5,0.4,4
				c1.1,1.4,3.8,0.7,4.9,0.3c0.3-0.1,0.7-0.2,1-0.4c1.1-0.4,2.1-0.8,3.4-1c4-0.6,7.8,1.1,9.6,4.5c1.2,2.3,2.6,7.7,0.3,10.4
				c-0.4,0.4-1,0.3-1.4,0.4c-0.7,0.3-1,0.8-1.5,1.6c-0.4,0.6-1.1,0.3-2.3,0.5c-0.4,0.1-1,0.2-1.6,0.3c-1.9,0.6-3.6,1.3-4.2,3.2
				c-0.2,0.8-0.8,1.4-1.5,1.6l-3.6,1.3l0,0c-0.1,0-0.2,0.1-0.4,0.2l-1.6,0.6c-0.3,0.1-0.4,0.5-0.2,0.7L-172.5,467.9z"/>
		</g>
		<g>
			<g>
				<path d="M-167.2,461.3L-167.2,461.3c-0.3-0.1-0.4-0.4-0.3-0.7c0.6-1.2,2-2.2,3.2-2.7c3.5-1.4,6.3-1.2,8,0.5
					c0.2,0.2,0.2,0.5,0,0.7l0,0c-0.2,0.1-0.5,0.1-0.6,0c-1.4-1.4-3.9-1.5-7-0.3c-1,0.4-2.3,1.3-2.7,2.3
					C-166.8,461.2-167,461.3-167.2,461.3z"/>
			</g>
		</g>
		<g>
			<g>
				<path class="st0" d="M-153.7,462.3c1.2,0.9,2,2.4,2,4.1c0,2.7-2.8,4.9-5.3,4.9c-2.5,0-4.6-2.2-4.6-4.9"/>
			</g>
			<g>
				<path d="M-157,471.8c-2.6,0-4.8-2.1-5-4.9c0-0.3,0.2-0.5,0.5-0.5h0c0.2,0,0.4,0.2,0.5,0.4c0.2,2.2,2,4,4.1,4c0,0,0,0,0,0
					c1.1,0,2.3-0.5,3.3-1.3c1-0.9,1.5-2,1.5-3.1c0-1.3-0.6-2.6-1.5-3.4c-0.2-0.2-0.2-0.4-0.1-0.6l0,0c0.2-0.2,0.5-0.3,0.7-0.1
					c1.1,1,1.8,2.5,1.8,4.1c0,1.4-0.7,2.8-1.9,3.8C-154.2,471.2-155.6,471.8-157,471.8C-157,471.8-157,471.8-157,471.8z"/>
			</g>
		</g>
	</g>
	<g>
		<path d="M-148.5,471c0.8-0.1,1.6-0.5,2.2-0.8c0.6-0.4,1.1-1,0.7-1.5c-0.7-1-4.1-0.7-5.2,1.1C-151.4,470.9-149.9,471.2-148.5,471z"
			/>
	</g>
</g>
<g>
	<path class="st1" d="M-235.8,571.3"/>
</g>
<g>
	<path d="M-258.8,558.5c-0.1-0.3-0.2-4.1,1-6.4c1-1.9,3-3.3,5-3.9c4-1.2,9.5-0.7,11.8,3.3c1.5,2.6,1.5,6.3-0.1,8.3c0,0-0.1,0-0.1,0
		c-0.7,0-2,0.2-3.3,1.8l0,0c-0.1,0.1-0.4,0.1-0.7,0.2c-0.4,0.1-1,0.2-1.8,0.5c-1.4,0.5-4.4,1.5-5.4,4.3c-0.1,0.4-0.3,0.6-0.5,0.7
		c0,0-3.4,1.5-3.5,1.5c-0.1,0-0.4,0.2-0.4,0.2l-2.2,1c-0.5,0.2-0.8,0.6-0.9,1.1c-0.1,0.5,0.1,1,0.4,1.3l2.3,2.4l0,0
		c0.6,0.6,1.4,0.9,2.3,0.9c0.1,0,0.1,0,0.2,0c0.1,0,0.2,0,0.3,0l8.4-0.1c0.6,0,1.1,0,1.7,0c0.3,0,0.6-0.1,1-0.1
		c0.8,0.5,1.8,0.8,2.8,0.8c0,0,0.1,0,0.1,0c1.3,0,2.6-0.7,3.6-1.8c0.4-0.5,0.8-1,1.1-1.6c0.5-0.4,1.1-0.9,2-1.8
		c0.8-0.8,1.5-1.6,2.1-2.5c0.3,1.5,0.1,3.1-0.1,4.2c-0.3,0-0.7,0-1.1,0.1c-1.6,0.4-2.7,1.5-2.1,2.4c0.5,0.8,2.2,0.8,3.5,0.2
		c0.8-0.4,1.3-1,1.4-1.6c0.7-4.1,1.7-9.6,2.1-14.2c0.2-0.9,0.2-1.8,0.3-2.7c0.1-6.3-2.1-12.2-6.1-16.3c-3.6-3.7-8.5-5.6-14-5.6
		c-5.5,0.1-13,0.9-13.5,7.5c0,0.3,0,0.6,0,0.9c0,0,0,0,0-0.1c-0.4,5-0.4,11,0,15 M-229.9,561.4c-0.5,1.9-1.3,3.7-2.4,5.4
		c-0.7,1.1-1.6,2.2-2.5,3.1c-0.2,0.2-0.3,0.3-0.5,0.5c-0.2-1.7-1.1-3.2-2.5-4.1c-0.2-0.1-0.5-0.1-0.6,0.2c-0.1,0.2-0.1,0.5,0.2,0.6
		c0.4,0.2,0.7,0.5,1,0.8c0.3,0.4,0.6,0.8,0.8,1.3c0,0,0,0,0,0c0.2,0.4,0.3,0.8,0.3,1.3v0c0,0,0,0,0,0c0,0,0,0,0,0c0,0.2,0,0.4,0,0.6
		c-0.1,0.4-0.2,0.9-0.4,1.3c-0.2,0.4-0.5,0.9-0.9,1.3c-0.2,0.2-0.3,0.3-0.5,0.5c-0.8,0.7-1.7,1-2.5,1c-0.4,0-0.8-0.1-1.2-0.2
		c-0.4-0.1-0.8-0.3-1.2-0.5c-0.3-0.2-0.6-0.4-0.8-0.7c-0.7-0.7-1.1-1.6-1.2-2.6v0c0-0.3-0.2-0.4-0.5-0.4c-0.3,0-0.5,0.2-0.4,0.5
		c0.1,1,0.4,1.9,1,2.7c-0.4,0-0.7,0-1.1,0h0l-8.5,0.1l-0.1,0c-0.1,0-0.2,0-0.3,0c-0.5,0-0.9-0.2-1.3-0.5l-2.2-2.3l2.1-0.9
		c0,0,0.1,0,0.2-0.1c0.1,0,0.2-0.1,0.2-0.1l3.4-1.5c0.6-0.3,1.1-0.8,1.3-1.6c0.7-2.1,3.1-2.9,4.4-3.4c0.7-0.2,1.2-0.3,1.6-0.4
		c0.2,0,0.3-0.1,0.4-0.1c1.1,0,1.9,0.3,2.7,0.9c0.2,0.1,0.5,0.1,0.7-0.1c0.1-0.2,0.1-0.5-0.1-0.6c-0.7-0.4-1.3-0.8-2-0.9
		c0.8-1,1.6-1,2.2-1.1c0.4,0,0.8-0.1,1.1-0.4c2.1-2.5,2.2-7,0.3-10.3c-1.6-2.8-5.4-4.7-9.1-4.7c-0.3,0-0.7,0-1,0
		c-0.8,0.1-1.7,0.2-2.5,0.4c-0.8,0.2-1.5,0.3-2.2,0.4c-0.8,0.1-1.6,0.1-2.3-0.1c-2.6-0.6-2.8-2.7-2.7-3.9c0.3-4.1,4-6,11.9-6.1
		c5.1,0,9.5,1.7,12.9,5.1c3.7,3.8,5.8,9.3,5.6,15.1C-229.2,558.4-229.5,559.9-229.9,561.4z"/>
</g>
<path d="M-261.2,557.4c-0.1,0-0.6,0.2-0.7,0.2c-1.4,0.4-2.4,1.4-2.1,2.2c0.2,0.8,1.5,0.9,2.9,0.5c1.4-0.4,2.4-1.2,2.2-2"/>
<g>
	<path d="M-288.7,560.5c-1.5-1.5-3.7-1.6-5.9-1.5c-0.4,0-0.8,0.4-0.7,0.8c0,0.2,0.1,0.3,0.1,0.4c0.1,0.2,0.4,0.3,0.7,0.3
		c2.5-0.1,3.9,0.2,4.8,1c0.9,0.9,1.4,4.2,1.3,7c-0.3,5.1-4.8,7-12.3,7.6c-1.1,0.1-2.6,0-4.1-0.1c1.7-0.8,3.1-2.3,3.8-4.8
		c0.5-1.7,0.3-4.1-1.1-6.1c-0.9-1.5-2.4-2.8-4.7-3.6c-3-1-4-2.7-3.4-5.9c0.1-0.6,0.4-1.3,0.7-2c-0.1,2.5,0.9,5.6,1.1,7.1
		c0,0.1,0,0.2,0,0.3c0,0.8,1.2,1.3,2.6,1.3c1.5,0,2.6-0.5,2.6-1.3c0-0.8-1.2-1.5-2.6-1.5c-0.2,0-0.3,0-0.5,0
		c-0.2-1.9-0.7-6.8,0.1-9.2h0c0.1,0,0.2,0,0.3,0c1.6-0.1,2.9-0.7,3.8-1.6c0.2,0,0.5-0.1,0.7-0.1c0.1,0,10.1-1.2,10.3-1.3
		c0.8-0.2,1.5-0.6,2-1.3l1.6-2.5c0.2-0.4,0.3-0.9,0.1-1.3c-0.2-0.5-0.6-0.8-1.1-0.9l-6.1-1.5c-0.3-0.1-0.5-0.4-0.6-0.5
		c-2.2-3.9-5.9-3.9-8.1-3.8l-0.3,0c-1.8,0-3.6,0.4-5.5,1.2c-1.8,0.8-3.7,2-5.6,3.6c-2.4,2.1-4.3,4.7-5.4,6.5l-0.2,0.3
		c-0.2,0.4-0.5,0.8-0.7,1.3c-3.1,6-4.1,15.1,2.3,22.4c1.7,2,3.9,3.6,6,4.6c0,0,0,0,0,0c3,1.6,7.4,2.3,10.5,2.3c0.5,0,1,0,1.4,0
		c11.8-0.9,13.6-6.2,13.8-9C-286.9,565.4-287.4,561.8-288.7,560.5z M-309,575.1c-0.9-0.2-1.9-0.5-2.8-0.9c-0.6-0.3-1.2-0.6-1.8-1
		c-0.2-0.1-0.4-0.3-0.6-0.4c-1.2-0.8-2.3-1.8-3.3-2.9c-5.9-6.7-5-15.1-2.1-20.7c0.2-0.4,0.4-0.8,0.7-1.2l0.2-0.3
		c1.1-1.7,2.8-4.2,5.1-6.1c3.4-3,6.8-4.5,10-4.5l0.3,0c2.1,0,5,0,6.8,3.1c0.4,0.7,1,1.1,1.6,1.3l6,1.4l-1.5,2.4
		c-0.2,0.3-0.6,0.5-1,0.6c-0.5,0.1-7.6,0.9-9.6,1.2c0.1-0.4,0.2-0.8,0.3-1.3c0-0.3-0.2-0.5-0.4-0.5c-0.2,0-0.4,0.1-0.5,0.3
		c0,0,0,0.1,0,0.1c0,0.6-0.2,1.1-0.4,1.5c-0.2,0.3-0.4,0.6-0.6,0.9c-0.7,0.8-1.8,1.3-3.1,1.4c0,0-0.1,0-0.1,0c-0.3,0-0.6,0-0.9,0
		c-0.3,0-0.6-0.1-0.9-0.2c0,0-0.1,0-0.1,0c-0.8-0.3-1.5-0.9-2-1.7c-0.8-1.2-0.4-3.6,0.7-4.8c0,0,0.1-0.1,0.1-0.1
		c0.1-0.2,0-0.4-0.1-0.5c-0.2-0.2-0.5-0.2-0.7,0c-1.4,1.5-1.8,4.3-0.8,5.9c0.4,0.6,0.9,1.2,1.5,1.6c0.2,0.1,0.4,0.2,0.6,0.3
		c-0.5,0.5-0.9,1-1.3,1.6c-0.9,1.3-1.6,2.8-1.9,4c-0.5,2.4-0.1,4.2,1.1,5.6c0.1,0.1,0.1,0.1,0.2,0.2c-1.3-0.2-2-0.3-2-0.3
		c0,0,0,0,0,0c-0.3,0-0.5,0.2-0.5,0.5c0,0.3,0.2,0.5,0.5,0.5c0,0,1.6,0,4.1,0.8c0,0,0,0,0,0c0.1,0,0.3,0.1,0.4,0.1c0,0,0,0,0,0
		c0.2,0.1,0.4,0.1,0.5,0.2c1.9,0.6,3.1,1.7,3.9,3c1,1.6,1.2,3.5,0.8,4.8C-304,575.8-308.5,575.2-309,575.1z"/>
</g>
<g>
	<path d="M-296.1,572.1c0,0-0.3-0.1-0.3-0.1c-1.3-0.8,0-5.1-1.4-6.6c-1.3-1.4-4.7-2.2-6.7-2.5c0,0,4.8,8.1,2.8,10.1
		c2.3-5.5,3.1-3.4,2.7-0.7l-0.2,1"/>
</g>
<path d="M-299.3,573.2c-0.1,0.9,1.1,1.1,2.6,1.3c1.5,0.2,2.8,0.3,2.9-0.6c0.1-0.9-1-1.8-2.6-2"/>
<rect y="-1" class="st5" width="576" height="246.9"/>
<g>
	<path class="st6" d="M212.3,133.7"/>
</g>
<g>
	<path class="st6" d="M215.4,89.4c-5.2-5.3-12.2-8.1-20.2-8c-8,0.1-18.7,1.3-19.4,10.9c0,0.4,0,0.9,0,1.3c0,0,0-0.1,0-0.1v21.7h0
		c0.1,1.2,1.8,1.8,3.9,1.8c2.1,0,3.9-0.7,3.9-1.9c0-1.2-1.7-2.2-3.9-2.2c-0.2,0-0.3,0-0.5,0c0.3-3.1,1.4-8.7,6.2-11.5v8.5
		c0,1.2,1.7,1.9,3.9,1.9c2.1,0,3.9-0.7,3.9-1.9c0-1.2-1.7-2.2-3.9-2.2c-0.2,0-0.3,0-0.5,0c0.2-2.1,0.8-5.4,2.7-8.2
		c0.3,0,0.6-0.1,1-0.1c5-0.4,10.3,2,12.4,5.6c2.2,3.8,2.2,9-0.1,12c-0.1,0-0.1,0-0.2,0c-1,0.1-2.9,0.2-4.8,2.5l0,0.1
		c-0.1,0.1-0.6,0.2-1,0.3c-0.6,0.1-1.5,0.3-2.6,0.7c-2.1,0.7-6.4,2.2-7.7,6.3c-0.2,0.5-0.4,0.8-0.7,1l-5,2.2l0,0
		c-0.1,0.1-0.5,0.2-0.5,0.2l-3.1,1.4c-0.7,0.3-1.1,0.9-1.3,1.6c-0.1,0.7,0.1,1.4,0.6,1.9l3.3,3.4l0,0c0.9,0.8,2.1,1.3,3.3,1.4
		c0.1,0,0.2,0,0.3,0c0.1,0,0.3,0,0.4,0l12.1-0.2c0.8,0,1.6,0,2.4,0c0.5,0,0.9-0.1,1.4-0.1c1.2,0.7,2.5,1.1,4,1.2c0.1,0,0.1,0,0.2,0
		c1.8,0,3.7-1,5.2-2.6c0.6-0.7,1.2-1.5,1.6-2.3c0.8-0.6,1.6-1.4,2.9-2.6c1.1-1.1,2.2-2.3,3.1-3.6c0.4,2.1,0.1,4.4-0.2,6
		c-0.5,0-1,0-1.5,0.2c-2.3,0.6-3.9,2.2-3.1,3.5c0.8,1.2,3.2,1.2,5.1,0.3c1.2-0.6,1.9-1.5,2-2.2h0c1.1-5.9,2.5-13.8,3-20.5
		c0,0,0,0,0,0c0.2-1.3,0.4-2.6,0.4-4C224.4,103.8,221.2,95.2,215.4,89.4z M217.5,127.1c-1,1.7-2.3,3.2-3.6,4.5
		c-0.3,0.2-0.5,0.5-0.7,0.7c-0.2-2.4-1.6-4.6-3.6-5.9c-0.3-0.2-0.7-0.1-0.9,0.2c-0.2,0.3-0.1,0.7,0.2,0.9c0.5,0.3,1,0.7,1.4,1.2
		c0.5,0.6,0.9,1.2,1.1,1.9c0,0,0,0,0,0c0.2,0.6,0.4,1.2,0.4,1.9v0c0,0,0,0,0,0c0,0,0,0,0,0c0,0.3,0,0.6,0,0.9
		c-0.1,0.6-0.3,1.2-0.6,1.9c-0.3,0.6-0.8,1.3-1.3,1.8c-0.2,0.3-0.5,0.5-0.7,0.7c-1.1,1-2.4,1.5-3.6,1.5c-0.6,0-1.2-0.1-1.7-0.3
		c-0.6-0.2-1.2-0.4-1.7-0.8c-0.4-0.3-0.8-0.6-1.2-1c-1-1-1.6-2.3-1.7-3.8v0c0-0.4-0.4-0.6-0.7-0.6c-0.4,0-0.7,0.4-0.6,0.7
		c0.1,1.4,0.6,2.8,1.4,3.9c-0.5,0-1,0-1.5,0h0l-12.2,0.2l-0.1,0c-0.1,0-0.3,0-0.4,0c-0.7,0-1.4-0.3-1.9-0.8l-3.2-3.3l3.1-1.4
		c0,0,0.1,0,0.2-0.1c0.1-0.1,0.3-0.1,0.4-0.2l5-2.2c0.9-0.4,1.5-1.2,1.9-2.3c1-3,4.5-4.2,6.3-4.8c1-0.3,1.7-0.5,2.3-0.6
		c0.2,0,0.4-0.1,0.6-0.1c1.6,0,2.8,0.5,3.9,1.3c0.3,0.2,0.7,0.1,0.9-0.2c0.2-0.3,0.1-0.7-0.2-0.9c-0.9-0.6-1.9-1.1-2.8-1.3
		c1.2-1.4,2.3-1.5,3.1-1.6c0.5,0,1.1-0.1,1.5-0.6c3-3.6,3.2-10.1,0.5-14.8c-2.4-4.1-7.7-6.8-13.1-6.8c-0.5,0-0.9,0-1.4,0.1
		c-1.2,0.1-2.4,0.4-3.6,0.6c-1.1,0.2-2.1,0.4-3.2,0.5c-1.1,0.1-2.3,0.1-3.4-0.2c-3.7-0.9-4.1-3.9-3.9-5.7c0.4-6,5.7-8.7,17.2-8.8
		c7.3-0.1,13.7,2.5,18.5,7.3c5.3,5.4,8.3,13.4,8.1,21.8c0,2.2-0.4,4.4-1,6.6C220.1,122.1,219,124.8,217.5,127.1z"/>
</g>
<path class="st6" d="M316.3,116.6c-2.1-2.1-5.4-2.2-8.5-2.1c-0.6,0-1.1,0.6-1.1,1.2c0,0.2,0.1,0.4,0.2,0.6c0.2,0.3,0.6,0.5,1,0.5
	c3.6-0.2,5.6,0.2,6.9,1.4c1.4,1.4,1.9,3.9,1.8,8c-0.5,7.4-6.9,12.2-17.7,13c-1.6,0.1-3.7,0.1-5.9-0.2c2.4-1.1,4.5-3.4,5.5-6.9
	c0.7-2.4,0.4-5.9-1.5-8.9c-1.4-2.2-3.5-4.1-6.7-5.1c-4.4-1.5-5.8-3.9-4.9-8.5c0.2-0.9,0.6-1.9,1.1-2.8c0.5,3.2,1.8,6.6,1.7,7.8
	c0,0.1-0.1,0.2-0.1,0.4c0,1.2,1.7,1.9,3.8,1.9c2.1,0,3.8-0.7,3.8-1.9c0-1.2-1.7-2.2-3.8-2.2c-0.3,0-0.5,0-0.7,0
	c-0.3-2.7-1.1-7.4,0.1-10.9h0c0.1,0,0.3,0,0.4,0c2.3-0.1,4.2-1,5.5-2.4c0.3-0.1,0.7-0.1,0.9-0.1c0.1,0,14.6-1.8,14.9-1.8
	c1.1-0.3,2.2-0.9,2.8-1.8l2.3-3.7c0.4-0.6,0.4-1.2,0.1-1.9c-0.3-0.7-0.9-1.2-1.6-1.3l-8.8-2.1c-0.5-0.1-0.8-0.5-0.9-0.7
	c-3.2-5.6-8.5-5.6-11.7-5.5l-0.5,0c-2.6,0-5.2,0.6-7.9,1.8c-2.7,1.2-5.3,2.9-8,5.2c-3.5,3-6.2,6.8-7.8,9.4l-0.3,0.4
	c-0.3,0.6-0.7,1.2-1,1.8c-4.5,8.7-6,21.8,3.3,32.3c2.5,2.8,5.6,5.2,8.7,6.7c0,0,0,0,0,0c4.3,2.4,10.6,3.3,15.1,3.3
	c0.7,0,1.4,0,2-0.1c17.1-1.3,19.5-11,19.8-15.1C319,121.5,318.2,118.4,316.3,116.6z M287.1,137.6c-1.3-0.2-2.7-0.7-4.1-1.3
	c-0.9-0.4-1.7-0.9-2.6-1.4c-0.3-0.2-0.6-0.4-0.9-0.6c-1.7-1.2-3.3-2.6-4.7-4.2c-8.6-9.7-7.2-21.8-3-29.8c0.3-0.6,0.6-1.1,1-1.7
	l0.2-0.4c1.5-2.5,4-6,7.3-8.9c5-4.3,9.8-6.4,14.5-6.4l0.5,0c3.1,0,7.3,0,9.8,4.4c0.5,1,1.4,1.6,2.3,1.8l8.7,2.1l-2.1,3.4
	c-0.3,0.5-0.8,0.8-1.4,0.9c-0.7,0.1-10.9,1.4-13.9,1.7c0.2-0.6,0.3-1.2,0.4-1.9c0-0.4-0.2-0.7-0.6-0.7c-0.3,0-0.6,0.1-0.7,0.4
	c0,0.1,0,0.1-0.1,0.2c-0.1,0.8-0.3,1.5-0.6,2.2c-0.2,0.5-0.5,0.9-0.9,1.3c-1,1.1-2.6,1.8-4.5,1.9c-0.1,0-0.1,0-0.2,0
	c-0.5,0-0.9,0-1.4-0.1c-0.4-0.1-0.8-0.2-1.2-0.3c0,0-0.1,0-0.1,0c-1.2-0.5-2.2-1.3-2.9-2.5c-1.1-1.8-0.6-5.2,1-7
	c0.1-0.1,0.1-0.1,0.1-0.2c0.1-0.3,0-0.6-0.2-0.7c-0.3-0.3-0.7-0.2-1,0c-2,2.2-2.6,6.3-1.1,8.6c0.6,0.9,1.3,1.7,2.1,2.3
	c0.3,0.2,0.5,0.3,0.8,0.5c-0.7,0.7-1.3,1.5-1.9,2.3c-1.3,1.9-2.4,4-2.7,5.8c-0.7,3.4-0.2,6.1,1.6,8.1c0.1,0.1,0.2,0.2,0.3,0.3
	c-1.8-0.4-2.9-0.4-2.9-0.4c0,0,0,0,0,0c-0.4,0-0.7,0.3-0.7,0.7c0,0.4,0.3,0.7,0.7,0.7c0,0,2.3,0,6,1.2c0,0,0,0,0.1,0
	c0.2,0.1,0.4,0.1,0.6,0.2c0,0,0,0,0,0c0.3,0.1,0.5,0.2,0.8,0.3c2.7,0.9,4.5,2.5,5.6,4.3c1.5,2.4,1.7,5.1,1.2,7
	C294.3,138.7,287.9,137.7,287.1,137.6z"/>
<path class="st6" d="M360.1,81.6c-16.3,0-29.6,13.2-29.6,29.4s13.3,29.4,29.6,29.4c16.3,0,29.6-13.2,29.6-29.4
	S376.4,81.6,360.1,81.6z M387.1,111c0,14.9-12.1,27.1-27,27.1c-14.9,0-27-12.1-27-27.1s12.1-27.1,27-27.1
	C375,84,387.1,96.1,387.1,111z"/>
<path class="st6" d="M427.5,81.6c-16.3,0-29.6,13.2-29.6,29.4s13.3,29.4,29.6,29.4s29.6-13.2,29.6-29.4S443.8,81.6,427.5,81.6z
	 M454.5,111c0,14.9-12.1,27.1-27,27.1s-27-12.1-27-27.1s12.1-27.1,27-27.1S454.5,96.1,454.5,111z"/>
<path class="st6" d="M506.9,90.9c-5.2-5.4-12.2-8.4-19.7-8.4h-17.1v57.1h17.1c15.6,0,27.8-12.5,27.8-28.5
	C515,103.4,512.1,96.2,506.9,90.9z M512.4,111c0,14.7-11.1,26.2-25.2,26.2h-14.6V84.9h14.6C501.1,84.9,512.4,96.6,512.4,111z"/>
<g>
	<path class="st6" d="M99,110.6c7.6-2.2,11.9-7.5,11.9-14.5c0-10.4-9.5-14.1-17.6-14.1H73.8v58h22.4c10.8,0,17.8-5.5,17.8-14
		C113.9,118.4,108.3,112.5,99,110.6z M111.3,126c0,7.1-5.9,11.7-15.1,11.7H76.4V112H92C103.5,112,111.3,117.6,111.3,126z
		 M76.4,109.6V84.4h16.9c11,0,15,6,15,11.7c0,6.6-4.8,13.6-18.3,13.6H76.4z"/>
	<path class="st6" d="M145.8,82.2l-0.1-0.2h-3.3l-24,58h2.8l5.5-13.4h34.6l5.5,13.4h2.9L145.8,82.2z M160.3,124.3h-32.6l16.4-39.4
		L160.3,124.3z"/>
</g>
<path class="st6" d="M238.4,116c0,1.7,0.9,2.2,1.7,2.2c0.9,0,1.7-0.5,1.7-1.5c0-0.1,0-0.5-0.2-0.8h1.6c0.2,0.4,0.2,1,0.2,1
	c0,1.6-1.2,2.9-3.3,2.9c-1.7,0-3.4-0.8-3.4-3.9v-6.6h-2v-1.4h2l0.4-3.5h1.3v3.5h3.8v1.4h-3.8V116z"/>
<path class="st6" d="M250.8,107.6c3.4,0,6.1,2.7,6.1,6.1c0,3.4-2.7,6.1-6.1,6.1c-3.4,0-6.1-2.7-6.1-6.1
	C244.7,110.3,247.4,107.6,250.8,107.6z M250.8,118.2c2.4,0,4.4-2,4.4-4.5c0-2.5-2-4.5-4.4-4.5c-2.4,0-4.3,2-4.3,4.5
	C246.4,116.2,248.4,118.2,250.8,118.2z"/>
<path class="st6" d="M198.1,167.7h-1.7v-2.3c-1,1.7-2.7,2.6-4.6,2.6c-3.5,0-5.8-2.7-5.8-6.1c0-3.3,2.3-6.1,5.8-6.1
	c1.9,0,3.6,0.8,4.6,2.6v-7.5h1.7V167.7z M191.9,166.4c2.5,0,4.5-1.8,4.5-4.5c0-2.7-2-4.5-4.5-4.5c-2.6,0-4.2,2-4.2,4.5
	C187.7,164.4,189.2,166.4,191.9,166.4z"/>
<path class="st6" d="M207,155.9c3.4,0,6.1,2.7,6.1,6.1c0,3.4-2.7,6.1-6.1,6.1c-3.4,0-6.1-2.7-6.1-6.1
	C200.9,158.6,203.7,155.9,207,155.9z M207,166.4c2.4,0,4.4-2,4.4-4.5c0-2.5-2-4.5-4.4-4.5c-2.4,0-4.3,2-4.3,4.5
	C202.7,164.4,204.6,166.4,207,166.4z"/>
<path class="st6" d="M227.2,167.6c0,3.7-2.7,5.6-6,5.6c-2.3,0-3.7-0.7-4.9-1.6l0.7-1.4c1.3,1,2.7,1.4,4.2,1.4c2.5,0,4.3-1.5,4.3-4.2
	v-2c-1,1.7-2.7,2.6-4.6,2.6c-3.5,0-5.8-2.7-5.8-6.1c0-3.3,2.3-6.1,5.8-6.1c1.9,0,3.6,0.8,4.6,2.6v-2.3h1.7V167.6z M221,166.4
	c2.5,0,4.5-1.8,4.5-4.5c0-2.7-2-4.5-4.5-4.5c-2.6,0-4.2,2-4.2,4.5C216.8,164.4,218.4,166.4,221,166.4z"/>
<path class="st6" d="M239.6,164.2c0,1.7,0.9,2.2,1.7,2.2c0.9,0,1.7-0.5,1.7-1.5c0-0.1,0-0.5-0.2-0.8h1.6c0.2,0.4,0.2,1,0.2,1
	c0,1.6-1.2,2.9-3.3,2.9c-1.7,0-3.4-0.8-3.4-3.9v-6.6h-2v-1.4h2l0.4-3.5h1.3v3.5h3.8v1.4h-3.8V164.2z"/>
<path class="st6" d="M248.5,158.9c0.4-1.9,1.7-3.1,3.4-3.1c0.3,0,0.7,0.1,1,0.2v1.7c-0.3-0.2-0.7-0.2-1.1-0.2
	c-1.6,0-3.3,1.4-3.3,5.8v4.4h-1.7v-11.6h1.7V158.9z"/>
<path class="st6" d="M265.9,167.7h-1.7v-2.3c-1,1.7-2.7,2.6-4.6,2.6c-3.5,0-5.8-2.7-5.8-6.1c0-3.3,2.3-6.1,5.8-6.1
	c1.9,0,3.6,0.8,4.6,2.6v-2.3h1.7V167.7z M259.7,166.4c2.5,0,4.5-1.8,4.5-4.5c0-2.7-2-4.5-4.5-4.5c-2.6,0-4.2,2-4.2,4.5
	C255.5,164.4,257.1,166.4,259.7,166.4z"/>
<path class="st6" d="M270.6,150.9c0.7,0,1.3,0.6,1.3,1.3c0,0.7-0.6,1.3-1.3,1.3c-0.7,0-1.3-0.5-1.3-1.3
	C269.4,151.5,269.9,150.9,270.6,150.9z M271.5,167.7h-1.7v-11.6h1.7V167.7z"/>
<path class="st6" d="M284.1,161.1c0-2.8-1.5-3.7-3-3.7c-1.3,0-3.9,0.9-4,4.7v5.6h-1.7v-11.6h1.7v2.5c0.6-1.8,2.4-2.7,4.1-2.7
	c2.5,0,4.6,1.5,4.6,5.3v6.6h-1.7V161.1z"/>
<path class="st6" d="M290.4,150.9c0.7,0,1.3,0.6,1.3,1.3c0,0.7-0.6,1.3-1.3,1.3c-0.7,0-1.3-0.5-1.3-1.3
	C289.1,151.5,289.6,150.9,290.4,150.9z M291.3,167.7h-1.7v-11.6h1.7V167.7z"/>
<path class="st6" d="M303.8,161.1c0-2.8-1.5-3.7-3-3.7c-1.3,0-3.9,0.9-4,4.7v5.6h-1.7v-11.6h1.7v2.5c0.6-1.8,2.4-2.7,4.1-2.7
	c2.5,0,4.6,1.5,4.6,5.3v6.6h-1.7V161.1z"/>
<path class="st6" d="M320.4,167.6c0,3.7-2.7,5.6-6,5.6c-2.3,0-3.7-0.7-4.9-1.6l0.7-1.4c1.3,1,2.7,1.4,4.2,1.4c2.5,0,4.3-1.5,4.3-4.2
	v-2c-1,1.7-2.7,2.6-4.6,2.6c-3.5,0-5.8-2.7-5.8-6.1c0-3.3,2.3-6.1,5.8-6.1c1.9,0,3.6,0.8,4.6,2.6v-2.3h1.7V167.6z M314.2,166.4
	c2.5,0,4.5-1.8,4.5-4.5c0-2.7-2-4.5-4.5-4.5c-2.6,0-4.2,2-4.2,4.5C310,164.4,311.6,166.4,314.2,166.4z"/>
<path class="st6" d="M335.6,158.8c-0.3-1-1.1-1.4-1.9-1.4c-1.4,0-2.1,0.9-2.1,1.8c0,1,0.8,1.4,1.6,1.7l1.7,0.6
	c2.1,0.7,2.8,1.9,2.8,3.2c0,2.1-1.9,3.4-4.1,3.4c-2,0-3.8-1-4.3-2.8l1.5-0.4c0.3,1,1.4,1.6,2.8,1.6c1.3,0,2.3-0.7,2.3-1.8
	c0-0.9-0.7-1.4-1.7-1.7l-1.6-0.5c-1.7-0.5-2.8-1.5-2.8-3.1c0-1.8,1.4-3.4,3.8-3.4c1.5,0,3.1,0.7,3.5,2.5L335.6,158.8z"/>
<path class="st6" d="M351.1,166c-1.5,1.6-3.3,2-5,2c-4,0-6.5-2.7-6.5-6c0-3.4,2.6-6.1,6.2-6.1c3,0,5.8,1.9,5.8,6h-10.3
	c0,0.1,0,0.1,0,0.2c0,2.5,1.9,4.4,4.8,4.4c1.4,0,2.8-0.4,4-1.5L351.1,166z M341.6,160.6h8.3c-0.5-2.4-2.4-3.1-4-3.1
	C344.1,157.4,342.2,158.4,341.6,160.6z"/>
<path class="st6" d="M356.1,158.9c0.4-1.9,1.7-3.1,3.4-3.1c0.3,0,0.7,0.1,1,0.2v1.7c-0.3-0.2-0.7-0.2-1.1-0.2
	c-1.6,0-3.3,1.4-3.3,5.8v4.4h-1.7v-11.6h1.7V158.9z"/>
<path class="st6" d="M367.9,167.7h-2l-4.6-11.6h1.8l3.7,9.8l3.7-9.8h1.8L367.9,167.7z"/>
<path class="st6" d="M375.9,150.9c0.7,0,1.3,0.6,1.3,1.3c0,0.7-0.6,1.3-1.3,1.3c-0.7,0-1.3-0.5-1.3-1.3
	C374.6,151.5,375.2,150.9,375.9,150.9z M376.8,167.7H375v-11.6h1.7V167.7z"/>
<path class="st6" d="M386.3,155.9c1,0,2.6,0.3,4.1,1.4l-0.8,1.2c-1.3-1-2.7-1-3.2-1c-2.9,0-4.8,1.9-4.8,4.5c0,2.6,2,4.5,4.8,4.5
	c0.5,0,1.9-0.1,3.2-1l0.8,1.2c-1.5,1.1-3.1,1.4-4.1,1.4c-3.6,0-6.5-2.2-6.5-6.1C379.8,158,382.7,155.9,386.3,155.9z"/>
<path class="st6" d="M403.3,166c-1.5,1.6-3.3,2-5,2c-4,0-6.5-2.7-6.5-6c0-3.4,2.6-6.1,6.2-6.1c3,0,5.8,1.9,5.8,6h-10.3
	c0,0.1,0,0.1,0,0.2c0,2.5,1.9,4.4,4.8,4.4c1.4,0,2.8-0.4,4-1.5L403.3,166z M393.8,160.6h8.3c-0.5-2.4-2.4-3.1-4-3.1
	C396.3,157.4,394.5,158.4,393.8,160.6z"/>
<path class="st6" d="M411.8,158.8c-0.3-1-1.1-1.4-1.9-1.4c-1.4,0-2.1,0.9-2.1,1.8c0,1,0.8,1.4,1.6,1.7l1.7,0.6
	c2.1,0.7,2.8,1.9,2.8,3.2c0,2.1-1.9,3.4-4.1,3.4c-2,0-3.8-1-4.3-2.8l1.5-0.4c0.3,1,1.4,1.6,2.8,1.6c1.3,0,2.3-0.7,2.3-1.8
	c0-0.9-0.7-1.4-1.7-1.7l-1.6-0.5c-1.7-0.5-2.8-1.5-2.8-3.1c0-1.8,1.4-3.4,3.8-3.4c1.5,0,3.1,0.7,3.5,2.5L411.8,158.8z"/>
<g>
	<g>
		<path class="st0" d="M236.3,911.4"/>
	</g>
	<g>
		<path class="st0" d="M238.4,880.7c-3.6-3.7-8.5-5.6-14-5.6c-5.5,0.1-13,0.9-13.5,7.5c0,0.3,0,0.6,0,0.9c0,0,0,0,0-0.1v15h0
			c0,0.8,1.2,1.3,2.7,1.3c1.5,0,2.7-0.5,2.7-1.3c0-0.9-1.2-1.5-2.7-1.5c-0.1,0-0.2,0-0.3,0c0.2-2.2,1-6,4.3-8v5.9
			c0,0.8,1.2,1.3,2.7,1.3c1.5,0,2.7-0.5,2.7-1.3c0-0.8-1.2-1.5-2.7-1.5c-0.1,0-0.2,0-0.3,0c0.1-1.5,0.5-3.8,1.8-5.7
			c0.2,0,0.4-0.1,0.7-0.1c3.4-0.3,7.1,1.4,8.6,3.9c1.5,2.6,1.5,6.3-0.1,8.3c0,0-0.1,0-0.1,0c-0.7,0-2,0.2-3.3,1.8l0,0
			c-0.1,0.1-0.4,0.1-0.7,0.2c-0.4,0.1-1,0.2-1.8,0.5c-1.4,0.5-4.4,1.5-5.4,4.3c-0.1,0.4-0.3,0.6-0.5,0.7l-3.4,1.5l0,0
			c-0.1,0-0.4,0.2-0.4,0.2l-2.2,1c-0.5,0.2-0.8,0.6-0.9,1.1c-0.1,0.5,0.1,1,0.4,1.3l2.3,2.4l0,0c0.6,0.6,1.4,0.9,2.3,0.9
			c0.1,0,0.1,0,0.2,0c0.1,0,0.2,0,0.3,0l8.4-0.1c0.6,0,1.1,0,1.7,0c0.3,0,0.6-0.1,1-0.1c0.8,0.5,1.8,0.8,2.8,0.8c0,0,0.1,0,0.1,0
			c1.3,0,2.6-0.7,3.6-1.8c0.4-0.5,0.8-1,1.1-1.6c0.5-0.4,1.1-0.9,2-1.8c0.8-0.8,1.5-1.6,2.1-2.5c0.3,1.5,0.1,3.1-0.1,4.2
			c-0.3,0-0.7,0-1.1,0.1c-1.6,0.4-2.7,1.5-2.1,2.4c0.5,0.8,2.2,0.8,3.5,0.2c0.8-0.4,1.3-1,1.4-1.6h0c0.7-4.1,1.7-9.6,2.1-14.2
			c0,0,0,0,0,0c0.2-0.9,0.2-1.8,0.3-2.7C244.6,890.6,242.4,884.7,238.4,880.7z M239.8,906.9c-0.7,1.1-1.6,2.2-2.5,3.1
			c-0.2,0.2-0.3,0.3-0.5,0.5c-0.2-1.7-1.1-3.2-2.5-4.1c-0.2-0.1-0.5-0.1-0.6,0.2c-0.1,0.2-0.1,0.5,0.2,0.6c0.4,0.2,0.7,0.5,1,0.8
			c0.3,0.4,0.6,0.8,0.8,1.3c0,0,0,0,0,0c0.2,0.4,0.3,0.8,0.3,1.3v0c0,0,0,0,0,0c0,0,0,0,0,0c0,0.2,0,0.4,0,0.6
			c-0.1,0.4-0.2,0.9-0.4,1.3c-0.2,0.4-0.5,0.9-0.9,1.3c-0.2,0.2-0.3,0.3-0.5,0.5c-0.8,0.7-1.7,1-2.5,1c-0.4,0-0.8-0.1-1.2-0.2
			c-0.4-0.1-0.8-0.3-1.2-0.5c-0.3-0.2-0.6-0.4-0.8-0.7c-0.7-0.7-1.1-1.6-1.2-2.6v0c0-0.3-0.2-0.4-0.5-0.4c-0.3,0-0.5,0.2-0.4,0.5
			c0.1,1,0.4,1.9,1,2.7c-0.4,0-0.7,0-1.1,0h0l-8.5,0.1l-0.1,0c-0.1,0-0.2,0-0.3,0c-0.5,0-0.9-0.2-1.3-0.5l-2.2-2.3l2.1-0.9
			c0,0,0.1,0,0.2-0.1c0.1,0,0.2-0.1,0.2-0.1l3.4-1.5c0.6-0.3,1.1-0.8,1.3-1.6c0.7-2.1,3.1-2.9,4.4-3.4c0.7-0.2,1.2-0.3,1.6-0.4
			c0.2,0,0.3-0.1,0.4-0.1c1.1,0,1.9,0.3,2.7,0.9c0.2,0.1,0.5,0.1,0.7-0.1c0.1-0.2,0.1-0.5-0.1-0.6c-0.7-0.4-1.3-0.8-2-0.9
			c0.8-1,1.6-1,2.2-1.1c0.4,0,0.8-0.1,1.1-0.4c2.1-2.5,2.2-7,0.3-10.3c-1.6-2.8-5.4-4.7-9.1-4.7c-0.3,0-0.7,0-1,0
			c-0.8,0.1-1.7,0.2-2.5,0.4c-0.8,0.2-1.5,0.3-2.2,0.4c-0.8,0.1-1.6,0.1-2.3-0.1c-2.6-0.6-2.8-2.7-2.7-3.9c0.3-4.1,4-6,11.9-6.1
			c5.1,0,9.5,1.7,12.9,5.1c3.7,3.8,5.8,9.3,5.6,15.1c0,1.5-0.3,3.1-0.7,4.6C241.7,903.4,240.9,905.2,239.8,906.9z"/>
	</g>
</g>
<g>
	<path class="st0" d="M308.4,899.5c-1.5-1.5-3.7-1.6-5.9-1.5c-0.4,0-0.8,0.4-0.7,0.8c0,0.2,0.1,0.3,0.1,0.4c0.1,0.2,0.4,0.3,0.7,0.3
		c2.5-0.1,3.9,0.2,4.8,1c0.9,0.9,1.3,2.7,1.2,5.6c-0.3,5.1-4.8,8.4-12.3,9c-1.1,0.1-2.6,0-4.1-0.1c1.7-0.8,3.1-2.3,3.8-4.8
		c0.5-1.7,0.3-4.1-1.1-6.1c-0.9-1.5-2.4-2.8-4.7-3.6c-3-1-4-2.7-3.4-5.9c0.1-0.6,0.4-1.3,0.7-2c0.3,2.2,1.2,4.6,1.2,5.4
		c0,0.1,0,0.2,0,0.3c0,0.8,1.2,1.3,2.6,1.3c1.5,0,2.6-0.5,2.6-1.3c0-0.8-1.2-1.5-2.6-1.5c-0.2,0-0.3,0-0.5,0
		c-0.2-1.9-0.8-5.1,0.1-7.5h0c0.1,0,0.2,0,0.3,0c1.6-0.1,2.9-0.7,3.8-1.6c0.2,0,0.5-0.1,0.7-0.1c0.1,0,10.1-1.2,10.3-1.3
		c0.8-0.2,1.5-0.6,2-1.3l1.6-2.5c0.2-0.4,0.3-0.9,0.1-1.3c-0.2-0.5-0.6-0.8-1.1-0.9l-6.1-1.5c-0.3-0.1-0.5-0.4-0.6-0.5
		c-2.2-3.9-5.9-3.9-8.1-3.8l-0.3,0c-1.8,0-3.6,0.4-5.5,1.2s-3.7,2-5.6,3.6c-2.4,2.1-4.3,4.7-5.4,6.5l-0.2,0.3
		c-0.2,0.4-0.5,0.8-0.7,1.3c-3.1,6-4.1,15.1,2.3,22.4c1.7,2,3.9,3.6,6,4.6c0,0,0,0,0,0c3,1.6,7.4,2.3,10.5,2.3c0.5,0,1,0,1.4,0
		c11.8-0.9,13.5-7.6,13.7-10.5C310.2,902.9,309.7,900.8,308.4,899.5z M288.2,914.1c-0.9-0.2-1.9-0.5-2.8-0.9c-0.6-0.3-1.2-0.6-1.8-1
		c-0.2-0.1-0.4-0.3-0.6-0.4c-1.2-0.8-2.3-1.8-3.3-2.9c-5.9-6.7-5-15.1-2.1-20.7c0.2-0.4,0.4-0.8,0.7-1.2l0.2-0.3
		c1.1-1.7,2.8-4.2,5.1-6.1c3.4-3,6.8-4.5,10-4.5l0.3,0c2.1,0,5,0,6.8,3.1c0.4,0.7,1,1.1,1.6,1.3l6,1.4l-1.5,2.4
		c-0.2,0.3-0.6,0.5-1,0.6c-0.5,0.1-7.6,0.9-9.6,1.2c0.1-0.4,0.2-0.8,0.3-1.3c0-0.3-0.2-0.5-0.4-0.5c-0.2,0-0.4,0.1-0.5,0.3
		c0,0,0,0.1,0,0.1c0,0.6-0.2,1.1-0.4,1.5c-0.2,0.3-0.4,0.6-0.6,0.9c-0.7,0.8-1.8,1.3-3.1,1.4c0,0-0.1,0-0.1,0c-0.3,0-0.6,0-0.9,0
		c-0.3,0-0.6-0.1-0.9-0.2c0,0-0.1,0-0.1,0c-0.8-0.3-1.5-0.9-2-1.7c-0.8-1.2-0.4-3.6,0.7-4.8c0,0,0.1-0.1,0.1-0.1
		c0.1-0.2,0-0.4-0.1-0.5c-0.2-0.2-0.5-0.2-0.7,0c-1.4,1.5-1.8,4.3-0.8,5.9c0.4,0.6,0.9,1.2,1.5,1.6c0.2,0.1,0.4,0.2,0.6,0.3
		c-0.5,0.5-0.9,1-1.3,1.6c-0.9,1.3-1.6,2.8-1.9,4c-0.5,2.4-0.1,4.2,1.1,5.6c0.1,0.1,0.1,0.1,0.2,0.2c-1.3-0.2-2-0.3-2-0.3
		c0,0,0,0,0,0c-0.3,0-0.5,0.2-0.5,0.5c0,0.3,0.2,0.5,0.5,0.5c0,0,1.6,0,4.1,0.8c0,0,0,0,0,0c0.1,0,0.3,0.1,0.4,0.1c0,0,0,0,0,0
		c0.2,0.1,0.4,0.1,0.5,0.2c1.9,0.6,3.1,1.7,3.9,3c1,1.6,1.2,3.5,0.8,4.8C293.1,914.8,288.7,914.2,288.2,914.1z"/>
</g>
<g>
	<path class="st0" d="M338.8,875.3c-11.3,0-20.5,9.2-20.5,20.4s9.2,20.4,20.5,20.4s20.5-9.2,20.5-20.4S350.1,875.3,338.8,875.3z
		 M357.5,895.7c0,10.3-8.4,18.8-18.7,18.8s-18.7-8.4-18.7-18.8s8.4-18.8,18.7-18.8S357.5,885.3,357.5,895.7z"/>
	<path class="st0" d="M385.5,875.3c-11.3,0-20.5,9.2-20.5,20.4s9.2,20.4,20.5,20.4s20.5-9.2,20.5-20.4S396.8,875.3,385.5,875.3z
		 M404.2,895.7c0,10.3-8.4,18.8-18.7,18.8s-18.7-8.4-18.7-18.8s8.4-18.8,18.7-18.8S404.2,885.3,404.2,895.7z"/>
	<path class="st0" d="M440.6,881.7c-3.6-3.7-8.5-5.8-13.7-5.8H415v39.6h11.9c10.8,0,19.3-8.7,19.3-19.8
		C446.2,890.4,444.2,885.4,440.6,881.7z M444.4,895.7c0,10.2-7.7,18.2-17.5,18.2h-10.1v-36.3h10.1
		C436.6,877.5,444.4,885.7,444.4,895.7z"/>
</g>
<g>
	<g>
		<path class="st0" d="M156.9,895.4c7.1,1.2,10.9,5.5,10.9,10.7c0,6-5.2,9.5-12.1,9.5h-15.3v-39.9h13.3c6.3,0,12,3,12,9.6
			C165.7,889.9,162.9,893.9,156.9,895.4z M141.8,877v17.8h9.6c8.9,0,12.9-4.5,12.9-9.6c0-5.7-5-8.3-10.5-8.3H141.8z M141.8,896.2
			v18.1h13.9c6.2,0,10.7-3,10.7-8.3c0-5.4-4.8-9.9-13.6-9.9H141.8z"/>
		<path class="st0" d="M155.7,915.8h-15.5v-40.3h13.5c5.6,0,12.2,2.6,12.2,9.8c0,4.9-3,8.5-8.2,10.1c6.4,1.3,10.3,5.4,10.3,10.7
			C168,912,163.2,915.8,155.7,915.8z M140.6,915.5h15.2c7.3,0,12-3.7,12-9.3c0-5.4-4.1-9.4-10.8-10.5l-0.8-0.1l0.8-0.2
			c5.5-1.4,8.7-5,8.7-9.9c0-6.9-6.4-9.4-11.9-9.4h-13.2V915.5z M155.7,914.5h-14.1V896h11.2c8.2,0,13.7,4,13.7,10
			C166.6,911.2,162.3,914.5,155.7,914.5z M142,914.2h13.7c6.4,0,10.5-3.2,10.5-8.1c0-5.8-5.4-9.7-13.4-9.7H142V914.2z M151.4,895.1
			h-9.8v-18.2h12.1c4.9,0,10.7,2.2,10.7,8.4C164.4,890,161,895.1,151.4,895.1z M142,894.7h9.4c9.4,0,12.7-4.9,12.7-9.4
			c0-3.9-2.7-8.1-10.4-8.1H142V894.7z"/>
	</g>
	<g>
		<path class="st0" d="M171.4,915.6l16.5-39.9h2.1l16.5,39.9h-1.7l-3.8-9.3h-24.2l-3.8,9.3H171.4z M177.3,905h23.1l-11.5-28
			L177.3,905z"/>
		<path class="st0" d="M206.8,915.8h-2l-3.8-9.3h-24l-3.8,9.3h-2l16.7-40.3h2.3l0,0.1L206.8,915.8z M205,915.5h1.3l-16.4-39.6H188
			l-16.4,39.6h1.2l3.8-9.3h24.5L205,915.5z M200.7,905.2h-23.7l11.9-28.6l0.2,0.4L200.7,905.2z M177.6,904.9h22.6l-11.3-27.4
			L177.6,904.9z"/>
	</g>
</g>
<g>
	<path class="st0" d="M254.4,899.1c0,1.2,0.6,1.5,1.2,1.5c0.6,0,1.2-0.4,1.2-1.1c0-0.1,0-0.4-0.1-0.6h1.1c0.1,0.3,0.1,0.7,0.1,0.7
		c0,1.1-0.8,2-2.3,2c-1.2,0-2.4-0.6-2.4-2.7v-4.6h-1.4v-1h1.4l0.3-2.4h0.9v2.4h2.6v1h-2.6V899.1z"/>
	<path class="st0" d="M262.9,893.3c2.3,0,4.2,1.9,4.2,4.2c0,2.3-1.9,4.2-4.2,4.2c-2.3,0-4.2-1.9-4.2-4.2
		C258.7,895.2,260.6,893.3,262.9,893.3z M262.9,900.6c1.7,0,3-1.4,3-3.1c0-1.7-1.4-3.1-3-3.1c-1.6,0-3,1.4-3,3.1
		C259.9,899.2,261.3,900.6,262.9,900.6z"/>
</g>
<g>
	<path class="st0" d="M226.4,935h-1.2v-1.6c-0.7,1.2-1.9,1.8-3.2,1.8c-2.4,0-4-1.9-4-4.2c0-2.3,1.6-4.2,4-4.2c1.3,0,2.5,0.6,3.2,1.8
		v-5.2h1.2V935z M222.1,934.1c1.7,0,3.1-1.2,3.1-3.1c0-1.9-1.4-3.1-3.1-3.1c-1.8,0-2.9,1.4-2.9,3.1
		C219.2,932.7,220.3,934.1,222.1,934.1z"/>
	<path class="st0" d="M232.6,926.8c2.3,0,4.2,1.9,4.2,4.2c0,2.3-1.9,4.2-4.2,4.2c-2.3,0-4.2-1.9-4.2-4.2
		C228.4,928.7,230.3,926.8,232.6,926.8z M232.6,934.1c1.7,0,3-1.4,3-3.1c0-1.7-1.4-3.1-3-3.1c-1.6,0-3,1.4-3,3.1
		C229.6,932.7,230.9,934.1,232.6,934.1z"/>
	<path class="st0" d="M246.6,934.9c0,2.6-1.9,3.9-4.2,3.9c-1.6,0-2.6-0.5-3.4-1.1l0.5-1c0.9,0.7,1.9,1,2.9,1c1.8,0,3-1.1,3-2.9v-1.4
		c-0.7,1.2-1.9,1.8-3.2,1.8c-2.4,0-4-1.9-4-4.2c0-2.3,1.6-4.2,4-4.2c1.3,0,2.5,0.6,3.2,1.8V927h1.2V934.9z M242.3,934.1
		c1.7,0,3.1-1.2,3.1-3.1c0-1.9-1.4-3.1-3.1-3.1c-1.8,0-2.9,1.4-2.9,3.1C239.4,932.7,240.5,934.1,242.3,934.1z"/>
	<path class="st0" d="M255.2,932.6c0,1.2,0.6,1.5,1.2,1.5c0.6,0,1.2-0.4,1.2-1c0-0.1,0-0.4-0.1-0.6h1.1c0.1,0.3,0.1,0.7,0.1,0.7
		c0,1.1-0.8,2-2.3,2c-1.2,0-2.4-0.6-2.4-2.7v-4.6h-1.4v-1h1.4l0.3-2.4h0.9v2.4h2.6v1h-2.6V932.6z"/>
	<path class="st0" d="M261.4,928.9c0.3-1.3,1.2-2.1,2.4-2.1c0.2,0,0.5,0,0.7,0.1v1.2c-0.2-0.1-0.5-0.2-0.7-0.2c-1.1,0-2.3,0.9-2.3,4
		v3.1h-1.2v-8h1.2V928.9z"/>
	<path class="st0" d="M273.4,935h-1.2v-1.6c-0.7,1.2-1.9,1.8-3.2,1.8c-2.4,0-4-1.9-4-4.2c0-2.3,1.6-4.2,4-4.2c1.3,0,2.5,0.6,3.2,1.8
		V927h1.2V935z M269.1,934.1c1.7,0,3.1-1.2,3.1-3.1c0-1.9-1.4-3.1-3.1-3.1c-1.8,0-2.9,1.4-2.9,3.1
		C266.2,932.7,267.3,934.1,269.1,934.1z"/>
	<path class="st0" d="M276.7,923.4c0.5,0,0.9,0.4,0.9,0.9c0,0.5-0.4,0.9-0.9,0.9c-0.5,0-0.9-0.4-0.9-0.9
		C275.8,923.7,276.2,923.4,276.7,923.4z M277.3,935h-1.2v-8h1.2V935z"/>
	<path class="st0" d="M286,930.4c0-2-1-2.6-2.1-2.6c-0.9,0-2.7,0.6-2.7,3.2v3.9H280v-8h1.2v1.7c0.4-1.3,1.6-1.9,2.8-1.9
		c1.7,0,3.2,1,3.2,3.7v4.6H286V930.4z"/>
	<path class="st0" d="M290.4,923.4c0.5,0,0.9,0.4,0.9,0.9c0,0.5-0.4,0.9-0.9,0.9c-0.5,0-0.9-0.4-0.9-0.9
		C289.5,923.7,289.9,923.4,290.4,923.4z M291,935h-1.2v-8h1.2V935z"/>
	<path class="st0" d="M299.7,930.4c0-2-1-2.6-2.1-2.6c-0.9,0-2.7,0.6-2.7,3.2v3.9h-1.2v-8h1.2v1.7c0.4-1.3,1.6-1.9,2.8-1.9
		c1.7,0,3.2,1,3.2,3.7v4.6h-1.2V930.4z"/>
	<path class="st0" d="M311.2,934.9c0,2.6-1.9,3.9-4.2,3.9c-1.6,0-2.6-0.5-3.4-1.1l0.5-1c0.9,0.7,1.9,1,2.9,1c1.8,0,3-1.1,3-2.9v-1.4
		c-0.7,1.2-1.9,1.8-3.2,1.8c-2.4,0-4-1.9-4-4.2c0-2.3,1.6-4.2,4-4.2c1.3,0,2.5,0.6,3.2,1.8V927h1.2V934.9z M306.9,934.1
		c1.7,0,3.1-1.2,3.1-3.1c0-1.9-1.4-3.1-3.1-3.1c-1.8,0-2.9,1.4-2.9,3.1C304,932.7,305.1,934.1,306.9,934.1z"/>
	<path class="st0" d="M321.8,928.8c-0.2-0.7-0.7-0.9-1.3-0.9c-0.9,0-1.5,0.6-1.5,1.2c0,0.7,0.6,1,1.1,1.2l1.2,0.4
		c1.4,0.5,1.9,1.3,1.9,2.2c0,1.5-1.3,2.3-2.8,2.3c-1.4,0-2.6-0.7-3-1.9l1.1-0.3c0.2,0.7,1,1.1,1.9,1.1c0.9,0,1.6-0.5,1.6-1.3
		c0-0.6-0.5-1-1.1-1.2l-1.1-0.4c-1.1-0.4-2-1-2-2.1c0-1.3,1-2.4,2.6-2.4c1.1,0,2.1,0.5,2.5,1.7L321.8,928.8z"/>
	<path class="st0" d="M332.5,933.8c-1,1.1-2.3,1.4-3.4,1.4c-2.8,0-4.5-1.9-4.5-4.2c0-2.3,1.8-4.2,4.3-4.2c2.1,0,4,1.3,4,4.2h-7.2
		c0,0,0,0.1,0,0.1c0,1.7,1.3,3,3.3,3c1,0,1.9-0.3,2.7-1.1L332.5,933.8z M325.9,930h5.8c-0.4-1.7-1.6-2.2-2.7-2.2
		C327.6,927.8,326.4,928.5,325.9,930z"/>
	<path class="st0" d="M336,928.9c0.3-1.3,1.2-2.1,2.4-2.1c0.2,0,0.5,0,0.7,0.1v1.2c-0.2-0.1-0.5-0.2-0.7-0.2c-1.1,0-2.3,0.9-2.3,4
		v3.1h-1.2v-8h1.2V928.9z"/>
	<path class="st0" d="M344.2,935h-1.4l-3.2-8h1.3l2.6,6.8l2.6-6.8h1.3L344.2,935z"/>
	<path class="st0" d="M349.7,923.4c0.5,0,0.9,0.4,0.9,0.9c0,0.5-0.4,0.9-0.9,0.9s-0.9-0.4-0.9-0.9
		C348.8,923.7,349.2,923.4,349.7,923.4z M350.3,935h-1.2v-8h1.2V935z"/>
	<path class="st0" d="M356.9,926.8c0.7,0,1.8,0.2,2.8,1l-0.6,0.8c-0.9-0.7-1.9-0.7-2.2-0.7c-2,0-3.3,1.3-3.4,3.1
		c0,1.8,1.4,3.1,3.4,3.1c0.3,0,1.3,0,2.2-0.7l0.6,0.8c-1.1,0.8-2.2,1-2.8,1c-2.5,0-4.5-1.5-4.5-4.2
		C352.4,928.3,354.5,926.8,356.9,926.8z"/>
	<path class="st0" d="M368.7,933.8c-1,1.1-2.3,1.4-3.4,1.4c-2.8,0-4.5-1.9-4.5-4.2c0-2.3,1.8-4.2,4.3-4.2c2.1,0,4,1.3,4,4.2H362
		c0,0,0,0.1,0,0.1c0,1.7,1.3,3,3.3,3c1,0,1.9-0.3,2.7-1.1L368.7,933.8z M362.1,930h5.8c-0.4-1.7-1.6-2.2-2.7-2.2
		C363.8,927.8,362.6,928.5,362.1,930z"/>
	<path class="st0" d="M374.6,928.8c-0.2-0.7-0.7-0.9-1.3-0.9c-0.9,0-1.5,0.6-1.5,1.2c0,0.7,0.6,1,1.1,1.2l1.2,0.4
		c1.4,0.5,1.9,1.3,1.9,2.2c0,1.5-1.3,2.3-2.8,2.3c-1.4,0-2.6-0.7-3-1.9l1.1-0.3c0.2,0.7,1,1.1,1.9,1.1c0.9,0,1.6-0.5,1.6-1.3
		c0-0.6-0.5-1-1.1-1.2l-1.1-0.4c-1.1-0.4-2-1-2-2.1c0-1.3,1-2.4,2.6-2.4c1.1,0,2.1,0.5,2.5,1.7L374.6,928.8z"/>
</g>
<g>
	<g>
		<path class="st0" d="M328.8,1053.3"/>
	</g>
	<g>
		<path class="st0" d="M331,1022.6c-3.6-3.7-8.5-5.6-14-5.6c-5.5,0.1-13,0.9-13.5,7.5c0,0.3,0,0.6,0,0.9c0,0,0,0,0-0.1v15h0
			c0,0.8,1.2,1.3,2.7,1.3c1.5,0,2.7-0.5,2.7-1.3c0-0.9-1.2-1.5-2.7-1.5c-0.1,0-0.2,0-0.3,0c0.2-2.2,1-6,4.3-8v5.9
			c0,0.8,1.2,1.3,2.7,1.3s2.7-0.5,2.7-1.3c0-0.8-1.2-1.5-2.7-1.5c-0.1,0-0.2,0-0.3,0c0.1-1.5,0.5-3.8,1.8-5.7c0.2,0,0.4-0.1,0.7-0.1
			c3.4-0.3,7.1,1.4,8.6,3.9c1.5,2.6,1.5,6.3-0.1,8.3c0,0-0.1,0-0.1,0c-0.7,0-2,0.2-3.3,1.8l0,0c-0.1,0.1-0.4,0.1-0.7,0.2
			c-0.4,0.1-1,0.2-1.8,0.5c-1.4,0.5-4.4,1.5-5.4,4.3c-0.1,0.4-0.3,0.6-0.5,0.7l-3.4,1.5l0,0c-0.1,0-0.4,0.2-0.4,0.2l-2.2,1
			c-0.5,0.2-0.8,0.6-0.9,1.1c-0.1,0.5,0.1,1,0.4,1.3l2.3,2.4l0,0c0.6,0.6,1.4,0.9,2.3,0.9c0.1,0,0.1,0,0.2,0c0.1,0,0.2,0,0.3,0
			l8.4-0.1c0.6,0,1.1,0,1.7,0c0.3,0,0.6-0.1,1-0.1c0.8,0.5,1.8,0.8,2.8,0.8c0,0,0.1,0,0.1,0c1.3,0,2.6-0.7,3.6-1.8
			c0.4-0.5,0.8-1,1.1-1.6c0.5-0.4,1.1-0.9,2-1.8c0.8-0.8,1.5-1.6,2.1-2.5c0.3,1.5,0.1,3.1-0.1,4.2c-0.3,0-0.7,0-1.1,0.1
			c-1.6,0.4-2.7,1.5-2.1,2.4c0.5,0.8,2.2,0.8,3.5,0.2c0.8-0.4,1.3-1,1.4-1.6h0c0.7-4.1,1.7-9.6,2.1-14.2c0,0,0,0,0,0
			c0.2-0.9,0.2-1.8,0.3-2.7C337.2,1032.5,335,1026.6,331,1022.6z M332.4,1048.8c-0.7,1.1-1.6,2.2-2.5,3.1c-0.2,0.2-0.3,0.3-0.5,0.5
			c-0.2-1.7-1.1-3.2-2.5-4.1c-0.2-0.1-0.5-0.1-0.6,0.2c-0.1,0.2-0.1,0.5,0.2,0.6c0.4,0.2,0.7,0.5,1,0.8c0.3,0.4,0.6,0.8,0.8,1.3
			c0,0,0,0,0,0c0.2,0.4,0.3,0.8,0.3,1.3v0c0,0,0,0,0,0c0,0,0,0,0,0c0,0.2,0,0.4,0,0.6c-0.1,0.4-0.2,0.9-0.4,1.3
			c-0.2,0.4-0.5,0.9-0.9,1.3c-0.2,0.2-0.3,0.3-0.5,0.5c-0.8,0.7-1.7,1-2.5,1c-0.4,0-0.8-0.1-1.2-0.2c-0.4-0.1-0.8-0.3-1.2-0.5
			c-0.3-0.2-0.6-0.4-0.8-0.7c-0.7-0.7-1.1-1.6-1.2-2.6v0c0-0.3-0.2-0.4-0.5-0.4c-0.3,0-0.5,0.2-0.4,0.5c0.1,1,0.4,1.9,1,2.7
			c-0.4,0-0.7,0-1.1,0h0l-8.5,0.1l-0.1,0c-0.1,0-0.2,0-0.3,0c-0.5,0-0.9-0.2-1.3-0.5l-2.2-2.3l2.1-0.9c0,0,0.1,0,0.2-0.1
			c0.1,0,0.2-0.1,0.2-0.1l3.4-1.5c0.6-0.3,1.1-0.8,1.3-1.6c0.7-2.1,3.1-2.9,4.4-3.4c0.7-0.2,1.2-0.3,1.6-0.4c0.2,0,0.3-0.1,0.4-0.1
			c1.1,0,1.9,0.3,2.7,0.9c0.2,0.1,0.5,0.1,0.7-0.1c0.1-0.2,0.1-0.5-0.1-0.6c-0.7-0.4-1.3-0.8-2-0.9c0.8-1,1.6-1,2.2-1.1
			c0.4,0,0.8-0.1,1.1-0.4c2.1-2.5,2.2-7,0.3-10.3c-1.6-2.8-5.4-4.7-9.1-4.7c-0.3,0-0.7,0-1,0c-0.8,0.1-1.7,0.2-2.5,0.4
			c-0.8,0.2-1.5,0.3-2.2,0.4c-0.8,0.1-1.6,0.1-2.3-0.1c-2.6-0.6-2.8-2.7-2.7-3.9c0.3-4.1,4-6,11.9-6.1c5.1,0,9.5,1.7,12.9,5.1
			c3.7,3.8,5.8,9.3,5.6,15.1c0,1.5-0.3,3.1-0.7,4.6C334.2,1045.3,333.4,1047.1,332.4,1048.8z"/>
	</g>
</g>
<g>
	<path class="st0" d="M230.6,1107.4c-1.5-1.5-3.7-1.6-5.9-1.5c-0.4,0-0.8,0.4-0.7,0.8c0,0.2,0.1,0.3,0.1,0.4
		c0.1,0.2,0.4,0.3,0.7,0.3c2.5-0.1,3.9,0.2,4.8,1c0.9,0.9,1.3,2.7,1.2,5.6c-0.3,5.1-4.8,8.4-12.3,9c-1.1,0.1-2.6,0-4.1-0.1
		c1.7-0.8,3.1-2.3,3.8-4.8c0.5-1.7,0.3-4.1-1.1-6.1c-0.9-1.5-2.4-2.8-4.7-3.6c-3-1-4-2.7-3.4-5.9c0.1-0.6,0.4-1.3,0.7-2
		c0.3,2.2,1.2,4.6,1.2,5.4c0,0.1,0,0.2,0,0.3c0,0.8,1.2,1.3,2.6,1.3c1.5,0,2.6-0.5,2.6-1.3c0-0.8-1.2-1.5-2.6-1.5
		c-0.2,0-0.3,0-0.5,0c-0.2-1.9-0.8-5.1,0.1-7.5h0c0.1,0,0.2,0,0.3,0c1.6-0.1,2.9-0.7,3.8-1.6c0.2,0,0.5-0.1,0.7-0.1
		c0.1,0,10.1-1.2,10.3-1.3c0.8-0.2,1.5-0.6,2-1.3l1.6-2.5c0.2-0.4,0.3-0.9,0.1-1.3c-0.2-0.5-0.6-0.8-1.1-0.9l-6.1-1.5
		c-0.3-0.1-0.5-0.4-0.6-0.5c-2.2-3.9-5.9-3.9-8.1-3.8l-0.3,0c-1.8,0-3.6,0.4-5.5,1.2c-1.8,0.8-3.7,2-5.6,3.6
		c-2.4,2.1-4.3,4.7-5.4,6.5l-0.2,0.3c-0.2,0.4-0.5,0.8-0.7,1.3c-3.1,6-4.1,15.1,2.3,22.4c1.7,2,3.9,3.6,6,4.6c0,0,0,0,0,0
		c3,1.6,7.4,2.3,10.5,2.3c0.5,0,1,0,1.4,0c11.8-0.9,13.5-7.6,13.7-10.5C232.5,1110.9,231.9,1108.7,230.6,1107.4z M210.4,1122
		c-0.9-0.2-1.9-0.5-2.8-0.9c-0.6-0.3-1.2-0.6-1.8-1c-0.2-0.1-0.4-0.3-0.6-0.4c-1.2-0.8-2.3-1.8-3.3-2.9c-5.9-6.7-5-15.1-2.1-20.7
		c0.2-0.4,0.4-0.8,0.7-1.2l0.2-0.3c1.1-1.7,2.8-4.2,5.1-6.1c3.4-3,6.8-4.5,10-4.5l0.3,0c2.1,0,5,0,6.8,3.1c0.4,0.7,1,1.1,1.6,1.3
		l6,1.4l-1.5,2.4c-0.2,0.3-0.6,0.5-1,0.6c-0.5,0.1-7.6,0.9-9.6,1.2c0.1-0.4,0.2-0.8,0.3-1.3c0-0.3-0.2-0.5-0.4-0.5
		c-0.2,0-0.4,0.1-0.5,0.3c0,0,0,0.1,0,0.1c0,0.6-0.2,1.1-0.4,1.5c-0.2,0.3-0.4,0.6-0.6,0.9c-0.7,0.8-1.8,1.3-3.1,1.4
		c0,0-0.1,0-0.1,0c-0.3,0-0.6,0-0.9,0c-0.3,0-0.6-0.1-0.9-0.2c0,0-0.1,0-0.1,0c-0.8-0.3-1.5-0.9-2-1.7c-0.8-1.2-0.4-3.6,0.7-4.8
		c0,0,0.1-0.1,0.1-0.1c0.1-0.2,0-0.4-0.1-0.5c-0.2-0.2-0.5-0.2-0.7,0c-1.4,1.5-1.8,4.3-0.8,5.9c0.4,0.6,0.9,1.2,1.5,1.6
		c0.2,0.1,0.4,0.2,0.6,0.3c-0.5,0.5-0.9,1-1.3,1.6c-0.9,1.3-1.6,2.8-1.9,4c-0.5,2.4-0.1,4.2,1.1,5.6c0.1,0.1,0.1,0.1,0.2,0.2
		c-1.3-0.2-2-0.3-2-0.3c0,0,0,0,0,0c-0.3,0-0.5,0.2-0.5,0.5c0,0.3,0.2,0.5,0.5,0.5c0,0,1.6,0,4.1,0.8c0,0,0,0,0,0
		c0.1,0,0.3,0.1,0.4,0.1c0,0,0,0,0,0c0.2,0.1,0.4,0.1,0.5,0.2c1.9,0.6,3.1,1.7,3.9,3c1,1.6,1.2,3.5,0.8,4.8
		C215.3,1122.7,210.9,1122.1,210.4,1122z"/>
</g>
<g>
	<path class="st0" d="M261,1083.2c-11.3,0-20.5,9.2-20.5,20.4s9.2,20.4,20.5,20.4c11.3,0,20.5-9.2,20.5-20.4
		S272.3,1083.2,261,1083.2z M279.7,1103.6c0,10.3-8.4,18.8-18.7,18.8c-10.3,0-18.7-8.4-18.7-18.8s8.4-18.8,18.7-18.8
		C271.3,1084.8,279.7,1093.2,279.7,1103.6z"/>
	<path class="st0" d="M307.7,1083.2c-11.3,0-20.5,9.2-20.5,20.4s9.2,20.4,20.5,20.4s20.5-9.2,20.5-20.4S319,1083.2,307.7,1083.2z
		 M326.4,1103.6c0,10.3-8.4,18.8-18.7,18.8s-18.7-8.4-18.7-18.8s8.4-18.8,18.7-18.8S326.4,1093.2,326.4,1103.6z"/>
	<path class="st0" d="M362.8,1089.6c-3.6-3.7-8.5-5.8-13.7-5.8h-11.9v39.6h11.9c10.8,0,19.3-8.7,19.3-19.8
		C368.4,1098.3,366.4,1093.3,362.8,1089.6z M366.6,1103.6c0,10.2-7.7,18.2-17.5,18.2H339v-36.3h10.1
		C358.8,1085.4,366.6,1093.6,366.6,1103.6z"/>
</g>
<g>
	<g>
		<path class="st0" d="M249.5,1037.3c7.1,1.2,10.9,5.5,10.9,10.7c0,6-5.2,9.5-12.1,9.5h-15.3v-39.9h13.3c6.3,0,12,3,12,9.6
			C258.3,1031.8,255.4,1035.8,249.5,1037.3z M234.4,1019v17.8h9.6c8.9,0,12.9-4.5,12.9-9.6c0-5.7-5-8.3-10.5-8.3H234.4z
			 M234.4,1038.1v18.1h13.9c6.2,0,10.7-3,10.7-8.3c0-5.4-4.8-9.9-13.6-9.9H234.4z"/>
		<path class="st0" d="M248.3,1057.7h-15.5v-40.3h13.5c5.6,0,12.2,2.6,12.2,9.8c0,4.9-3,8.5-8.2,10.1c6.4,1.3,10.3,5.4,10.3,10.7
			C260.6,1053.9,255.7,1057.7,248.3,1057.7z M233.1,1057.4h15.2c7.3,0,12-3.7,12-9.3c0-5.4-4.1-9.4-10.8-10.5l-0.8-0.1l0.8-0.2
			c5.5-1.4,8.7-5,8.7-9.9c0-6.9-6.4-9.4-11.9-9.4h-13.2V1057.4z M248.3,1056.4h-14.1v-18.5h11.2c8.2,0,13.7,4,13.7,10
			C259.1,1053.1,254.8,1056.4,248.3,1056.4z M234.5,1056.1h13.7c6.4,0,10.5-3.2,10.5-8.1c0-5.8-5.4-9.7-13.4-9.7h-10.8V1056.1z
			 M243.9,1037h-9.8v-18.2h12.1c4.9,0,10.7,2.2,10.7,8.4C257,1031.9,253.6,1037,243.9,1037z M234.5,1036.6h9.4
			c9.4,0,12.7-4.9,12.7-9.4c0-3.9-2.7-8.1-10.4-8.1h-11.7V1036.6z"/>
	</g>
	<g>
		<path class="st0" d="M263.9,1057.5l16.5-39.9h2.1l16.5,39.9h-1.7l-3.8-9.3h-24.2l-3.8,9.3H263.9z M269.9,1046.9H293l-11.5-28
			L269.9,1046.9z"/>
		<path class="st0" d="M299.3,1057.7h-2l-3.8-9.3h-24l-3.8,9.3h-2l16.7-40.3h2.3l0,0.1L299.3,1057.7z M297.5,1057.4h1.3l-16.4-39.6
			h-1.8l-16.4,39.6h1.2l3.8-9.3h24.5L297.5,1057.4z M293.3,1047.1h-23.7l11.9-28.6l0.2,0.4L293.3,1047.1z M270.1,1046.8h22.6
			l-11.3-27.4L270.1,1046.8z"/>
	</g>
</g>
<g>
	<path class="st0" d="M279,1074.4c0,1.2,0.6,1.5,1.2,1.5c0.6,0,1.2-0.4,1.2-1c0-0.1,0-0.4-0.1-0.6h1.1c0.1,0.3,0.1,0.7,0.1,0.7
		c0,1.1-0.8,2-2.3,2c-1.2,0-2.4-0.6-2.4-2.7v-4.6h-1.4v-1h1.4l0.3-2.4h0.9v2.4h2.6v1H279V1074.4z"/>
	<path class="st0" d="M287.6,1068.6c2.3,0,4.2,1.9,4.2,4.2c0,2.3-1.9,4.2-4.2,4.2s-4.2-1.9-4.2-4.2
		C283.4,1070.5,285.3,1068.6,287.6,1068.6z M287.6,1075.9c1.7,0,3-1.4,3-3.1c0-1.7-1.4-3.1-3-3.1c-1.6,0-3,1.4-3,3.1
		C284.6,1074.5,286,1075.9,287.6,1075.9z"/>
</g>
<g>
	<path class="st0" d="M214.2,1142.8H213v-1.6c-0.7,1.2-1.9,1.8-3.2,1.8c-2.4,0-4-1.9-4-4.2c0-2.3,1.6-4.2,4-4.2
		c1.3,0,2.5,0.6,3.2,1.8v-5.2h1.2V1142.8z M209.9,1141.9c1.7,0,3.1-1.2,3.1-3.1c0-1.9-1.4-3.1-3.1-3.1c-1.8,0-2.9,1.4-2.9,3.1
		C207,1140.5,208.1,1141.9,209.9,1141.9z"/>
	<path class="st0" d="M220.4,1134.6c2.3,0,4.2,1.9,4.2,4.2c0,2.3-1.9,4.2-4.2,4.2c-2.3,0-4.2-1.9-4.2-4.2
		C216.2,1136.5,218.1,1134.6,220.4,1134.6z M220.4,1141.9c1.7,0,3-1.4,3-3.1c0-1.7-1.4-3.1-3-3.1c-1.6,0-3,1.4-3,3.1
		C217.4,1140.5,218.8,1141.9,220.4,1141.9z"/>
	<path class="st0" d="M234.5,1142.7c0,2.6-1.9,3.9-4.2,3.9c-1.6,0-2.6-0.5-3.4-1.1l0.5-1c0.9,0.7,1.9,1,2.9,1c1.8,0,3-1.1,3-2.9
		v-1.4c-0.7,1.2-1.9,1.8-3.2,1.8c-2.4,0-4-1.9-4-4.2c0-2.3,1.6-4.2,4-4.2c1.3,0,2.5,0.6,3.2,1.8v-1.6h1.2V1142.7z M230.2,1141.9
		c1.7,0,3.1-1.2,3.1-3.1c0-1.9-1.4-3.1-3.1-3.1c-1.8,0-2.9,1.4-2.9,3.1C227.3,1140.5,228.3,1141.9,230.2,1141.9z"/>
	<path class="st0" d="M243,1140.4c0,1.2,0.6,1.5,1.2,1.5c0.6,0,1.2-0.4,1.2-1c0-0.1,0-0.4-0.1-0.6h1.1c0.1,0.3,0.1,0.7,0.1,0.7
		c0,1.1-0.8,2-2.3,2c-1.2,0-2.4-0.6-2.4-2.7v-4.6h-1.4v-1h1.4l0.3-2.4h0.9v2.4h2.6v1H243V1140.4z"/>
	<path class="st0" d="M249.2,1136.7c0.3-1.3,1.2-2.1,2.4-2.1c0.2,0,0.5,0,0.7,0.1v1.2c-0.2-0.1-0.5-0.2-0.7-0.2
		c-1.1,0-2.3,0.9-2.3,4v3.1H248v-8h1.2V1136.7z"/>
	<path class="st0" d="M261.3,1142.8h-1.2v-1.6c-0.7,1.2-1.9,1.8-3.2,1.8c-2.4,0-4-1.9-4-4.2c0-2.3,1.6-4.2,4-4.2
		c1.3,0,2.5,0.6,3.2,1.8v-1.6h1.2V1142.8z M257,1141.9c1.7,0,3.1-1.2,3.1-3.1c0-1.9-1.4-3.1-3.1-3.1c-1.8,0-2.9,1.4-2.9,3.1
		C254.1,1140.5,255.2,1141.9,257,1141.9z"/>
	<path class="st0" d="M264.6,1131.1c0.5,0,0.9,0.4,0.9,0.9c0,0.5-0.4,0.9-0.9,0.9c-0.5,0-0.9-0.4-0.9-0.9
		C263.7,1131.5,264.1,1131.1,264.6,1131.1z M265.2,1142.8H264v-8h1.2V1142.8z"/>
	<path class="st0" d="M273.9,1138.2c0-2-1-2.6-2.1-2.6c-0.9,0-2.7,0.6-2.7,3.2v3.9h-1.2v-8h1.2v1.7c0.4-1.3,1.6-1.9,2.8-1.9
		c1.7,0,3.2,1,3.2,3.7v4.6h-1.2V1138.2z"/>
	<path class="st0" d="M278.3,1131.1c0.5,0,0.9,0.4,0.9,0.9c0,0.5-0.4,0.9-0.9,0.9c-0.5,0-0.9-0.4-0.9-0.9
		C277.4,1131.5,277.8,1131.1,278.3,1131.1z M278.9,1142.8h-1.2v-8h1.2V1142.8z"/>
	<path class="st0" d="M287.6,1138.2c0-2-1-2.6-2.1-2.6c-0.9,0-2.7,0.6-2.7,3.2v3.9h-1.2v-8h1.2v1.7c0.4-1.3,1.6-1.9,2.8-1.9
		c1.7,0,3.2,1,3.2,3.7v4.6h-1.2V1138.2z"/>
	<path class="st0" d="M299.1,1142.7c0,2.6-1.9,3.9-4.2,3.9c-1.6,0-2.6-0.5-3.4-1.1l0.5-1c0.9,0.7,1.9,1,2.9,1c1.8,0,3-1.1,3-2.9
		v-1.4c-0.7,1.2-1.9,1.8-3.2,1.8c-2.4,0-4-1.9-4-4.2c0-2.3,1.6-4.2,4-4.2c1.3,0,2.5,0.6,3.2,1.8v-1.6h1.2V1142.7z M294.8,1141.9
		c1.7,0,3.1-1.2,3.1-3.1c0-1.9-1.4-3.1-3.1-3.1c-1.8,0-2.9,1.4-2.9,3.1C291.9,1140.5,293,1141.9,294.8,1141.9z"/>
	<path class="st0" d="M309.7,1136.6c-0.2-0.7-0.7-0.9-1.3-0.9c-0.9,0-1.5,0.6-1.5,1.2c0,0.7,0.6,1,1.1,1.2l1.2,0.4
		c1.4,0.5,1.9,1.3,1.9,2.2c0,1.5-1.3,2.3-2.8,2.3c-1.4,0-2.6-0.7-3-1.9l1.1-0.3c0.2,0.7,1,1.1,1.9,1.1c0.9,0,1.6-0.5,1.6-1.3
		c0-0.6-0.5-1-1.1-1.2l-1.1-0.4c-1.1-0.4-2-1-2-2.1c0-1.3,1-2.4,2.6-2.4c1.1,0,2.1,0.5,2.5,1.7L309.7,1136.6z"/>
	<path class="st0" d="M320.4,1141.6c-1,1.1-2.3,1.4-3.4,1.4c-2.8,0-4.5-1.9-4.5-4.2c0-2.3,1.8-4.2,4.3-4.2c2.1,0,4,1.3,4,4.2h-7.2
		c0,0,0,0.1,0,0.1c0,1.7,1.3,3,3.3,3c1,0,1.9-0.3,2.7-1.1L320.4,1141.6z M313.8,1137.8h5.8c-0.4-1.7-1.6-2.2-2.7-2.2
		C315.5,1135.6,314.2,1136.3,313.8,1137.8z"/>
	<path class="st0" d="M323.9,1136.7c0.3-1.3,1.2-2.1,2.4-2.1c0.2,0,0.5,0,0.7,0.1v1.2c-0.2-0.1-0.5-0.2-0.7-0.2
		c-1.1,0-2.3,0.9-2.3,4v3.1h-1.2v-8h1.2V1136.7z"/>
	<path class="st0" d="M332,1142.8h-1.4l-3.2-8h1.3l2.6,6.8l2.6-6.8h1.3L332,1142.8z"/>
	<path class="st0" d="M337.6,1131.1c0.5,0,0.9,0.4,0.9,0.9c0,0.5-0.4,0.9-0.9,0.9s-0.9-0.4-0.9-0.9
		C336.7,1131.5,337.1,1131.1,337.6,1131.1z M338.2,1142.8H337v-8h1.2V1142.8z"/>
	<path class="st0" d="M344.8,1134.6c0.7,0,1.8,0.2,2.8,1l-0.6,0.8c-0.9-0.7-1.9-0.7-2.2-0.7c-2,0-3.3,1.3-3.4,3.1
		c0,1.8,1.4,3.1,3.4,3.1c0.3,0,1.3,0,2.2-0.7l0.6,0.8c-1.1,0.8-2.2,1-2.8,1c-2.5,0-4.5-1.5-4.5-4.2
		C340.3,1136.1,342.3,1134.6,344.8,1134.6z"/>
	<path class="st0" d="M356.6,1141.6c-1,1.1-2.3,1.4-3.4,1.4c-2.8,0-4.5-1.9-4.5-4.2c0-2.3,1.8-4.2,4.3-4.2c2.1,0,4,1.3,4,4.2h-7.2
		c0,0,0,0.1,0,0.1c0,1.7,1.3,3,3.3,3c1,0,1.9-0.3,2.7-1.1L356.6,1141.6z M350,1137.8h5.8c-0.4-1.7-1.6-2.2-2.7-2.2
		C351.7,1135.6,350.5,1136.3,350,1137.8z"/>
	<path class="st0" d="M362.5,1136.6c-0.2-0.7-0.7-0.9-1.3-0.9c-0.9,0-1.5,0.6-1.5,1.2c0,0.7,0.6,1,1.1,1.2l1.2,0.4
		c1.4,0.5,1.9,1.3,1.9,2.2c0,1.5-1.3,2.3-2.8,2.3c-1.4,0-2.6-0.7-3-1.9l1.1-0.3c0.2,0.7,1,1.1,1.9,1.1c0.9,0,1.6-0.5,1.6-1.3
		c0-0.6-0.5-1-1.1-1.2l-1.1-0.4c-1.1-0.4-2-1-2-2.1c0-1.3,1-2.4,2.6-2.4c1.1,0,2.1,0.5,2.5,1.7L362.5,1136.6z"/>
</g>
<g>
	<path class="st0" d="M318.1,1268.3"/>
</g>
<g>
	<path class="st0" d="M320.3,1237.5c-3.6-3.7-8.5-5.6-14-5.6c-5.5,0.1-13,0.9-13.5,7.5c0,0.3,0,0.6,0,0.9c0,0,0,0,0-0.1v15h0
		c0,0.8,1.2,1.3,2.7,1.3c1.5,0,2.7-0.5,2.7-1.3c0-0.9-1.2-1.5-2.7-1.5c-0.1,0-0.2,0-0.3,0c0.2-2.2,1-6,4.3-8v5.9
		c0,0.8,1.2,1.3,2.7,1.3c1.5,0,2.7-0.5,2.7-1.3c0-0.8-1.2-1.5-2.7-1.5c-0.1,0-0.2,0-0.3,0c0.1-1.5,0.5-3.8,1.8-5.7
		c0.2,0,0.4-0.1,0.7-0.1c3.4-0.3,7.1,1.4,8.6,3.9c1.5,2.6,1.5,6.3-0.1,8.3c0,0-0.1,0-0.1,0c-0.7,0-2,0.2-3.3,1.8l0,0
		c-0.1,0.1-0.4,0.1-0.7,0.2c-0.4,0.1-1,0.2-1.8,0.5c-1.4,0.5-4.4,1.5-5.4,4.3c-0.1,0.4-0.3,0.6-0.5,0.7l-3.4,1.5l0,0
		c-0.1,0-0.4,0.2-0.4,0.2l-2.2,1c-0.5,0.2-0.8,0.6-0.9,1.1c-0.1,0.5,0.1,1,0.4,1.3l2.3,2.4l0,0c0.6,0.6,1.4,0.9,2.3,0.9
		c0.1,0,0.1,0,0.2,0c0.1,0,0.2,0,0.3,0l8.4-0.1c0.6,0,1.1,0,1.7,0c0.3,0,0.6-0.1,1-0.1c0.8,0.5,1.8,0.8,2.8,0.8c0,0,0.1,0,0.1,0
		c1.3,0,2.6-0.7,3.6-1.8c0.4-0.5,0.8-1,1.1-1.6c0.5-0.4,1.1-0.9,2-1.8c0.8-0.8,1.5-1.6,2.1-2.5c0.3,1.5,0.1,3.1-0.1,4.2
		c-0.3,0-0.7,0-1.1,0.1c-1.6,0.4-2.7,1.5-2.1,2.4c0.5,0.8,2.2,0.8,3.5,0.2c0.8-0.4,1.3-1,1.4-1.6h0c0.7-4.1,1.7-9.6,2.1-14.2
		c0,0,0,0,0,0c0.2-0.9,0.2-1.8,0.3-2.7C326.5,1247.5,324.3,1241.6,320.3,1237.5z M321.7,1263.7c-0.7,1.1-1.6,2.2-2.5,3.1
		c-0.2,0.2-0.3,0.3-0.5,0.5c-0.2-1.7-1.1-3.2-2.5-4.1c-0.2-0.1-0.5-0.1-0.6,0.2c-0.1,0.2-0.1,0.5,0.2,0.6c0.4,0.2,0.7,0.5,1,0.8
		c0.3,0.4,0.6,0.8,0.8,1.3c0,0,0,0,0,0c0.2,0.4,0.3,0.8,0.3,1.3v0c0,0,0,0,0,0c0,0,0,0,0,0c0,0.2,0,0.4,0,0.6
		c-0.1,0.4-0.2,0.9-0.4,1.3c-0.2,0.4-0.5,0.9-0.9,1.3c-0.2,0.2-0.3,0.3-0.5,0.5c-0.8,0.7-1.7,1-2.5,1c-0.4,0-0.8-0.1-1.2-0.2
		c-0.4-0.1-0.8-0.3-1.2-0.5c-0.3-0.2-0.6-0.4-0.8-0.7c-0.7-0.7-1.1-1.6-1.2-2.6v0c0-0.3-0.2-0.4-0.5-0.4c-0.3,0-0.5,0.2-0.4,0.5
		c0.1,1,0.4,1.9,1,2.7c-0.4,0-0.7,0-1.1,0h0l-8.5,0.1l-0.1,0c-0.1,0-0.2,0-0.3,0c-0.5,0-0.9-0.2-1.3-0.5l-2.2-2.3l2.1-0.9
		c0,0,0.1,0,0.2-0.1c0.1,0,0.2-0.1,0.2-0.1l3.4-1.5c0.6-0.3,1.1-0.8,1.3-1.6c0.7-2.1,3.1-2.9,4.4-3.4c0.7-0.2,1.2-0.3,1.6-0.4
		c0.2,0,0.3-0.1,0.4-0.1c1.1,0,1.9,0.3,2.7,0.9c0.2,0.1,0.5,0.1,0.7-0.1c0.1-0.2,0.1-0.5-0.1-0.6c-0.7-0.4-1.3-0.8-2-0.9
		c0.8-1,1.6-1,2.2-1.1c0.4,0,0.8-0.1,1.1-0.4c2.1-2.5,2.2-7,0.3-10.3c-1.6-2.8-5.4-4.7-9.1-4.7c-0.3,0-0.7,0-1,0
		c-0.8,0.1-1.7,0.2-2.5,0.4c-0.8,0.2-1.5,0.3-2.2,0.4c-0.8,0.1-1.6,0.1-2.3-0.1c-2.6-0.6-2.8-2.7-2.7-3.9c0.3-4.1,4-6,11.9-6.1
		c5.1,0,9.5,1.7,12.9,5.1c3.7,3.8,5.8,9.3,5.6,15.1c0,1.5-0.3,3.1-0.7,4.6C323.5,1260.2,322.7,1262.1,321.7,1263.7z"/>
</g>
<g>
	<path class="st0" d="M287.2,1256.4c-1.5-1.5-3.7-1.6-5.9-1.5c-0.4,0-0.8,0.4-0.7,0.8c0,0.2,0.1,0.3,0.1,0.4
		c0.1,0.2,0.4,0.3,0.7,0.3c2.5-0.1,3.9,0.2,4.8,1c0.9,0.9,1.3,2.7,1.2,5.6c-0.3,5.1-4.8,8.4-12.3,9c-1.1,0.1-2.6,0-4.1-0.1
		c1.7-0.8,3.1-2.3,3.8-4.8c0.5-1.7,0.3-4.1-1.1-6.1c-0.9-1.5-2.4-2.8-4.7-3.6c-3-1-4-2.7-3.4-5.9c0.1-0.6,0.4-1.3,0.7-2
		c0.3,2.2,1.2,4.6,1.2,5.4c0,0.1,0,0.2,0,0.3c0,0.8,1.2,1.3,2.6,1.3c1.5,0,2.6-0.5,2.6-1.3c0-0.8-1.2-1.5-2.6-1.5
		c-0.2,0-0.3,0-0.5,0c-0.2-1.9-0.8-5.1,0.1-7.5h0c0.1,0,0.2,0,0.3,0c1.6-0.1,2.9-0.7,3.8-1.6c0.2,0,0.5-0.1,0.7-0.1
		c0.1,0,10.1-1.2,10.3-1.3c0.8-0.2,1.5-0.6,2-1.3l1.6-2.5c0.2-0.4,0.3-0.9,0.1-1.3c-0.2-0.5-0.6-0.8-1.1-0.9l-6.1-1.5
		c-0.3-0.1-0.5-0.4-0.6-0.5c-2.2-3.9-5.9-3.9-8.1-3.8l-0.3,0c-1.8,0-3.6,0.4-5.5,1.2s-3.7,2-5.6,3.6c-2.4,2.1-4.3,4.7-5.4,6.5
		l-0.2,0.3c-0.2,0.4-0.5,0.8-0.7,1.3c-3.1,6-4.1,15.1,2.3,22.4c1.7,2,3.9,3.6,6,4.6c0,0,0,0,0,0c3,1.6,7.4,2.3,10.5,2.3
		c0.5,0,1,0,1.4,0c11.8-0.9,13.5-7.6,13.7-10.5C289,1259.8,288.5,1257.7,287.2,1256.4z M267,1271c-0.9-0.2-1.9-0.5-2.8-0.9
		c-0.6-0.3-1.2-0.6-1.8-1c-0.2-0.1-0.4-0.3-0.6-0.4c-1.2-0.8-2.3-1.8-3.3-2.9c-5.9-6.7-5-15.1-2.1-20.7c0.2-0.4,0.4-0.8,0.7-1.2
		l0.2-0.3c1.1-1.7,2.8-4.2,5.1-6.1c3.4-3,6.8-4.5,10-4.5l0.3,0c2.1,0,5,0,6.8,3.1c0.4,0.7,1,1.1,1.6,1.3l6,1.4l-1.5,2.4
		c-0.2,0.3-0.6,0.5-1,0.6c-0.5,0.1-7.6,0.9-9.6,1.2c0.1-0.4,0.2-0.8,0.3-1.3c0-0.3-0.2-0.5-0.4-0.5c-0.2,0-0.4,0.1-0.5,0.3
		c0,0,0,0.1,0,0.1c0,0.6-0.2,1.1-0.4,1.5c-0.2,0.3-0.4,0.6-0.6,0.9c-0.7,0.8-1.8,1.3-3.1,1.4c0,0-0.1,0-0.1,0c-0.3,0-0.6,0-0.9,0
		c-0.3,0-0.6-0.1-0.9-0.2c0,0-0.1,0-0.1,0c-0.8-0.3-1.5-0.9-2-1.7c-0.8-1.2-0.4-3.6,0.7-4.8c0,0,0.1-0.1,0.1-0.1
		c0.1-0.2,0-0.4-0.1-0.5c-0.2-0.2-0.5-0.2-0.7,0c-1.4,1.5-1.8,4.3-0.8,5.9c0.4,0.6,0.9,1.2,1.5,1.6c0.2,0.1,0.4,0.2,0.6,0.3
		c-0.5,0.5-0.9,1-1.3,1.6c-0.9,1.3-1.6,2.8-1.9,4c-0.5,2.4-0.1,4.2,1.1,5.6c0.1,0.1,0.1,0.1,0.2,0.2c-1.3-0.2-2-0.3-2-0.3
		c0,0,0,0,0,0c-0.3,0-0.5,0.2-0.5,0.5c0,0.3,0.2,0.5,0.5,0.5c0,0,1.6,0,4.1,0.8c0,0,0,0,0,0c0.1,0,0.3,0.1,0.4,0.1c0,0,0,0,0,0
		c0.2,0.1,0.4,0.1,0.5,0.2c1.9,0.6,3.1,1.7,3.9,3c1,1.6,1.2,3.5,0.8,4.8C271.9,1271.7,267.5,1271.1,267,1271z"/>
</g>
</svg>
