<?xml version="1.0" encoding="utf-8"?>
<!-- Generator: Adobe Illustrator 22.1.0, SVG Export Plug-In . SVG Version: 6.00 Build 0)  -->
<svg version="1.1" id="Layer_1" xmlns="http://www.w3.org/2000/svg" xmlns:xlink="http://www.w3.org/1999/xlink" x="0px" y="0px"
	 viewBox="0 0 576 576" style="enable-background:new 0 0 576 576;" xml:space="preserve">
<style type="text/css">
	.st0{fill:#F1F1FF;}
	.st1{fill:#3475FF;}
	.st2{fill:#FFFFFF;stroke:#000000;stroke-width:0.9339;stroke-linecap:round;stroke-miterlimit:10;}
</style>
<rect y="-1" class="st0" width="576" height="577"/>
<g>
	<path class="st1" d="M212.3,292.1"/>
</g>
<g>
	<path class="st1" d="M215.4,247.8c-5.2-5.3-12.2-8.1-20.2-8c-8,0.1-18.7,1.3-19.4,10.9c0,0.4,0,0.9,0,1.3c0,0,0-0.1,0-0.1v21.7h0
		c0.1,1.2,1.8,1.8,3.9,1.8c2.1,0,3.9-0.7,3.9-1.9c0-1.2-1.7-2.2-3.9-2.2c-0.2,0-0.3,0-0.5,0c0.3-3.1,1.4-8.7,6.2-11.5v8.5
		c0,1.2,1.7,1.9,3.9,1.9c2.1,0,3.9-0.7,3.9-1.9s-1.7-2.2-3.9-2.2c-0.2,0-0.3,0-0.5,0c0.2-2.1,0.8-5.4,2.7-8.2c0.3,0,0.6-0.1,1-0.1
		c5-0.4,10.3,2,12.4,5.6c2.2,3.8,2.2,9-0.1,12c-0.1,0-0.1,0-0.2,0c-1,0.1-2.9,0.2-4.8,2.5l0,0.1c-0.1,0.1-0.6,0.2-1,0.3
		c-0.6,0.1-1.5,0.3-2.6,0.7c-2.1,0.7-6.4,2.2-7.7,6.3c-0.2,0.5-0.4,0.8-0.7,1l-5,2.2l0,0c-0.1,0.1-0.5,0.2-0.5,0.2l-3.1,1.4
		c-0.7,0.3-1.1,0.9-1.3,1.6c-0.1,0.7,0.1,1.4,0.6,1.9l3.3,3.4l0,0c0.9,0.8,2.1,1.3,3.3,1.4c0.1,0,0.2,0,0.3,0c0.1,0,0.3,0,0.4,0
		l12.1-0.2c0.8,0,1.6,0,2.4,0c0.5,0,0.9-0.1,1.4-0.1c1.2,0.7,2.5,1.1,4,1.2c0.1,0,0.1,0,0.2,0c1.8,0,3.7-1,5.2-2.6
		c0.6-0.7,1.2-1.5,1.6-2.3c0.8-0.6,1.6-1.4,2.9-2.6c1.1-1.1,2.2-2.3,3.1-3.6c0.4,2.1,0.1,4.4-0.2,6c-0.5,0-1,0-1.5,0.2
		c-2.3,0.6-3.9,2.2-3.1,3.5c0.8,1.2,3.2,1.2,5.1,0.3c1.2-0.6,1.9-1.5,2-2.2h0c1.1-5.9,2.5-13.8,3-20.5c0,0,0,0,0,0
		c0.2-1.3,0.4-2.6,0.4-4C224.4,262.2,221.2,253.6,215.4,247.8z M217.5,285.5c-1,1.7-2.3,3.2-3.6,4.5c-0.3,0.2-0.5,0.5-0.7,0.7
		c-0.2-2.4-1.6-4.6-3.6-5.9c-0.3-0.2-0.7-0.1-0.9,0.2c-0.2,0.3-0.1,0.7,0.2,0.9c0.5,0.3,1,0.7,1.4,1.2c0.5,0.6,0.9,1.2,1.1,1.9
		c0,0,0,0,0,0c0.2,0.6,0.4,1.2,0.4,1.9v0c0,0,0,0,0,0c0,0,0,0,0,0c0,0.3,0,0.6,0,0.9c-0.1,0.6-0.3,1.2-0.6,1.9
		c-0.3,0.6-0.8,1.3-1.3,1.8c-0.2,0.3-0.5,0.5-0.7,0.7c-1.1,1-2.4,1.5-3.6,1.5c-0.6,0-1.2-0.1-1.7-0.3c-0.6-0.2-1.2-0.4-1.7-0.8
		c-0.4-0.3-0.8-0.6-1.2-1c-1-1-1.6-2.3-1.7-3.8v0c0-0.4-0.4-0.6-0.7-0.6c-0.4,0-0.7,0.4-0.6,0.7c0.1,1.4,0.6,2.8,1.4,3.9
		c-0.5,0-1,0-1.5,0h0l-12.2,0.2l-0.1,0c-0.1,0-0.3,0-0.4,0c-0.7,0-1.4-0.3-1.9-0.8l-3.2-3.3l3.1-1.4c0,0,0.1,0,0.2-0.1
		c0.1-0.1,0.3-0.1,0.4-0.2l5-2.2c0.9-0.4,1.5-1.2,1.9-2.3c1-3,4.5-4.2,6.3-4.8c1-0.3,1.7-0.5,2.3-0.6c0.2,0,0.4-0.1,0.6-0.1
		c1.6,0,2.8,0.5,3.9,1.3c0.3,0.2,0.7,0.1,0.9-0.2c0.2-0.3,0.1-0.7-0.2-0.9c-0.9-0.6-1.9-1.1-2.8-1.3c1.2-1.4,2.3-1.5,3.1-1.6
		c0.5,0,1.1-0.1,1.5-0.6c3-3.6,3.2-10.1,0.5-14.8c-2.4-4.1-7.7-6.8-13.1-6.8c-0.5,0-0.9,0-1.4,0.1c-1.2,0.1-2.4,0.4-3.6,0.6
		c-1.1,0.2-2.1,0.4-3.2,0.5c-1.1,0.1-2.3,0.1-3.4-0.2c-3.7-0.9-4.1-3.9-3.9-5.7c0.4-6,5.7-8.7,17.2-8.8c7.3-0.1,13.7,2.5,18.5,7.3
		c5.3,5.4,8.3,13.4,8.1,21.8c0,2.2-0.4,4.4-1,6.6C220.1,280.5,219,283.2,217.5,285.5z"/>
</g>
<path class="st1" d="M316.3,275c-2.1-2.1-5.4-2.2-8.5-2.1c-0.6,0-1.1,0.6-1.1,1.2c0,0.2,0.1,0.4,0.2,0.6c0.2,0.3,0.6,0.5,1,0.5
	c3.6-0.2,5.6,0.2,6.9,1.4c1.4,1.4,1.9,3.9,1.8,8c-0.5,7.4-6.9,12.2-17.7,13c-1.6,0.1-3.7,0.1-5.9-0.2c2.4-1.1,4.5-3.4,5.5-6.9
	c0.7-2.4,0.4-5.9-1.5-8.9c-1.4-2.2-3.5-4.1-6.7-5.1c-4.4-1.5-5.8-3.9-4.9-8.5c0.2-0.9,0.6-1.9,1.1-2.8c0.5,3.2,1.8,6.6,1.7,7.8
	c0,0.1-0.1,0.2-0.1,0.4c0,1.2,1.7,1.9,3.8,1.9c2.1,0,3.8-0.7,3.8-1.9c0-1.2-1.7-2.2-3.8-2.2c-0.3,0-0.5,0-0.7,0
	c-0.3-2.7-1.1-7.4,0.1-10.9h0c0.1,0,0.3,0,0.4,0c2.3-0.1,4.2-1,5.5-2.4c0.3-0.1,0.7-0.1,0.9-0.1c0.1,0,14.6-1.8,14.9-1.8
	c1.1-0.3,2.2-0.9,2.8-1.8l2.3-3.7c0.4-0.6,0.4-1.2,0.1-1.9c-0.3-0.7-0.9-1.2-1.6-1.3l-8.8-2.1c-0.5-0.1-0.8-0.5-0.9-0.7
	c-3.2-5.6-8.5-5.6-11.7-5.5l-0.5,0c-2.6,0-5.2,0.6-7.9,1.8c-2.7,1.2-5.3,2.9-8,5.2c-3.5,3-6.2,6.8-7.8,9.4l-0.3,0.4
	c-0.3,0.6-0.7,1.2-1,1.8c-4.5,8.7-6,21.8,3.3,32.3c2.5,2.8,5.6,5.2,8.7,6.7c0,0,0,0,0,0c4.3,2.4,10.6,3.3,15.1,3.3
	c0.7,0,1.4,0,2-0.1c17.1-1.3,19.5-11,19.8-15.1C319,279.9,318.2,276.8,316.3,275z M287.1,296c-1.3-0.2-2.7-0.7-4.1-1.3
	c-0.9-0.4-1.7-0.9-2.6-1.4c-0.3-0.2-0.6-0.4-0.9-0.6c-1.7-1.2-3.3-2.6-4.7-4.2c-8.6-9.7-7.2-21.8-3-29.8c0.3-0.6,0.6-1.1,1-1.7
	l0.2-0.4c1.5-2.5,4-6,7.3-8.9c5-4.3,9.8-6.4,14.5-6.4l0.5,0c3.1,0,7.3,0,9.8,4.4c0.5,1,1.4,1.6,2.3,1.8l8.7,2.1l-2.1,3.4
	c-0.3,0.5-0.8,0.8-1.4,0.9c-0.7,0.1-10.9,1.4-13.9,1.7c0.2-0.6,0.3-1.2,0.4-1.9c0-0.4-0.2-0.7-0.6-0.7c-0.3,0-0.6,0.1-0.7,0.4
	c0,0.1,0,0.1-0.1,0.2c-0.1,0.8-0.3,1.5-0.6,2.2c-0.2,0.5-0.5,0.9-0.9,1.3c-1,1.1-2.6,1.8-4.5,1.9c-0.1,0-0.1,0-0.2,0
	c-0.5,0-0.9,0-1.4-0.1c-0.4-0.1-0.8-0.2-1.2-0.3c0,0-0.1,0-0.1,0c-1.2-0.5-2.2-1.3-2.9-2.5c-1.1-1.8-0.6-5.2,1-7
	c0.1-0.1,0.1-0.1,0.1-0.2c0.1-0.3,0-0.6-0.2-0.7c-0.3-0.3-0.7-0.2-1,0c-2,2.2-2.6,6.3-1.1,8.6c0.6,0.9,1.3,1.7,2.1,2.3
	c0.3,0.2,0.5,0.3,0.8,0.5c-0.7,0.7-1.3,1.5-1.9,2.3c-1.3,1.9-2.4,4-2.7,5.8c-0.7,3.4-0.2,6.1,1.6,8.1c0.1,0.1,0.2,0.2,0.3,0.3
	c-1.8-0.4-2.9-0.4-2.9-0.4c0,0,0,0,0,0c-0.4,0-0.7,0.3-0.7,0.7c0,0.4,0.3,0.7,0.7,0.7c0,0,2.3,0,6,1.2c0,0,0,0,0.1,0
	c0.2,0.1,0.4,0.1,0.6,0.2c0,0,0,0,0,0c0.3,0.1,0.5,0.2,0.8,0.3c2.7,0.9,4.5,2.5,5.6,4.3c1.5,2.4,1.7,5.1,1.2,7
	C294.3,297.1,287.9,296.1,287.1,296z"/>
<path class="st1" d="M360.1,240c-16.3,0-29.6,13.2-29.6,29.4s13.3,29.4,29.6,29.4c16.3,0,29.6-13.2,29.6-29.4S376.4,240,360.1,240z
	 M387.1,269.4c0,14.9-12.1,27.1-27,27.1c-14.9,0-27-12.1-27-27.1c0-14.9,12.1-27.1,27-27.1C375,242.4,387.1,254.5,387.1,269.4z"/>
<path class="st1" d="M427.5,240c-16.3,0-29.6,13.2-29.6,29.4s13.3,29.4,29.6,29.4s29.6-13.2,29.6-29.4S443.8,240,427.5,240z
	 M454.5,269.4c0,14.9-12.1,27.1-27,27.1s-27-12.1-27-27.1c0-14.9,12.1-27.1,27-27.1S454.5,254.5,454.5,269.4z"/>
<path class="st1" d="M506.9,249.3c-5.2-5.4-12.2-8.4-19.7-8.4h-17.1V298h17.1c15.6,0,27.8-12.5,27.8-28.5
	C515,261.8,512.1,254.6,506.9,249.3z M512.4,269.4c0,14.7-11.1,26.2-25.2,26.2h-14.6v-52.3h14.6C501.1,243.3,512.4,255,512.4,269.4z
	"/>
<g>
	<path class="st1" d="M99,269c7.6-2.2,11.9-7.5,11.9-14.5c0-10.4-9.5-14.1-17.6-14.1H73.8v58h22.4c10.8,0,17.8-5.5,17.8-14
		C113.9,276.8,108.3,270.9,99,269z M111.3,284.4c0,7.1-5.9,11.7-15.1,11.7H76.4v-25.6H92C103.5,270.4,111.3,276,111.3,284.4z
		 M76.4,268v-25.2h16.9c11,0,15,6,15,11.7c0,6.6-4.8,13.6-18.3,13.6H76.4z"/>
	<path class="st1" d="M145.8,240.6l-0.1-0.2h-3.3l-24,58h2.8l5.5-13.4h34.6l5.5,13.4h2.9L145.8,240.6z M160.3,282.7h-32.6l16.4-39.4
		L160.3,282.7z"/>
</g>
<path class="st1" d="M238.4,274.4c0,1.7,0.9,2.2,1.7,2.2c0.9,0,1.7-0.5,1.7-1.5c0-0.1,0-0.5-0.2-0.8h1.6c0.2,0.4,0.2,1,0.2,1
	c0,1.6-1.2,2.9-3.3,2.9c-1.7,0-3.4-0.8-3.4-3.9v-6.6h-2v-1.4h2l0.4-3.5h1.3v3.5h3.8v1.4h-3.8V274.4z"/>
<path class="st1" d="M250.8,266c3.4,0,6.1,2.7,6.1,6.1c0,3.4-2.7,6.1-6.1,6.1c-3.4,0-6.1-2.7-6.1-6.1
	C244.7,268.7,247.4,266,250.8,266z M250.8,276.6c2.4,0,4.4-2,4.4-4.5c0-2.5-2-4.5-4.4-4.5c-2.4,0-4.3,2-4.3,4.5
	C246.4,274.6,248.4,276.6,250.8,276.6z"/>
<path class="st1" d="M198.1,326.1h-1.7v-2.3c-1,1.7-2.7,2.6-4.6,2.6c-3.5,0-5.8-2.7-5.8-6.1c0-3.3,2.3-6.1,5.8-6.1
	c1.9,0,3.6,0.8,4.6,2.6v-7.5h1.7V326.1z M191.9,324.8c2.5,0,4.5-1.8,4.5-4.5c0-2.7-2-4.5-4.5-4.5c-2.6,0-4.2,2-4.2,4.5
	C187.7,322.8,189.2,324.8,191.9,324.8z"/>
<path class="st1" d="M207,314.3c3.4,0,6.1,2.7,6.1,6.1c0,3.4-2.7,6.1-6.1,6.1c-3.4,0-6.1-2.7-6.1-6.1
	C200.9,317,203.7,314.3,207,314.3z M207,324.8c2.4,0,4.4-2,4.4-4.5c0-2.5-2-4.5-4.4-4.5c-2.4,0-4.3,2-4.3,4.5
	C202.7,322.8,204.6,324.8,207,324.8z"/>
<path class="st1" d="M227.2,326c0,3.7-2.7,5.6-6,5.6c-2.3,0-3.7-0.7-4.9-1.6l0.7-1.4c1.3,1,2.7,1.4,4.2,1.4c2.5,0,4.3-1.5,4.3-4.2
	v-2c-1,1.7-2.7,2.6-4.6,2.6c-3.5,0-5.8-2.7-5.8-6.1c0-3.3,2.3-6.1,5.8-6.1c1.9,0,3.6,0.8,4.6,2.6v-2.3h1.7V326z M221,324.8
	c2.5,0,4.5-1.8,4.5-4.5c0-2.7-2-4.5-4.5-4.5c-2.6,0-4.2,2-4.2,4.5C216.8,322.8,218.4,324.8,221,324.8z"/>
<path class="st1" d="M239.6,322.6c0,1.7,0.9,2.2,1.7,2.2c0.9,0,1.7-0.5,1.7-1.5c0-0.1,0-0.5-0.2-0.8h1.6c0.2,0.4,0.2,1,0.2,1
	c0,1.6-1.2,2.9-3.3,2.9c-1.7,0-3.4-0.8-3.4-3.9v-6.6h-2v-1.4h2l0.4-3.5h1.3v3.5h3.8v1.4h-3.8V322.6z"/>
<path class="st1" d="M248.5,317.3c0.4-1.9,1.7-3.1,3.4-3.1c0.3,0,0.7,0.1,1,0.2v1.7c-0.3-0.2-0.7-0.2-1.1-0.2
	c-1.6,0-3.3,1.4-3.3,5.8v4.4h-1.7v-11.6h1.7V317.3z"/>
<path class="st1" d="M265.9,326.1h-1.7v-2.3c-1,1.7-2.7,2.6-4.6,2.6c-3.5,0-5.8-2.7-5.8-6.1c0-3.3,2.3-6.1,5.8-6.1
	c1.9,0,3.6,0.8,4.6,2.6v-2.3h1.7V326.1z M259.7,324.8c2.5,0,4.5-1.8,4.5-4.5c0-2.7-2-4.5-4.5-4.5c-2.6,0-4.2,2-4.2,4.5
	C255.5,322.8,257.1,324.8,259.7,324.8z"/>
<path class="st1" d="M270.6,309.3c0.7,0,1.3,0.6,1.3,1.3c0,0.7-0.6,1.3-1.3,1.3c-0.7,0-1.3-0.5-1.3-1.3
	C269.4,309.9,269.9,309.3,270.6,309.3z M271.5,326.1h-1.7v-11.6h1.7V326.1z"/>
<path class="st1" d="M284.1,319.5c0-2.8-1.5-3.7-3-3.7c-1.3,0-3.9,0.9-4,4.7v5.6h-1.7v-11.6h1.7v2.5c0.6-1.8,2.4-2.7,4.1-2.7
	c2.5,0,4.6,1.5,4.6,5.3v6.6h-1.7V319.5z"/>
<path class="st1" d="M290.4,309.3c0.7,0,1.3,0.6,1.3,1.3c0,0.7-0.6,1.3-1.3,1.3c-0.7,0-1.3-0.5-1.3-1.3
	C289.1,309.9,289.6,309.3,290.4,309.3z M291.3,326.1h-1.7v-11.6h1.7V326.1z"/>
<path class="st1" d="M303.8,319.5c0-2.8-1.5-3.7-3-3.7c-1.3,0-3.9,0.9-4,4.7v5.6h-1.7v-11.6h1.7v2.5c0.6-1.8,2.4-2.7,4.1-2.7
	c2.5,0,4.6,1.5,4.6,5.3v6.6h-1.7V319.5z"/>
<path class="st1" d="M320.4,326c0,3.7-2.7,5.6-6,5.6c-2.3,0-3.7-0.7-4.9-1.6l0.7-1.4c1.3,1,2.7,1.4,4.2,1.4c2.5,0,4.3-1.5,4.3-4.2
	v-2c-1,1.7-2.7,2.6-4.6,2.6c-3.5,0-5.8-2.7-5.8-6.1c0-3.3,2.3-6.1,5.8-6.1c1.9,0,3.6,0.8,4.6,2.6v-2.3h1.7V326z M314.2,324.8
	c2.5,0,4.5-1.8,4.5-4.5c0-2.7-2-4.5-4.5-4.5c-2.6,0-4.2,2-4.2,4.5C310,322.8,311.6,324.8,314.2,324.8z"/>
<path class="st1" d="M335.6,317.2c-0.3-1-1.1-1.4-1.9-1.4c-1.4,0-2.1,0.9-2.1,1.8c0,1,0.8,1.4,1.6,1.7l1.7,0.6
	c2.1,0.7,2.8,1.9,2.8,3.2c0,2.1-1.9,3.4-4.1,3.4c-2,0-3.8-1-4.3-2.8l1.5-0.4c0.3,1,1.4,1.6,2.8,1.6c1.3,0,2.3-0.7,2.3-1.8
	c0-0.9-0.7-1.4-1.7-1.7l-1.6-0.5c-1.7-0.5-2.8-1.5-2.8-3.1c0-1.8,1.4-3.4,3.8-3.4c1.5,0,3.1,0.7,3.5,2.5L335.6,317.2z"/>
<path class="st1" d="M351.1,324.4c-1.5,1.6-3.3,2-5,2c-4,0-6.5-2.7-6.5-6c0-3.4,2.6-6.1,6.2-6.1c3,0,5.8,1.9,5.8,6h-10.3
	c0,0.1,0,0.1,0,0.2c0,2.5,1.9,4.4,4.8,4.4c1.4,0,2.8-0.4,4-1.5L351.1,324.4z M341.6,319h8.3c-0.5-2.4-2.4-3.1-4-3.1
	C344.1,315.8,342.2,316.8,341.6,319z"/>
<path class="st1" d="M356.1,317.3c0.4-1.9,1.7-3.1,3.4-3.1c0.3,0,0.7,0.1,1,0.2v1.7c-0.3-0.2-0.7-0.2-1.1-0.2
	c-1.6,0-3.3,1.4-3.3,5.8v4.4h-1.7v-11.6h1.7V317.3z"/>
<path class="st1" d="M367.9,326.1h-2l-4.6-11.6h1.8l3.7,9.8l3.7-9.8h1.8L367.9,326.1z"/>
<path class="st1" d="M375.9,309.3c0.7,0,1.3,0.6,1.3,1.3c0,0.7-0.6,1.3-1.3,1.3c-0.7,0-1.3-0.5-1.3-1.3
	C374.6,309.9,375.2,309.3,375.9,309.3z M376.8,326.1H375v-11.6h1.7V326.1z"/>
<path class="st1" d="M386.3,314.3c1,0,2.6,0.3,4.1,1.4l-0.8,1.2c-1.3-1-2.7-1-3.2-1c-2.9,0-4.8,1.9-4.8,4.5c0,2.6,2,4.5,4.8,4.5
	c0.5,0,1.9-0.1,3.2-1l0.8,1.2c-1.5,1.1-3.1,1.4-4.1,1.4c-3.6,0-6.5-2.2-6.5-6.1C379.8,316.4,382.7,314.3,386.3,314.3z"/>
<path class="st1" d="M403.3,324.4c-1.5,1.6-3.3,2-5,2c-4,0-6.5-2.7-6.5-6c0-3.4,2.6-6.1,6.2-6.1c3,0,5.8,1.9,5.8,6h-10.3
	c0,0.1,0,0.1,0,0.2c0,2.5,1.9,4.4,4.8,4.4c1.4,0,2.8-0.4,4-1.5L403.3,324.4z M393.8,319h8.3c-0.5-2.4-2.4-3.1-4-3.1
	C396.3,315.8,394.5,316.8,393.8,319z"/>
<path class="st1" d="M411.8,317.2c-0.3-1-1.1-1.4-1.9-1.4c-1.4,0-2.1,0.9-2.1,1.8c0,1,0.8,1.4,1.6,1.7l1.7,0.6
	c2.1,0.7,2.8,1.9,2.8,3.2c0,2.1-1.9,3.4-4.1,3.4c-2,0-3.8-1-4.3-2.8l1.5-0.4c0.3,1,1.4,1.6,2.8,1.6c1.3,0,2.3-0.7,2.3-1.8
	c0-0.9-0.7-1.4-1.7-1.7l-1.6-0.5c-1.7-0.5-2.8-1.5-2.8-3.1c0-1.8,1.4-3.4,3.8-3.4c1.5,0,3.1,0.7,3.5,2.5L411.8,317.2z"/>
<g>
	<g>
		<path class="st2" d="M885.8,148.2"/>
	</g>
	<g>
		<path d="M888,117.4c-3.6-3.7-8.5-5.6-14-5.6c-5.5,0.1-13,0.9-13.5,7.5c0,0.3,0,0.6,0,0.9c0,0,0,0,0-0.1v15h0
			c0,0.8,1.2,1.3,2.7,1.3c1.5,0,2.7-0.5,2.7-1.3c0-0.9-1.2-1.5-2.7-1.5c-0.1,0-0.2,0-0.3,0c0.2-2.2,1-6,4.3-8v5.9
			c0,0.8,1.2,1.3,2.7,1.3c1.5,0,2.7-0.5,2.7-1.3s-1.2-1.5-2.7-1.5c-0.1,0-0.2,0-0.3,0c0.1-1.5,0.5-3.8,1.8-5.7
			c0.2,0,0.4-0.1,0.7-0.1c3.4-0.3,7.1,1.4,8.6,3.9c1.5,2.6,1.5,6.3-0.1,8.3c0,0-0.1,0-0.1,0c-0.7,0-2,0.2-3.3,1.8l0,0
			c-0.1,0.1-0.4,0.1-0.7,0.2c-0.4,0.1-1,0.2-1.8,0.5c-1.4,0.5-4.4,1.5-5.4,4.3c-0.1,0.4-0.3,0.6-0.5,0.7l-3.4,1.5l0,0
			c-0.1,0-0.4,0.2-0.4,0.2l-2.2,1c-0.5,0.2-0.8,0.6-0.9,1.1c-0.1,0.5,0.1,1,0.4,1.3l2.3,2.4l0,0c0.6,0.6,1.4,0.9,2.3,0.9
			c0.1,0,0.1,0,0.2,0c0.1,0,0.2,0,0.3,0l8.4-0.1c0.6,0,1.1,0,1.7,0c0.3,0,0.6-0.1,1-0.1c0.8,0.5,1.8,0.8,2.8,0.8c0,0,0.1,0,0.1,0
			c1.3,0,2.6-0.7,3.6-1.8c0.4-0.5,0.8-1,1.1-1.6c0.5-0.4,1.1-0.9,2-1.8c0.8-0.8,1.5-1.6,2.1-2.5c0.3,1.5,0.1,3.1-0.1,4.2
			c-0.3,0-0.7,0-1.1,0.1c-1.6,0.4-2.7,1.5-2.1,2.4c0.5,0.8,2.2,0.8,3.5,0.2c0.8-0.4,1.3-1,1.4-1.6h0c0.7-4.1,1.7-9.6,2.1-14.2
			c0,0,0,0,0,0c0.2-0.9,0.2-1.8,0.3-2.7C894.2,127.4,892,121.5,888,117.4z M889.4,143.6c-0.7,1.1-1.6,2.2-2.5,3.1
			c-0.2,0.2-0.3,0.3-0.5,0.5c-0.2-1.7-1.1-3.2-2.5-4.1c-0.2-0.1-0.5-0.1-0.6,0.2c-0.1,0.2-0.1,0.5,0.2,0.6c0.4,0.2,0.7,0.5,1,0.8
			c0.3,0.4,0.6,0.8,0.8,1.3c0,0,0,0,0,0c0.2,0.4,0.3,0.8,0.3,1.3v0c0,0,0,0,0,0c0,0,0,0,0,0c0,0.2,0,0.4,0,0.6
			c-0.1,0.4-0.2,0.9-0.4,1.3c-0.2,0.4-0.5,0.9-0.9,1.3c-0.2,0.2-0.3,0.3-0.5,0.5c-0.8,0.7-1.7,1-2.5,1c-0.4,0-0.8-0.1-1.2-0.2
			c-0.4-0.1-0.8-0.3-1.2-0.5c-0.3-0.2-0.6-0.4-0.8-0.7c-0.7-0.7-1.1-1.6-1.2-2.6v0c0-0.3-0.2-0.4-0.5-0.4c-0.3,0-0.5,0.2-0.4,0.5
			c0.1,1,0.4,1.9,1,2.7c-0.4,0-0.7,0-1.1,0h0l-8.5,0.1l-0.1,0c-0.1,0-0.2,0-0.3,0c-0.5,0-0.9-0.2-1.3-0.5l-2.2-2.3l2.1-0.9
			c0,0,0.1,0,0.2-0.1c0.1,0,0.2-0.1,0.2-0.1l3.4-1.5c0.6-0.3,1.1-0.8,1.3-1.6c0.7-2.1,3.1-2.9,4.4-3.4c0.7-0.2,1.2-0.3,1.6-0.4
			c0.2,0,0.3-0.1,0.4-0.1c1.1,0,1.9,0.3,2.7,0.9c0.2,0.1,0.5,0.1,0.7-0.1c0.1-0.2,0.1-0.5-0.1-0.6c-0.7-0.4-1.3-0.8-2-0.9
			c0.8-1,1.6-1,2.2-1.1c0.4,0,0.8-0.1,1.1-0.4c2.1-2.5,2.2-7,0.3-10.3c-1.6-2.8-5.4-4.7-9.1-4.7c-0.3,0-0.7,0-1,0
			c-0.8,0.1-1.7,0.2-2.5,0.4c-0.8,0.2-1.5,0.3-2.2,0.4c-0.8,0.1-1.6,0.1-2.3-0.1c-2.6-0.6-2.8-2.7-2.7-3.9c0.3-4.1,4-6,11.9-6.1
			c5.1,0,9.5,1.7,12.9,5.1c3.7,3.8,5.8,9.3,5.6,15.1c0,1.5-0.3,3.1-0.7,4.6C891.2,140.1,890.4,142,889.4,143.6z"/>
	</g>
</g>
<g>
	<path d="M787.6,202.3c-1.5-1.5-3.7-1.6-5.9-1.5c-0.4,0-0.8,0.4-0.7,0.8c0,0.2,0.1,0.3,0.1,0.4c0.1,0.2,0.4,0.3,0.7,0.3
		c2.5-0.1,3.9,0.2,4.8,1c0.9,0.9,1.3,2.7,1.2,5.6c-0.3,5.1-4.8,8.4-12.3,9c-1.1,0.1-2.6,0-4.1-0.1c1.7-0.8,3.1-2.3,3.8-4.8
		c0.5-1.7,0.3-4.1-1.1-6.1c-0.9-1.5-2.4-2.8-4.7-3.6c-3-1-4-2.7-3.4-5.9c0.1-0.6,0.4-1.3,0.7-2c0.3,2.2,1.2,4.6,1.2,5.4
		c0,0.1,0,0.2,0,0.3c0,0.8,1.2,1.3,2.6,1.3c1.5,0,2.6-0.5,2.6-1.3c0-0.8-1.2-1.5-2.6-1.5c-0.2,0-0.3,0-0.5,0
		c-0.2-1.9-0.8-5.1,0.1-7.5h0c0.1,0,0.2,0,0.3,0c1.6-0.1,2.9-0.7,3.8-1.6c0.2,0,0.5-0.1,0.7-0.1c0.1,0,10.1-1.2,10.3-1.3
		c0.8-0.2,1.5-0.6,2-1.3l1.6-2.5c0.2-0.4,0.3-0.9,0.1-1.3c-0.2-0.5-0.6-0.8-1.1-0.9l-6.1-1.5c-0.3-0.1-0.5-0.4-0.6-0.5
		c-2.2-3.9-5.9-3.9-8.1-3.8l-0.3,0c-1.8,0-3.6,0.4-5.5,1.2c-1.8,0.8-3.7,2-5.6,3.6c-2.4,2.1-4.3,4.7-5.4,6.5l-0.2,0.3
		c-0.2,0.4-0.5,0.8-0.7,1.3c-3.1,6-4.1,15.1,2.3,22.4c1.7,2,3.9,3.6,6,4.6c0,0,0,0,0,0c3,1.6,7.4,2.3,10.5,2.3c0.5,0,1,0,1.4,0
		c11.8-0.9,13.5-7.6,13.7-10.5C789.5,205.7,788.9,203.6,787.6,202.3z M767.4,216.9c-0.9-0.2-1.9-0.5-2.8-0.9c-0.6-0.3-1.2-0.6-1.8-1
		c-0.2-0.1-0.4-0.3-0.6-0.4c-1.2-0.8-2.3-1.8-3.3-2.9c-5.9-6.7-5-15.1-2.1-20.7c0.2-0.4,0.4-0.8,0.7-1.2l0.2-0.3
		c1.1-1.7,2.8-4.2,5.1-6.1c3.4-3,6.8-4.5,10-4.5l0.3,0c2.1,0,5,0,6.8,3.1c0.4,0.7,1,1.1,1.6,1.3l6,1.4L786,187
		c-0.2,0.3-0.6,0.5-1,0.6c-0.5,0.1-7.6,0.9-9.6,1.2c0.1-0.4,0.2-0.8,0.3-1.3c0-0.3-0.2-0.5-0.4-0.5c-0.2,0-0.4,0.1-0.5,0.3
		c0,0,0,0.1,0,0.1c0,0.6-0.2,1.1-0.4,1.5c-0.2,0.3-0.4,0.6-0.6,0.9c-0.7,0.8-1.8,1.3-3.1,1.4c0,0-0.1,0-0.1,0c-0.3,0-0.6,0-0.9,0
		c-0.3,0-0.6-0.1-0.9-0.2c0,0-0.1,0-0.1,0c-0.8-0.3-1.5-0.9-2-1.7c-0.8-1.2-0.4-3.6,0.7-4.8c0,0,0.1-0.1,0.1-0.1
		c0.1-0.2,0-0.4-0.1-0.5c-0.2-0.2-0.5-0.2-0.7,0c-1.4,1.5-1.8,4.3-0.8,5.9c0.4,0.6,0.9,1.2,1.5,1.6c0.2,0.1,0.4,0.2,0.6,0.3
		c-0.5,0.5-0.9,1-1.3,1.6c-0.9,1.3-1.6,2.8-1.9,4c-0.5,2.4-0.1,4.2,1.1,5.6c0.1,0.1,0.1,0.1,0.2,0.2c-1.3-0.2-2-0.3-2-0.3
		c0,0,0,0,0,0c-0.3,0-0.5,0.2-0.5,0.5c0,0.3,0.2,0.5,0.5,0.5c0,0,1.6,0,4.1,0.8c0,0,0,0,0,0c0.1,0,0.3,0.1,0.4,0.1c0,0,0,0,0,0
		c0.2,0.1,0.4,0.1,0.5,0.2c1.9,0.6,3.1,1.7,3.9,3c1,1.6,1.2,3.5,0.8,4.8C772.3,217.6,767.9,217,767.4,216.9z"/>
</g>
<g>
	<path d="M818,178c-11.3,0-20.5,9.2-20.5,20.4s9.2,20.4,20.5,20.4s20.5-9.2,20.5-20.4S829.3,178,818,178z M836.7,198.4
		c0,10.3-8.4,18.8-18.7,18.8s-18.7-8.4-18.7-18.8s8.4-18.8,18.7-18.8S836.7,188.1,836.7,198.4z"/>
	<path d="M864.7,178c-11.3,0-20.5,9.2-20.5,20.4s9.2,20.4,20.5,20.4s20.5-9.2,20.5-20.4S876,178,864.7,178z M883.4,198.4
		c0,10.3-8.4,18.8-18.7,18.8s-18.7-8.4-18.7-18.8s8.4-18.8,18.7-18.8S883.4,188.1,883.4,198.4z"/>
	<path d="M919.8,184.5c-3.6-3.7-8.5-5.8-13.7-5.8h-11.9v39.6h11.9c10.8,0,19.3-8.7,19.3-19.8C925.4,193.1,923.4,188.2,919.8,184.5z
		 M923.6,198.4c0,10.2-7.7,18.2-17.5,18.2H896v-36.3h10.1C915.8,180.3,923.6,188.4,923.6,198.4z"/>
</g>
<g>
	<g>
		<path d="M806.5,132.2c7.1,1.2,10.9,5.5,10.9,10.7c0,6-5.2,9.5-12.1,9.5h-15.3v-39.9h13.3c6.3,0,12,3,12,9.6
			C815.3,126.7,812.4,130.7,806.5,132.2z M791.4,113.8v17.8h9.6c8.9,0,12.9-4.5,12.9-9.6c0-5.7-5-8.3-10.5-8.3H791.4z M791.4,133
			v18.1h13.9c6.2,0,10.7-3,10.7-8.3c0-5.4-4.8-9.9-13.6-9.9H791.4z"/>
		<path d="M805.3,152.6h-15.5v-40.3h13.5c5.6,0,12.2,2.6,12.2,9.8c0,4.9-3,8.5-8.2,10.1c6.4,1.3,10.3,5.4,10.3,10.7
			C817.6,148.8,812.7,152.6,805.3,152.6z M790.1,152.2h15.2c7.3,0,12-3.7,12-9.3c0-5.4-4.1-9.4-10.8-10.5l-0.8-0.1l0.8-0.2
			c5.5-1.4,8.7-5,8.7-9.9c0-6.9-6.4-9.4-11.9-9.4h-13.2V152.2z M805.3,151.3h-14.1v-18.5h11.2c8.2,0,13.7,4,13.7,10
			C816.1,148,811.8,151.3,805.3,151.3z M791.5,150.9h13.7c6.4,0,10.5-3.2,10.5-8.1c0-5.8-5.4-9.7-13.4-9.7h-10.8V150.9z
			 M800.9,131.8h-9.8v-18.2h12.1c4.9,0,10.7,2.2,10.7,8.4C814,126.8,810.6,131.8,800.9,131.8z M791.5,131.5h9.4
			c9.4,0,12.7-4.9,12.7-9.4c0-3.9-2.7-8.1-10.4-8.1h-11.7V131.5z"/>
	</g>
	<g>
		<path d="M820.9,152.4l16.5-39.9h2.1l16.5,39.9h-1.7l-3.8-9.3h-24.2l-3.8,9.3H820.9z M826.9,141.8H850l-11.5-28L826.9,141.8z"/>
		<path d="M856.3,152.6h-2l-3.8-9.3h-24l-3.8,9.3h-2l16.7-40.3h2.3l0,0.1L856.3,152.6z M854.5,152.2h1.3l-16.4-39.6h-1.8l-16.4,39.6
			h1.2l3.8-9.3h24.5L854.5,152.2z M850.3,142h-23.7l11.9-28.6l0.2,0.4L850.3,142z M827.1,141.6h22.6l-11.3-27.4L827.1,141.6z"/>
	</g>
</g>
<rect x="828.3" y="160" style="fill:none;" width="26.2" height="17.3"/>
<text transform="matrix(1 0 0 1 833.1675 171.6777)" style="font-family:'FilsonProBook'; font-size:16.1542px;">to</text>
<rect x="755.7" y="226" style="fill:none;" width="172.3" height="17.3"/>
<text transform="matrix(1 0 0 1 761.9364 237.6544)" style="font-family:'FilsonProBook'; font-size:16.1542px;">dog training services</text>
<g>
	<path class="st2" d="M875.1,345.1"/>
</g>
<g>
	<path d="M877.3,314.4c-3.6-3.7-8.5-5.6-14-5.6c-5.5,0.1-13,0.9-13.5,7.5c0,0.3,0,0.6,0,0.9c0,0,0,0,0-0.1v15h0
		c0,0.8,1.2,1.3,2.7,1.3c1.5,0,2.7-0.5,2.7-1.3c0-0.9-1.2-1.5-2.7-1.5c-0.1,0-0.2,0-0.3,0c0.2-2.2,1-6,4.3-8v5.9
		c0,0.8,1.2,1.3,2.7,1.3c1.5,0,2.7-0.5,2.7-1.3c0-0.8-1.2-1.5-2.7-1.5c-0.1,0-0.2,0-0.3,0c0.1-1.5,0.5-3.8,1.8-5.7
		c0.2,0,0.4-0.1,0.7-0.1c3.4-0.3,7.1,1.4,8.6,3.9c1.5,2.6,1.5,6.3-0.1,8.3c0,0-0.1,0-0.1,0c-0.7,0-2,0.2-3.3,1.8l0,0
		c-0.1,0.1-0.4,0.1-0.7,0.2c-0.4,0.1-1,0.2-1.8,0.5c-1.4,0.5-4.4,1.5-5.4,4.3c-0.1,0.4-0.3,0.6-0.5,0.7l-3.4,1.5l0,0
		c-0.1,0-0.4,0.2-0.4,0.2l-2.2,1c-0.5,0.2-0.8,0.6-0.9,1.1c-0.1,0.5,0.1,1,0.4,1.3l2.3,2.4l0,0c0.6,0.6,1.4,0.9,2.3,0.9
		c0.1,0,0.1,0,0.2,0c0.1,0,0.2,0,0.3,0l8.4-0.1c0.6,0,1.1,0,1.7,0c0.3,0,0.6-0.1,1-0.1c0.8,0.5,1.8,0.8,2.8,0.8c0,0,0.1,0,0.1,0
		c1.3,0,2.6-0.7,3.6-1.8c0.4-0.5,0.8-1,1.1-1.6c0.5-0.4,1.1-0.9,2-1.8c0.8-0.8,1.5-1.6,2.1-2.5c0.3,1.5,0.1,3.1-0.1,4.2
		c-0.3,0-0.7,0-1.1,0.1c-1.6,0.4-2.7,1.5-2.1,2.4c0.5,0.8,2.2,0.8,3.5,0.2c0.8-0.4,1.3-1,1.4-1.6h0c0.7-4.1,1.7-9.6,2.1-14.2
		c0,0,0,0,0,0c0.2-0.9,0.2-1.8,0.3-2.7C883.5,324.4,881.3,318.4,877.3,314.4z M878.7,340.6c-0.7,1.1-1.6,2.2-2.5,3.1
		c-0.2,0.2-0.3,0.3-0.5,0.5c-0.2-1.7-1.1-3.2-2.5-4.1c-0.2-0.1-0.5-0.1-0.6,0.2c-0.1,0.2-0.1,0.5,0.2,0.6c0.4,0.2,0.7,0.5,1,0.8
		c0.3,0.4,0.6,0.8,0.8,1.3c0,0,0,0,0,0c0.2,0.4,0.3,0.8,0.3,1.3v0c0,0,0,0,0,0c0,0,0,0,0,0c0,0.2,0,0.4,0,0.6
		c-0.1,0.4-0.2,0.9-0.4,1.3c-0.2,0.4-0.5,0.9-0.9,1.3c-0.2,0.2-0.3,0.3-0.5,0.5c-0.8,0.7-1.7,1-2.5,1c-0.4,0-0.8-0.1-1.2-0.2
		c-0.4-0.1-0.8-0.3-1.2-0.5c-0.3-0.2-0.6-0.4-0.8-0.7c-0.7-0.7-1.1-1.6-1.2-2.6v0c0-0.3-0.2-0.4-0.5-0.4c-0.3,0-0.5,0.2-0.4,0.5
		c0.1,1,0.4,1.9,1,2.7c-0.4,0-0.7,0-1.1,0h0l-8.5,0.1l-0.1,0c-0.1,0-0.2,0-0.3,0c-0.5,0-0.9-0.2-1.3-0.5l-2.2-2.3l2.1-0.9
		c0,0,0.1,0,0.2-0.1c0.1,0,0.2-0.1,0.2-0.1l3.4-1.5c0.6-0.3,1.1-0.8,1.3-1.6c0.7-2.1,3.1-2.9,4.4-3.4c0.7-0.2,1.2-0.3,1.6-0.4
		c0.2,0,0.3-0.1,0.4-0.1c1.1,0,1.9,0.3,2.7,0.9c0.2,0.1,0.5,0.1,0.7-0.1c0.1-0.2,0.1-0.5-0.1-0.6c-0.7-0.4-1.3-0.8-2-0.9
		c0.8-1,1.6-1,2.2-1.1c0.4,0,0.8-0.1,1.1-0.4c2.1-2.5,2.2-7,0.3-10.3c-1.6-2.8-5.4-4.7-9.1-4.7c-0.3,0-0.7,0-1,0
		c-0.8,0.1-1.7,0.2-2.5,0.4c-0.8,0.2-1.5,0.3-2.2,0.4c-0.8,0.1-1.6,0.1-2.3-0.1c-2.6-0.6-2.8-2.7-2.7-3.9c0.3-4.1,4-6,11.9-6.1
		c5.1,0,9.5,1.7,12.9,5.1c3.7,3.8,5.8,9.3,5.6,15.1c0,1.5-0.3,3.1-0.7,4.6C880.5,337.1,879.7,338.9,878.7,340.6z"/>
</g>
<g>
	<path d="M844.2,333.3c-1.5-1.5-3.7-1.6-5.9-1.5c-0.4,0-0.8,0.4-0.7,0.8c0,0.2,0.1,0.3,0.1,0.4c0.1,0.2,0.4,0.3,0.7,0.3
		c2.5-0.1,3.9,0.2,4.8,1c0.9,0.9,1.3,2.7,1.2,5.6c-0.3,5.1-4.8,8.4-12.3,9c-1.1,0.1-2.6,0-4.1-0.1c1.7-0.8,3.1-2.3,3.8-4.8
		c0.5-1.7,0.3-4.1-1.1-6.1c-0.9-1.5-2.4-2.8-4.7-3.6c-3-1-4-2.7-3.4-5.9c0.1-0.6,0.4-1.3,0.7-2c0.3,2.2,1.2,4.6,1.2,5.4
		c0,0.1,0,0.2,0,0.3c0,0.8,1.2,1.3,2.6,1.3c1.5,0,2.6-0.5,2.6-1.3c0-0.8-1.2-1.5-2.6-1.5c-0.2,0-0.3,0-0.5,0
		c-0.2-1.9-0.8-5.1,0.1-7.5h0c0.1,0,0.2,0,0.3,0c1.6-0.1,2.9-0.7,3.8-1.6c0.2,0,0.5-0.1,0.7-0.1c0.1,0,10.1-1.2,10.3-1.3
		c0.8-0.2,1.5-0.6,2-1.3l1.6-2.5c0.2-0.4,0.3-0.9,0.1-1.3c-0.2-0.5-0.6-0.8-1.1-0.9l-6.1-1.5c-0.3-0.1-0.5-0.4-0.6-0.5
		c-2.2-3.9-5.9-3.9-8.1-3.8l-0.3,0c-1.8,0-3.6,0.4-5.5,1.2c-1.8,0.8-3.7,2-5.6,3.6c-2.4,2.1-4.3,4.7-5.4,6.5l-0.2,0.3
		c-0.2,0.4-0.5,0.8-0.7,1.3c-3.1,6-4.1,15.1,2.3,22.4c1.7,2,3.9,3.6,6,4.6c0,0,0,0,0,0c3,1.6,7.4,2.3,10.5,2.3c0.5,0,1,0,1.4,0
		c11.8-0.9,13.5-7.6,13.7-10.5C846,336.7,845.5,334.5,844.2,333.3z M824,347.9c-0.9-0.2-1.9-0.5-2.8-0.9c-0.6-0.3-1.2-0.6-1.8-1
		c-0.2-0.1-0.4-0.3-0.6-0.4c-1.2-0.8-2.3-1.8-3.3-2.9c-5.9-6.7-5-15.1-2.1-20.7c0.2-0.4,0.4-0.8,0.7-1.2l0.2-0.3
		c1.1-1.7,2.8-4.2,5.1-6.1c3.4-3,6.8-4.5,10-4.5l0.3,0c2.1,0,5,0,6.8,3.1c0.4,0.7,1,1.1,1.6,1.3l6,1.4l-1.5,2.4
		c-0.2,0.3-0.6,0.5-1,0.6c-0.5,0.1-7.6,0.9-9.6,1.2c0.1-0.4,0.2-0.8,0.3-1.3c0-0.3-0.2-0.5-0.4-0.5c-0.2,0-0.4,0.1-0.5,0.3
		c0,0,0,0.1,0,0.1c0,0.6-0.2,1.1-0.4,1.5c-0.2,0.3-0.4,0.6-0.6,0.9c-0.7,0.8-1.8,1.3-3.1,1.4c0,0-0.1,0-0.1,0c-0.3,0-0.6,0-0.9,0
		c-0.3,0-0.6-0.1-0.9-0.2c0,0-0.1,0-0.1,0c-0.8-0.3-1.5-0.9-2-1.7c-0.8-1.2-0.4-3.6,0.7-4.8c0,0,0.1-0.1,0.1-0.1
		c0.1-0.2,0-0.4-0.1-0.5c-0.2-0.2-0.5-0.2-0.7,0c-1.4,1.5-1.8,4.3-0.8,5.9c0.4,0.6,0.9,1.2,1.5,1.6c0.2,0.1,0.4,0.2,0.6,0.3
		c-0.5,0.5-0.9,1-1.3,1.6c-0.9,1.3-1.6,2.8-1.9,4c-0.5,2.4-0.1,4.2,1.1,5.6c0.1,0.1,0.1,0.1,0.2,0.2c-1.3-0.2-2-0.3-2-0.3
		c0,0,0,0,0,0c-0.3,0-0.5,0.2-0.5,0.5c0,0.3,0.2,0.5,0.5,0.5c0,0,1.6,0,4.1,0.8c0,0,0,0,0,0c0.1,0,0.3,0.1,0.4,0.1c0,0,0,0,0,0
		c0.2,0.1,0.4,0.1,0.5,0.2c1.9,0.6,3.1,1.7,3.9,3c1,1.6,1.2,3.5,0.8,4.8C828.9,348.6,824.5,347.9,824,347.9z"/>
</g>
</svg>
