<?xml version="1.0" encoding="utf-8"?>
<!-- Generator: Adobe Illustrator 22.1.0, SVG Export Plug-In . SVG Version: 6.00 Build 0)  -->
<svg version="1.1" id="Layer_1" xmlns="http://www.w3.org/2000/svg" xmlns:xlink="http://www.w3.org/1999/xlink" x="0px" y="0px"
	 viewBox="0 0 576 906.3" style="enable-background:new 0 0 576 906.3;" xml:space="preserve">
<style type="text/css">
	.st0{fill:#92E5FF;}
	.st1{fill:#F25757;}
	.st2{opacity:0.25;}
	.st3{fill:none;stroke:#000000;stroke-width:3.4425;stroke-linecap:round;stroke-linejoin:round;stroke-miterlimit:10;}
	.st4{fill:none;stroke:#000000;stroke-width:3.4425;stroke-linecap:round;stroke-miterlimit:10;}
	.st5{fill:none;stroke:#FFFFFF;stroke-width:3.4425;stroke-linecap:round;stroke-linejoin:round;stroke-miterlimit:10;}
	.st6{fill:none;stroke:#FFFFFF;stroke-width:3.4425;stroke-linecap:round;stroke-miterlimit:10;}
	.st7{fill:#FFFFFF;}
	.st8{fill:none;stroke:#000000;stroke-width:1.3516;stroke-linecap:round;stroke-linejoin:round;stroke-miterlimit:10;}
	.st9{fill:none;stroke:#000000;stroke-width:1.3516;stroke-linecap:round;stroke-miterlimit:10;}
	.st10{fill:none;stroke:#FFFFFF;stroke-width:1.3516;stroke-linecap:round;stroke-linejoin:round;stroke-miterlimit:10;}
	.st11{fill:none;stroke:#FFFFFF;stroke-width:1.3516;stroke-linecap:round;stroke-miterlimit:10;}
</style>
<rect x="-1" y="601.6" width="577.3" height="305.5"/>
<rect x="-1" y="-10" class="st0" width="584" height="327"/>
<g id="Layer_1_1_">
	<circle class="st1" cx="285.8" cy="160.6" r="102.4"/>
	<g>
		<g class="st2">
			<path class="st3" d="M223.1,134.6c-9.8,60.5-16.5,65.7-13.3,53.9l9.4-61.6c63.5-23.1,77.6,54.1,17.8,72.3
				c-19.9,6.1-29,2.6-16-4.2c38-19.7,110.4-18.5,131.3-12.9c22,5.9,12.6,28.3,1.3,42.5c-16,20.1-42.8,30.6-68.3,30.8
				c-51.8,0.5-93.7-40.9-93.9-92.7c-0.2-51.5,41.5-93.3,93-93.3c51.4,0,93,41.6,93,93c0,7.4-1.2,15.1-2.8,21.9"/>
			<path class="st4" d="M287.4,151.4l-2.8,15.7c-1.5,9.9,13.5,7.6,16.5-16.8c0.5-5.1-4,23.9-3.7,20.8c3.6-26,19.7-27.4,18.5-16.7
				l-2,10.7c-1.7,10.6,11.2,8.3,11.8-0.7c23.7-4.6,14.3-20.5,3.7-12.8c-6.6,4.7-7.6,19.3,3.9,21.3c6.8,1.2,14.5-4,15.2-8
				c0,0,2.6-15.9,2.4-13c0,0-4.5,25.2-3.9,21.7c2.5-15.6,7.7-22,13.1-23.4"/>
			<circle cx="288.7" cy="144" r="2.1"/>
		</g>
		<g>
			<g>
				<path class="st5" d="M224.9,132.5c-9.8,60.5-16.5,65.7-13.3,53.9l9.4-61.6c63.5-23.1,77.6,54.1,17.8,72.3
					c-19.9,6.1-29,2.6-16-4.2c38-19.7,110.4-18.5,131.3-12.9c22,5.9,12.6,28.3,1.3,42.5c-16,20.1-42.8,30.6-68.3,30.8
					c-51.8,0.5-93.7-40.9-93.9-92.7c-0.2-51.5,41.5-93.3,93-93.3c51.4,0,93,41.6,93,93c0,7.4-1.2,15.1-2.8,21.9"/>
				<path class="st6" d="M289.3,149.3l-2.8,15.7c-1.5,9.9,13.5,7.6,16.5-16.8c0.5-5.1-4,23.9-3.7,20.8c3.6-26,19.7-27.4,18.5-16.7
					l-2,10.7c-1.7,10.6,11.2,8.3,11.8-0.7c23.7-4.6,14.3-20.5,3.7-12.8c-6.6,4.7-7.6,19.3,3.9,21.3c6.8,1.2,14.5-4,15.2-8
					c0,0,2.6-15.9,2.4-13c0,0-4.5,25.2-3.9,21.7c2.5-15.6,7.7-22,13.1-23.4"/>
				<circle class="st7" cx="290.6" cy="141.8" r="2.1"/>
			</g>
		</g>
	</g>
	<g>
		<path class="st7" d="M273.9,197.5L273.9,197.5c0.1-0.3,0.4-0.4,0.7-0.3c0.4,0.2,0.9,0.4,1.4,0.4c0.6,0,1.2-0.3,1.3-0.8
			c0.1-0.5-0.1-0.9-1.2-1.2c-1.4-0.4-1.8-1.2-1.6-2.2c0.2-0.9,1-1.6,2.3-1.6c0.6,0,1.2,0.2,1.6,0.4c0.2,0.1,0.3,0.4,0.2,0.6v0
			c-0.1,0.3-0.4,0.3-0.6,0.2c-0.3-0.2-0.7-0.3-1.2-0.3c-0.7,0-1.1,0.3-1.2,0.6c-0.1,0.5,0,0.8,1.1,1.1c1.3,0.4,1.9,1.2,1.7,2.2
			c-0.2,1.4-1.3,1.9-2.5,1.9c-0.9,0-1.5-0.3-1.9-0.5C273.9,197.9,273.9,197.7,273.9,197.5z"/>
		<path class="st7" d="M280.3,197.4c0-1.1,0.9-3.4,0.9-4.4c0-0.3-0.2-0.4-0.3-0.4c-0.2,0-0.4,0.1-0.6,0.1l0,0c0-0.4,0.3-0.7,0.6-0.9
			c0.2,0,0.3-0.1,0.5-0.1c0.6,0,1.1,0.4,1.1,1.1c0,1.1-0.9,3.4-0.9,4.4c0,0.3,0.2,0.4,0.3,0.4c0.2,0,0.4-0.1,0.6-0.1l0,0
			c0,0.4-0.3,0.7-0.6,0.9c-0.2,0-0.3,0.1-0.5,0.1C280.8,198.5,280.3,198.1,280.3,197.4z M281.8,189.1c0-0.4,0.5-0.8,0.9-0.8
			c0.4,0,0.8,0.3,0.7,0.8c0,0.4-0.5,0.8-0.9,0.8C282,189.9,281.7,189.5,281.8,189.1z"/>
		<path class="st7" d="M288.7,197.4c0-1.1,0.6-2.3,0.6-3.5c0-0.6-0.3-1.1-0.9-1.1c-0.9,0-2.2,0.9-2.6,2.9l-0.4,2.1
			c0,0.3-0.3,0.5-0.6,0.5l0,0c-0.4,0-0.7-0.3-0.6-0.8l0.8-4.3c0.1-0.5,0-0.7-0.3-0.7c-0.2,0-0.4,0.1-0.6,0.1l0,0
			c0-0.4,0.3-0.8,0.6-0.9c0.2,0,0.3-0.1,0.5-0.1c0.7,0,1.2,0.5,1,1.5c0.6-0.9,1.6-1.5,2.6-1.5c1.2,0,1.8,0.8,1.8,1.9
			c0,1.4-0.6,2.6-0.6,3.7c0,0.3,0.2,0.4,0.3,0.4s0.4-0.1,0.6-0.1l0,0c0,0.4-0.3,0.7-0.6,0.9c-0.2,0-0.3,0.1-0.5,0.1
			C289.2,198.5,288.7,198.1,288.7,197.4z"/>
		<path class="st7" d="M298,192.7c0,0.3-0.4,0.5-0.7,0.3c-0.3-0.2-0.7-0.3-1.2-0.3c-1.2,0-2.3,0.9-2.5,2.2c-0.3,1.5,0.5,2.6,2,2.6
			c0.5,0,0.9-0.2,1.1-0.3c0.2-0.1,0.4,0,0.6,0.1l0,0c0.1,0.2,0.1,0.4-0.1,0.6c-0.5,0.4-1.2,0.6-2,0.6c-2,0-3.1-1.8-2.8-3.6
			c0.3-1.9,1.9-3.2,3.8-3.2c0.6,0,1.3,0.2,1.7,0.5C297.9,192.4,298,192.6,298,192.7L298,192.7z"/>
		<path class="st7" d="M299,195.1c0.3-2,2-3.3,3.8-3.3c1.2,0,2,0.7,1.8,1.6c-0.2,0.9-1.6,2.2-4.4,2.6c0.1,1.2,1,1.6,1.9,1.6
			c0.6,0,1.1-0.2,1.6-0.5c0.2-0.1,0.5-0.1,0.6,0.1l0,0c0.1,0.2,0.1,0.4-0.1,0.6c-0.7,0.5-1.4,0.8-2.4,0.8
			C299.7,198.6,298.7,196.8,299,195.1z M303.4,193.5c0-0.3-0.2-0.7-0.8-0.7c-1,0-2.2,0.9-2.4,2.4C301.8,195,303.3,194.1,303.4,193.5
			z"/>
		<path class="st7" d="M309.8,191.7h-0.6c-0.3,0-0.6-0.3-0.5-0.6l0,0c0-0.2,0.2-0.3,0.4-0.4l2.3-0.6l-1.4,7.8c0,0.3-0.3,0.6-0.6,0.6
			l0,0c-0.4,0-0.7-0.4-0.6-0.8L309.8,191.7z"/>
		<path class="st7" d="M312.8,201.1L312.8,201.1c0.1-0.4,0.5-0.6,0.9-0.5c0.4,0.2,1,0.3,1.6,0.3c1.9,0,3.7-1.6,4.3-4.7
			c-0.6,0.6-1.6,1.2-2.8,1.2c-2.1,0-3.5-1.7-3.2-3.9c0.3-2.1,1.9-3.6,4-3.6c1.7,0,4,1.1,3.5,5.3s-2.8,6.9-6,6.9
			c-0.8,0-1.4-0.2-1.9-0.4C312.9,201.6,312.7,201.3,312.8,201.1z M319.7,195c0.4-3.2-1.2-3.9-2.2-3.9c-1.5,0-2.4,0.9-2.6,2.5
			c-0.2,1.5,0.6,2.7,2.1,2.7C318.2,196.3,319.1,195.6,319.7,195z"/>
		<path class="st7" d="M322.4,201.1L322.4,201.1c0.1-0.4,0.5-0.6,0.9-0.5c0.4,0.2,1,0.3,1.6,0.3c1.9,0,3.7-1.6,4.3-4.7
			c-0.6,0.6-1.6,1.2-2.8,1.2c-2.1,0-3.5-1.7-3.2-3.9c0.3-2.1,1.9-3.6,4-3.6c1.7,0,4,1.1,3.5,5.3c-0.6,4.3-2.8,6.9-6,6.9
			c-0.8,0-1.4-0.2-1.9-0.4C322.4,201.6,322.3,201.3,322.4,201.1z M329.2,195c0.4-3.2-1.2-3.9-2.2-3.9c-1.5,0-2.4,0.9-2.6,2.5
			c-0.2,1.5,0.6,2.7,2.1,2.7C327.8,196.3,328.7,195.6,329.2,195z"/>
		<path class="st7" d="M332.5,194.1c0.4-2.4,2.3-4,4.7-4c2.6,0,4.1,2.2,3.8,4.5c-0.4,2.4-2.3,4-4.7,4
			C333.7,198.6,332.1,196.5,332.5,194.1z M339.6,194.6c0.4-2.1-0.9-3.5-2.5-3.5c-1.5,0-2.9,1.2-3.2,3c-0.4,2.1,0.9,3.5,2.5,3.5
			C337.9,197.6,339.2,196.4,339.6,194.6z"/>
	</g>
	<g>
		<g>
			<path class="st7" d="M291.9,125.3l1.3-7h-0.9c-0.6,0-0.9-0.5-0.9-1l0,0c0.1-0.4,0.4-0.7,0.9-0.7h1.2l0.6-3.4c0.1-0.5,0.5-0.9,1-1
				l0,0c0.9-0.1,1.6,0.6,1.4,1.4l-0.5,2.9h2.2c0.6,0,0.9,0.5,0.9,1l0,0c-0.1,0.4-0.4,0.7-0.9,0.7h-2.6l-1.3,7
				c-0.3,1.6,0.1,2.5,1.3,2.5c0.4,0,0.7-0.1,1-0.2c0.3-0.1,0.8,0,0.9,0.4v0c0.1,0.3,0,0.6-0.3,0.7c-0.7,0.4-1.4,0.7-2.5,0.7
				C292.9,129.4,291.3,128.2,291.9,125.3z"/>
			<path class="st7" d="M309.5,127.3c0-2.1,1.3-4.6,1.3-6.9c0-1.3-0.6-2.1-1.9-2.1c-1.7,0-4.4,1.7-5.1,5.7l-0.7,4.1
				c-0.1,0.6-0.6,1-1.2,1l0,0c-0.8,0-1.4-0.7-1.2-1.5l3.5-19.9c0.1-0.5,0.5-0.9,1-1l0,0c0.9-0.1,1.6,0.6,1.4,1.4l-1.9,10.9
				c1.3-1.8,3.2-3,5.1-3c2.3,0,3.6,1.6,3.6,3.7c0,2.7-1.3,5.2-1.3,7.2c0,0.5,0.3,0.8,0.7,0.8c0.1,0,0.3,0,0.4,0
				c0.4-0.1,0.7,0.2,0.7,0.6l0,0c0,0.2-0.1,0.4-0.3,0.5c-0.6,0.3-1.3,0.5-2,0.5C310.4,129.4,309.5,128.6,309.5,127.3z"/>
			<path class="st7" d="M316.5,122.7c0.7-3.9,4.1-6.5,7.5-6.5c2.4,0,3.9,1.4,3.6,3.2c-0.3,1.8-3.2,4.4-8.8,5.1
				c0.2,2.3,1.9,3.2,3.7,3.2c1.1,0,2.1-0.3,3.1-1c0.4-0.3,0.9-0.2,1.2,0.2l0,0c0.2,0.3,0.1,0.8-0.2,1.1c-1.3,1.1-2.9,1.6-4.7,1.6
				C318,129.6,315.9,126,316.5,122.7z M325.2,119.5c0.1-0.7-0.4-1.4-1.5-1.4c-1.9,0-4.3,1.7-4.8,4.8
				C322.2,122.5,325,120.8,325.2,119.5z"/>
		</g>
	</g>
</g>
<circle class="st0" cx="-300" cy="190" r="213"/>
<g id="Layer_1_2_">
	<g>
		<g class="st2">
			<path class="st3" d="M95.5,445.3c-9.8,60.5-16.5,65.7-13.3,53.9l9.4-61.6c63.5-23.1,77.6,54.1,17.8,72.3c-19.9,6.1-29,2.6-16-4.2
				c38-19.7,110.4-18.5,131.3-12.9c22,5.9,12.6,28.3,1.3,42.5c-16,20.1-42.8,30.6-68.3,30.8c-51.8,0.5-93.7-40.9-93.9-92.7
				c-0.2-51.5,41.5-93.3,93-93.3c51.4,0,93,41.6,93,93c0,7.4-1.2,15.1-2.8,21.9"/>
			<path class="st4" d="M159.8,462.1l-2.8,15.7c-1.5,9.9,13.5,7.6,16.5-16.8c0.5-5.1-4,23.9-3.7,20.8c3.6-26,19.7-27.4,18.5-16.7
				l-2,10.7c-1.7,10.6,11.2,8.3,11.8-0.7c23.7-4.6,14.3-20.5,3.7-12.8c-6.6,4.7-7.6,19.3,3.9,21.3c6.8,1.2,14.5-4,15.2-8
				c0,0,2.6-15.9,2.4-13c0,0-4.5,25.2-3.9,21.7c2.5-15.6,7.7-22,13.1-23.4"/>
			<circle cx="161.2" cy="454.6" r="2.1"/>
		</g>
		<g>
			<g>
				<path class="st3" d="M97.3,443.1c-9.8,60.5-16.5,65.7-13.3,53.9l9.4-61.6c63.5-23.1,77.6,54.1,17.8,72.3
					c-19.9,6.1-29,2.6-16-4.2c38-19.7,110.4-18.5,131.3-12.9c22,5.9,12.6,28.3,1.3,42.5c-16,20.1-42.8,30.6-68.3,30.8
					c-51.8,0.5-93.7-40.9-93.9-92.7c-0.2-51.5,41.5-93.3,93-93.3c51.4,0,93,41.6,93,93c0,7.4-1.2,15.1-2.8,21.9"/>
				<path class="st4" d="M161.7,459.9l-2.8,15.7c-1.5,9.9,13.5,7.6,16.5-16.8c0.5-5.1-4,23.9-3.7,20.8c3.6-26,19.7-27.4,18.5-16.7
					l-2,10.7c-1.7,10.6,11.2,8.3,11.8-0.7c23.7-4.6,14.3-20.5,3.7-12.8c-6.6,4.7-7.6,19.3,3.9,21.3c6.8,1.2,14.5-4,15.2-8
					c0,0,2.6-15.9,2.4-13c0,0-4.5,25.2-3.9,21.7c2.5-15.6,7.7-22,13.1-23.4"/>
				<circle cx="163" cy="452.5" r="2.1"/>
			</g>
		</g>
	</g>
	<g>
		<path d="M146.4,508.1L146.4,508.1c0.1-0.3,0.4-0.4,0.7-0.3c0.4,0.2,0.9,0.4,1.4,0.4c0.6,0,1.2-0.3,1.3-0.8
			c0.1-0.5-0.1-0.9-1.2-1.2c-1.4-0.4-1.8-1.2-1.6-2.2c0.2-0.9,1-1.6,2.3-1.6c0.6,0,1.2,0.2,1.6,0.4c0.2,0.1,0.3,0.4,0.2,0.6v0
			c-0.1,0.3-0.4,0.3-0.6,0.2c-0.3-0.2-0.7-0.3-1.2-0.3c-0.7,0-1.1,0.3-1.2,0.6c-0.1,0.5,0,0.8,1.1,1.1c1.3,0.4,1.9,1.2,1.7,2.2
			c-0.2,1.4-1.3,1.9-2.5,1.9c-0.9,0-1.5-0.3-1.9-0.5C146.4,508.6,146.3,508.3,146.4,508.1z"/>
		<path d="M152.7,508.1c0-1.1,0.9-3.4,0.9-4.4c0-0.3-0.2-0.4-0.3-0.4c-0.2,0-0.4,0.1-0.6,0.1l0,0c0-0.4,0.3-0.7,0.6-0.9
			c0.2,0,0.3-0.1,0.5-0.1c0.6,0,1.1,0.4,1.1,1.1c0,1.1-0.9,3.4-0.9,4.4c0,0.3,0.2,0.4,0.3,0.4s0.4-0.1,0.6-0.1l0,0
			c0,0.4-0.3,0.7-0.6,0.9c-0.2,0-0.3,0.1-0.5,0.1C153.2,509.2,152.7,508.8,152.7,508.1z M154.2,499.7c0-0.4,0.5-0.8,0.9-0.8
			s0.8,0.3,0.7,0.8c0,0.4-0.5,0.8-0.9,0.8C154.5,500.5,154.2,500.2,154.2,499.7z"/>
		<path d="M161.2,508.1c0-1.1,0.6-2.3,0.6-3.5c0-0.6-0.3-1.1-0.9-1.1c-0.9,0-2.2,0.9-2.6,2.9l-0.4,2.1c0,0.3-0.3,0.5-0.6,0.5l0,0
			c-0.4,0-0.7-0.3-0.6-0.8l0.8-4.3c0.1-0.5,0-0.7-0.3-0.7c-0.2,0-0.4,0.1-0.6,0.1l0,0c0-0.4,0.3-0.8,0.6-0.9c0.2,0,0.3-0.1,0.5-0.1
			c0.7,0,1.2,0.5,1,1.5c0.6-0.9,1.6-1.5,2.6-1.5c1.2,0,1.8,0.8,1.8,1.9c0,1.4-0.6,2.6-0.6,3.7c0,0.3,0.2,0.4,0.3,0.4
			s0.4-0.1,0.6-0.1l0,0c0,0.4-0.3,0.7-0.6,0.9c-0.2,0-0.3,0.1-0.5,0.1C161.7,509.2,161.2,508.8,161.2,508.1z"/>
		<path d="M170.4,503.4c0,0.3-0.4,0.5-0.7,0.3c-0.3-0.2-0.7-0.3-1.2-0.3c-1.2,0-2.3,0.9-2.5,2.2c-0.3,1.5,0.5,2.6,2,2.6
			c0.5,0,0.9-0.2,1.1-0.3c0.2-0.1,0.4,0,0.6,0.1l0,0c0.1,0.2,0.1,0.4-0.1,0.6c-0.5,0.4-1.2,0.6-2,0.6c-2,0-3.1-1.8-2.8-3.6
			c0.3-1.9,1.9-3.2,3.8-3.2c0.6,0,1.3,0.2,1.7,0.5C170.4,503,170.5,503.2,170.4,503.4L170.4,503.4z"/>
		<path d="M171.4,505.7c0.3-2,2-3.3,3.8-3.3c1.2,0,2,0.7,1.8,1.6c-0.2,0.9-1.6,2.2-4.4,2.6c0.1,1.2,1,1.6,1.9,1.6
			c0.6,0,1.1-0.2,1.6-0.5c0.2-0.1,0.5-0.1,0.6,0.1l0,0c0.1,0.2,0.1,0.4-0.1,0.6c-0.7,0.5-1.4,0.8-2.4,0.8
			C172.1,509.2,171.1,507.5,171.4,505.7z M175.8,504.1c0-0.3-0.2-0.7-0.8-0.7c-1,0-2.2,0.9-2.4,2.4
			C174.3,505.7,175.7,504.8,175.8,504.1z"/>
		<path d="M182.3,502.3h-0.6c-0.3,0-0.6-0.3-0.5-0.6l0,0c0-0.2,0.2-0.3,0.4-0.4l2.3-0.6l-1.4,7.8c0,0.3-0.3,0.6-0.6,0.6l0,0
			c-0.4,0-0.7-0.4-0.6-0.8L182.3,502.3z"/>
		<path d="M185.2,511.7L185.2,511.7c0.1-0.4,0.5-0.6,0.9-0.5c0.4,0.2,1,0.3,1.6,0.3c1.9,0,3.7-1.6,4.3-4.7c-0.6,0.6-1.6,1.2-2.8,1.2
			c-2.1,0-3.5-1.7-3.2-3.9s1.9-3.6,4-3.6c1.7,0,4,1.1,3.5,5.3c-0.6,4.3-2.8,6.9-6,6.9c-0.8,0-1.4-0.2-1.9-0.4
			C185.3,512.2,185.2,512,185.2,511.7z M192.1,505.6c0.4-3.2-1.2-3.9-2.2-3.9c-1.5,0-2.4,0.9-2.6,2.5c-0.2,1.5,0.6,2.7,2.1,2.7
			C190.6,506.9,191.6,506.3,192.1,505.6z"/>
		<path d="M194.8,511.7L194.8,511.7c0.1-0.4,0.5-0.6,0.9-0.5c0.4,0.2,1,0.3,1.6,0.3c1.9,0,3.7-1.6,4.3-4.7c-0.6,0.6-1.6,1.2-2.8,1.2
			c-2.1,0-3.5-1.7-3.2-3.9s1.9-3.6,4-3.6c1.7,0,4,1.1,3.5,5.3c-0.6,4.3-2.8,6.9-6,6.9c-0.8,0-1.4-0.2-1.9-0.4
			C194.9,512.2,194.8,512,194.8,511.7z M201.7,505.6c0.4-3.2-1.2-3.9-2.2-3.9c-1.5,0-2.4,0.9-2.6,2.5c-0.2,1.5,0.6,2.7,2.1,2.7
			C200.2,506.9,201.2,506.3,201.7,505.6z"/>
		<path d="M205,504.8c0.4-2.4,2.3-4,4.7-4c2.6,0,4.1,2.2,3.8,4.5c-0.4,2.4-2.3,4-4.7,4C206.1,509.3,204.6,507.1,205,504.8z
			 M212,505.2c0.4-2.1-0.9-3.5-2.5-3.5c-1.5,0-2.9,1.2-3.2,3c-0.4,2.1,0.9,3.5,2.5,3.5C210.4,508.2,211.7,507,212,505.2z"/>
	</g>
	<g>
		<g>
			<path d="M164.3,436l1.3-7h-0.9c-0.6,0-0.9-0.5-0.9-1l0,0c0.1-0.4,0.4-0.7,0.9-0.7h1.2l0.6-3.4c0.1-0.5,0.5-0.9,1-1l0,0
				c0.9-0.1,1.6,0.6,1.4,1.4l-0.5,2.9h2.2c0.6,0,0.9,0.5,0.9,1l0,0c-0.1,0.4-0.4,0.7-0.9,0.7h-2.6l-1.3,7c-0.3,1.6,0.1,2.5,1.3,2.5
				c0.4,0,0.7-0.1,1-0.2c0.3-0.1,0.8,0,0.9,0.4v0c0.1,0.3,0,0.6-0.3,0.7c-0.7,0.4-1.4,0.7-2.5,0.7
				C165.3,440.1,163.8,438.8,164.3,436z"/>
			<path d="M181.9,438c0-2.1,1.3-4.6,1.3-6.9c0-1.3-0.6-2.1-1.9-2.1c-1.7,0-4.4,1.7-5.1,5.7l-0.7,4.1c-0.1,0.6-0.6,1-1.2,1l0,0
				c-0.8,0-1.4-0.7-1.2-1.5l3.5-19.9c0.1-0.5,0.5-0.9,1-1l0,0c0.9-0.1,1.6,0.6,1.4,1.4l-1.9,10.9c1.3-1.8,3.2-3,5.1-3
				c2.3,0,3.6,1.6,3.6,3.7c0,2.7-1.3,5.2-1.3,7.2c0,0.5,0.3,0.8,0.7,0.8c0.1,0,0.3,0,0.4,0c0.4-0.1,0.7,0.2,0.7,0.6l0,0
				c0,0.2-0.1,0.4-0.3,0.5c-0.6,0.3-1.3,0.5-2,0.5C182.9,440.1,181.9,439.3,181.9,438z"/>
			<path d="M188.9,433.3c0.7-3.9,4.1-6.5,7.5-6.5c2.4,0,3.9,1.4,3.6,3.2c-0.3,1.8-3.2,4.4-8.8,5.1c0.2,2.3,1.9,3.2,3.7,3.2
				c1.1,0,2.1-0.3,3.1-1c0.4-0.3,0.9-0.2,1.2,0.2l0,0c0.2,0.3,0.1,0.8-0.2,1.1c-1.3,1.1-2.9,1.6-4.7,1.6
				C190.4,440.3,188.4,436.7,188.9,433.3z M197.7,430.1c0.1-0.7-0.4-1.4-1.5-1.4c-1.9,0-4.3,1.7-4.8,4.8
				C194.6,433.2,197.4,431.4,197.7,430.1z"/>
		</g>
	</g>
</g>
<rect x="429.7" y="391.2" transform="matrix(6.123234e-17 -1 1 6.123234e-17 253.5281 1179.9695)" class="st0" width="574" height="144"/>
<g id="Layer_1_3_">
	<g>
		<g>
			<g>
				<path class="st8" d="M398.7,461.1c-3.8,23.7-6.5,25.8-5.2,21.2l3.7-24.2c24.9-9.1,30.5,21.2,7,28.4c-7.8,2.4-11.4,1-6.3-1.7
					c14.9-7.7,43.4-7.3,51.6-5.1c8.7,2.3,4.9,11.1,0.5,16.7c-6.3,7.9-16.8,12-26.8,12.1c-20.3,0.2-36.8-16.1-36.9-36.4
					c-0.1-20.2,16.3-36.6,36.5-36.6c20.2,0,36.5,16.3,36.5,36.5c0,2.9-0.5,5.9-1.1,8.6"/>
				<path class="st9" d="M423.9,467.7l-1.1,6.2c-0.6,3.9,5.3,3,6.5-6.6c0.2-2-1.6,9.4-1.5,8.2c1.4-10.2,7.7-10.8,7.3-6.6l-0.8,4.2
					c-0.7,4.2,4.4,3.3,4.6-0.3c9.3-1.8,5.6-8,1.5-5c-2.6,1.9-3,7.6,1.5,8.4c2.7,0.5,5.7-1.6,6-3.1c0,0,1-6.3,0.9-5.1
					c0,0-1.8,9.9-1.5,8.5c1-6.1,3-8.6,5.1-9.2"/>
				<circle cx="424.4" cy="464.7" r="0.8"/>
			</g>
		</g>
	</g>
</g>
<g>
	<g class="st2">
		<path class="st3" d="M95.5,710.6c-9.8,60.5-16.5,65.7-13.3,53.9l9.4-61.6c63.5-23.1,77.6,54.1,17.8,72.3c-19.9,6.1-29,2.6-16-4.2
			c38-19.7,110.4-18.5,131.3-12.9c22,5.9,12.6,28.3,1.3,42.5c-16,20.1-42.8,30.6-68.3,30.8c-51.8,0.5-93.7-40.9-93.9-92.7
			c-0.2-51.5,41.5-93.3,93-93.3c51.4,0,93,41.6,93,93c0,7.4-1.2,15.1-2.8,21.9"/>
		<path class="st4" d="M159.8,727.4l-2.8,15.7c-1.5,9.9,13.5,7.6,16.5-16.8c0.5-5.1-4,23.9-3.7,20.8c3.6-26,19.7-27.4,18.5-16.7
			l-2,10.7c-1.7,10.6,11.2,8.3,11.8-0.7c23.7-4.6,14.3-20.5,3.7-12.8c-6.6,4.7-7.6,19.3,3.9,21.3c6.8,1.2,14.5-4,15.2-8
			c0,0,2.6-15.9,2.4-13c0,0-4.5,25.2-3.9,21.7c2.5-15.6,7.7-22,13.1-23.4"/>
		<circle cx="161.2" cy="720" r="2.1"/>
	</g>
	<g>
		<g>
			<path class="st5" d="M97.3,708.5C87.6,769,80.8,774.2,84,762.4l9.4-61.6c63.5-23.1,77.6,54.1,17.8,72.3c-19.9,6.1-29,2.6-16-4.2
				c38-19.7,110.4-18.5,131.3-12.9c22,5.9,12.6,28.3,1.3,42.5c-16,20.1-42.8,30.6-68.3,30.8c-51.8,0.5-93.7-40.9-93.9-92.7
				c-0.2-51.5,41.5-93.3,93-93.3c51.4,0,93,41.6,93,93c0,7.4-1.2,15.1-2.8,21.9"/>
			<path class="st6" d="M161.7,725.3l-2.8,15.7c-1.5,9.9,13.5,7.6,16.5-16.8c0.5-5.1-4,23.9-3.7,20.8c3.6-26,19.7-27.4,18.5-16.7
				l-2,10.7c-1.7,10.6,11.2,8.3,11.8-0.7c23.7-4.6,14.3-20.5,3.7-12.8c-6.6,4.7-7.6,19.3,3.9,21.3c6.8,1.2,14.5-4,15.2-8
				c0,0,2.6-15.9,2.4-13c0,0-4.5,25.2-3.9,21.7c2.5-15.6,7.7-22,13.1-23.4"/>
			<circle class="st7" cx="163" cy="717.8" r="2.1"/>
		</g>
	</g>
</g>
<g>
	<path class="st7" d="M146.4,773.5L146.4,773.5c0.1-0.3,0.4-0.4,0.7-0.3c0.4,0.2,0.9,0.4,1.4,0.4c0.6,0,1.2-0.3,1.3-0.8
		c0.1-0.5-0.1-0.9-1.2-1.2c-1.4-0.4-1.8-1.2-1.6-2.2c0.2-0.9,1-1.6,2.3-1.6c0.6,0,1.2,0.2,1.6,0.4c0.2,0.1,0.3,0.4,0.2,0.6v0
		c-0.1,0.3-0.4,0.3-0.6,0.2c-0.3-0.2-0.7-0.3-1.2-0.3c-0.7,0-1.1,0.3-1.2,0.6c-0.1,0.5,0,0.8,1.1,1.1c1.3,0.4,1.9,1.2,1.7,2.2
		c-0.2,1.4-1.3,1.9-2.5,1.9c-0.9,0-1.5-0.3-1.9-0.5C146.4,774,146.3,773.7,146.4,773.5z"/>
	<path class="st7" d="M152.7,773.5c0-1.1,0.9-3.4,0.9-4.4c0-0.3-0.2-0.4-0.3-0.4c-0.2,0-0.4,0.1-0.6,0.1l0,0c0-0.4,0.3-0.7,0.6-0.9
		c0.2,0,0.3-0.1,0.5-0.1c0.6,0,1.1,0.4,1.1,1.1c0,1.1-0.9,3.4-0.9,4.4c0,0.3,0.2,0.4,0.3,0.4s0.4-0.1,0.6-0.1l0,0
		c0,0.4-0.3,0.7-0.6,0.9c-0.2,0-0.3,0.1-0.5,0.1C153.2,774.6,152.7,774.1,152.7,773.5z M154.2,765.1c0-0.4,0.5-0.8,0.9-0.8
		s0.8,0.3,0.7,0.8c0,0.4-0.5,0.8-0.9,0.8C154.5,765.9,154.2,765.5,154.2,765.1z"/>
	<path class="st7" d="M161.2,773.5c0-1.1,0.6-2.3,0.6-3.5c0-0.6-0.3-1.1-0.9-1.1c-0.9,0-2.2,0.9-2.6,2.9l-0.4,2.1
		c0,0.3-0.3,0.5-0.6,0.5l0,0c-0.4,0-0.7-0.3-0.6-0.8l0.8-4.3c0.1-0.5,0-0.7-0.3-0.7c-0.2,0-0.4,0.1-0.6,0.1l0,0
		c0-0.4,0.3-0.8,0.6-0.9c0.2,0,0.3-0.1,0.5-0.1c0.7,0,1.2,0.5,1,1.5c0.6-0.9,1.6-1.5,2.6-1.5c1.2,0,1.8,0.8,1.8,1.9
		c0,1.4-0.6,2.6-0.6,3.7c0,0.3,0.2,0.4,0.3,0.4s0.4-0.1,0.6-0.1l0,0c0,0.4-0.3,0.7-0.6,0.9c-0.2,0-0.3,0.1-0.5,0.1
		C161.7,774.6,161.2,774.1,161.2,773.5z"/>
	<path class="st7" d="M170.4,768.8c0,0.3-0.4,0.5-0.7,0.3c-0.3-0.2-0.7-0.3-1.2-0.3c-1.2,0-2.3,0.9-2.5,2.2c-0.3,1.5,0.5,2.6,2,2.6
		c0.5,0,0.9-0.2,1.1-0.3c0.2-0.1,0.4,0,0.6,0.1l0,0c0.1,0.2,0.1,0.4-0.1,0.6c-0.5,0.4-1.2,0.6-2,0.6c-2,0-3.1-1.8-2.8-3.6
		c0.3-1.9,1.9-3.2,3.8-3.2c0.6,0,1.3,0.2,1.7,0.5C170.4,768.4,170.5,768.6,170.4,768.8L170.4,768.8z"/>
	<path class="st7" d="M171.4,771.1c0.3-2,2-3.3,3.8-3.3c1.2,0,2,0.7,1.8,1.6c-0.2,0.9-1.6,2.2-4.4,2.6c0.1,1.2,1,1.6,1.9,1.6
		c0.6,0,1.1-0.2,1.6-0.5c0.2-0.1,0.5-0.1,0.6,0.1l0,0c0.1,0.2,0.1,0.4-0.1,0.6c-0.7,0.5-1.4,0.8-2.4,0.8
		C172.1,774.6,171.1,772.8,171.4,771.1z M175.8,769.5c0-0.3-0.2-0.7-0.8-0.7c-1,0-2.2,0.9-2.4,2.4
		C174.3,771,175.7,770.1,175.8,769.5z"/>
	<path class="st7" d="M182.3,767.7h-0.6c-0.3,0-0.6-0.3-0.5-0.6l0,0c0-0.2,0.2-0.3,0.4-0.4l2.3-0.6l-1.4,7.8c0,0.3-0.3,0.6-0.6,0.6
		l0,0c-0.4,0-0.7-0.4-0.6-0.8L182.3,767.7z"/>
	<path class="st7" d="M185.2,777.1L185.2,777.1c0.1-0.4,0.5-0.6,0.9-0.5c0.4,0.2,1,0.3,1.6,0.3c1.9,0,3.7-1.6,4.3-4.7
		c-0.6,0.6-1.6,1.2-2.8,1.2c-2.1,0-3.5-1.7-3.2-3.9s1.9-3.6,4-3.6c1.7,0,4,1.1,3.5,5.3s-2.8,6.9-6,6.9c-0.8,0-1.4-0.2-1.9-0.4
		C185.3,777.6,185.2,777.3,185.2,777.1z M192.1,771c0.4-3.2-1.2-3.9-2.2-3.9c-1.5,0-2.4,0.9-2.6,2.5c-0.2,1.5,0.6,2.7,2.1,2.7
		C190.6,772.3,191.6,771.7,192.1,771z"/>
	<path class="st7" d="M194.8,777.1L194.8,777.1c0.1-0.4,0.5-0.6,0.9-0.5c0.4,0.2,1,0.3,1.6,0.3c1.9,0,3.7-1.6,4.3-4.7
		c-0.6,0.6-1.6,1.2-2.8,1.2c-2.1,0-3.5-1.7-3.2-3.9s1.9-3.6,4-3.6c1.7,0,4,1.1,3.5,5.3c-0.6,4.3-2.8,6.9-6,6.9
		c-0.8,0-1.4-0.2-1.9-0.4C194.9,777.6,194.8,777.3,194.8,777.1z M201.7,771c0.4-3.2-1.2-3.9-2.2-3.9c-1.5,0-2.4,0.9-2.6,2.5
		c-0.2,1.5,0.6,2.7,2.1,2.7C200.2,772.3,201.2,771.7,201.7,771z"/>
	<path class="st7" d="M205,770.1c0.4-2.4,2.3-4,4.7-4c2.6,0,4.1,2.2,3.8,4.5c-0.4,2.4-2.3,4-4.7,4
		C206.1,774.7,204.6,772.5,205,770.1z M212,770.6c0.4-2.1-0.9-3.5-2.5-3.5c-1.5,0-2.9,1.2-3.2,3c-0.4,2.1,0.9,3.5,2.5,3.5
		C210.4,773.6,211.7,772.4,212,770.6z"/>
</g>
<g>
	<g>
		<path class="st7" d="M164.3,701.3l1.3-7h-0.9c-0.6,0-0.9-0.5-0.9-1l0,0c0.1-0.4,0.4-0.7,0.9-0.7h1.2l0.6-3.4c0.1-0.5,0.5-0.9,1-1
			l0,0c0.9-0.1,1.6,0.6,1.4,1.4l-0.5,2.9h2.2c0.6,0,0.9,0.5,0.9,1l0,0c-0.1,0.4-0.4,0.7-0.9,0.7h-2.6l-1.3,7
			c-0.3,1.6,0.1,2.5,1.3,2.5c0.4,0,0.7-0.1,1-0.2c0.3-0.1,0.8,0,0.9,0.4v0c0.1,0.3,0,0.6-0.3,0.7c-0.7,0.4-1.4,0.7-2.5,0.7
			C165.3,705.5,163.8,704.2,164.3,701.3z"/>
		<path class="st7" d="M181.9,703.3c0-2.1,1.3-4.6,1.3-6.9c0-1.3-0.6-2.1-1.9-2.1c-1.7,0-4.4,1.7-5.1,5.7l-0.7,4.1
			c-0.1,0.6-0.6,1-1.2,1l0,0c-0.8,0-1.4-0.7-1.2-1.5l3.5-19.9c0.1-0.5,0.5-0.9,1-1l0,0c0.9-0.1,1.6,0.6,1.4,1.4l-1.9,10.9
			c1.3-1.8,3.2-3,5.1-3c2.3,0,3.6,1.6,3.6,3.7c0,2.7-1.3,5.2-1.3,7.2c0,0.5,0.3,0.8,0.7,0.8c0.1,0,0.3,0,0.4,0
			c0.4-0.1,0.7,0.2,0.7,0.6l0,0c0,0.2-0.1,0.4-0.3,0.5c-0.6,0.3-1.3,0.5-2,0.5C182.9,705.5,181.9,704.7,181.9,703.3z"/>
		<path class="st7" d="M188.9,698.7c0.7-3.9,4.1-6.5,7.5-6.5c2.4,0,3.9,1.4,3.6,3.2c-0.3,1.8-3.2,4.4-8.8,5.1
			c0.2,2.3,1.9,3.2,3.7,3.2c1.1,0,2.1-0.3,3.1-1c0.4-0.3,0.9-0.2,1.2,0.2l0,0c0.2,0.3,0.1,0.8-0.2,1.1c-1.3,1.1-2.9,1.6-4.7,1.6
			C190.4,705.6,188.4,702.1,188.9,698.7z M197.7,695.5c0.1-0.7-0.4-1.4-1.5-1.4c-1.9,0-4.3,1.7-4.8,4.8
			C194.6,698.6,197.4,696.8,197.7,695.5z"/>
	</g>
</g>
<g id="Layer_1_4_">
	<g>
		<g>
			<g>
				<path class="st10" d="M398.7,726.4c-3.8,23.7-6.5,25.8-5.2,21.2l3.7-24.2c24.9-9.1,30.5,21.2,7,28.4c-7.8,2.4-11.4,1-6.3-1.7
					c14.9-7.7,43.4-7.3,51.6-5.1c8.7,2.3,4.9,11.1,0.5,16.7c-6.3,7.9-16.8,12-26.8,12.1c-20.3,0.2-36.8-16.1-36.9-36.4
					c-0.1-20.2,16.3-36.6,36.5-36.6c20.2,0,36.5,16.3,36.5,36.5c0,2.9-0.5,5.9-1.1,8.6"/>
				<path class="st11" d="M423.9,733l-1.1,6.2c-0.6,3.9,5.3,3,6.5-6.6c0.2-2-1.6,9.4-1.5,8.2c1.4-10.2,7.7-10.8,7.3-6.6l-0.8,4.2
					c-0.7,4.2,4.4,3.3,4.6-0.3c9.3-1.8,5.6-8,1.5-5c-2.6,1.9-3,7.6,1.5,8.4c2.7,0.5,5.7-1.6,6-3.1c0,0,1-6.3,0.9-5.1
					c0,0-1.8,9.9-1.5,8.5c1-6.1,3-8.6,5.1-9.2"/>
				<circle class="st7" cx="424.4" cy="730.1" r="0.8"/>
			</g>
		</g>
	</g>
</g>
</svg>
