<svg id="Layer_1" data-name="Layer 1" xmlns="http://www.w3.org/2000/svg" xmlns:xlink="http://www.w3.org/1999/xlink" viewBox="0 0 1234 607"><defs><style>.cls-1{fill:none;}.cls-2{fill:#708e5b;}.cls-3{opacity:0.3;}.cls-4{fill:#fff;}.cls-5{fill:url(#New_Pattern_Swatch_2);}.cls-6{clip-path:url(#clip-path);}.cls-7{fill:#618d41;}</style><pattern id="New_Pattern_Swatch_2" data-name="New Pattern Swatch 2" width="3.75" height="3.75" patternUnits="userSpaceOnUse" viewBox="0 0 3.75 3.75"><rect class="cls-1" width="3.75" height="3.75"/><rect class="cls-2" width="3.75" height="3.75"/></pattern><clipPath id="clip-path"><path class="cls-1" d="M351.89,441.42l-.55-3.65,13-2,.55,3.64Zm.06-3.2.39,2.59,12-1.81-.39-2.58Z"/></clipPath></defs><title>SCE</title><rect class="cls-2" x="-53.42" y="-61.35" width="1316.87" height="707.3"/><polygon class="cls-2" points="1234 -7.85 0 -7.85 0 63.19 298.97 63.19 298.97 477.8 0 477.8 0 605.97 1234 605.97 1234 -7.85"/><rect class="cls-2" width="1234" height="606.98"/><g class="cls-3"><rect class="cls-1" y="605.97" width="1234" height="1.01"/><polygon class="cls-2" points="10.29 187.8 68.76 187.72 68.85 254.74 110.85 254.74 110.77 187.65 169.24 187.57 169.32 254.74 211.32 254.74 211.24 187.5 269.71 187.42 269.8 254.74 295.41 254.74 295.41 167.05 0 167.05 0 254.74 10.37 254.74 10.29 187.8"/><path class="cls-2" d="M1234-7.85H0v71H299V477.8H0V606H1234ZM603.42,482l-.55-.07-3,.43v-.84L497.65,467.62V360H519.1V346.39h19.83v-13.1h18.85V320.21h90.14v13.08h18.66v13.1H686.4v13.32l15.52,0V468l-98.5,13.94Z"/><path class="cls-2" d="M602.31,334.19H539.82v12.2h62.49Zm-45.5,12.15a5.12,5.12,0,1,1,5.54-5.1A5.33,5.33,0,0,1,556.81,346.34Zm25.75,0a5.12,5.12,0,1,1,5.54-5.1A5.33,5.33,0,0,1,582.56,346.34Z"/><path class="cls-2" d="M602.31,321.11H558.67v12.18h43.64Zm-22,12.1a5.12,5.12,0,1,1,5.53-5.1A5.33,5.33,0,0,1,580.31,333.21Z"/><path class="cls-2" d="M602.31,347.29H520v12.19h82.32Zm-65.44,12.14a5.12,5.12,0,1,1,5.54-5.1A5.33,5.33,0,0,1,536.87,359.43Zm24.3,0a5.12,5.12,0,1,1,5.53-5.1A5.33,5.33,0,0,1,561.17,359.43Zm23.75,0a5.12,5.12,0,1,1,5.54-5.1A5.33,5.33,0,0,1,584.92,359.43Z"/><path class="cls-2" d="M120.21,356V343.24a1.76,1.76,0,0,1,.8-1.45v-.85h-1.24v-3.73h13.18v3.73h-1v.79a1.74,1.74,0,0,1,.89,1.51V356a1.75,1.75,0,0,1-1.71,1.76h18.08a1.73,1.73,0,0,1-1.56-1.72l0-12.74a1.76,1.76,0,0,1,.8-1.45V341h-1.23v-3.73h13.18V341h-1v.79a1.73,1.73,0,0,1,.89,1.51l0,12.74a1.74,1.74,0,0,1-1.61,1.73h17.87a1.73,1.73,0,0,1-1.46-1.7V343.28a1.73,1.73,0,0,1,.8-1.44V341h-1.24v-3.73h13.18V341h-1v.79a1.75,1.75,0,0,1,.89,1.51V356a1.73,1.73,0,0,1-1.5,1.71H203.9a1.72,1.72,0,0,1-1.35-1.68l0-12.74a1.73,1.73,0,0,1,.8-1.44V341H202.1v-3.73h13.18V341h-1v.79a1.75,1.75,0,0,1,.9,1.51V356a1.73,1.73,0,0,1-1.41,1.69h17.47a1.73,1.73,0,0,1-1.26-1.66V343.32a1.73,1.73,0,0,1,.8-1.44V341h-1.23v-3.73h13.18V341h-1v.79a1.77,1.77,0,0,1,.89,1.51l0,12.74a1.73,1.73,0,0,1-1.31,1.67h17.26a1.74,1.74,0,0,1-1.15-1.64l0-12.73a1.72,1.72,0,0,1,.81-1.45V341H257v-3.72l13.18,0V341h-1v.79a1.75,1.75,0,0,1,.9,1.51v12.74a1.74,1.74,0,0,1-1.2,1.65h26.53V270H0v87.69H121.88A1.74,1.74,0,0,1,120.21,356Zm-98-14.34a1.73,1.73,0,0,1,.9,1.5v12.74a1.75,1.75,0,0,1-1.74,1.77H12.18a1.76,1.76,0,0,1-1.75-1.77l0-12.73a1.75,1.75,0,0,1,.8-1.45v-.85H10v-3.73l13.18,0v3.73h-1Zm27.45,0a1.74,1.74,0,0,1,.89,1.5l0,12.74a1.76,1.76,0,0,1-1.75,1.77H39.62a1.76,1.76,0,0,1-1.75-1.76V343.18a1.75,1.75,0,0,1,.8-1.45v-.85H37.43v-3.73l13.18,0v3.73h-1Zm27.44,0a1.73,1.73,0,0,1,.9,1.51v12.73a1.75,1.75,0,0,1-1.74,1.77H67.07a1.75,1.75,0,0,1-1.75-1.76V343.2a1.7,1.7,0,0,1,.8-1.45v-.85H64.87v-3.73l13.18,0v3.73h-1Zm27.45,0a1.74,1.74,0,0,1,.89,1.51l0,12.73a1.76,1.76,0,0,1-1.75,1.77H94.51A1.77,1.77,0,0,1,92.76,356V343.22a1.75,1.75,0,0,1,.8-1.45v-.85H92.32v-3.73l13.19,0v3.73h-1Z"/><path class="cls-2" d="M685.51,347.29H603.2v12.19h82.31ZM631,355.56a5.86,5.86,0,0,1-2.1,2.42,8.94,8.94,0,0,1-8.55.58c-3.53-1.44-5.77-4.5-5.85-7.46a6.39,6.39,0,0,1,.29-2c.1-.32.77-.4.77-.4a4.61,4.61,0,0,0,.33,1.2,8.83,8.83,0,0,0,5.88,4.58c3.74,1,6.86-.09,8.64-2.34.39.24.38.54.24,1a5.16,5.16,0,0,1-1.29,2.27,6.73,6.73,0,0,0,1.62-1.33C631.39,354.56,631.24,355,631,355.56Zm26,0a5.93,5.93,0,0,1-2.1,2.42,9,9,0,0,1-8.56.58c-3.52-1.44-5.77-4.5-5.84-7.46a6.39,6.39,0,0,1,.29-2c.1-.32.77-.4.77-.4a4.13,4.13,0,0,0,.33,1.2,8.8,8.8,0,0,0,5.88,4.58c3.74,1,6.85-.09,8.64-2.34.39.24.37.54.23,1a5,5,0,0,1-1.28,2.27,6.52,6.52,0,0,0,1.61-1.33C657.36,354.58,657.21,355.06,657,355.58Zm23.28-.05a5.93,5.93,0,0,1-2.1,2.42,9,9,0,0,1-8.55.58c-3.53-1.44-5.78-4.51-5.85-7.46a6.39,6.39,0,0,1,.29-2c.1-.32.77-.4.77-.4a4.13,4.13,0,0,0,.33,1.2,8.8,8.8,0,0,0,5.88,4.58c3.74,1,6.85-.09,8.64-2.34.39.23.38.54.23,1a5.1,5.1,0,0,1-1.28,2.27,6.52,6.52,0,0,0,1.61-1.33C680.64,354.53,680.49,355,680.24,355.53Z"/><path class="cls-2" d="M10.72,454.52l-.06-44.82a6,6,0,0,1,3.64-5.22V401.6H8.69l0-9.12,60,0,0,9.11H64.17v2.7c2.42,1.06,4.07,3.06,4.07,5.38l.06,44.82c0,3.43-3.55,6.21-7.94,6.21l-28.37,0h86.4c-3.85-.44-6.81-3-6.81-6.15l-.06-44.95a6,6,0,0,1,3.64-5.23v-2.89h-5.61l0-9.14,60,0,0,9.14H165v2.7c2.42,1.07,4.07,3.07,4.07,5.4l.06,44.95c0,3.22-3.1,5.87-7.1,6.2H295.41V373H0v87.7H18.39C14.13,460.59,10.72,457.87,10.72,454.52Zm259.7-62.34,0,9.14h-4.56V404c2.42,1.07,4.07,3.07,4.07,5.4l.06,45c0,3.44-3.55,6.24-7.94,6.24l-41.68,0c-4.39,0-8-2.79-8-6.23l-.06-45a6,6,0,0,1,3.64-5.24v-2.89h-5.61l0-9.15Z"/><polygon class="cls-2" points="11.56 117.46 41.22 117.42 41.27 151.76 77.33 151.76 77.33 97.69 113.83 97.69 113.83 151.76 155.59 151.76 155.59 97.27 192.1 97.27 192.1 151.76 233.86 151.76 233.86 97.39 270.36 97.39 270.36 151.76 295.41 151.76 295.41 66.79 0 66.79 0 151.76 11.6 151.76 11.56 117.46"/><path class="cls-2" d="M665.69,334.19H603.2v12.2h62.49Zm-30.94,8.25a6,6,0,0,1-2.11,2.42,9,9,0,0,1-8.55.58c-3.53-1.44-5.77-4.51-5.84-7.46a5.91,5.91,0,0,1,.29-2c.1-.31.77-.39.77-.39a4.13,4.13,0,0,0,.33,1.2,8.8,8.8,0,0,0,5.88,4.58c3.74,1,6.85-.09,8.64-2.34.39.23.37.53.23,1a5.19,5.19,0,0,1-1.28,2.27,6.76,6.76,0,0,0,1.61-1.34C635.15,341.44,635,341.91,634.75,342.44Zm26,0a5.86,5.86,0,0,1-2.1,2.42,9,9,0,0,1-8.55.58c-3.53-1.45-5.77-4.51-5.84-7.46a6.16,6.16,0,0,1,.28-2c.1-.32.77-.4.77-.4a4.61,4.61,0,0,0,.33,1.21,8.82,8.82,0,0,0,5.88,4.57c3.75,1,6.86-.08,8.64-2.33.39.23.38.53.24,1a5.21,5.21,0,0,1-1.29,2.27,7,7,0,0,0,1.62-1.34C661.11,341.46,661,341.93,660.71,342.46Z"/><path class="cls-2" d="M647,321.11H603.2v12.18H647Zm-7.93,8.3a5.86,5.86,0,0,1-2.1,2.42,8.94,8.94,0,0,1-8.55.58c-3.53-1.44-5.77-4.5-5.84-7.46a6.1,6.1,0,0,1,.28-2c.1-.32.77-.4.77-.4a4.45,4.45,0,0,0,.34,1.2,8.8,8.8,0,0,0,5.88,4.58c3.74,1,6.85-.09,8.63-2.34.4.24.38.54.24,1a5.16,5.16,0,0,1-1.29,2.27,6.55,6.55,0,0,0,1.62-1.33C639.51,328.41,639.36,328.89,639.1,329.41Z"/><polygon class="cls-4" points="600.81 363.6 501.22 363.6 501.22 464.47 599.89 477.93 600.81 363.6"/><polygon class="cls-2" points="499.44 466.05 499.44 361.8 600.82 361.8 600.83 360.38 519.1 360.38 519.1 360 497.65 360 497.65 467.62 599.86 481.56 599.87 479.74 499.44 466.05"/><polygon class="cls-5" points="499.44 466.05 499.44 361.8 600.82 361.8 600.83 360.38 519.1 360.38 519.1 360 497.65 360 497.65 467.62 599.86 481.56 599.87 479.74 499.44 466.05"/><polygon class="cls-2" points="603.42 482.05 603.42 481.89 602.87 481.97 603.42 482.05"/><polygon class="cls-5" points="603.42 482.05 603.42 481.89 602.87 481.97 603.42 482.05"/><path class="cls-4" d="M499.44,466.05l100.43,13.69,1-117.94H499.44Zm1.78-102.45h99.59l-.92,114.33-98.67-13.46Z"/><path class="cls-5" d="M499.44,466.05l100.43,13.69,1-117.94H499.44Zm1.78-102.45h99.59l-.92,114.33-98.67-13.46Z"/><polygon class="cls-4" points="603.45 478.25 698.36 464.82 698.36 363.27 604.37 363.61 603.45 478.25"/><polygon class="cls-2" points="599.85 482.4 602.87 481.97 599.86 481.56 599.85 482.4"/><polygon class="cls-5" points="599.85 482.4 602.87 481.97 599.86 481.56 599.85 482.4"/><polygon class="cls-2" points="701.92 359.66 686.4 359.71 686.4 360.38 604.4 360.38 604.39 361.81 700.14 361.46 700.14 466.38 603.43 480.07 603.42 481.89 701.92 467.95 701.92 359.66"/><polygon class="cls-5" points="701.92 359.66 686.4 359.71 686.4 360.38 604.4 360.38 604.39 361.81 700.14 361.46 700.14 466.38 603.43 480.07 603.42 481.89 701.92 467.95 701.92 359.66"/><polygon class="cls-2" points="601.65 480.32 602.6 361.82 604.39 361.81 604.4 360.38 600.83 360.38 600.82 361.8 602.6 361.8 601.65 479.99 599.87 479.74 599.86 481.56 602.87 481.97 603.42 481.89 603.43 480.07 601.65 480.32"/><polygon class="cls-5" points="601.65 480.32 602.6 361.82 604.39 361.81 604.4 360.38 600.83 360.38 600.82 361.8 602.6 361.8 601.65 479.99 599.87 479.74 599.86 481.56 602.87 481.97 603.42 481.89 603.43 480.07 601.65 480.32"/><polygon class="cls-5" points="601.65 480.32 602.6 361.82 604.39 361.81 604.4 360.38 600.83 360.38 600.82 361.8 602.6 361.8 601.65 479.99 599.87 479.74 599.86 481.56 602.87 481.97 603.42 481.89 603.43 480.07 601.65 480.32"/><polygon class="cls-4" points="601.65 479.99 602.6 361.8 600.82 361.8 599.87 479.74 601.65 479.99"/><polygon class="cls-5" points="601.65 479.99 602.6 361.8 600.82 361.8 599.87 479.74 601.65 479.99"/><polygon class="cls-5" points="601.65 479.99 602.6 361.8 600.82 361.8 599.87 479.74 601.65 479.99"/><path class="cls-4" d="M601.65,480.32l1.78-.25,96.71-13.69V361.47l-95.75.34H602.6Zm96.71-117V464.82l-94.91,13.43.92-114.64Z"/><path class="cls-5" d="M601.65,480.32l1.78-.25,96.71-13.69V361.47l-95.75.34H602.6Zm96.71-117V464.82l-94.91,13.43.92-114.64Z"/><path class="cls-4" d="M600.83,360.38H686.4v-14H666.58v-13.1H647.92V320.21H557.78v13.08H538.93v13.1H519.1v14Zm2.37-39.27H647v12.18H603.2Zm0,13.08h62.49v12.2H603.2Zm0,13.1h82.31v12.19H603.2Zm-44.53-26.18h43.64v12.18H558.67Zm-18.85,13.08h62.49v12.2H539.82ZM520,347.29h82.32v12.19H520Z"/><ellipse class="cls-4" cx="561.17" cy="354.33" rx="5.53" ry="5.1"/><ellipse class="cls-4" cx="536.87" cy="354.33" rx="5.53" ry="5.1"/><ellipse class="cls-4" cx="584.92" cy="354.33" rx="5.53" ry="5.1"/><ellipse class="cls-4" cx="582.56" cy="341.24" rx="5.53" ry="5.1"/><ellipse class="cls-4" cx="556.81" cy="341.24" rx="5.53" ry="5.1"/><ellipse class="cls-4" cx="580.31" cy="328.11" rx="5.53" ry="5.1"/><path class="cls-4" d="M629.35,355.46a5.16,5.16,0,0,0,1.29-2.27c.14-.5.15-.8-.24-1-1.78,2.25-4.9,3.35-8.64,2.34a8.83,8.83,0,0,1-5.88-4.58,4.61,4.61,0,0,1-.33-1.2s-.67.08-.77.4a6.39,6.39,0,0,0-.29,2c.08,3,2.32,6,5.85,7.46a8.94,8.94,0,0,0,8.55-.58,5.86,5.86,0,0,0,2.1-2.42c.25-.52.4-1,0-1.43A6.73,6.73,0,0,1,629.35,355.46Z"/><path class="cls-4" d="M655.32,355.48a5,5,0,0,0,1.28-2.27c.14-.5.16-.8-.23-1-1.79,2.25-4.9,3.35-8.64,2.34a8.8,8.8,0,0,1-5.88-4.58,4.13,4.13,0,0,1-.33-1.2s-.67.08-.77.4a6.39,6.39,0,0,0-.29,2c.07,3,2.32,6,5.84,7.46a9,9,0,0,0,8.56-.58,5.93,5.93,0,0,0,2.1-2.42c.25-.52.4-1,0-1.43A6.52,6.52,0,0,1,655.32,355.48Z"/><path class="cls-4" d="M678.6,355.43a5.1,5.1,0,0,0,1.28-2.27c.15-.5.16-.81-.23-1-1.79,2.25-4.9,3.35-8.64,2.34a8.8,8.8,0,0,1-5.88-4.58,4.13,4.13,0,0,1-.33-1.2s-.67.08-.77.4a6.39,6.39,0,0,0-.29,2c.07,2.95,2.32,6,5.85,7.46a9,9,0,0,0,8.55-.58,5.93,5.93,0,0,0,2.1-2.42c.25-.52.4-1,0-1.43A6.52,6.52,0,0,1,678.6,355.43Z"/><path class="cls-4" d="M633.11,342.34a5.19,5.19,0,0,0,1.28-2.27c.14-.51.16-.81-.23-1-1.79,2.25-4.9,3.34-8.64,2.34a8.8,8.8,0,0,1-5.88-4.58,4.13,4.13,0,0,1-.33-1.2s-.67.08-.77.39a5.91,5.91,0,0,0-.29,2c.07,2.95,2.31,6,5.84,7.46a9,9,0,0,0,8.55-.58,6,6,0,0,0,2.11-2.42c.25-.53.4-1,0-1.44A6.76,6.76,0,0,1,633.11,342.34Z"/><path class="cls-4" d="M659.07,342.36a5.21,5.21,0,0,0,1.29-2.27c.14-.51.15-.81-.24-1-1.78,2.25-4.89,3.34-8.64,2.33a8.82,8.82,0,0,1-5.88-4.57,4.61,4.61,0,0,1-.33-1.21s-.67.08-.77.4a6.16,6.16,0,0,0-.28,2c.07,2.95,2.31,6,5.84,7.46a9,9,0,0,0,8.55-.58,5.86,5.86,0,0,0,2.1-2.42c.25-.53.4-1,0-1.44A7,7,0,0,1,659.07,342.36Z"/><path class="cls-4" d="M637.46,329.31a5.16,5.16,0,0,0,1.29-2.27c.14-.5.16-.8-.24-1-1.78,2.25-4.89,3.35-8.63,2.34a8.8,8.8,0,0,1-5.88-4.58,4.45,4.45,0,0,1-.34-1.2s-.67.08-.77.4a6.1,6.1,0,0,0-.28,2c.07,3,2.31,6,5.84,7.46a8.94,8.94,0,0,0,8.55-.58,5.86,5.86,0,0,0,2.1-2.42c.26-.52.41-1,0-1.43A6.55,6.55,0,0,1,637.46,329.31Z"/><path class="cls-4" d="M299,63.19H0v3.6H295.41v85H270.36v.32h-36.5v-.32H192.1v1.08H155.59v-1.08H113.83v1.83H77.33v-1.83H41.27v1.54l-29.67,0v-1.58H0v15.29H295.41v87.69H269.79v3.53l-58.47.08v-3.61h-42v1.47l-58.47.08v-1.55h-42v.89l-58.48.08v-1H0V270H295.41v87.69H268.88a1.74,1.74,0,0,0,1.2-1.65V343.33a1.75,1.75,0,0,0-.9-1.51V341h1V337.3l-13.18,0V341h1.23v.86a1.72,1.72,0,0,0-.81,1.45l0,12.73a1.74,1.74,0,0,0,1.15,1.64H241.33a1.73,1.73,0,0,0,1.31-1.67l0-12.74a1.77,1.77,0,0,0-.89-1.51V341h1v-3.73H229.54V341h1.23v.86a1.73,1.73,0,0,0-.8,1.44v12.74a1.73,1.73,0,0,0,1.26,1.66H213.78a1.73,1.73,0,0,0,1.41-1.69V343.29a1.75,1.75,0,0,0-.9-1.51V341h1v-3.73H202.1V341h1.23v.86a1.73,1.73,0,0,0-.8,1.44l0,12.74a1.72,1.72,0,0,0,1.35,1.68H186.24a1.73,1.73,0,0,0,1.5-1.71V343.27a1.75,1.75,0,0,0-.89-1.51V341h1v-3.73H174.65V341h1.24v.86a1.73,1.73,0,0,0-.8,1.44V356a1.73,1.73,0,0,0,1.46,1.7H158.69A1.74,1.74,0,0,0,160.3,356l0-12.74a1.73,1.73,0,0,0-.89-1.51V341h1v-3.73H147.21V341h1.23v.85a1.76,1.76,0,0,0-.8,1.45l0,12.74a1.73,1.73,0,0,0,1.56,1.72H131.14a1.75,1.75,0,0,0,1.71-1.76V343.23a1.74,1.74,0,0,0-.89-1.51v-.79h1V337.2H119.76v3.73H121v.85a1.76,1.76,0,0,0-.8,1.45V356a1.74,1.74,0,0,0,1.67,1.74H0V373H295.41v87.7H162.06q-.42,0-.84,0l-41.68,0a10.92,10.92,0,0,1-1.15-.07H0V477.8H299Z"/><path class="cls-4" d="M23.16,337.11l-13.18,0v3.73h1.23v.85a1.75,1.75,0,0,0-.8,1.45l0,12.73a1.76,1.76,0,0,0,1.75,1.77h9.15a1.75,1.75,0,0,0,1.74-1.77V343.14a1.73,1.73,0,0,0-.9-1.5v-.8h1Z"/><path class="cls-4" d="M50.6,337.13l-13.18,0v3.73h1.23v.85a1.75,1.75,0,0,0-.8,1.45v12.74a1.76,1.76,0,0,0,1.75,1.76h9.15a1.76,1.76,0,0,0,1.75-1.77l0-12.74a1.74,1.74,0,0,0-.89-1.5v-.8h1Z"/><path class="cls-4" d="M78.05,337.15l-13.18,0v3.73H66.1v.85a1.7,1.7,0,0,0-.8,1.45v12.74a1.75,1.75,0,0,0,1.75,1.76h9.15A1.75,1.75,0,0,0,78,355.92V343.19a1.73,1.73,0,0,0-.9-1.51v-.8h1Z"/><path class="cls-4" d="M105.5,337.17l-13.19,0v3.73h1.23v.85a1.75,1.75,0,0,0-.8,1.45V356a1.77,1.77,0,0,0,1.75,1.76h9.15a1.76,1.76,0,0,0,1.75-1.77l0-12.73a1.74,1.74,0,0,0-.89-1.51v-.79h1Z"/><polygon class="cls-4" points="10.29 187.8 10.37 254.74 10.38 255.71 68.85 255.63 68.85 254.74 68.76 187.72 10.29 187.8"/><polygon class="cls-4" points="110.77 187.65 110.85 254.74 110.85 256.29 169.32 256.21 169.32 254.74 169.24 187.57 110.77 187.65"/><polygon class="cls-4" points="211.24 187.5 211.32 254.74 211.33 258.35 269.8 258.27 269.8 254.74 269.71 187.42 211.24 187.5"/><path class="cls-4" d="M68.3,454.47l-.06-44.82c0-2.32-1.65-4.32-4.07-5.38v-2.7h4.56l0-9.11-60,0,0,9.12H14.3v2.88a6,6,0,0,0-3.64,5.22l.06,44.82c0,3.35,3.41,6.07,7.67,6.19H32l28.37,0C64.75,460.68,68.31,457.9,68.3,454.47Z"/><path class="cls-4" d="M169.16,454.51l-.06-44.95c0-2.33-1.65-4.33-4.07-5.4v-2.7h4.56l0-9.14-60,0,0,9.14h5.61v2.89a6,6,0,0,0-3.64,5.23l.06,44.95c0,3.13,3,5.71,6.81,6.15a10.92,10.92,0,0,0,1.15.07l41.68,0q.42,0,.84,0C166.06,460.38,169.17,457.73,169.16,454.51Z"/><path class="cls-4" d="M216,401.35v2.89a6,6,0,0,0-3.64,5.24l.06,45c0,3.44,3.57,6.23,8,6.23l41.68,0c4.39,0,7.95-2.8,7.94-6.24l-.06-45c0-2.33-1.65-4.33-4.07-5.4v-2.71h4.56l0-9.14-60,0,0,9.15Z"/><polygon class="cls-4" points="11.56 117.46 11.6 151.76 11.6 153.34 41.27 153.3 41.27 151.76 41.22 117.42 11.56 117.46"/><polygon class="cls-4" points="77.33 97.69 77.33 151.76 77.33 153.59 113.83 153.59 113.83 151.76 113.83 97.69 77.33 97.69"/><polygon class="cls-4" points="233.86 97.39 233.86 151.76 233.86 152.08 270.36 152.08 270.36 151.76 270.36 97.39 233.86 97.39"/><polygon class="cls-4" points="155.59 97.27 155.59 151.76 155.59 152.84 192.1 152.84 192.1 151.76 192.1 97.27 155.59 97.27"/></g><path class="cls-4" d="M225.68,545.57a12.38,12.38,0,1,1,12.38-12.38A12.4,12.4,0,0,1,225.68,545.57Zm0-23.91a11.54,11.54,0,1,0,11.54,11.53A11.54,11.54,0,0,0,225.68,521.66Z"/><rect class="cls-4" x="289.71" y="396.84" width="58.47" height="65.94" transform="translate(-60.61 52.45) rotate(-8.59)"/><rect class="cls-4" x="353.52" y="440.85" width="12.64" height="16.09" rx="0.49" ry="0.49" transform="translate(-62.91 58.68) rotate(-8.58)"/><rect class="cls-4" x="353.11" y="439.23" width="10.95" height="3.15" transform="translate(-61.72 58.4) rotate(-8.58)"/><rect class="cls-4" x="351.81" y="437.04" width="12.64" height="3.15" transform="translate(-61.4 58.31) rotate(-8.58)"/><g class="cls-6"><rect class="cls-1" x="311" y="420.15" width="170.38" height="170.38"/><rect class="cls-7" x="311" y="420.15" width="170.38" height="170.38"/><rect class="cls-1" x="311" y="420.15" width="170.38" height="170.38"/><rect class="cls-7" x="311" y="420.15" width="170.38" height="170.38"/></g><rect class="cls-4" x="262.34" y="441.43" width="58.47" height="10.32" transform="translate(205.87 -79.83) rotate(23.89)"/><path class="cls-4" d="M916.59,306.55h-65.8a10.83,10.83,0,0,1-7.64-3.15l-8.26-8.52h97.6l-8.26,8.52A10.83,10.83,0,0,1,916.59,306.55Z"/><rect class="cls-4" x="714.31" y="17.79" width="498.79" height="64.25"/><rect class="cls-4" x="742.64" y="-2" width="3.56" height="68.86"/><rect class="cls-4" x="1184.96" y="-3.2" width="3.56" height="71.65"/><path class="cls-4" d="M1060.22,133.35a23.42,23.42,0,0,1,22.61-5.31,6,6,0,0,1,5.12-3.33c2.73,0,5.06,2.21,6,5.3,5.4.42,9.66,5.21,9.66,11.05a11.37,11.37,0,0,1-3.61,8.39c3.8,10.9.3,14.42-3.88,18.68,0,0,1.23,11,14.3,18.93,0,0,9.94,3.14,19.34,13.89s-4.54,89.84-4.54,89.84h-58.47l-4.24-73.64a24.65,24.65,0,0,0-1-6.3,15.7,15.7,0,0,1-.55-7.71s1.88-6.71,12-10.11c4.53-1.53,4.22-5.37,2.67-4.4-.63.4-1.31.72-1.66.93a6.88,6.88,0,0,1-5.58.45c-2-1-2-3.11-2.72-4.43a7.67,7.67,0,0,0-1.49-2.1,17.32,17.32,0,0,1-2.49-4s-2.32,1.41-3.08-.16.16-1,.5-5.27a20.94,20.94,0,0,1-1.66-3.12,4.91,4.91,0,0,0-1.68-2.17,4.68,4.68,0,0,1-1-1.1,4.58,4.58,0,0,1-.62-2.61c0-1.65-3.08-7-2.23-11.94C1052,153.06,1046.69,145.87,1060.22,133.35Z"/><path class="cls-4" d="M1061,286.1a16.07,16.07,0,0,0,0-3.26,6.29,6.29,0,0,1,0-2.59l3.47-11s-3.2-11.42-7.27-5.7c0,0-3.36,11.13-4.52,12.53s-1.48.43-2.66,2.85l-2.53-.33s-2,.08-2.62,3.1c0,0-2.12.49-2.23,3.58a2.56,2.56,0,0,0-.91,3.63,20.09,20.09,0,0,0,1.29,4.58s0,2.36.94,3.35c0,0,.67.82,1.6,1.78l0,.07c-.05,2,1.51,2.15,2.5,2.09.41.28.86.11,1.24.23,2.16.69,2.81.26,2.81.26a1.79,1.79,0,0,0-.67-2.28c-.36-.24-.49-.8-.73-1.57a34.31,34.31,0,0,0,2.29-5c1.08-3.27,1.24-2.32,1.57-1.93a1.11,1.11,0,0,0,1,.25l.48.41c-.52.84-.21.94-.62,1.33a7.58,7.58,0,0,0-.9,1.06,5.54,5.54,0,0,0-1,3c0,2.82,2.11,3.09,2.5,2.79a5.5,5.5,0,0,0,1-1.47s.14-.16,0,.12,1.56-1.34,1.94-2.28a12.31,12.31,0,0,1,1.54-3.2C1061.38,291.54,1061.17,286.55,1061,286.1Z"/><path class="cls-4" d="M1053.51,262.22c-.24-.68.4-1.22.66-2,.71-2.12,1.15-2.54,2.08-2.76,2.12-.49,8,2.21,8,2.21l.51,3.45a3.08,3.08,0,0,1-.3,1.84l-1.52,3.23S1055.13,266.78,1053.51,262.22Z"/><path class="cls-4" d="M1058.33,227.45s-.25,24.21-.67,24.76a1.58,1.58,0,0,0-.38,1s.48.34.09.49-.62.71-.43.8l.46.24c-.46.34-.42.41-.42.41s-.12.31-.19.52a16.68,16.68,0,0,0-1,5.62l6.53,7.09c.7-.84,3.49-12.3,3.49-12.3l5.88-7.08Z"/><path class="cls-2" d="M1139.42,310.16s-6.54-28.54-8.73-32.31-4.54-4.75-4.54-4.75c-.16-.82,2.63-6.56,2.63-6.56-1.25-5.73-7.31-14.64-7.31-14.64-14.18.21-18.84-42.18-18.84-42.18l-3.49.63,9.13-24.09c.9-2.62-3.58-6.44-17.3-5.73-6.88.35-21.46,12.28-24.74,17.79-2.47,4.16-4.68,8-4.68,8l-.53-.54s-5.18,17.33-5.2,19c0,6.12,1.2,8.61,1.2,8.61a44.12,44.12,0,0,1,4.73,14.5c1.29,8.67,3.06,9.19,3.06,9.19s-1.2,6.07-1.55,8.37c-2.79,18.6-5.88,52.31-5.88,52.31Zm-76-102.23c5.3-7.68,6.77-13.65,14.52-18.37,18.49-11.25,25.29-8.05,27.41-6.46a1.68,1.68,0,0,1,.69,1.74c-1.46,5.7-10.17,26.07-10.17,26.07a20.42,20.42,0,0,1-4.41,1.18c-1,.14-11.58,2-11.58,2-3.34.88-9.12,1.69-11.37.62s-3.37-3.83-4.64-6Z"/><path class="cls-4" d="M1057.08,318l0-.32c0-.34,3.12-33.94,5.89-52.33.31-2.05,1.31-7.16,1.51-8.2-.56-.41-2-2.14-3-9.28a44.32,44.32,0,0,0-4.69-14.41c-.06-.12-1.28-2.63-1.23-8.74,0-1.71,5-18.39,5.21-19.1l.13-.43.59.61c.58-1,2.46-4.19,4.51-7.65,3.46-5.81,18.17-17.57,25-17.92,8.63-.44,15,.92,17.07,3.66a2.56,2.56,0,0,1,.49,2.42l-9,23.66,3.31-.6,0,.29c0,.42,4.77,41.94,18.46,41.94h.25l.08.12c.25.37,6.11,9,7.35,14.73l0,.09,0,.08a39.73,39.73,0,0,0-2.61,6.28,11.81,11.81,0,0,1,4.51,4.78c2.19,3.77,8.5,31.23,8.76,32.39l.07.3-.3,0Zm4.07-111.79c-1.82,6.1-5.05,17.24-5.06,18.52,0,6,1.16,8.45,1.17,8.48a44.7,44.7,0,0,1,4.75,14.58c1.22,8.19,2.87,9,2.89,9l.23.07-.06.24c0,.06-1.2,6.09-1.54,8.36-2.62,17.41-5.53,48.48-5.86,52l81.42-7.51c-.7-3.05-6.6-28.45-8.63-31.94-2.12-3.64-4.39-4.63-4.42-4.64l-.13,0,0-.14c-.15-.84,2.07-5.51,2.62-6.65-1.19-5.26-6.46-13.27-7.18-14.33-6,0-10.94-7.16-14.85-21.21A154.28,154.28,0,0,1,1102.4,210l-3.67.66,9.29-24.53a2,2,0,0,0-.41-1.92,7.74,7.74,0,0,0-3.93-2.34,7.34,7.34,0,0,1,1.8,1,1.92,1.92,0,0,1,.79,2c-1.45,5.65-10.1,25.9-10.19,26.1l0,.11-.1,0a20.81,20.81,0,0,1-4.47,1.2c-1,.14-11.47,2-11.57,2-3.17.84-9.13,1.74-11.54.61-1.95-.92-3-2.93-4-4.87-.23-.44-.46-.87-.7-1.29l-.53-.93.09-.14c1.52-2.19,2.7-4.22,3.85-6.18,2.77-4.75,5.17-8.86,10.75-12.25,12-7.34,19.31-8.64,23.6-8a42.93,42.93,0,0,0-10.39-.51c-3,.15-8,2.67-13.57,6.9-5,3.74-9.35,8.07-11,10.76-2.47,4.15-4.68,7.95-4.68,7.95l-.18.3Zm2.56,1.7.36.63c.24.42.48.86.71,1.31,1,1.86,2,3.79,3.81,4.63,2.16,1,7.84.24,11.19-.64.45-.08,10.59-1.9,11.62-2a19.74,19.74,0,0,0,4.23-1.13c.67-1.57,8.73-20.52,10.12-25.93a1.43,1.43,0,0,0-.59-1.46c-2.76-2.06-10-4-27.11,6.48-5.47,3.33-7.83,7.38-10.57,12.07C1066.35,203.79,1065.19,205.78,1063.71,207.94Z"/><path class="cls-4" d="M1105.16,183.24a40.23,40.23,0,0,1-4.37-4.7,16,16,0,0,1-3.15-5.61c4.19-3.2,7.34-12.63,2.32-23.49a11.38,11.38,0,0,0,3.61-8.39A10.85,10.85,0,0,0,1093.9,130c-.89-3.09-3.22-5.29-6-5.29a6,6,0,0,0-5.12,3.33,23.42,23.42,0,0,0-22.61,5.31C1046.69,145.86,1052,153,1052,153c-.82,6.58,2.23,10.29,2.23,11.94a4.63,4.63,0,0,0,.62,2.62,4.68,4.68,0,0,0,1,1.1,4.91,4.91,0,0,1,1.68,2.17,20.94,20.94,0,0,0,1.66,3.12c-.34,4.28-1.2,3.83-.5,5.27s3.08.16,3.08.16a17.53,17.53,0,0,0,2.49,4.05,7.7,7.7,0,0,1,1.49,2.09c.72,1.33.71,3.44,2.72,4.44a6.89,6.89,0,0,0,5.57-.45c.36-.21,1-.53,1.67-.93,1.55-1,5.83,4,1.3,5.5"/><path class="cls-4" d="M1146.74,268.88c-.17-4.95-.68-8.36-1.19-9.38s-2.35-13.7-2.39-14h0c-.08-.31-3.75-15.53-3.58-17.9s-4.94-18.41-5.8-18.75-2.75-5.36-2.75-5.36-2.14-5.71-6.79-7.85c-4.5-2.08-17.92,5-17.94,5.11l9.26,16s-8.64,4.3-8.64,4.32L1118.64,244c-.05.14,3.15,9.07,3.3,9.06l3.13,7c.14,0,0,.88-.08,1-.13.57-.26,3.15,1.69,3.62,0,0,.16.06.12.09a1.64,1.64,0,0,0,.11,2c.25.2.54.35.38.62a.77.77,0,0,0-.11.31.2.2,0,0,1-.2.17,1.86,1.86,0,0,0-1.58,2.4.2.2,0,0,1-.1.26l-1.28.59a1.59,1.59,0,0,1-.74.15,3,3,0,0,0-2,.71c-1,.8-6.11,5.24-7.82,6.74a.69.69,0,0,0,0,1l.63.58a.22.22,0,0,1,0,.32c-1.1.86-6.71,5.23-9.5,7-7.81,5-7.9,3.88-11.74,5.9-1.91,1-8.73-3.94-9.1-4.21l0,0a5.33,5.33,0,0,0-2.76-2,7.47,7.47,0,0,1-1.15-.41c-1-.5-3.18-1.32-4.86-.51-2.28,1.11-6.33,1.69-7.18,2a46.64,46.64,0,0,0-5.44,4.13,4.21,4.21,0,0,0-1.21,2,4,4,0,0,0,.12,1.56l-.32,1.82a.31.31,0,0,0,.44.24.21.21,0,0,1,.28.26l-.6,1.54a.2.2,0,0,0,.06.24,2.86,2.86,0,0,0,1.58.06c1-.13,2.37-2.41,2.93-3.39a1.78,1.78,0,0,1,.55-.61,19.5,19.5,0,0,1,3.92-2.32c1.34-.45,4.83-1.18,5.85-1.42.14,0,.19.09.25.22.26.53.31,1.12-.78,1.49-1.26.41-2.5,1-3.31,1.25a5.79,5.79,0,0,0-3,1.62c-1,.92-1.62,1.54-2.62,2.38s-1.77,1.29-2.21,2.57c-.07.19.2-.07-1,2.21a.43.43,0,0,0,.07.48c.23.22.82.16,1.5,0,1-.17,2.18-1.51,2.67-2.56a2.26,2.26,0,0,1,.53-.49,36.34,36.34,0,0,0,3.29-2.68,1.73,1.73,0,0,1,.93-.34c.66-.16,1.88-.51,4.21-1.32,1.4-.48,2,.38.85,1.28s-.71.52-2.56,1.83c-.75.53-2.69,1.9-3.86,2.54a9.69,9.69,0,0,0-3.2,2.59l0,0-1.41,1.05c-.41.34-.33.46-.17.68s.72,1,3,.07c1-.41,2.57-1.6,4.31-2.54a31.63,31.63,0,0,1,4.55-2.06,5.09,5.09,0,0,1,5.31,1.31c2.58,2.28,7.34,2.67,9.71,2.07a13,13,0,0,0,3.7-1.57,21.28,21.28,0,0,1,4.28-2.11c5.35-1.83,22.18-10.66,23.61-11.41a.21.21,0,0,1,.19,0c.7.38,4.87,2.68,5.53,2.5.37-.09,6-6.3,7.16-7.16.93-.66.11-1.53-.31-1.88a.2.2,0,0,1,0-.32C1145.57,278.18,1146.91,273.78,1146.74,268.88Z"/><polygon class="cls-4" points="1070.06 223.25 1075.6 219.74 1076.51 219.81 1076.67 219.42 1073.98 219.21 1073.82 219.6 1075 219.7 1069.98 222.81 1067.18 224.55 1069.33 219.25 1070.32 219.33 1070.48 218.94 1066.84 218.65 1066.68 219.05 1067.59 219.12 1063.29 229.72 1062.38 229.65 1062.22 230.04 1065.86 230.33 1066.02 229.93 1065.03 229.85 1066.95 225.13 1068.27 224.29 1070.02 230.65 1072.77 230.87 1072.93 230.47 1072.08 230.41 1070.06 223.25"/><circle class="cls-4" cx="1058.87" cy="306" r="4.93"/><rect class="cls-4" x="764.73" y="249.34" width="23.82" height="58.06"/><rect class="cls-4" x="795.61" y="286.99" width="10.41" height="19.95"/><polygon class="cls-4" points="1213.09 306.56 714.31 306.56 714.31 348.8 744.42 348.8 744.42 532.74 765 532.74 765 547.54 1166.93 547.54 1166.93 532.74 1186.74 532.74 1186.74 348.8 1213.09 348.8 1213.09 306.56"/><path class="cls-2" d="M948.44,506.45h-151a4.35,4.35,0,0,1-4.35-4.34V364.86a4.35,4.35,0,0,1,4.35-4.35h151a4.35,4.35,0,0,1,4.35,4.35V502.11A4.35,4.35,0,0,1,948.44,506.45Zm-151-145a3.46,3.46,0,0,0-3.46,3.46V502.11a3.46,3.46,0,0,0,3.46,3.45h151a3.46,3.46,0,0,0,3.46-3.45V364.86a3.46,3.46,0,0,0-3.46-3.46Z"/><path class="cls-2" d="M1130.78,506.45h-151a4.35,4.35,0,0,1-4.35-4.34V364.86a4.35,4.35,0,0,1,4.35-4.35h151a4.35,4.35,0,0,1,4.35,4.35V502.11A4.35,4.35,0,0,1,1130.78,506.45Zm-151-145a3.46,3.46,0,0,0-3.46,3.46V502.11a3.46,3.46,0,0,0,3.46,3.45h151a3.46,3.46,0,0,0,3.46-3.45V364.86a3.46,3.46,0,0,0-3.46-3.46Z"/><path class="cls-4" d="M1060.86,285.14l-6.21,5.38a1.11,1.11,0,0,0,1,.25l.48.41c-.52.84-.21.94-.62,1.33a7.1,7.1,0,0,0-.9,1.07,5.48,5.48,0,0,0-1,3c0,2.82,2.11,3.09,2.5,2.79a5.35,5.35,0,0,0,1-1.47s.14-.16,0,.12,1.56-1.34,1.94-2.28a12.31,12.31,0,0,1,1.54-3.2C1061.38,291.54,1061.11,285.75,1060.86,285.14Z"/><path class="cls-4" d="M129.43,182.61s-20.5,13.67-15.13,38.09,6.8,72.33-5.86,94.23c-16.35,28.27,4.88,48.82,4.88,48.82s19.53,31.25,31.25,7.81,9.38-23,14.68-34.65c5.22-11.49,6.94-33.84,7.42-52a117.39,117.39,0,0,1,7.09-36.13c2.06-5.79,1.73-15.22-7.22-30C148,188,151.89,184.57,129.43,182.61Z"/><path class="cls-4" d="M82.5,504.87c4.79,2.14,25.77,4.57,30.59.13,0,0-3.14-4.92-3.18-8.84,0-5.17,1.37-10.06,2.57-14.16,3.44-11.66,10.84-34.92,10.48-38.6a13,13,0,0,1,1.32-6.76c5-3.92,6.82-11.5,7.44-16.64a37.14,37.14,0,0,1,2.28-9.07c4.5-11.62,6.68-44,6.68-44,8.68-37.71-34.44-19-34.44-19-3.33,1.35-.62,36.8-1.85,53.72-.38,5.15-.76,11.23-1,14.67a21.92,21.92,0,0,1-1,5.32c-8,25.13-8,35.37-11.35,52-2.14,10.73-5.53,17.41-5.23,21.2C86.07,497.75,79.21,503.4,82.5,504.87Z"/><path class="cls-4" d="M161.71,517.26a35.84,35.84,0,0,1-1.63,10.21c-1.12,3.37-2,11.6,5.72,13.21s9.78,0,18,1.2c9.45,1.37,17.51,3.31,26.43,1.82,4.2-.69,8-.72,8.2-4.72.1-1.79-2.09-2.33-5.19-2.7-5.14-.62-10.76-1.47-16.28-5.49a53.57,53.57,0,0,0-5.79-3.6c-3.17-2-6.07-3.73-7.46-8.83-.54-2-2.06-6.3-3.8-8.51C175,503.64,158,503,161.71,517.26Z"/><path class="cls-4" d="M104.71,350.06c.16-.8-.12-1.17-.48-1.35a4.16,4.16,0,0,1-2-2.44c-.26-.79-.45-1.47-.45-1.47-1.93-6.87-.6-8.6-.6-8.6-1.86-9,6.12-21.42,6.12-21.42S150,328,157,324.39c0,0,2.84.85,4.93,1.63,1.32.48.89,2.36.57,3.73a66.77,66.77,0,0,1-3.06,8"/><path class="cls-4" d="M168.62,372a16.38,16.38,0,0,0-2-10.56"/><path class="cls-4" d="M189.21,523.5c-1.5-6.88-6.65-20.47-7.32-29.62-.23-3.11-2.27-35.95-2.62-40.62-.18-2.46-.45-4.59-.7-6.54h0s-1.08-6.1-.16-7.76.42-2.93.7-4.57c.21-1.19.73-1.77.47-3.72A6.31,6.31,0,0,1,180,428c1-3.41-.9-5.41-1.82-12.21-.27-2-.91-4-1.14-6-2.7-24.42-13.83-61.26-17.82-72.84-4.75-13.77-47-38.11-55.44-4.85-5.54,21.73,13.28,34,18.51,40.34s22.93,38.06,22.93,38.06c.58,1.18,1.31,2.62,2.07,4.11.63,1.21,1.25,2.51,1.82,3.86,2,4.61,4.86,12,4.86,16.68,0,8.45-1.85,25.91,2,39.3,2.9,10,3.38,41.84,3.82,53.62C160.15,535.8,190.46,529.25,189.21,523.5Z"/><path class="cls-4" d="M150.23,423.88c-1.33-2.23-.13-3.86-2.91-9.31s7.85-1.35,8.76,3.05-2.6,13.12-2.6,13.12S153.11,428.74,150.23,423.88Z"/><path class="cls-4" d="M162.05,498.65s-1.8-8.13-2.57-7.07c-2.56,3.55.43,13.28.86,17.35s7.71,4.93,7.71,4.93Z"/><path class="cls-4" d="M112,314.31a9.07,9.07,0,0,0-4.5.33c-2.09.83,9.54,3.54,9.54,3.54Z"/><path class="cls-4" d="M106,413.84s-4.36.67-2.7-4.51c1.72-5.38,3.87-16.91,3.87-16.91s14.81,5.17,9,13.16S106,413.84,106,413.84Z"/><path class="cls-4" d="M177.81,474.7s1.07,3.64,3,5.35.86,9.41,1.29,11.12.21,24-3.64,14.33S177.81,474.7,177.81,474.7Z"/><path class="cls-4" d="M88.37,495.12s-.52,4.41-2.7,7.07-7.44,8-1.44,12.87S95.32,519,101.71,525.7s2.74,6.9,10.75,10.72c5.2,2.47,15.9,3.86,19.28,1.82,1.26-.76,2.52-3.22-3-5-4.92-1.54-9.29-6.09-12.21-13.64a38,38,0,0,0-2.78-5.67c-2.79-4.32-3.23-8.54-3.51-13.68a71.63,71.63,0,0,0-.78-7.51C108.25,485.43,92.07,481.65,88.37,495.12Z"/><path class="cls-4" d="M216.9,541a8.26,8.26,0,0,0-3.3-.6L162.8,538c-.62-.46-1.21,1-.13,2.66.41.65,3.06,3.43,15.58,2.49a119.08,119.08,0,0,1,14,1.09,70,70,0,0,0,21.28-.28C218.15,543.09,217.83,541.64,216.9,541Z"/><path class="cls-4" d="M201.88,537.56c-2.66,1.35-3.57,2.49-17.7,4.09,9.51,1.39,17.63,3.34,26.6,1.84,4.23-.7,8-.73,8.26-4.75.08-1.54-1.43-2.25-14.12-4.54C204.33,534.09,204.86,536.05,201.88,537.56Z"/><path class="cls-4" d="M121.68,529.9,82,507c-.23-.74-1.53,0-1.69,2.05-.06.77.43,4.59,11.05,11.27,0,0,8.21,7,14.43,12C116.15,540.6,121.68,529.9,121.68,529.9Z"/><path class="cls-4" d="M112.08,483.53s-2.9,10.67-.88,13c1.07,1.27.39,2.59.68,3.76s2.63,4.67.59,5-13.56-.8-20-5.18"/><path class="cls-4" d="M106.85,311.92a86.73,86.73,0,0,0,4.66-10.64c.57-1.71,1.3-2.47,2-2.74a10.93,10.93,0,0,0,5.88-4.82c1-1.83,1.63-3.42.83-3.52-1.9-.24-5.8-4.55-3.91-9.09,1.82-4.37,2.92-1.94,2.92-1.94l13.32,28.45S132.48,318.42,106.85,311.92Z"/><path class="cls-4" d="M123.72,256.17s-2.22,3.11-7.1-9.9c-4.69-12.51.38-11.07-.41-14.43s-3.47-1.12-2.11-15.41c.35-3.68,17.56,22.12,17.56,22.12S148,252.16,139,253.93A142.92,142.92,0,0,1,123.72,256.17Z"/><path class="cls-4" d="M130.13,180.35s-3.21-1-4.55.72a38.28,38.28,0,0,1-2.1,5.23c-.83,1.32,21.52,7,21.52,7s-.09-3.75.11-5.94-15-7-15-7"/><path class="cls-4" d="M118,256.38a19,19,0,0,0,1.47,11.92c1.25,2.71,2.71-13.38,2.71-13.38s-2.3-6.27-3.76-7.74S118,256.38,118,256.38Z"/><path class="cls-4" d="M120.43,285.26c-2.35-1-4.69-7.63-4.08-9.64,1.25-4.17,2.3-7.14,2.12-13.6-.22-7.32,9.7,11.33,9.7,11.33S125.45,287.35,120.43,285.26Z"/><path class="cls-4" d="M166.53,340.67s-29.68-22.6-54.8-26.36,54.34-20.22,54.34-20.22S164.84,334.18,166.53,340.67Z"/><path class="cls-4" d="M174.07,151.62l-.23-.16a9.64,9.64,0,0,1-2.37-2.75,11.64,11.64,0,0,0-.88-1.29c-.93-1.19-1.24-2.13-.86-2.85,0,0,1.45-2.59.66-4.18a16.32,16.32,0,0,1-.78-4.6,13.74,13.74,0,0,0-1.28-4.23,15.82,15.82,0,0,0-5-6.15c.41-10.15-31.92-11.53-36.42-3.93-1,1.68-2.33,2.5-3.19,2.26a2.15,2.15,0,0,1-1.47-1.86c-1-8.54-19.86-6.68-16.63,6l-.17,3c-3.48-1.61-4.19,5.18-4.19,5.18C99.1,154.53,115,150.19,115,150.19c-1.5,22.9,15.93,20.46,15.93,20.46s-.19,7.35-6,17.61c0,0-3.2,11.25,9.49,9.35s13.15-3.14,13.69-4.5a5.82,5.82,0,0,1,1.15-1.94s1.7-16.8,10.7-17.81c1.11-.13,2.07-.24,2.89-.35a34.8,34.8,0,0,0,4.06-.31c3.59-.57,3.77-3.18,3.64-4.31a7,7,0,0,0-.4-1.55,3,3,0,0,1-.08-2c.33-1.07.93-1.81,1.08-2.33.21-.71-.79-1.46-.79-1.46.88-.07,1.46-1.34,1.06-1.74a6.48,6.48,0,0,1-.75-2.49.72.72,0,0,1,.2-.58,4.4,4.4,0,0,1,2-1.1,2.3,2.3,0,0,0,1.77-1.94A1.68,1.68,0,0,0,174.07,151.62Z"/><path class="cls-4" d="M158.36,211.33s-2.29-12.8-5-16.45-9.22-7.17-9.22-7.17-.83,20,4.19,22.25A18.71,18.71,0,0,0,158.36,211.33Z"/><path class="cls-4" d="M82.26,510.51s-2.07-1-1.8-2.2a19.6,19.6,0,0,1,4.37-6.45c2.79-2.23,12.33,4.23,12.33,4.23l5.71,9.11Z"/><path class="cls-4" d="M129.87,539.48c1.76-.05,4.86-1.77-7.22-1.73-11.41,0-21.71-9.61-21.71-9.61S109.75,540.12,129.87,539.48Z"/><path class="cls-4" d="M85.15,511.75s-1.18-3.48-4.07-1.29c-2.68,2,2.67,4.83,14,12.89,1,.7,8.57,4.08,8.57,4.08Z"/><path class="cls-4" d="M118.63,532.52l-5.13-2.93s6.41-2.09,5.39-4.13c-.57-1.15.28-1.28.8-1s2.56,2.44,4.23,3.91c2.55,2.25,5,4.39,6.8,5.16,4.82,2.13,2.09,4.17,1,4.71C129.09,539.56,118.63,532.52,118.63,532.52Z"/><path class="cls-4" d="M115.48,297.14s-1.55-2,.89-8.44,8,20,8,20Z"/><path class="cls-4" d="M165.24,300.39c2.54-9,1.74-11.19,1.43-15.47s2-7.38,1.67-9.92-2.54-6.77-2.54-6.77l-4,33Z"/><path class="cls-4" d="M123.62,230a26.35,26.35,0,0,0,3.1,12.4c3.82,7.35,5.7,45.45,14.15,52.83a9.93,9.93,0,0,0,7.76,2.36l2.78-.39c2.07-.34,21.35-.69,35-7.39,7.24-3.55,15.26-2.49,18.44-1.85a10.29,10.29,0,0,0,3.23.12c3.26-.37,6.91-1,8.66-1.32,2.34-.38,5.59,1.55,5.15,3.18s1.85,2.42,2.36.95c.22-.63-1.75-6.15-4.16-7.81,0,0-13.11-5.2-15.51-5.72-4.86-1.06-8.72-.55-13.69.31l-.92.17c-6.87,1.26-25.37,1.05-26.42,1-.81-.06-11.58-.81-14.52.24,0,0,.77-40.83-5.87-50.36C137.35,220.33,123.81,216.48,123.62,230Z"/><path class="cls-2" d="M225.68,545.57a12.38,12.38,0,1,1,12.38-12.38A12.4,12.4,0,0,1,225.68,545.57Z"/><path class="cls-4" d="M267.93,472.82l-.21-1L236.18,325l205.35,25.63-8.61,97.43-.82.13ZM238.86,327.47l30.71,143L431,446.23l8.28-93.75Z"/><path class="cls-4" d="M413.55,513.91H226.47V499.57a8.2,8.2,0,0,1,4.35-7.24L270.93,471h.31l45.33-.17a16.67,16.67,0,0,1,5.85,1.05l93.21,29.52.07,0c2.82,1.27,3.47,4.81,2.87,7.56C417.93,512,416,513.91,413.55,513.91ZM229,511.38H413.55c1.41,0,2.26-1.59,2.55-2.95.38-1.78,0-4-1.39-4.7l-93.12-29.48a13.63,13.63,0,0,0-5-.92l-45,.17L232,494.57a5.67,5.67,0,0,0-3,5Z"/><path class="cls-4" d="M267.23,511.21H264.7V498.58a8.26,8.26,0,0,1,4-7.05l47.62-28.42,1.29,2.18L270,493.71a5.7,5.7,0,0,0-2.76,4.87Z"/><path class="cls-4" d="M238.34,525.82h0v-8.26h1.22v-3.73H229.3v3.73h1.23V523c.13,1.89-5.72,7.77-6.3,8.28a2.27,2.27,0,0,0,1.53,3.94l.24,0,.15,0,.14,0c3-.69,12-8.16,12.05-9.35"/><path class="cls-4" d="M399.36,545.62a12.38,12.38,0,1,1,12.38-12.38A12.39,12.39,0,0,1,399.36,545.62Zm0-23.91a11.54,11.54,0,1,0,11.54,11.53A11.54,11.54,0,0,0,399.36,521.71Z"/><path class="cls-4" d="M411.93,525.88h0v-8.27h1.22v-3.73H402.88v3.73h1.24v5.46c.12,1.89-5.73,7.77-6.31,8.28a2.27,2.27,0,0,0,1.54,3.94l.23,0,.15,0,.15,0c3-.69,12-8.16,12.05-9.34"/><rect class="cls-4" x="267.84" y="458.97" width="165.02" height="0.84" transform="translate(-64.35 57.13) rotate(-8.54)"/><rect class="cls-4" x="252.71" y="324.58" width="0.84" height="148.71" transform="matrix(0.98, -0.21, 0.21, 0.98, -78.13, 62.06)"/><path class="cls-4" d="M440.26,352.61,236.74,327.2,233,316.46,211.16,301a8.29,8.29,0,0,1-1.8-11.82A8.31,8.31,0,0,1,221,287.62l26.23,19.95,6,19.56,187.35,23.38Zm-202-27.34,12.58,1.57-5.49-18L219.7,289.3a6.2,6.2,0,0,0-8.67,1.16,6.2,6.2,0,0,0,1.34,8.82l22.4,15.84Z"/><rect class="cls-4" x="388.18" y="398.93" width="95.96" height="0.84" transform="translate(0.02 798.73) rotate(-84.96)"/><rect class="cls-4" x="262.35" y="326.1" width="0.84" height="145.72" transform="translate(-74.48 60.61) rotate(-11.54)"/><rect class="cls-4" x="271.98" y="327.61" width="0.84" height="142.74" transform="translate(-70.68 58.86) rotate(-10.93)"/><rect class="cls-4" x="281.61" y="329.11" width="0.84" height="139.78" transform="translate(-66.73 56.79) rotate(-10.29)"/><rect class="cls-4" x="291.25" y="330.61" width="0.84" height="136.83" transform="translate(-62.61 54.38) rotate(-9.63)"/><rect class="cls-4" x="300.88" y="332.09" width="0.84" height="133.91" transform="translate(-58.3 51.62) rotate(-8.93)"/><rect class="cls-4" x="310.51" y="333.56" width="0.84" height="131.01" transform="translate(-53.79 48.48) rotate(-8.21)"/><rect class="cls-4" x="320.15" y="335.03" width="0.84" height="128.13" transform="translate(-49.05 44.94) rotate(-7.45)"/><rect class="cls-4" x="329.78" y="336.48" width="0.84" height="125.27" transform="translate(-44.05 40.98) rotate(-6.66)"/><rect class="cls-4" x="339.41" y="337.91" width="0.84" height="122.44" transform="translate(-38.79 36.59) rotate(-5.83)"/><rect class="cls-4" x="349.05" y="339.34" width="0.84" height="119.63" transform="translate(-33.23 31.74) rotate(-4.96)"/><rect class="cls-4" x="358.68" y="340.75" width="0.84" height="116.85" transform="translate(-27.33 26.39) rotate(-4.05)"/><rect class="cls-4" x="368.31" y="342.15" width="0.84" height="114.11" transform="translate(-21.06 20.54) rotate(-3.1)"/><rect class="cls-4" x="377.95" y="343.53" width="0.84" height="111.39" transform="translate(-14.39 14.15) rotate(-2.1)"/><rect class="cls-4" x="387.58" y="344.89" width="0.84" height="108.72" transform="translate(-7.28 7.2) rotate(-1.05)"/><rect class="cls-4" x="397.21" y="346.23" width="0.84" height="106.08"/><rect class="cls-4" x="355.53" y="398.87" width="103.48" height="0.84" transform="translate(-0.68 797.89) rotate(-88.77)"/><rect class="cls-4" x="366.44" y="398.89" width="100.93" height="0.84" transform="translate(0.06 798.69) rotate(-87.54)"/><rect class="cls-4" x="377.32" y="398.91" width="98.42" height="0.84" transform="translate(0.54 799.25) rotate(-86.31)"/><rect class="cls-4" x="340.38" y="274.99" width="0.84" height="192.94" transform="translate(-57.06 681.04) rotate(-85.35)"/><rect class="cls-4" x="256.09" y="413.72" width="178.08" height="0.84" transform="translate(-7.23 6.13) rotate(-1.01)"/><rect class="cls-4" x="264.94" y="447.42" width="166.73" height="0.84" transform="translate(-52.47 46.27) rotate(-7.07)"/><path class="cls-4" d="M220.34,288.43a7.25,7.25,0,0,0-10.14,1.37h0a7.25,7.25,0,0,0,1.57,10.32l8.95,6.53a7.14,7.14,0,0,0,10-1.64h0a7.14,7.14,0,0,0-1.5-9.8Z"/><path class="cls-4" d="M225.68,545.57a12.38,12.38,0,1,1,12.38-12.38A12.4,12.4,0,0,1,225.68,545.57Zm0-23.91a11.54,11.54,0,1,0,11.54,11.53A11.54,11.54,0,0,0,225.68,521.66Z"/></svg>