<?xml version="1.0" encoding="utf-8"?>
<!-- Generator: Adobe Illustrator 22.1.0, SVG Export Plug-In . SVG Version: 6.00 Build 0)  -->
<svg version="1.1" id="Layer_1" xmlns="http://www.w3.org/2000/svg" xmlns:xlink="http://www.w3.org/1999/xlink" x="0px" y="0px"
	 viewBox="0 0 576 576" style="enable-background:new 0 0 576 576;" xml:space="preserve">
<style type="text/css">
	.st0{fill:none;}
	.st1{fill:#1790D1;}
	.st2{fill:#1F2123;}
	.st3{fill:url(#SVGID_1_);}
	.st4{fill:#FFFFFF;}
	.st5{fill:url(#SVGID_2_);}
	.st6{fill:url(#SVGID_3_);}
	.st7{fill:url(#SVGID_4_);}
	.st8{fill:url(#SVGID_5_);}
	.st9{fill:url(#SVGID_6_);}
	.st10{fill:url(#SVGID_7_);}
	.st11{fill:url(#SVGID_8_);}
	.st12{fill:url(#SVGID_9_);}
	.st13{fill:url(#SVGID_10_);}
	.st14{fill:url(#SVGID_11_);}
	.st15{fill:url(#SVGID_12_);}
	.st16{fill:url(#SVGID_13_);}
	.st17{fill:url(#SVGID_14_);}
	.st18{fill:url(#SVGID_15_);}
	.st19{fill:url(#SVGID_16_);}
	.st20{fill:url(#SVGID_17_);}
	.st21{fill:url(#SVGID_18_);}
	.st22{fill:url(#SVGID_19_);}
	.st23{fill:url(#SVGID_20_);}
	.st24{fill:url(#SVGID_21_);}
	.st25{fill:#FFD939;}
</style>
<pattern  width="293.4" height="293.4" patternUnits="userSpaceOnUse" id="New_Pattern_Swatch_1" viewBox="0 -293.4 293.4 293.4" style="overflow:visible;">
	<g>
		<rect y="-293.4" class="st0" width="293.4" height="293.4"/>
		<rect y="-293.4" class="st1" width="293.4" height="293.4"/>
	</g>
</pattern>
<path class="st2" d="M511.9,576H64.1C28.7,576,0,547.3,0,511.9V64.1C0,28.7,28.7,0,64.1,0h447.7C547.3,0,576,28.7,576,64.1v447.7
	C576,547.3,547.3,576,511.9,576z"/>
<g>
	<g>
		<pattern  id="SVGID_1_" xlink:href="#New_Pattern_Swatch_1" patternTransform="matrix(1 0 0 1 -68.5746 -266.2183)">
		</pattern>
		<path class="st3" d="M-312.4,226.4c-33.1,0-55.1,13.6-55.1,22.5c0,9,22,22.6,55.1,22.6s55.1-13.6,55.1-22.6
			C-257.3,240-279.3,226.4-312.4,226.4z M-275.2,258.5c-10.1,4.7-23.3,7.2-37.2,7.2c-13.9,0-27.1-2.6-37.2-7.2
			c-9.1-4.2-12-8.5-12.1-9.6c0.1-1.1,3-5.4,12.1-9.6c10.1-4.7,23.3-7.2,37.2-7.2c13.9,0,27.1,2.6,37.2,7.2
			c9.1,4.2,12.1,8.5,12.1,9.6C-263.1,250-266.1,254.3-275.2,258.5z"/>
	</g>
	<path class="st4" d="M-251.3,249.2c-0.1-4.5-2.6-9-7.1-13.1c-0.1-0.1-0.3-0.2-0.4-0.3c-2.8-2.4-6.3-4.7-10.4-6.7
		c-10.9-5.3-25-8.3-40.2-8.7v0h-6v0c-15.2,0.4-29.4,3.4-40.2,8.7c-4.5,2.2-8.2,4.6-11,7.3c-0.1,0.1-0.2,0.2-0.3,0.3
		c-4,3.8-6.3,8-6.5,12.1c0,0.1,0,0.1,0,0.2v0.1c0,0.1,0,0.3,0,0.4c0,0.6,0,1.2,0.1,1.7c0.1,0.4,0.1,0.8,0.2,1.2l15.6,69.8
		c0.2,0.9,0.4,1.9,0.7,2.8c0,0,0,0,0,0l5.6,25.3c0.3,1.2,0.9,2.4,1.8,3.6c5,6.5,18.8,12.2,37,12.2c18.2,0,32-5.8,37-12.2
		c0.9-1.2,1.5-2.4,1.8-3.6l5.6-25.2c0,0,0,0,0,0c0.2-0.9,0.5-1.9,0.7-2.8l15.6-69.8l0-0.2c0.1-0.4,0.2-0.8,0.2-1.2
		c0.1-0.5,0.1-1.1,0.1-1.7C-251.3,249.4-251.3,249.3-251.3,249.2z M-270.8,311l-2.4,10.9c-3.7,18.5-20.2,32-39.1,32c0,0,0,0,0,0h0
		c-9.5,0-18.3-3.4-25.3-9c-7-5.7-12-13.7-13.9-22.9L-354,311l-10.7-47.8l-1.4-6.1c0,0,0-0.1,0-0.1c-0.1-0.3-0.1-0.6-0.2-0.9
		c0-0.1,0-0.1,0-0.2l-1.1-4.9l0-0.1c-0.1-0.2-0.1-0.4-0.1-0.6l0-0.1c0-0.2-0.1-0.5-0.1-0.8c0-0.1,0-0.2,0-0.3c0-0.1,0-0.1,0-0.2
		c0-0.1,0-0.3,0-0.4c0-0.5,0.1-0.9,0.3-1.4c0-0.1,0.1-0.2,0.1-0.3c0-0.1,0.1-0.2,0.1-0.3c0.1-0.1,0.1-0.3,0.2-0.4c0,0,0-0.1,0.1-0.1
		c0.1-0.1,0.1-0.2,0.2-0.4c0.1-0.2,0.2-0.5,0.4-0.7c0.3-0.5,0.6-0.9,1-1.4c0.1-0.1,0.2-0.2,0.3-0.3c0,0,0.1-0.1,0.1-0.1
		c0.1-0.1,0.2-0.2,0.3-0.3c0.2-0.2,0.4-0.4,0.6-0.7c0,0,0,0,0,0c0-0.1,0.1-0.1,0.2-0.2c7.1-7.6,24.2-15,48.4-15.5v0c1,0,2,0,3,0
		c1,0,2,0,3,0v0c24.3,0.6,41.5,8,48.5,15.6c0.1,0.1,0.2,0.2,0.2,0.3c0.5,0.5,1,1.1,1.4,1.6c0,0,0,0.1,0.1,0.1h0c0,0,0,0,0,0
		c0,0,0,0.1,0,0.1c0.2,0.3,0.4,0.5,0.5,0.8c0.1,0.1,0.2,0.3,0.2,0.4c0.1,0.1,0.2,0.3,0.2,0.4c0.1,0.1,0.1,0.2,0.1,0.3
		c0,0.1,0,0.1,0.1,0.2c0,0.1,0.1,0.2,0.1,0.3c0,0,0,0,0,0.1c0.1,0.3,0.2,0.5,0.3,0.8c0,0,0,0,0,0.1c0,0.2,0.1,0.4,0.1,0.5
		c0,0.1,0,0.1,0,0.2c0,0.3,0.1,0.5,0.1,0.8c0,0.1,0,0.1,0,0.2c0,0,0,0.1,0,0.1v0.1c0,0,0,0.1,0,0.1c0,0.3,0,0.6-0.1,0.8l0,0.1
		c0,0.2-0.1,0.4-0.1,0.6l-1.1,5.1c0,0.1,0,0.1,0,0.2c0,0.3-0.1,0.6-0.2,0.9c0,0,0,0.1,0,0.1l-1.4,6.1L-270.8,311z"/>
	<path class="st0" d="M-269.9,269c-11.7,5.5-26.8,8.5-42.5,8.5s-30.8-3-42.5-8.5c-3.8-1.8-7-3.7-9.7-5.8L-354,311l2.4,10.9
		c1.9,9.3,6.9,17.2,13.9,22.9c7,5.7,15.8,9,25.3,9h0c0,0,0,0,0,0c18.9,0,35.4-13.4,39.1-32l2.4-10.9l10.7-47.8
		C-262.9,265.3-266.1,267.3-269.9,269z M-312.4,338.4c-20.6,0-37.3-16.7-37.3-37.3c0-0.5,0-1,0-1.6c0-1.1,0.1-2.1,0.3-3.2
		c0,0,0,0,0,0c2.3-9.3,18-16.4,37-16.4c19,0,34.6,7.2,37,16.4c0,0,0,0,0,0c0.1,1.1,0.2,2.1,0.3,3.2c0,0.5,0,1,0,1.6
		C-275.1,321.7-291.8,338.4-312.4,338.4z"/>
	<g>
		<path class="st4" d="M-275.1,307.2c0,18.6-16.7,33.6-37.3,33.6c-20.6,0-37.3-15.1-37.3-33.6c0-0.5,0-0.9,0-1.4
			c0-1,0.1-1.9,0.3-2.9c0,0,0,0,0,0c2.3-8.4,18-14.8,37-14.8c19,0,34.6,6.5,37,14.8c0,0,0,0,0,0c0.1,1,0.2,1.9,0.3,2.9
			C-275.1,306.3-275.1,306.8-275.1,307.2z"/>
	</g>
</g>
<g>
	<g>
		<g>
			<pattern  id="SVGID_2_" xlink:href="#New_Pattern_Swatch_1" patternTransform="matrix(1 0 0 1 -68.5746 -266.2183)">
			</pattern>
			<path class="st5" d="M-179.6,226.4c-33.1,0-55.1,13.6-55.1,22.5c0,9,22,22.6,55.1,22.6s55.1-13.6,55.1-22.6
				C-124.5,240-146.5,226.4-179.6,226.4z M-142.4,258.5c-10.1,4.7-23.3,7.2-37.2,7.2c-13.9,0-27.1-2.6-37.2-7.2
				c-9.1-4.2-12-8.5-12.1-9.6c0.1-1.1,3-5.4,12.1-9.6c10.1-4.7,23.3-7.2,37.2-7.2c13.9,0,27.1,2.6,37.2,7.2
				c9.1,4.2,12.1,8.5,12.1,9.6C-130.3,250-133.3,254.3-142.4,258.5z"/>
		</g>
		<path class="st4" d="M-118.5,249.2c-0.1-4.5-2.6-9-7.1-13.1c-0.1-0.1-0.3-0.2-0.4-0.3c-2.8-2.4-6.3-4.7-10.4-6.7
			c-10.9-5.3-25-8.3-40.2-8.7v0h-6v0c-15.2,0.4-29.4,3.4-40.2,8.7c-4.5,2.2-8.2,4.6-11,7.3c-0.1,0.1-0.2,0.2-0.3,0.3
			c-4,3.8-6.3,8-6.5,12.1c0,0.1,0,0.1,0,0.2v0.1c0,0.1,0,0.3,0,0.4c0,0.6,0,1.2,0.1,1.7c0.1,0.4,0.1,0.8,0.2,1.2l15.6,69.8
			c0.2,0.9,0.4,1.9,0.7,2.8c0,0,0,0,0,0l5.6,25.3c0.3,1.2,0.9,2.4,1.8,3.6c5,6.5,18.8,12.2,37,12.2c18.2,0,32-5.8,37-12.2
			c0.9-1.2,1.5-2.4,1.8-3.6l5.6-25.2c0,0,0,0,0,0c0.2-0.9,0.5-1.9,0.7-2.8l15.6-69.8l0-0.2c0.1-0.4,0.2-0.8,0.2-1.2
			c0.1-0.5,0.1-1.1,0.1-1.7C-118.5,249.4-118.5,249.3-118.5,249.2z M-138,311l-2.4,10.9c-3.7,18.5-20.2,32-39.1,32c0,0,0,0,0,0h0
			c-9.5,0-18.3-3.4-25.3-9s-12-13.7-13.9-22.9l-2.4-10.9l-10.7-47.8l-1.4-6.1c0,0,0-0.1,0-0.1c-0.1-0.3-0.1-0.6-0.2-0.9
			c0-0.1,0-0.1,0-0.2l-1.1-4.9l0-0.1c-0.1-0.2-0.1-0.4-0.1-0.6l0-0.1c0-0.2-0.1-0.5-0.1-0.8c0-0.1,0-0.2,0-0.3c0-0.1,0-0.1,0-0.2
			c0-0.1,0-0.3,0-0.4c0-0.5,0.1-0.9,0.3-1.4c0-0.1,0.1-0.2,0.1-0.3c0-0.1,0.1-0.2,0.1-0.3c0.1-0.1,0.1-0.3,0.2-0.4
			c0,0,0-0.1,0.1-0.1c0.1-0.1,0.1-0.2,0.2-0.4c0.1-0.2,0.2-0.5,0.4-0.7c0.3-0.5,0.6-0.9,1-1.4c0.1-0.1,0.2-0.2,0.3-0.3
			c0,0,0.1-0.1,0.1-0.1c0.1-0.1,0.2-0.2,0.3-0.3c0.2-0.2,0.4-0.4,0.6-0.7c0,0,0,0,0,0c0-0.1,0.1-0.1,0.2-0.2
			c7.1-7.6,24.2-15,48.4-15.5v0c1,0,2,0,3,0c1,0,2,0,3,0v0c24.3,0.6,41.5,8,48.5,15.6c0.1,0.1,0.2,0.2,0.2,0.3
			c0.5,0.5,1,1.1,1.4,1.6c0,0,0,0.1,0.1,0.1h0c0,0,0,0,0,0c0,0,0,0.1,0,0.1c0.2,0.3,0.4,0.5,0.5,0.8c0.1,0.1,0.2,0.3,0.2,0.4
			c0.1,0.1,0.2,0.3,0.2,0.4c0.1,0.1,0.1,0.2,0.1,0.3c0,0.1,0,0.1,0.1,0.2c0,0.1,0.1,0.2,0.1,0.3c0,0,0,0,0,0.1
			c0.1,0.3,0.2,0.5,0.3,0.8c0,0,0,0,0,0.1c0,0.2,0.1,0.4,0.1,0.5c0,0.1,0,0.1,0,0.2c0,0.3,0.1,0.5,0.1,0.8c0,0.1,0,0.1,0,0.2
			c0,0,0,0.1,0,0.1v0.1c0,0,0,0.1,0,0.1c0,0.3,0,0.6-0.1,0.8l0,0.1c0,0.2-0.1,0.4-0.1,0.6l-1.1,5.1c0,0.1,0,0.1,0,0.2
			c0,0.3-0.1,0.6-0.2,0.9c0,0,0,0.1,0,0.1l-1.4,6.1L-138,311z"/>
		<path class="st0" d="M-137.1,269c-11.7,5.5-26.8,8.5-42.5,8.5s-30.8-3-42.5-8.5c-3.8-1.8-7-3.7-9.7-5.8l10.7,47.8l2.4,10.9
			c1.9,9.3,6.9,17.2,13.9,22.9s15.8,9,25.3,9h0c0,0,0,0,0,0c18.9,0,35.4-13.4,39.1-32l2.4-10.9l10.7-47.8
			C-130.1,265.3-133.3,267.3-137.1,269z M-179.6,338.4c-20.6,0-37.3-16.7-37.3-37.3c0-0.5,0-1,0-1.6c0-1.1,0.1-2.1,0.3-3.2
			c0,0,0,0,0,0c2.3-9.3,18-16.4,37-16.4c19,0,34.6,7.2,37,16.4c0,0,0,0,0,0c0.1,1.1,0.2,2.1,0.3,3.2c0,0.5,0,1,0,1.6
			C-142.3,321.7-159,338.4-179.6,338.4z"/>
		<g>
			<path class="st4" d="M-142.3,307.2c0,18.6-16.7,33.6-37.3,33.6c-20.6,0-37.3-15.1-37.3-33.6c0-0.5,0-0.9,0-1.4
				c0-1,0.1-1.9,0.3-2.9c0,0,0,0,0,0c2.3-8.4,18-14.8,37-14.8c19,0,34.6,6.5,37,14.8c0,0,0,0,0,0c0.1,1,0.2,1.9,0.3,2.9
				C-142.4,306.3-142.3,306.8-142.3,307.2z"/>
		</g>
	</g>
</g>
<g>
	<pattern  id="SVGID_3_" xlink:href="#New_Pattern_Swatch_1" patternTransform="matrix(1 0 0 1 -68.5746 -266.2183)">
	</pattern>
	<path class="st6" d="M-245.6,251.3c-33.1,0-55.1,13.6-55.1,22.5c0,9,22,22.6,55.1,22.6s55.1-13.6,55.1-22.6
		C-190.5,264.9-212.5,251.3-245.6,251.3z"/>
</g>
<g>
	<g>
		<pattern  id="SVGID_4_" xlink:href="#New_Pattern_Swatch_1" patternTransform="matrix(1 0 0 1 -68.5746 -266.2183)">
		</pattern>
		<path class="st7" d="M-445.2,226.4c-33.1,0-55.1,13.6-55.1,22.5c0,9,22,22.6,55.1,22.6s55.1-13.6,55.1-22.6
			C-390.1,240-412.1,226.4-445.2,226.4z M-408,258.5c-10.1,4.7-23.3,7.2-37.2,7.2c-13.9,0-27.1-2.6-37.2-7.2
			c-9.1-4.2-12-8.5-12.1-9.6c0.1-1.1,3-5.4,12.1-9.6c10.1-4.7,23.3-7.2,37.2-7.2c13.9,0,27.1,2.6,37.2,7.2
			c9.1,4.2,12.1,8.5,12.1,9.6C-395.9,250-398.9,254.3-408,258.5z"/>
	</g>
	<path class="st4" d="M-384.1,249.2c-0.1-4.5-2.6-9-7.1-13.1c-0.1-0.1-0.3-0.2-0.4-0.3c-2.8-2.4-6.3-4.7-10.4-6.7
		c-10.9-5.3-25-8.3-40.2-8.7v0h-6v0c-15.2,0.4-29.4,3.4-40.2,8.7c-4.5,2.2-8.2,4.6-11,7.3c-0.1,0.1-0.2,0.2-0.3,0.3
		c-4,3.8-6.3,8-6.5,12.1c0,0.1,0,0.1,0,0.2v0.1c0,0.1,0,0.3,0,0.4c0,0.6,0,1.2,0.1,1.7c0.1,0.4,0.1,0.8,0.2,1.2l15.6,69.8
		c0.2,0.9,0.4,1.9,0.7,2.8c0,0,0,0,0,0l5.6,25.3c0.3,1.2,0.9,2.4,1.8,3.6c5,6.5,18.8,12.2,37,12.2c18.2,0,32-5.8,37-12.2
		c0.9-1.2,1.5-2.4,1.8-3.6l5.6-25.2c0,0,0,0,0,0c0.2-0.9,0.5-1.9,0.7-2.8l15.6-69.8l0-0.2c0.1-0.4,0.2-0.8,0.2-1.2
		c0.1-0.5,0.1-1.1,0.1-1.7C-384.1,249.4-384.1,249.3-384.1,249.2z M-403.6,311l-2.4,10.9c-3.7,18.5-20.2,32-39.1,32c0,0,0,0,0,0h0
		c-9.5,0-18.3-3.4-25.3-9c-7-5.7-12-13.7-13.9-22.9l-2.4-10.9l-10.7-47.8l-1.4-6.1c0,0,0-0.1,0-0.1c-0.1-0.3-0.1-0.6-0.2-0.9
		c0-0.1,0-0.1,0-0.2l-1.1-4.9l0-0.1c-0.1-0.2-0.1-0.4-0.1-0.6l0-0.1c0-0.2-0.1-0.5-0.1-0.8c0-0.1,0-0.2,0-0.3c0-0.1,0-0.1,0-0.2
		c0-0.1,0-0.3,0-0.4c0-0.5,0.1-0.9,0.3-1.4c0-0.1,0.1-0.2,0.1-0.3c0-0.1,0.1-0.2,0.1-0.3c0.1-0.1,0.1-0.3,0.2-0.4c0,0,0-0.1,0.1-0.1
		c0.1-0.1,0.1-0.2,0.2-0.4c0.1-0.2,0.2-0.5,0.4-0.7c0.3-0.5,0.6-0.9,1-1.4c0.1-0.1,0.2-0.2,0.3-0.3c0,0,0.1-0.1,0.1-0.1
		c0.1-0.1,0.2-0.2,0.3-0.3c0.2-0.2,0.4-0.4,0.6-0.7c0,0,0,0,0,0c0-0.1,0.1-0.1,0.2-0.2c7.1-7.6,24.2-15,48.4-15.5v0c1,0,2,0,3,0
		c1,0,2,0,3,0v0c24.3,0.6,41.5,8,48.5,15.6c0.1,0.1,0.2,0.2,0.2,0.3c0.5,0.5,1,1.1,1.4,1.6c0,0,0,0.1,0.1,0.1h0c0,0,0,0,0,0
		c0,0,0,0.1,0,0.1c0.2,0.3,0.4,0.5,0.5,0.8c0.1,0.1,0.2,0.3,0.2,0.4c0.1,0.1,0.2,0.3,0.2,0.4c0.1,0.1,0.1,0.2,0.1,0.3
		c0,0.1,0,0.1,0.1,0.2c0,0.1,0.1,0.2,0.1,0.3c0,0,0,0,0,0.1c0.1,0.3,0.2,0.5,0.3,0.8c0,0,0,0,0,0.1c0,0.2,0.1,0.4,0.1,0.5
		c0,0.1,0,0.1,0,0.2c0,0.3,0.1,0.5,0.1,0.8c0,0.1,0,0.1,0,0.2c0,0,0,0.1,0,0.1v0.1c0,0,0,0.1,0,0.1c0,0.3,0,0.6-0.1,0.8l0,0.1
		c0,0.2-0.1,0.4-0.1,0.6l-1.1,5.1c0,0.1,0,0.1,0,0.2c0,0.3-0.1,0.6-0.2,0.9c0,0,0,0.1,0,0.1l-1.4,6.1L-403.6,311z"/>
	<path class="st0" d="M-402.7,269c-11.7,5.5-26.8,8.5-42.5,8.5c-15.8,0-30.8-3-42.5-8.5c-3.8-1.8-7-3.7-9.7-5.8l10.7,47.8l2.4,10.9
		c1.9,9.3,6.9,17.2,13.9,22.9c7,5.7,15.8,9,25.3,9h0c0,0,0,0,0,0c18.9,0,35.4-13.4,39.1-32l2.4-10.9l10.7-47.8
		C-395.7,265.3-398.9,267.3-402.7,269z M-445.2,338.4c-20.6,0-37.3-16.7-37.3-37.3c0-0.5,0-1,0-1.6c0-1.1,0.1-2.1,0.3-3.2
		c0,0,0,0,0,0c2.3-9.3,18-16.4,37-16.4c19,0,34.6,7.2,37,16.4c0,0,0,0,0,0c0.1,1.1,0.2,2.1,0.3,3.2c0,0.5,0,1,0,1.6
		C-407.9,321.7-424.6,338.4-445.2,338.4z"/>
	<g>
		<path class="st4" d="M-407.9,307.2c0,18.6-16.7,33.6-37.3,33.6c-20.6,0-37.3-15.1-37.3-33.6c0-0.5,0-0.9,0-1.4
			c0-1,0.1-1.9,0.3-2.9c0,0,0,0,0,0c2.3-8.4,18-14.8,37-14.8c19,0,34.6,6.5,37,14.8c0,0,0,0,0,0c0.1,1,0.2,1.9,0.3,2.9
			C-407.9,306.3-407.9,306.8-407.9,307.2z"/>
	</g>
</g>
<g>
	<g>
		<pattern  id="SVGID_5_" xlink:href="#New_Pattern_Swatch_1" patternTransform="matrix(1 0 0 1 -68.5746 -266.2183)">
		</pattern>
		<path class="st8" d="M-379.7,251.3c-33.1,0-55.1,13.6-55.1,22.5c0,9,22,22.6,55.1,22.6s55.1-13.6,55.1-22.6
			C-324.6,264.9-346.6,251.3-379.7,251.3z"/>
	</g>
	<path class="st4" d="M-318.6,274.1c-0.1-4.5-2.6-9-7.1-13.1c-0.1-0.1-0.3-0.2-0.4-0.3c-2.8-2.4-6.3-4.7-10.4-6.7
		c-10.9-5.3-25-8.3-40.2-8.7v0h-6v0c-15.2,0.4-29.4,3.4-40.2,8.7c-4.5,2.2-8.2,4.6-11,7.3c-0.1,0.1-0.2,0.2-0.3,0.3
		c-4,3.8-6.3,8-6.5,12.1c0,0.1,0,0.1,0,0.2v0.1c0,0.1,0,0.3,0,0.4c0,0.6,0,1.2,0.1,1.7c0.1,0.4,0.1,0.8,0.2,1.2l15.6,69.8
		c0.2,0.9,0.4,1.9,0.7,2.8c0,0,0,0,0,0l5.6,25.3c0.3,1.2,0.9,2.4,1.8,3.6c5,6.5,18.8,12.2,37,12.2c18.2,0,32-5.8,37-12.2
		c0.9-1.2,1.5-2.4,1.8-3.6l5.6-25.2c0,0,0,0,0,0c0.2-0.9,0.5-1.9,0.7-2.8l15.6-69.8l0-0.2c0.1-0.4,0.2-0.8,0.2-1.2
		c0.1-0.5,0.1-1.1,0.1-1.7C-318.6,274.2-318.6,274.2-318.6,274.1z M-338.1,335.9l-2.4,10.9c-3.7,18.5-20.2,32-39.1,32c0,0,0,0,0,0h0
		c-9.5,0-18.3-3.4-25.3-9c-7-5.7-12-13.7-13.9-22.9l-2.4-10.9l-10.7-47.8l-1.4-6.1c0,0,0-0.1,0-0.1c-0.1-0.3-0.1-0.6-0.2-0.9
		c0-0.1,0-0.1,0-0.2l-1.1-4.9l0-0.1c-0.1-0.2-0.1-0.4-0.1-0.6l0-0.1c0-0.2-0.1-0.5-0.1-0.8c0-0.1,0-0.2,0-0.3c0-0.1,0-0.1,0-0.2
		c0-0.1,0-0.3,0-0.4c0-0.5,0.1-0.9,0.3-1.4c0-0.1,0.1-0.2,0.1-0.3c0-0.1,0.1-0.2,0.1-0.3c0.1-0.1,0.1-0.3,0.2-0.4c0,0,0-0.1,0.1-0.1
		c0.1-0.1,0.1-0.2,0.2-0.4c0.1-0.2,0.2-0.5,0.4-0.7c0.3-0.5,0.6-0.9,1-1.4c0.1-0.1,0.2-0.2,0.3-0.3c0,0,0.1-0.1,0.1-0.1
		c0.1-0.1,0.2-0.2,0.3-0.3c0.2-0.2,0.4-0.4,0.6-0.7c0,0,0,0,0,0c0-0.1,0.1-0.1,0.2-0.2c7.1-7.6,24.2-15,48.4-15.5v0c1,0,2,0,3,0
		c1,0,2,0,3,0v0c24.3,0.6,41.5,8,48.5,15.6c0.1,0.1,0.2,0.2,0.2,0.3c0.5,0.5,1,1.1,1.4,1.6c0,0,0,0.1,0.1,0.1h0c0,0,0,0,0,0
		c0,0,0,0.1,0,0.1c0.2,0.3,0.4,0.5,0.5,0.8c0.1,0.1,0.2,0.3,0.2,0.4c0.1,0.1,0.2,0.3,0.2,0.4c0.1,0.1,0.1,0.2,0.1,0.3
		c0,0.1,0,0.1,0.1,0.2c0,0.1,0.1,0.2,0.1,0.3c0,0,0,0,0,0.1c0.1,0.3,0.2,0.5,0.3,0.8c0,0,0,0,0,0.1c0,0.2,0.1,0.4,0.1,0.5
		c0,0.1,0,0.1,0,0.2c0,0.3,0.1,0.5,0.1,0.8c0,0.1,0,0.1,0,0.2c0,0,0,0.1,0,0.1v0.1c0,0,0,0.1,0,0.1c0,0.3,0,0.6-0.1,0.8l0,0.1
		c0,0.2-0.1,0.4-0.1,0.6l-1.1,5.1c0,0.1,0,0.1,0,0.2c0,0.3-0.1,0.6-0.2,0.9c0,0,0,0.1,0,0.1l-1.4,6.1L-338.1,335.9z"/>
	<pattern  id="SVGID_6_" xlink:href="#New_Pattern_Swatch_1" patternTransform="matrix(1 0 0 1 -68.5746 -266.2183)">
	</pattern>
	<path class="st9" d="M-337.2,293.9c-11.7,5.5-26.8,8.5-42.5,8.5c-15.8,0-30.8-3-42.5-8.5c-3.8-1.8-7-3.7-9.7-5.8l10.7,47.8
		l2.4,10.9c1.9,9.3,6.9,17.2,13.9,22.9c7,5.7,15.8,9,25.3,9h0c0,0,0,0,0,0c18.9,0,35.4-13.4,39.1-32l2.4-10.9l10.7-47.8
		C-330.2,290.2-333.4,292.2-337.2,293.9z M-379.7,363.3c-20.6,0-37.3-15.1-37.3-33.6c0-0.5,0-0.9,0-1.4c0-1,0.1-1.9,0.3-2.9
		c0,0,0,0,0,0c2.3-8.4,18-14.8,37-14.8c19,0,34.6,6.5,37,14.8c0,0,0,0,0,0c0.1,1,0.2,1.9,0.3,2.9c0,0.5,0,0.9,0,1.4
		C-342.4,348.3-359.1,363.3-379.7,363.3z"/>
	<g>
		<path class="st4" d="M-342.4,329.7c0,18.6-16.7,33.6-37.3,33.6c-20.6,0-37.3-15.1-37.3-33.6c0-0.5,0-0.9,0-1.4
			c0-1,0.1-1.9,0.3-2.9c0,0,0,0,0,0c2.3-8.4,18-14.8,37-14.8c19,0,34.6,6.5,37,14.8c0,0,0,0,0,0c0.1,1,0.2,1.9,0.3,2.9
			C-342.5,328.7-342.4,329.2-342.4,329.7z"/>
	</g>
	<g>
		<path class="st4" d="M-325.7,261c-0.1-0.1-0.3-0.2-0.4-0.3c-2.9-2.5-6.6-4.8-11.1-6.9c-11.7-5.5-26.8-8.5-42.5-8.5
			c-15.8,0-30.8,3-42.5,8.5c-4.8,2.2-8.7,4.8-11.7,7.5c-0.1,0.1-0.2,0.2-0.3,0.3c-4.2,3.8-6.5,8-6.5,12.1c0,0.1,0,0.1,0,0.2v0.1
			c0,4.9,3.2,9.8,8.8,14.2c2.7,2.1,6,4,9.7,5.8c11.7,5.5,26.8,8.5,42.5,8.5c15.8,0,30.8-3,42.5-8.5c3.8-1.8,7-3.7,9.7-5.8
			c5.6-4.3,8.8-9.2,8.8-14c0-0.1,0-0.2,0-0.2C-318.6,269.5-321.1,265-325.7,261z M-324.6,274.2c-0.1,0.9-0.3,1.8-0.8,2.7
			c-0.5,1.1-1.3,2.2-2.3,3.3c-0.3,0.3-0.6,0.6-0.9,0.9c-7.7,7.6-26.3,15.2-51.1,15.2c-25.3,0-44.2-8-51.6-15.7
			c-0.3-0.3-0.6-0.6-0.9-0.9c-0.7-0.8-1.2-1.6-1.6-2.3c-0.2-0.3-0.3-0.6-0.4-0.9c-0.3-0.8-0.5-1.7-0.6-2.4c0-0.1,0-0.1,0-0.2
			c0-0.1,0-0.3,0-0.4c0-0.5,0.1-0.9,0.3-1.4c0-0.1,0.1-0.2,0.1-0.3c0-0.1,0.1-0.2,0.1-0.3c0-0.1,0.1-0.2,0.1-0.2
			c0-0.1,0.1-0.1,0.1-0.2c0,0,0-0.1,0.1-0.1c0.1-0.2,0.2-0.4,0.3-0.6c0.1-0.2,0.2-0.3,0.3-0.5c0.3-0.5,0.6-0.9,1-1.4v0
			c0.1-0.1,0.2-0.2,0.3-0.3c0,0,0.1-0.1,0.1-0.1c0,0,0,0,0,0c0.1-0.1,0.2-0.2,0.3-0.3c0.2-0.2,0.4-0.4,0.6-0.7c0,0,0,0,0,0
			c0.3-0.3,0.6-0.6,0.9-0.9c0,0,0,0,0,0c0.7-0.6,1.4-1.3,2.3-1.9c0.2-0.2,0.4-0.3,0.6-0.5c0.4-0.3,0.9-0.6,1.3-0.9
			c0.2-0.2,0.5-0.3,0.7-0.5c0.5-0.3,1-0.6,1.5-0.9c0,0,0,0,0,0c0.8-0.4,1.6-0.9,2.4-1.3c9.1-4.6,22.5-8.3,38.7-8.7c1,0,2,0,3,0
			c1,0,2,0,3,0c16.2,0.4,29.6,4.1,38.7,8.7c0.9,0.4,1.7,0.9,2.5,1.3c0.5,0.3,1,0.6,1.5,0.9c0.2,0.2,0.5,0.3,0.7,0.5
			c0.5,0.3,0.9,0.6,1.3,0.9c0.2,0.2,0.4,0.3,0.6,0.5c0.8,0.6,1.6,1.3,2.3,1.9c0.2,0.2,0.3,0.3,0.5,0.5c0.1,0.1,0.3,0.2,0.4,0.4
			c0.1,0.1,0.2,0.2,0.2,0.3c0.4,0.4,0.8,0.8,1.1,1.2c0.1,0.2,0.2,0.3,0.4,0.5c0,0,0,0,0,0c0.1,0.2,0.2,0.3,0.3,0.5l0,0
			c0.1,0.2,0.2,0.3,0.3,0.5c0,0,0,0,0,0c0.1,0.2,0.2,0.3,0.3,0.5c0.1,0.1,0.1,0.2,0.2,0.3c0.1,0.1,0.1,0.2,0.1,0.3
			c0.1,0.2,0.2,0.4,0.2,0.5c0.1,0.3,0.2,0.5,0.3,0.8c0,0,0,0,0,0.1c0.1,0.5,0.2,1,0.2,1.5C-324.6,274-324.6,274.1-324.6,274.2z"/>
	</g>
</g>
<g>
	<path class="st4" d="M-391.2,236.1c-0.1-0.1-0.3-0.2-0.4-0.3c-2.9-2.5-6.6-4.8-11.1-6.9c-11.7-5.5-26.8-8.5-42.5-8.5
		c-15.8,0-30.8,3-42.5,8.5c-4.8,2.2-8.7,4.8-11.7,7.5c-0.1,0.1-0.2,0.2-0.3,0.3c-4.2,3.8-6.5,8-6.5,12.1c0,0.1,0,0.1,0,0.2v0.1
		c0,4.9,3.2,9.8,8.8,14.2c2.7,2.1,6,4,9.7,5.8c11.7,5.5,26.8,8.5,42.5,8.5c15.8,0,30.8-3,42.5-8.5c3.8-1.8,7-3.7,9.7-5.8
		c5.6-4.3,8.8-9.2,8.8-14c0-0.1,0-0.2,0-0.2C-384.1,244.6-386.6,240.1-391.2,236.1z M-390.1,249.3c-0.1,0.9-0.3,1.8-0.8,2.7
		c-0.5,1.1-1.3,2.2-2.3,3.3c-0.3,0.3-0.6,0.6-0.9,0.9c-7.7,7.6-26.3,15.2-51.1,15.2c-25.3,0-44.2-8-51.6-15.7
		c-0.3-0.3-0.6-0.6-0.9-0.9c-0.7-0.8-1.2-1.6-1.6-2.3c-0.2-0.3-0.3-0.6-0.4-0.9c-0.3-0.8-0.5-1.7-0.6-2.4c0-0.1,0-0.1,0-0.2
		c0-0.1,0-0.3,0-0.4c0-0.5,0.1-0.9,0.3-1.4c0-0.1,0.1-0.2,0.1-0.3c0-0.1,0.1-0.2,0.1-0.3c0-0.1,0.1-0.2,0.1-0.2
		c0-0.1,0.1-0.1,0.1-0.2c0,0,0-0.1,0.1-0.1c0.1-0.2,0.2-0.4,0.3-0.6c0.1-0.2,0.2-0.3,0.3-0.5c0.3-0.5,0.6-0.9,1-1.4v0
		c0.1-0.1,0.2-0.2,0.3-0.3c0,0,0.1-0.1,0.1-0.1c0,0,0,0,0,0c0.1-0.1,0.2-0.2,0.3-0.3c0.2-0.2,0.4-0.4,0.6-0.7c0,0,0,0,0,0
		c0.3-0.3,0.6-0.6,0.9-0.9c0,0,0,0,0,0c0.7-0.6,1.4-1.3,2.3-1.9c0.2-0.2,0.4-0.3,0.6-0.5c0.4-0.3,0.9-0.6,1.3-0.9
		c0.2-0.2,0.5-0.3,0.7-0.5c0.5-0.3,1-0.6,1.5-0.9c0,0,0,0,0,0c0.8-0.4,1.6-0.9,2.4-1.3c9.1-4.6,22.5-8.3,38.7-8.7c1,0,2,0,3,0
		c1,0,2,0,3,0c16.2,0.4,29.6,4.1,38.7,8.7c0.9,0.4,1.7,0.9,2.5,1.3c0.5,0.3,1,0.6,1.5,0.9c0.2,0.2,0.5,0.3,0.7,0.5
		c0.5,0.3,0.9,0.6,1.3,0.9c0.2,0.2,0.4,0.3,0.6,0.5c0.8,0.6,1.6,1.3,2.3,1.9c0.2,0.2,0.3,0.3,0.5,0.5c0.1,0.1,0.3,0.2,0.4,0.4
		c0.1,0.1,0.2,0.2,0.2,0.3c0.4,0.4,0.8,0.8,1.1,1.2c0.1,0.2,0.2,0.3,0.4,0.5c0,0,0,0,0,0c0.1,0.2,0.2,0.3,0.3,0.5l0,0
		c0.1,0.2,0.2,0.3,0.3,0.5c0,0,0,0,0,0c0.1,0.2,0.2,0.3,0.3,0.5c0.1,0.1,0.1,0.2,0.2,0.3c0.1,0.1,0.1,0.2,0.1,0.3
		c0.1,0.2,0.2,0.4,0.2,0.5c0.1,0.3,0.2,0.5,0.3,0.8c0,0,0,0,0,0.1c0.1,0.5,0.2,1,0.2,1.5C-390.1,249.1-390.1,249.2-390.1,249.3z"/>
</g>
<g>
	<path class="st4" d="M-258.8,236.1c-0.1-0.1-0.3-0.2-0.4-0.3c-2.9-2.5-6.6-4.8-11.1-6.9c-11.7-5.5-26.8-8.5-42.5-8.5
		c-15.8,0-30.8,3-42.5,8.5c-4.8,2.2-8.7,4.8-11.7,7.5c-0.1,0.1-0.2,0.2-0.3,0.3c-4.2,3.8-6.5,8-6.5,12.1c0,0.1,0,0.1,0,0.2v0.1
		c0,4.9,3.2,9.8,8.8,14.2c2.7,2.1,6,4,9.7,5.8c11.7,5.5,26.8,8.5,42.5,8.5c15.8,0,30.8-3,42.5-8.5c3.8-1.8,7-3.7,9.7-5.8
		c5.6-4.3,8.8-9.2,8.8-14c0-0.1,0-0.2,0-0.2C-251.7,244.6-254.2,240.1-258.8,236.1z M-257.8,249.3c-0.1,0.9-0.3,1.8-0.8,2.7
		c-0.5,1.1-1.3,2.2-2.3,3.3c-0.3,0.3-0.6,0.6-0.9,0.9c-7.7,7.6-26.3,15.2-51.1,15.2c-25.3,0-44.2-8-51.6-15.7
		c-0.3-0.3-0.6-0.6-0.9-0.9c-0.7-0.8-1.2-1.6-1.6-2.3c-0.2-0.3-0.3-0.6-0.4-0.9c-0.3-0.8-0.5-1.7-0.6-2.4c0-0.1,0-0.1,0-0.2
		c0-0.1,0-0.3,0-0.4c0-0.5,0.1-0.9,0.3-1.4c0-0.1,0.1-0.2,0.1-0.3c0-0.1,0.1-0.2,0.1-0.3c0-0.1,0.1-0.2,0.1-0.2
		c0-0.1,0.1-0.1,0.1-0.2c0,0,0-0.1,0.1-0.1c0.1-0.2,0.2-0.4,0.3-0.6c0.1-0.2,0.2-0.3,0.3-0.5c0.3-0.5,0.6-0.9,1-1.4v0
		c0.1-0.1,0.2-0.2,0.3-0.3c0,0,0.1-0.1,0.1-0.1c0,0,0,0,0,0c0.1-0.1,0.2-0.2,0.3-0.3c0.2-0.2,0.4-0.4,0.6-0.7c0,0,0,0,0,0
		c0.3-0.3,0.6-0.6,0.9-0.9c0,0,0,0,0,0c0.7-0.6,1.4-1.3,2.3-1.9c0.2-0.2,0.4-0.3,0.6-0.5c0.4-0.3,0.9-0.6,1.3-0.9
		c0.2-0.2,0.5-0.3,0.7-0.5c0.5-0.3,1-0.6,1.5-0.9c0,0,0,0,0,0c0.8-0.4,1.6-0.9,2.4-1.3c9.1-4.6,22.5-8.3,38.7-8.7c1,0,2,0,3,0
		c1,0,2,0,3,0c16.2,0.4,29.6,4.1,38.7,8.7c0.9,0.4,1.7,0.9,2.5,1.3c0.5,0.3,1,0.6,1.5,0.9c0.2,0.2,0.5,0.3,0.7,0.5
		c0.5,0.3,0.9,0.6,1.3,0.9c0.2,0.2,0.4,0.3,0.6,0.5c0.8,0.6,1.6,1.3,2.3,1.9c0.2,0.2,0.3,0.3,0.5,0.5c0.1,0.1,0.3,0.2,0.4,0.4
		c0.1,0.1,0.2,0.2,0.2,0.3c0.4,0.4,0.8,0.8,1.1,1.2c0.1,0.2,0.2,0.3,0.4,0.5c0,0,0,0,0,0c0.1,0.2,0.2,0.3,0.3,0.5l0,0
		c0.1,0.2,0.2,0.3,0.3,0.5c0,0,0,0,0,0c0.1,0.2,0.2,0.3,0.3,0.5c0.1,0.1,0.1,0.2,0.2,0.3c0.1,0.1,0.1,0.2,0.1,0.3
		c0.1,0.2,0.2,0.4,0.2,0.5c0.1,0.3,0.2,0.5,0.3,0.8c0,0,0,0,0,0.1c0.1,0.5,0.2,1,0.2,1.5C-257.7,249.1-257.7,249.2-257.8,249.3z"/>
</g>
<g>
	<pattern  id="SVGID_7_" xlink:href="#New_Pattern_Swatch_1" patternTransform="matrix(1 0 0 1 -68.5746 -266.2183)">
	</pattern>
	<path class="st10" d="M-379.7,251.3c-33.1,0-55.1,13.6-55.1,22.5c0,9,22,22.6,55.1,22.6s55.1-13.6,55.1-22.6
		C-324.6,264.9-346.6,251.3-379.7,251.3z M-342.5,283.4c-10.1,4.7-23.3,7.2-37.2,7.2c-13.9,0-27.1-2.6-37.2-7.2
		c-9.1-4.2-12-8.5-12.1-9.6c0.1-1.1,3-5.4,12.1-9.6c10.1-4.7,23.3-7.2,37.2-7.2c13.9,0,27.1,2.6,37.2,7.2c9.1,4.2,12.1,8.5,12.1,9.6
		C-330.4,274.9-333.4,279.2-342.5,283.4z"/>
</g>
<g>
	<path class="st4" d="M-184.5,274.1c-0.1-4.5-2.6-9-7.1-13.1c-0.1-0.1-0.3-0.2-0.4-0.3c-2.8-2.4-6.3-4.7-10.4-6.7
		c-10.9-5.3-25-8.3-40.2-8.7v0h-6v0c-15.2,0.4-29.4,3.4-40.2,8.7c-4.5,2.2-8.2,4.6-11,7.3c-0.1,0.1-0.2,0.2-0.3,0.3
		c-4,3.8-6.3,8-6.5,12.1c0,0.1,0,0.1,0,0.2v0.1c0,0.1,0,0.3,0,0.4c0,0.6,0,1.2,0.1,1.7c0.1,0.4,0.1,0.8,0.2,1.2l15.6,69.8
		c0.2,0.9,0.4,1.9,0.7,2.8c0,0,0,0,0,0l5.6,25.3c0.3,1.2,0.9,2.4,1.8,3.6c5,6.5,18.8,12.2,37,12.2c18.2,0,32-5.8,37-12.2
		c0.9-1.2,1.5-2.4,1.8-3.6l5.6-25.2c0,0,0,0,0,0c0.2-0.9,0.5-1.9,0.7-2.8l15.6-69.8l0-0.2c0.1-0.4,0.2-0.8,0.2-1.2
		c0.1-0.5,0.1-1.1,0.1-1.7C-184.5,274.2-184.5,274.2-184.5,274.1z M-204,335.9l-2.4,10.9c-3.7,18.5-20.2,32-39.1,32c0,0,0,0,0,0h0
		c-9.5,0-18.3-3.4-25.3-9c-7-5.7-12-13.7-13.9-22.9l-2.4-10.9l-10.7-47.8l-1.4-6.1c0,0,0-0.1,0-0.1c-0.1-0.3-0.1-0.6-0.2-0.9
		c0-0.1,0-0.1,0-0.2l-1.1-4.9l0-0.1c-0.1-0.2-0.1-0.4-0.1-0.6l0-0.1c0-0.2-0.1-0.5-0.1-0.8c0-0.1,0-0.2,0-0.3c0-0.1,0-0.1,0-0.2
		c0-0.1,0-0.3,0-0.4c0-0.5,0.1-0.9,0.3-1.4c0-0.1,0.1-0.2,0.1-0.3c0-0.1,0.1-0.2,0.1-0.3c0.1-0.1,0.1-0.3,0.2-0.4c0,0,0-0.1,0.1-0.1
		c0.1-0.1,0.1-0.2,0.2-0.4c0.1-0.2,0.2-0.5,0.4-0.7c0.3-0.5,0.6-0.9,1-1.4c0.1-0.1,0.2-0.2,0.3-0.3c0,0,0.1-0.1,0.1-0.1
		c0.1-0.1,0.2-0.2,0.3-0.3c0.2-0.2,0.4-0.4,0.6-0.7c0,0,0,0,0,0c0-0.1,0.1-0.1,0.2-0.2c7.1-7.6,24.2-15,48.4-15.5v0c1,0,2,0,3,0
		c1,0,2,0,3,0v0c24.3,0.6,41.5,8,48.5,15.6c0.1,0.1,0.2,0.2,0.2,0.3c0.5,0.5,1,1.1,1.4,1.6c0,0,0,0.1,0.1,0.1h0c0,0,0,0,0,0
		c0,0,0,0.1,0,0.1c0.2,0.3,0.4,0.5,0.5,0.8c0.1,0.1,0.2,0.3,0.2,0.4c0.1,0.1,0.2,0.3,0.2,0.4c0.1,0.1,0.1,0.2,0.1,0.3
		c0,0.1,0,0.1,0.1,0.2c0,0.1,0.1,0.2,0.1,0.3c0,0,0,0,0,0.1c0.1,0.3,0.2,0.5,0.3,0.8c0,0,0,0,0,0.1c0,0.2,0.1,0.4,0.1,0.5
		c0,0.1,0,0.1,0,0.2c0,0.3,0.1,0.5,0.1,0.8c0,0.1,0,0.1,0,0.2c0,0,0,0.1,0,0.1v0.1c0,0,0,0.1,0,0.1c0,0.3,0,0.6-0.1,0.8l0,0.1
		c0,0.2-0.1,0.4-0.1,0.6l-1.1,5.1c0,0.1,0,0.1,0,0.2c0,0.3-0.1,0.6-0.2,0.9c0,0,0,0.1,0,0.1l-1.4,6.1L-204,335.9z"/>
	<pattern  id="SVGID_8_" xlink:href="#New_Pattern_Swatch_1" patternTransform="matrix(1 0 0 1 -68.5746 -266.2183)">
	</pattern>
	<path class="st11" d="M-203.1,293.9c-11.7,5.5-26.8,8.5-42.5,8.5s-30.8-3-42.5-8.5c-3.8-1.8-7-3.7-9.7-5.8l10.7,47.8l2.4,10.9
		c1.9,9.3,6.9,17.2,13.9,22.9c7,5.7,15.8,9,25.3,9h0c0,0,0,0,0,0c18.9,0,35.4-13.4,39.1-32l2.4-10.9l10.7-47.8
		C-196.1,290.2-199.3,292.2-203.1,293.9z M-245.6,363.3c-20.6,0-37.3-15.1-37.3-33.6c0-0.5,0-0.9,0-1.4c0-1,0.1-1.9,0.3-2.9
		c0,0,0,0,0,0c2.3-8.4,18-14.8,37-14.8c19,0,34.6,6.5,37,14.8c0,0,0,0,0,0c0.1,1,0.2,1.9,0.3,2.9c0,0.5,0,0.9,0,1.4
		C-208.3,348.3-225,363.3-245.6,363.3z"/>
	<g>
		<path class="st4" d="M-208.3,329.7c0,18.6-16.7,33.6-37.3,33.6c-20.6,0-37.3-15.1-37.3-33.6c0-0.5,0-0.9,0-1.4
			c0-1,0.1-1.9,0.3-2.9c0,0,0,0,0,0c2.3-8.4,18-14.8,37-14.8c19,0,34.6,6.5,37,14.8c0,0,0,0,0,0c0.1,1,0.2,1.9,0.3,2.9
			C-208.4,328.7-208.3,329.2-208.3,329.7z"/>
	</g>
	<g>
		<path class="st4" d="M-191.6,261c-0.1-0.1-0.3-0.2-0.4-0.3c-2.9-2.5-6.6-4.8-11.1-6.9c-11.7-5.5-26.8-8.5-42.5-8.5
			s-30.8,3-42.5,8.5c-4.8,2.2-8.7,4.8-11.7,7.5c-0.1,0.1-0.2,0.2-0.3,0.3c-4.2,3.8-6.5,8-6.5,12.1c0,0.1,0,0.1,0,0.2v0.1
			c0,4.9,3.2,9.8,8.8,14.2c2.7,2.1,6,4,9.7,5.8c11.7,5.5,26.8,8.5,42.5,8.5s30.8-3,42.5-8.5c3.8-1.8,7-3.7,9.7-5.8
			c5.6-4.3,8.8-9.2,8.8-14c0-0.1,0-0.2,0-0.2C-184.5,269.5-187,265-191.6,261z M-190.5,274.2c-0.1,0.9-0.3,1.8-0.8,2.7
			c-0.5,1.1-1.3,2.2-2.3,3.3c-0.3,0.3-0.6,0.6-0.9,0.9c-7.7,7.6-26.3,15.2-51.1,15.2c-25.3,0-44.2-8-51.6-15.7
			c-0.3-0.3-0.6-0.6-0.9-0.9c-0.7-0.8-1.2-1.6-1.6-2.3c-0.2-0.3-0.3-0.6-0.4-0.9c-0.3-0.8-0.5-1.7-0.6-2.4c0-0.1,0-0.1,0-0.2
			c0-0.1,0-0.3,0-0.4c0-0.5,0.1-0.9,0.3-1.4c0-0.1,0.1-0.2,0.1-0.3c0-0.1,0.1-0.2,0.1-0.3c0-0.1,0.1-0.2,0.1-0.2
			c0-0.1,0.1-0.1,0.1-0.2c0,0,0-0.1,0.1-0.1c0.1-0.2,0.2-0.4,0.3-0.6c0.1-0.2,0.2-0.3,0.3-0.5c0.3-0.5,0.6-0.9,1-1.4v0
			c0.1-0.1,0.2-0.2,0.3-0.3c0,0,0.1-0.1,0.1-0.1c0,0,0,0,0,0c0.1-0.1,0.2-0.2,0.3-0.3c0.2-0.2,0.4-0.4,0.6-0.7c0,0,0,0,0,0
			c0.3-0.3,0.6-0.6,0.9-0.9c0,0,0,0,0,0c0.7-0.6,1.4-1.3,2.3-1.9c0.2-0.2,0.4-0.3,0.6-0.5c0.4-0.3,0.9-0.6,1.3-0.9
			c0.2-0.2,0.5-0.3,0.7-0.5c0.5-0.3,1-0.6,1.5-0.9c0,0,0,0,0,0c0.8-0.4,1.6-0.9,2.4-1.3c9.1-4.6,22.5-8.3,38.7-8.7c1,0,2,0,3,0
			c1,0,2,0,3,0c16.2,0.4,29.6,4.1,38.7,8.7c0.9,0.4,1.7,0.9,2.5,1.3c0.5,0.3,1,0.6,1.5,0.9c0.2,0.2,0.5,0.3,0.7,0.5
			c0.5,0.3,0.9,0.6,1.3,0.9c0.2,0.2,0.4,0.3,0.6,0.5c0.8,0.6,1.6,1.3,2.3,1.9c0.2,0.2,0.3,0.3,0.5,0.5c0.1,0.1,0.3,0.2,0.4,0.4
			c0.1,0.1,0.2,0.2,0.2,0.3c0.4,0.4,0.8,0.8,1.1,1.2c0.1,0.2,0.2,0.3,0.4,0.5c0,0,0,0,0,0c0.1,0.2,0.2,0.3,0.3,0.5l0,0
			c0.1,0.2,0.2,0.3,0.3,0.5c0,0,0,0,0,0c0.1,0.2,0.2,0.3,0.3,0.5c0.1,0.1,0.1,0.2,0.2,0.3c0.1,0.1,0.1,0.2,0.1,0.3
			c0.1,0.2,0.2,0.4,0.2,0.5c0.1,0.3,0.2,0.5,0.3,0.8c0,0,0,0,0,0.1c0.1,0.5,0.2,1,0.2,1.5C-190.5,274-190.5,274.1-190.5,274.2z"/>
	</g>
</g>
<g>
	<path class="st4" d="M-125.6,236.1c-0.1-0.1-0.3-0.2-0.4-0.3c-2.9-2.5-6.6-4.8-11.1-6.9c-11.7-5.5-26.8-8.5-42.5-8.5
		s-30.8,3-42.5,8.5c-4.8,2.2-8.7,4.8-11.7,7.5c-0.1,0.1-0.2,0.2-0.3,0.3c-4.2,3.8-6.5,8-6.5,12.1c0,0.1,0,0.1,0,0.2v0.1
		c0,4.9,3.2,9.8,8.8,14.2c2.7,2.1,6,4,9.7,5.8c11.7,5.5,26.8,8.5,42.5,8.5s30.8-3,42.5-8.5c3.8-1.8,7-3.7,9.7-5.8
		c5.6-4.3,8.8-9.2,8.8-14c0-0.1,0-0.2,0-0.2C-118.5,244.6-121,240.1-125.6,236.1z M-124.5,249.3c-0.1,0.9-0.3,1.8-0.8,2.7
		c-0.5,1.1-1.3,2.2-2.3,3.3c-0.3,0.3-0.6,0.6-0.9,0.9c-7.7,7.6-26.3,15.2-51.1,15.2c-25.3,0-44.2-8-51.6-15.7
		c-0.3-0.3-0.6-0.6-0.9-0.9c-0.7-0.8-1.2-1.6-1.6-2.3c-0.2-0.3-0.3-0.6-0.4-0.9c-0.3-0.8-0.5-1.7-0.6-2.4c0-0.1,0-0.1,0-0.2
		c0-0.1,0-0.3,0-0.4c0-0.5,0.1-0.9,0.3-1.4c0-0.1,0.1-0.2,0.1-0.3c0-0.1,0.1-0.2,0.1-0.3c0-0.1,0.1-0.2,0.1-0.2
		c0-0.1,0.1-0.1,0.1-0.2c0,0,0-0.1,0.1-0.1c0.1-0.2,0.2-0.4,0.3-0.6c0.1-0.2,0.2-0.3,0.3-0.5c0.3-0.5,0.6-0.9,1-1.4v0
		c0.1-0.1,0.2-0.2,0.3-0.3c0,0,0.1-0.1,0.1-0.1c0,0,0,0,0,0c0.1-0.1,0.2-0.2,0.3-0.3c0.2-0.2,0.4-0.4,0.6-0.7c0,0,0,0,0,0
		c0.3-0.3,0.6-0.6,0.9-0.9c0,0,0,0,0,0c0.7-0.6,1.4-1.3,2.3-1.9c0.2-0.2,0.4-0.3,0.6-0.5c0.4-0.3,0.9-0.6,1.3-0.9
		c0.2-0.2,0.5-0.3,0.7-0.5c0.5-0.3,1-0.6,1.5-0.9c0,0,0,0,0,0c0.8-0.4,1.6-0.9,2.4-1.3c9.1-4.6,22.5-8.3,38.7-8.7c1,0,2,0,3,0
		c1,0,2,0,3,0c16.2,0.4,29.6,4.1,38.7,8.7c0.9,0.4,1.7,0.9,2.5,1.3c0.5,0.3,1,0.6,1.5,0.9c0.2,0.2,0.5,0.3,0.7,0.5
		c0.5,0.3,0.9,0.6,1.3,0.9c0.2,0.2,0.4,0.3,0.6,0.5c0.8,0.6,1.6,1.3,2.3,1.9c0.2,0.2,0.3,0.3,0.5,0.5c0.1,0.1,0.3,0.2,0.4,0.4
		c0.1,0.1,0.2,0.2,0.2,0.3c0.4,0.4,0.8,0.8,1.1,1.2c0.1,0.2,0.2,0.3,0.4,0.5c0,0,0,0,0,0c0.1,0.2,0.2,0.3,0.3,0.5l0,0
		c0.1,0.2,0.2,0.3,0.3,0.5c0,0,0,0,0,0c0.1,0.2,0.2,0.3,0.3,0.5c0.1,0.1,0.1,0.2,0.2,0.3c0.1,0.1,0.1,0.2,0.1,0.3
		c0.1,0.2,0.2,0.4,0.2,0.5c0.1,0.3,0.2,0.5,0.3,0.8c0,0,0,0,0,0.1c0.1,0.5,0.2,1,0.2,1.5C-124.5,249.1-124.5,249.2-124.5,249.3z"/>
</g>
<g>
	<pattern  id="SVGID_9_" xlink:href="#New_Pattern_Swatch_1" patternTransform="matrix(1 0 0 1 -68.5746 -266.2183)">
	</pattern>
	<path class="st12" d="M-245.6,251.3c-33.1,0-55.1,13.6-55.1,22.5c0,9,22,22.6,55.1,22.6s55.1-13.6,55.1-22.6
		C-190.5,264.9-212.5,251.3-245.6,251.3z M-208.4,283.4c-10.1,4.7-23.3,7.2-37.2,7.2c-13.9,0-27.1-2.6-37.2-7.2
		c-9.1-4.2-12-8.5-12.1-9.6c0.1-1.1,3-5.4,12.1-9.6c10.1-4.7,23.3-7.2,37.2-7.2c13.9,0,27.1,2.6,37.2,7.2c9.1,4.2,12.1,8.5,12.1,9.6
		C-196.3,274.9-199.3,279.2-208.4,283.4z"/>
</g>
<rect x="871.1" y="505.8" class="st0" width="479.3" height="130.2"/>
<text transform="matrix(1 0 0 1 900.6328 550.5785)" style="font-family:'MyriadPro-Regular'; font-size:63px;">Drinking Games</text>
<g>
	<path class="st4" d="M-559,313.2v-2.4l3.1-3c7.5-7.1,10.8-10.9,10.9-15.3c0-3-1.4-5.7-5.8-5.7c-2.7,0-4.9,1.4-6.2,2.5l-1.3-2.8
		c2-1.7,4.9-3,8.3-3c6.3,0,9,4.3,9,8.5c0,5.4-3.9,9.8-10.1,15.7l-2.3,2.2v0.1h13.1v3.3H-559z"/>
	<path class="st4" d="M-516.4,298.2c0,9.9-3.7,15.4-10.2,15.4c-5.7,0-9.6-5.4-9.7-15c0-9.8,4.2-15.2,10.2-15.2
		C-519.9,283.4-516.4,288.9-516.4,298.2z M-532.3,298.7c0,7.6,2.3,11.9,5.9,11.9c4,0,6-4.7,6-12.2c0-7.2-1.8-11.9-5.9-11.9
		C-529.8,286.5-532.3,290.7-532.3,298.7z"/>
	<path class="st4" d="M-100.6,287.6L-100.6,287.6l-5.2,2.7l-0.8-3l6.4-3.4h3.4v29.2h-3.8V287.6z"/>
	<path class="st4" d="M-86.4,305.7c0-3.7,2.2-6.3,5.8-7.8l0-0.1c-3.2-1.5-4.6-4-4.6-6.6c0-4.6,3.9-7.8,9-7.8c5.7,0,8.5,3.6,8.5,7.2
		c0,2.5-1.2,5.1-4.8,6.8v0.1c3.6,1.4,5.9,4,5.9,7.6c0,5.1-4.4,8.5-9.9,8.5C-82.8,313.7-86.4,310-86.4,305.7z M-70.7,305.6
		c0-3.6-2.5-5.3-6.4-6.4c-3.4,1-5.3,3.2-5.3,6c-0.1,3,2.1,5.6,5.8,5.6C-73,310.8-70.7,308.6-70.7,305.6z M-81.6,290.9
		c0,2.9,2.2,4.5,5.6,5.4c2.5-0.9,4.5-2.7,4.5-5.3c0-2.3-1.4-4.8-5-4.8C-79.8,286.3-81.6,288.4-81.6,290.9z"/>
</g>
<rect x="-386.5" y="353.9" class="st0" width="144.8" height="130.2"/>
<text transform="matrix(1 0 0 1 -360.259 385.8163)" style="font-family:'MyriadPro-Regular'; font-size:45px;">2018</text>
<path id="SVGID_x5F_10_x5F_" class="st0" d="M-25.9-215.1c0-105.8-128.5-191.5-286.9-191.5s-286.9,85.7-286.9,191.5
	S-471.3-23.6-312.8-23.6S-25.9-109.4-25.9-215.1z"/>
<text><textPath  xlink:href="#SVGID_x5F_10_x5F_" startOffset="32.9183%">
<tspan  style="font-family:'AvenirNext-DemiBold'; font-size:52px;">DRINKING GAMES</tspan></textPath>
</text>
<rect x="746.3" y="602.6" class="st0" width="576" height="130.2"/>
<text transform="matrix(1 0 0 1 796.3463 643.4569)" style="font-family:'AvenirNext-DemiBold'; font-size:54px;">DRINKING GAMES</text>
<pattern  id="SVGID_11_" xlink:href="#New_Pattern_Swatch_1" patternTransform="matrix(1 0 0 1 -68.5746 -266.2183)">
</pattern>
<rect x="858" y="-193" class="st14" width="293.4" height="293.4"/>
<rect x="-599.7" y="460.5" class="st0" width="573.9" height="130.2"/>
<text transform="matrix(1 0 0 1 -511.0913 494.482)" class="st4" style="font-family:'AvenirNext-DemiBold'; font-size:45px;">DRINKING GAMES</text>
<g>
	<g>
		<g>
			<g>
				<path class="st4" d="M868.9,179.3c-31.6,0-55.2-16-55.2-30.2c0-14.3,23.6-30.2,55.2-30.2c31.6,0,55.2,16,55.2,30.2
					C924.1,163.4,900.5,179.3,868.9,179.3z"/>
			</g>
			<pattern  id="SVGID_12_" xlink:href="#New_Pattern_Swatch_1" patternTransform="matrix(1 0 0 1 -68.5746 -266.2183)">
			</pattern>
			<path class="st15" d="M868.9,124.4c-29.9,0-49.7,14.9-49.7,24.7c0,9.8,19.8,24.7,49.7,24.7s49.7-14.9,49.7-24.7
				C918.6,139.2,898.8,124.4,868.9,124.4z"/>
		</g>
		<g>
			<pattern  id="SVGID_13_" xlink:href="#New_Pattern_Swatch_1" patternTransform="matrix(1 0 0 1 -68.5746 -266.2183)">
			</pattern>
			<path class="st16" d="M868.9,124.4c-29.9,0-49.7,14.9-49.7,24.7c0,9.8,19.8,24.7,49.7,24.7s49.7-14.9,49.7-24.7
				C918.6,139.2,898.8,124.4,868.9,124.4z M868.9,168.1c-28.9,0-44-14.1-44-19c0-4.9,15.1-19,44-19c28.9,0,44,14.1,44,19
				C912.9,154,897.8,168.1,868.9,168.1z"/>
		</g>
		<g>
			<g>
				<path class="st4" d="M868.9,124.4c29.9,0,49.7,14.9,49.7,24.7c0,9.8-19.8,24.7-49.7,24.7s-49.7-14.9-49.7-24.7
					C819.2,139.2,839,124.4,868.9,124.4 M868.9,118.8c-31.6,0-55.2,16-55.2,30.2c0,14.3,23.6,30.3,55.2,30.3
					c31.6,0,55.2-16,55.2-30.3C924.2,134.8,900.5,118.8,868.9,118.8L868.9,118.8z"/>
			</g>
		</g>
		<g>
			<path class="st4" d="M911.6,160.8c-11.3,10-29.5,13.5-42.7,13.5c-13.3,0-31.5-3.6-42.7-13.5l-12.6-11.2l18.4,81.8l0.4,1.6
				c2.7,8.7,17.5,17.5,36.6,17.5c19.6,0,34.6-9.1,36.8-18.1l18.5-82.8L911.6,160.8z M906.1,206.1l-2.2,9.7c-0.4,2-1,4-1.7,5.8
				c-0.5,1.3-1.1,2.5-1.7,3.7c-6.1,11.4-18.1,19-31.5,19c0,0,0,0,0,0h0c-8.5,0-16.4-3-22.6-8.1c-3.6-3-6.7-6.6-8.9-10.8
				c-0.6-1.2-1.2-2.5-1.7-3.7c-0.7-1.9-1.3-3.9-1.8-5.9l-2.2-9.7l-9.2-41.3c9.5,8.4,26.3,14.9,46.3,14.9c20.1,0,36.9-6.5,46.3-14.9
				L906.1,206.1z"/>
		</g>
	</g>
	<g>
		<g>
			<g>
				<path class="st4" d="M992.8,179.3c-31.6,0-55.2-16-55.2-30.2c0-14.3,23.6-30.2,55.2-30.2c31.6,0,55.2,16,55.2,30.2
					C1048.1,163.4,1024.4,179.3,992.8,179.3z"/>
			</g>
			<pattern  id="SVGID_14_" xlink:href="#New_Pattern_Swatch_1" patternTransform="matrix(1 0 0 1 -68.5746 -266.2183)">
			</pattern>
			<path class="st17" d="M992.8,124.4c-29.9,0-49.7,14.9-49.7,24.7c0,9.8,19.8,24.7,49.7,24.7c29.9,0,49.7-14.9,49.7-24.7
				C1042.5,139.2,1022.7,124.4,992.8,124.4z"/>
		</g>
		<g>
			<pattern  id="SVGID_15_" xlink:href="#New_Pattern_Swatch_1" patternTransform="matrix(1 0 0 1 -68.5746 -266.2183)">
			</pattern>
			<path class="st18" d="M992.8,124.4c-29.9,0-49.7,14.9-49.7,24.7c0,9.8,19.8,24.7,49.7,24.7c29.9,0,49.7-14.9,49.7-24.7
				C1042.5,139.2,1022.7,124.4,992.8,124.4z M992.8,168.1c-28.9,0-44-14.1-44-19c0-4.9,15.1-19,44-19c28.9,0,44,14.1,44,19
				C1036.8,154,1021.7,168.1,992.8,168.1z"/>
		</g>
		<g>
			<g>
				<path class="st4" d="M992.8,124.4c29.9,0,49.7,14.9,49.7,24.7c0,9.8-19.8,24.7-49.7,24.7s-49.7-14.9-49.7-24.7
					C943.2,139.2,963,124.4,992.8,124.4 M992.8,118.8c-31.6,0-55.2,16-55.2,30.2c0,14.3,23.6,30.3,55.2,30.3
					c31.6,0,55.2-16,55.2-30.3C1048.1,134.8,1024.5,118.8,992.8,118.8L992.8,118.8z"/>
			</g>
		</g>
		<g>
			<path class="st4" d="M1035.6,160.8c-11.3,10-29.5,13.5-42.7,13.5c-13.3,0-31.5-3.6-42.7-13.5l-12.6-11.2l18.4,81.8l0.4,1.6
				c2.7,8.7,17.5,17.5,36.6,17.5c19.6,0,34.6-9.1,36.8-18.1l18.5-82.8L1035.6,160.8z M1030,206.1l-2.2,9.7c-0.4,2-1,4-1.7,5.8
				c-0.5,1.3-1.1,2.5-1.7,3.7c-6.1,11.4-18.1,19-31.5,19c0,0,0,0,0,0h0c-8.5,0-16.4-3-22.6-8.1c-3.6-3-6.7-6.6-8.9-10.8
				c-0.6-1.2-1.2-2.5-1.7-3.7c-0.7-1.9-1.3-3.9-1.8-5.9l-2.2-9.7l-9.2-41.3c9.5,8.4,26.3,14.9,46.3,14.9c20.1,0,36.9-6.5,46.3-14.9
				L1030,206.1z"/>
		</g>
	</g>
	<g>
		<g>
			<g>
				<path class="st4" d="M745,179c-31.6,0-55.2-16-55.2-30.2c0-14.3,23.6-30.2,55.2-30.2c31.6,0,55.2,16,55.2,30.2
					C800.2,163.1,776.6,179,745,179z"/>
			</g>
			<pattern  id="SVGID_16_" xlink:href="#New_Pattern_Swatch_1" patternTransform="matrix(1 0 0 1 -68.5746 -266.2183)">
			</pattern>
			<path class="st19" d="M745,124.1c-29.9,0-49.7,14.9-49.7,24.7c0,9.8,19.8,24.7,49.7,24.7s49.7-14.9,49.7-24.7
				C794.7,138.9,774.9,124.1,745,124.1z"/>
		</g>
		<g>
			<path class="st4" d="M787.7,160.5c-11.3,10-29.5,13.5-42.7,13.5c-13.3,0-31.5-3.6-42.7-13.5l-12.6-11.2l18.4,81.8l0.4,1.6
				c2.7,8.7,17.5,17.5,36.6,17.5c19.6,0,34.6-9.1,36.8-18.1l18.5-82.8L787.7,160.5z M782.1,205.8l-2.2,9.7c-0.4,2-1,4-1.7,5.8
				c-0.5,1.3-1.1,2.5-1.7,3.7c-6.1,11.4-18.1,19-31.5,19c0,0,0,0,0,0h0c-8.5,0-16.4-3-22.6-8.1c-3.6-3-6.7-6.6-8.9-10.8
				c-0.6-1.2-1.2-2.5-1.7-3.7c-0.7-1.9-1.3-3.9-1.8-5.9l-2.2-9.7l-9.2-41.3c9.5,8.4,26.3,14.9,46.3,14.9c20.1,0,36.9-6.5,46.3-14.9
				L782.1,205.8z"/>
		</g>
	</g>
	<g>
		<g>
			<path class="st4" d="M977.2,186.8l-9.2,41.3l-2.2,9.7c-0.4,2-1,4-1.7,5.8c-0.5,1.3-1.1,2.5-1.7,3.7c-6.1,11.4-18.1,19-31.5,19
				c0,0,0,0,0,0h0c-8.5,0-16.4-3-22.6-8.1c-3.6-3-6.7-6.6-8.9-10.8c-0.6-1.2-1.2-2.5-1.7-3.7c-0.7-1.9-1.3-3.9-1.8-5.9l-2.2-9.7
				l-9.2-41.3c9.5,8.4,26.3,14.9,46.3,14.9C950.9,201.7,967.7,195.2,977.2,186.8z"/>
		</g>
		<pattern  id="SVGID_17_" xlink:href="#New_Pattern_Swatch_1" patternTransform="matrix(1 0 0 1 -68.5746 -266.2183)">
		</pattern>
		<path class="st20" d="M977.2,186.8l-9.2,41.3l-2.2,9.7c-0.4,2-1,4-1.7,5.8c-0.5,1.3-1.1,2.5-1.7,3.7c-6.1,11.4-18.1,19-31.5,19
			c0,0,0,0,0,0h0c-8.5,0-16.4-3-22.6-8.1c-3.6-3-6.7-6.6-8.9-10.8c-0.6-1.2-1.2-2.5-1.7-3.7c-0.7-1.9-1.3-3.9-1.8-5.9l-2.2-9.7
			l-9.2-41.3c9.5,8.4,26.3,14.9,46.3,14.9C950.9,201.7,967.7,195.2,977.2,186.8z"/>
	</g>
	<g>
		<g>
			<path class="st4" d="M930.9,202.3c-31.6,0-55.2-16-55.2-30.2c0-14.3,23.6-30.2,55.2-30.2c31.6,0,55.2,16,55.2,30.2
				C986.1,186.3,962.5,202.3,930.9,202.3z"/>
		</g>
		<pattern  id="SVGID_18_" xlink:href="#New_Pattern_Swatch_1" patternTransform="matrix(1 0 0 1 -68.5746 -266.2183)">
		</pattern>
		<path class="st21" d="M930.9,147.3c-29.9,0-49.7,14.9-49.7,24.7c0,9.8,19.8,24.7,49.7,24.7c29.9,0,49.7-14.9,49.7-24.7
			C980.6,162.2,960.8,147.3,930.9,147.3z"/>
	</g>
	<g>
		<g>
			<path class="st4" d="M930.9,147.3c29.9,0,49.7,14.9,49.7,24.7c0,9.8-19.8,24.7-49.7,24.7s-49.7-14.9-49.7-24.7
				C881.2,162.2,901,147.3,930.9,147.3 M930.9,141.8c-31.6,0-55.2,16-55.2,30.2c0,14.3,23.6,30.3,55.2,30.3
				c31.6,0,55.2-16,55.2-30.3C986.1,157.7,962.5,141.8,930.9,141.8L930.9,141.8z"/>
		</g>
	</g>
	<g>
		<path class="st4" d="M973.6,182.8c-11.3,10-29.5,13.5-42.7,13.5c-13.3,0-31.5-3.6-42.7-13.5l-12.6-11.2l18.4,81.8l0.4,1.6
			c2.7,8.7,17.5,17.5,36.6,17.5c19.6,0,34.6-9.1,36.8-18.1l18.5-82.8L973.6,182.8z M968,228.1l-2.2,9.7c-0.4,2-1,4-1.7,5.8
			c-0.5,1.3-1.1,2.5-1.7,3.7c-6.1,11.4-18.1,19-31.5,19c0,0,0,0,0,0h0c-8.5,0-16.4-3-22.6-8.1c-3.6-3-6.7-6.6-8.9-10.8
			c-0.6-1.2-1.2-2.5-1.7-3.7c-0.7-1.9-1.3-3.9-1.8-5.9l-2.2-9.7l-9.2-41.3c9.5,8.4,26.3,14.9,46.3,14.9c20.1,0,36.9-6.5,46.3-14.9
			L968,228.1z"/>
	</g>
	<g>
		<g>
			<g>
				<path class="st4" d="M853.3,187.5l-9.2,41.3l-2.2,9.7c-0.4,2-1,4-1.7,5.8c-0.5,1.3-1.1,2.5-1.7,3.7c-6.1,11.4-18.1,19-31.5,19
					c0,0,0,0,0,0h0c-8.5,0-16.4-3-22.6-8.1c-3.6-3-6.7-6.6-8.9-10.8c-0.6-1.2-1.2-2.5-1.7-3.7c-0.7-1.9-1.3-3.9-1.8-5.9l-2.2-9.7
					l-9.2-41.3c9.5,8.4,26.3,14.9,46.3,14.9C827,202.4,843.8,195.9,853.3,187.5z"/>
			</g>
			<pattern  id="SVGID_19_" xlink:href="#New_Pattern_Swatch_1" patternTransform="matrix(1 0 0 1 -68.5746 -266.2183)">
			</pattern>
			<path class="st22" d="M853.3,187.5l-9.2,41.3l-2.2,9.7c-0.4,2-1,4-1.7,5.8c-0.5,1.3-1.1,2.5-1.7,3.7c-6.1,11.4-18.1,19-31.5,19
				c0,0,0,0,0,0h0c-8.5,0-16.4-3-22.6-8.1c-3.6-3-6.7-6.6-8.9-10.8c-0.6-1.2-1.2-2.5-1.7-3.7c-0.7-1.9-1.3-3.9-1.8-5.9l-2.2-9.7
				l-9.2-41.3c9.5,8.4,26.3,14.9,46.3,14.9C827,202.4,843.8,195.9,853.3,187.5z"/>
		</g>
		<g>
			<g>
				<path class="st4" d="M806.9,201.9c-31.6,0-55.2-16-55.2-30.2c0-14.3,23.6-30.2,55.2-30.2c31.6,0,55.2,16,55.2,30.2
					C862.2,186,838.6,201.9,806.9,201.9z"/>
			</g>
			<pattern  id="SVGID_20_" xlink:href="#New_Pattern_Swatch_1" patternTransform="matrix(1 0 0 1 -68.5746 -266.2183)">
			</pattern>
			<path class="st23" d="M806.9,147c-29.9,0-49.7,14.9-49.7,24.7c0,9.8,19.8,24.7,49.7,24.7c29.9,0,49.7-14.9,49.7-24.7
				C856.6,161.9,836.8,147,806.9,147z"/>
		</g>
		<g>
			<g>
				<path class="st4" d="M806.9,147c29.9,0,49.7,14.9,49.7,24.7c0,9.8-19.8,24.7-49.7,24.7s-49.7-14.9-49.7-24.7
					C757.3,161.9,777.1,147,806.9,147 M806.9,141.5c-31.6,0-55.2,16-55.2,30.2c0,14.3,23.6,30.3,55.2,30.3c31.6,0,55.2-16,55.2-30.3
					C862.2,157.4,838.6,141.5,806.9,141.5L806.9,141.5z"/>
			</g>
		</g>
		<g>
			<path class="st4" d="M849.7,183.4c-11.3,10-29.5,13.5-42.7,13.5c-13.3,0-31.5-3.6-42.7-13.5l-12.6-11.2l18.4,81.8l0.4,1.6
				c2.7,8.7,17.5,17.5,36.6,17.5c19.6,0,34.6-9.1,36.8-18.1l18.5-82.8L849.7,183.4z M844.1,228.7l-2.2,9.7c-0.4,2-1,4-1.7,5.8
				c-0.5,1.3-1.1,2.5-1.7,3.7c-6.1,11.4-18.1,19-31.5,19c0,0,0,0,0,0h0c-8.5,0-16.4-3-22.6-8.1c-3.6-3-6.7-6.6-8.9-10.8
				c-0.6-1.2-1.2-2.5-1.7-3.7c-0.7-1.9-1.3-3.9-1.8-5.9l-2.2-9.7l-9.2-41.3c9.5,8.4,26.3,14.9,46.3,14.9c20.1,0,36.9-6.5,46.3-14.9
				L844.1,228.7z"/>
		</g>
	</g>
	<g>
		<g>
			<path class="st4" d="M745,124.1c29.9,0,49.7,14.9,49.7,24.7c0,9.8-19.8,24.7-49.7,24.7s-49.7-14.9-49.7-24.7
				C695.3,138.9,715.1,124.1,745,124.1 M745,118.5c-31.6,0-55.2,16-55.2,30.2c0,14.3,23.6,30.3,55.2,30.3c31.6,0,55.2-16,55.2-30.3
				C800.2,134.5,776.6,118.5,745,118.5L745,118.5z"/>
		</g>
	</g>
	<g>
		<g>
			<path class="st4" d="M868.9,124.1c29.9,0,49.7,14.9,49.7,24.7c0,9.8-19.8,24.7-49.7,24.7s-49.7-14.9-49.7-24.7
				C819.2,138.9,839,124.1,868.9,124.1 M868.9,118.5c-31.6,0-55.2,16-55.2,30.2c0,14.3,23.6,30.3,55.2,30.3
				c31.6,0,55.2-16,55.2-30.3C924.2,134.5,900.5,118.5,868.9,118.5L868.9,118.5z"/>
		</g>
	</g>
	<g>
		<g>
			<path class="st4" d="M992.8,124.1c29.9,0,49.7,14.9,49.7,24.7c0,9.8-19.8,24.7-49.7,24.7c-29.9,0-49.7-14.9-49.7-24.7
				C943.2,138.9,963,124.1,992.8,124.1 M992.8,118.5c-31.6,0-55.2,16-55.2,30.2c0,14.3,23.6,30.3,55.2,30.3
				c31.6,0,55.2-16,55.2-30.3C1048.1,134.5,1024.5,118.5,992.8,118.5L992.8,118.5z"/>
		</g>
	</g>
	<g>
		<pattern  id="SVGID_21_" xlink:href="#New_Pattern_Swatch_1" patternTransform="matrix(1 0 0 1 -68.5746 -266.2183)">
		</pattern>
		<path class="st24" d="M930.9,147.3c-29.9,0-49.7,14.9-49.7,24.7c0,9.8,19.8,24.7,49.7,24.7c29.9,0,49.7-14.9,49.7-24.7
			C980.6,162.2,960.8,147.3,930.9,147.3z M930.9,191c-28.9,0-44-14.1-44-19c0-4.9,15.1-19,44-19c28.9,0,44,14.1,44,19
			C974.9,176.9,959.7,191,930.9,191z"/>
	</g>
	<g>
		<pattern  id="SVGID_22_" xlink:href="#New_Pattern_Swatch_1" patternTransform="matrix(1 0 0 1 -68.5746 -266.2183)">
		</pattern>
		<path style="fill:url(#SVGID_22_);" d="M806.9,147.3c-29.9,0-49.7,14.9-49.7,24.7c0,9.8,19.8,24.7,49.7,24.7
			c29.9,0,49.7-14.9,49.7-24.7C856.6,162.2,836.8,147.3,806.9,147.3z M806.9,191c-28.9,0-44-14.1-44-19c0-4.9,15.1-19,44-19
			c28.9,0,44,14.1,44,19C850.9,176.9,835.8,191,806.9,191z"/>
	</g>
</g>
<g>
	<path class="st4" d="M707.9,330.6h-22.5V326l13.8-13.7c1-1.1,1.9-2.2,2.7-3.4c0.7-1.2,1.1-2.5,1.1-3.9c0-0.9-0.2-1.7-0.5-2.5
		c-0.3-0.7-0.8-1.4-1.3-1.9c-0.6-0.5-1.2-0.9-2-1.2c-0.7-0.3-1.5-0.4-2.4-0.4c-1.8,0-3.2,0.6-4.3,1.7c-1.1,1.1-1.9,2.6-2.1,4.3
		l-4.6-0.8c0.2-1.3,0.6-2.5,1.2-3.6c0.6-1.1,1.4-2.1,2.4-2.9c1-0.8,2.1-1.5,3.4-1.9c1.3-0.5,2.7-0.7,4.1-0.7c1.4,0,2.8,0.2,4.1,0.6
		c1.3,0.4,2.5,1,3.5,1.9c1,0.8,1.8,1.8,2.4,3.1c0.6,1.2,0.9,2.6,0.9,4.2c0,1.1-0.1,2.1-0.4,3.1c-0.3,0.9-0.7,1.8-1.2,2.7
		c-0.5,0.8-1.1,1.7-1.8,2.4c-0.7,0.8-1.4,1.5-2.1,2.3l-11.2,10.9h16.9V330.6z"/>
	<path class="st4" d="M729.3,295.2c2,0,3.8,0.5,5.3,1.4c1.5,0.9,2.7,2.2,3.7,3.9c1,1.6,1.7,3.6,2.1,5.8c0.5,2.2,0.7,4.6,0.7,7.1
		c0,2.5-0.2,4.9-0.7,7.1c-0.5,2.2-1.2,4.1-2.1,5.8c-1,1.6-2.2,2.9-3.7,3.9c-1.5,0.9-3.2,1.4-5.3,1.4c-2,0-3.8-0.5-5.3-1.4
		c-1.5-0.9-2.7-2.2-3.7-3.9c-1-1.6-1.7-3.6-2.1-5.8c-0.5-2.2-0.7-4.6-0.7-7.1c0-2.5,0.2-4.9,0.7-7.1c0.5-2.2,1.2-4.1,2.1-5.8
		c1-1.6,2.2-2.9,3.7-3.9C725.4,295.6,727.2,295.2,729.3,295.2z M729.3,299.1c-1.4,0-2.6,0.5-3.5,1.4c-0.9,0.9-1.6,2.1-2.1,3.5
		c-0.5,1.4-0.9,3-1,4.6c-0.2,1.7-0.3,3.2-0.3,4.7c0,1.5,0.1,3,0.3,4.7c0.2,1.7,0.5,3.2,1,4.6c0.5,1.4,1.2,2.6,2.1,3.5
		c0.9,0.9,2.1,1.4,3.5,1.4c1.4,0,2.5-0.5,3.4-1.4c0.9-0.9,1.6-2.1,2.1-3.5c0.5-1.4,0.9-2.9,1.1-4.6c0.2-1.7,0.3-3.2,0.3-4.7
		c0-1.5-0.1-3-0.3-4.7c-0.2-1.7-0.6-3.2-1.1-4.6c-0.5-1.4-1.2-2.6-2.1-3.5C731.8,299.6,730.7,299.1,729.3,299.1z"/>
	<path class="st4" d="M765.5,330.6h-4.7v-28.8l-6.5,5.5l-2.8-3.3l9.8-7.9h4.2V330.6z"/>
	<path class="st4" d="M799,312.4c0.9,0.2,1.8,0.6,2.6,1.1c0.8,0.5,1.5,1.2,2.1,1.9c0.6,0.7,1,1.6,1.4,2.6c0.3,1,0.5,2,0.5,3.1
		c0,1.6-0.3,3.1-0.9,4.3c-0.6,1.3-1.5,2.3-2.5,3.2c-1.1,0.9-2.3,1.6-3.7,2c-1.4,0.5-2.9,0.7-4.4,0.7c-1.6,0-3-0.2-4.5-0.7
		c-1.4-0.5-2.6-1.1-3.7-2c-1.1-0.9-1.9-2-2.5-3.2c-0.6-1.3-0.9-2.7-0.9-4.3c0-1.1,0.2-2.2,0.5-3.2c0.3-1,0.8-1.8,1.4-2.6
		c0.6-0.7,1.3-1.4,2.1-1.9c0.8-0.5,1.6-0.9,2.5-1.1v-0.1c-1.6-0.6-2.8-1.5-3.8-2.8c-1-1.3-1.5-3-1.5-4.9c0-1.4,0.3-2.7,0.8-3.9
		c0.6-1.2,1.3-2.1,2.2-3c0.9-0.8,2-1.5,3.3-1.9c1.3-0.4,2.6-0.7,4-0.7c1.4,0,2.7,0.2,4,0.7c1.3,0.4,2.4,1.1,3.3,1.9
		c0.9,0.8,1.7,1.8,2.2,2.9c0.6,1.2,0.8,2.4,0.8,3.9c0,1.9-0.5,3.5-1.5,4.9C801.8,310.8,800.5,311.8,799,312.4L799,312.4z
		 M787.1,320.9c0,1,0.2,1.9,0.5,2.7c0.3,0.8,0.8,1.5,1.4,2.1c0.6,0.6,1.3,1,2.1,1.3c0.8,0.3,1.7,0.5,2.8,0.5c1,0,1.9-0.2,2.7-0.5
		c0.8-0.3,1.5-0.8,2.1-1.3c0.6-0.6,1-1.3,1.4-2.1c0.3-0.8,0.5-1.7,0.5-2.7c0-0.9-0.2-1.8-0.5-2.6c-0.3-0.8-0.8-1.5-1.4-2.1
		c-0.6-0.6-1.3-1-2.1-1.4c-0.8-0.3-1.7-0.5-2.7-0.5s-1.9,0.2-2.7,0.5c-0.8,0.3-1.5,0.8-2.1,1.4c-0.6,0.6-1.1,1.3-1.4,2.1
		C787.3,319.1,787.1,320,787.1,320.9z M788.2,304.7c0,0.8,0.1,1.5,0.4,2.2s0.7,1.3,1.2,1.8c0.5,0.5,1.1,0.9,1.8,1.2
		c0.7,0.3,1.5,0.4,2.3,0.4c0.8,0,1.5-0.1,2.2-0.4c0.7-0.3,1.3-0.7,1.8-1.2c0.5-0.5,0.9-1.1,1.2-1.8c0.3-0.7,0.4-1.4,0.4-2.2
		c0-0.8-0.2-1.6-0.5-2.3c-0.3-0.7-0.7-1.3-1.2-1.8c-0.5-0.5-1.1-0.9-1.8-1.2c-0.7-0.3-1.4-0.4-2.2-0.4c-0.8,0-1.6,0.1-2.3,0.4
		c-0.7,0.3-1.3,0.7-1.8,1.2s-0.9,1.1-1.2,1.8C788.4,303.1,788.2,303.9,788.2,304.7z"/>
	<path class="st4" d="M866.2,313.2c0,2.7-0.5,5.1-1.4,7.3c-0.9,2.2-2.2,4.1-3.8,5.8c-1.6,1.6-3.6,2.9-5.8,3.8
		c-2.2,0.9-4.7,1.3-7.3,1.3c-2.6,0-5.1-0.4-7.3-1.3c-2.2-0.9-4.2-2.1-5.8-3.8c-1.6-1.6-2.9-3.5-3.8-5.8c-0.9-2.2-1.4-4.7-1.4-7.3
		c0-2.7,0.5-5.2,1.4-7.4c0.9-2.2,2.2-4.1,3.8-5.7c1.6-1.6,3.6-2.8,5.8-3.7c2.2-0.9,4.7-1.3,7.3-1.3c2.6,0,5.1,0.4,7.3,1.3
		c2.2,0.9,4.2,2.1,5.8,3.7c1.6,1.6,2.9,3.5,3.8,5.7C865.8,308.1,866.2,310.6,866.2,313.2z M861,313.2c0-1.9-0.3-3.7-0.9-5.3
		c-0.6-1.7-1.5-3.1-2.6-4.4c-1.1-1.3-2.5-2.3-4.1-3c-1.6-0.7-3.4-1.1-5.4-1.1c-2,0-3.8,0.4-5.4,1.1c-1.6,0.7-3,1.7-4.1,3
		c-1.1,1.3-2,2.7-2.6,4.4c-0.6,1.7-0.9,3.5-0.9,5.3c0,1.9,0.3,3.7,0.9,5.4c0.6,1.7,1.5,3.2,2.6,4.4c1.1,1.3,2.5,2.2,4.1,3
		c1.6,0.7,3.4,1.1,5.4,1.1c2,0,3.8-0.4,5.4-1.1c1.6-0.7,3-1.7,4.1-3c1.1-1.3,2-2.7,2.6-4.4C860.7,317,861,315.2,861,313.2z"/>
	<path class="st4" d="M880.8,326.3h15.4v4.3h-20.2V296h4.8V326.3z"/>
	<path class="st4" d="M913.3,330.6h-4.9v-14.9L895.5,296h5.9l9.6,15.6l9.6-15.6h5.6l-12.9,19.6V330.6z"/>
	<path class="st4" d="M951.2,322.6L951.2,322.6l10.3-26.5h7.5v34.5h-4.8v-28.9h-0.1l-11.5,28.9h-3.1l-11.4-28.9H938v28.9h-4.7V296
		h7.5L951.2,322.6z"/>
	<path class="st4" d="M980.5,296H991c1.9,0,3.5,0.2,5.1,0.6c1.5,0.4,2.8,1,3.9,1.7c1.1,0.8,1.9,1.8,2.5,3c0.6,1.2,0.9,2.6,0.9,4.3
		c0,1.7-0.3,3.2-1,4.4c-0.6,1.2-1.5,2.2-2.6,3c-1.1,0.8-2.5,1.4-4,1.7c-1.5,0.4-3.2,0.6-5,0.6h-5.5v15.2h-4.8V296z M985.3,311.3h5.1
		c1.2,0,2.3-0.1,3.2-0.3c1-0.2,1.8-0.5,2.6-1c0.7-0.4,1.3-1,1.7-1.7c0.4-0.7,0.6-1.6,0.6-2.6s-0.2-1.9-0.6-2.6
		c-0.4-0.7-1-1.3-1.7-1.7c-0.7-0.4-1.5-0.7-2.5-0.9c-1-0.2-2-0.3-3.2-0.3h-5.2V311.3z"/>
	<path class="st4" d="M1017.5,330.6h-4.8V296h4.8V330.6z"/>
	<path class="st4" d="M1058.6,325.2c-1.4,1.9-3.1,3.4-5.3,4.5c-2.2,1.2-4.8,1.7-7.9,1.7c-2.6,0-5.1-0.4-7.3-1.3
		c-2.2-0.9-4.1-2.1-5.8-3.8c-1.6-1.6-2.9-3.5-3.8-5.8c-0.9-2.2-1.4-4.7-1.4-7.3c0-2.7,0.5-5.2,1.4-7.4c0.9-2.2,2.2-4.1,3.9-5.7
		c1.6-1.6,3.6-2.8,5.8-3.7c2.2-0.9,4.7-1.3,7.3-1.3c1.2,0,2.4,0.1,3.6,0.3c1.2,0.2,2.4,0.6,3.5,1c1.1,0.5,2.1,1,3,1.7
		c0.9,0.7,1.7,1.4,2.3,2.3l-3.8,2.9c-0.8-1.2-2-2.1-3.6-2.9c-1.5-0.8-3.2-1.1-5-1.1c-2,0-3.8,0.4-5.4,1.1c-1.6,0.7-3,1.7-4.1,3
		c-1.1,1.3-2,2.7-2.6,4.4c-0.6,1.7-0.9,3.5-0.9,5.3c0,2,0.3,3.8,0.9,5.5c0.6,1.7,1.5,3.2,2.6,4.4c1.1,1.3,2.5,2.2,4.1,2.9
		c1.6,0.7,3.4,1.1,5.4,1.1c2,0,3.7-0.4,5.3-1.2c1.6-0.8,2.9-1.9,3.9-3.4L1058.6,325.2z"/>
	<path class="st4" d="M730,388.9c0,4.3-0.8,8-2.4,11.1c-1.6,3.1-3.7,5.7-6.3,7.7c-2.6,2-5.5,3.5-8.8,4.4c-3.3,0.9-6.6,1.4-9.9,1.4
		h-18.2v-48.9H702c3.5,0,6.9,0.4,10.2,1.2c3.4,0.8,6.4,2.1,9,4c2.6,1.9,4.7,4.4,6.4,7.5C729.2,380.4,730,384.3,730,388.9z
		 M717.7,388.9c0-2.8-0.4-5.1-1.3-6.9c-0.9-1.8-2.1-3.3-3.6-4.4c-1.5-1.1-3.2-1.9-5.1-2.3c-1.9-0.5-3.9-0.7-5.9-0.7h-5.9v28.6h5.6
		c2.1,0,4.2-0.2,6.1-0.7c2-0.5,3.7-1.3,5.2-2.4c1.5-1.1,2.7-2.6,3.6-4.4C717.3,393.9,717.7,391.6,717.7,388.9z"/>
	<path class="st4" d="M768.1,413.5L757.4,394h-4v19.4h-11.5v-48.9h18.7c2.3,0,4.6,0.2,6.9,0.7c2.2,0.5,4.2,1.3,6,2.5
		c1.8,1.2,3.2,2.7,4.2,4.6c1.1,1.9,1.6,4.2,1.6,7c0,3.3-0.9,6.1-2.7,8.4c-1.8,2.3-4.3,3.9-7.5,4.8l12.8,20.9H768.1z M767.6,379.5
		c0-1.1-0.2-2.1-0.7-2.8c-0.5-0.7-1.1-1.3-1.9-1.7c-0.8-0.4-1.6-0.7-2.6-0.8c-0.9-0.1-1.9-0.2-2.7-0.2h-6.3v11.4h5.6
		c1,0,2-0.1,3-0.2c1-0.2,1.9-0.4,2.8-0.9c0.8-0.4,1.5-1,2-1.8C767.3,381.8,767.6,380.8,767.6,379.5z"/>
	<path class="st4" d="M791.8,413.5v-48.9h11.9v48.9H791.8z"/>
	<path class="st4" d="M848.9,413.5l-19.7-32H829l0.3,32h-11.5v-48.9h13.5l19.6,31.9h0.2l-0.3-31.9h11.5v48.9H848.9z"/>
	<path class="st4" d="M906.3,413.5l-18.2-22.5H888v22.5h-11.5v-48.9H888v19.9h0.2l17.5-19.9h14.8l-21.1,22.5l22.3,26.4H906.3z"/>
	<path class="st4" d="M929.6,413.5v-48.9h11.9v48.9H929.6z"/>
	<path class="st4" d="M986.8,413.5l-19.7-32h-0.2l0.3,32h-11.5v-48.9h13.5l19.6,31.9h0.2l-0.3-31.9h11.5v48.9H986.8z"/>
	<path class="st4" d="M1049.4,413.5c-3.2,0.8-6.7,1.2-10.5,1.2c-3.9,0-7.5-0.6-10.8-1.9c-3.3-1.2-6.1-3-8.5-5.3
		c-2.4-2.3-4.2-5-5.6-8.1c-1.3-3.2-2-6.7-2-10.5c0-3.9,0.7-7.5,2-10.6c1.4-3.2,3.2-5.9,5.6-8.1c2.4-2.2,5.2-3.9,8.4-5.1
		c3.2-1.2,6.7-1.8,10.4-1.8c3.9,0,7.5,0.6,10.8,1.8c3.3,1.2,6,2.8,8.1,4.7l-7.5,8.5c-1.2-1.3-2.7-2.4-4.6-3.3
		c-1.9-0.9-4-1.3-6.4-1.3c-2.1,0-4,0.4-5.7,1.1c-1.8,0.8-3.3,1.8-4.6,3.2c-1.3,1.4-2.3,3-3,4.8c-0.7,1.9-1.1,3.9-1.1,6.1
		c0,2.3,0.3,4.3,1,6.2c0.6,1.9,1.6,3.5,2.9,4.9c1.3,1.4,2.8,2.4,4.7,3.2c1.9,0.8,4,1.1,6.4,1.1c1.4,0,2.7-0.1,3.9-0.3
		c1.2-0.2,2.4-0.5,3.5-1v-8.9h-9.3v-9.5h20.2v25.9C1055.4,411.7,1052.6,412.7,1049.4,413.5z"/>
	<path class="st4" d="M733.8,516.2c-4.7,1.1-9.7,1.7-15.2,1.7c-5.7,0-10.9-0.9-15.7-2.7c-4.8-1.8-8.9-4.4-12.4-7.6
		c-3.5-3.3-6.2-7.2-8.1-11.8c-1.9-4.6-2.9-9.7-2.9-15.3c0-5.7,1-10.9,3-15.5c2-4.6,4.7-8.6,8.2-11.8c3.5-3.3,7.6-5.7,12.3-7.5
		c4.7-1.7,9.8-2.6,15.2-2.6c5.6,0,10.9,0.9,15.7,2.6c4.8,1.7,8.8,4,11.8,6.9l-10.9,12.4c-1.7-1.9-3.9-3.5-6.6-4.8
		c-2.8-1.2-5.9-1.9-9.4-1.9c-3,0-5.8,0.6-8.3,1.7c-2.5,1.1-4.8,2.6-6.6,4.6c-1.9,2-3.3,4.3-4.4,7c-1,2.7-1.6,5.7-1.6,8.9
		c0,3.3,0.5,6.3,1.4,9.1c0.9,2.8,2.3,5.1,4.2,7.1c1.8,2,4.1,3.5,6.8,4.6c2.7,1.1,5.8,1.7,9.3,1.7c2,0,3.9-0.2,5.7-0.5
		c1.8-0.3,3.5-0.8,5-1.5v-13h-13.6V474H746v37.7C742.5,513.6,738.4,515,733.8,516.2z"/>
	<path class="st4" d="M814.3,516.1l-5.5-14h-27.6l-5.2,14h-18.7l29.9-71.2h16.7l29.6,71.2H814.3z M795.2,463.9l-9.1,24.4H804
		L795.2,463.9z"/>
	<path class="st4" d="M909.8,516.1l0.4-50.4h-0.3l-18.5,50.4h-12.1l-18-50.4H861l0.4,50.4h-16.2v-71.2h24.5l16.2,45.7h0.4l15.5-45.7
		h24.9v71.2H909.8z"/>
	<path class="st4" d="M947.2,516.1v-71.2h47.9v14.5h-31.3v13.5h29.6v13.8h-29.6v14.8h33.1v14.7H947.2z"/>
	<path class="st4" d="M1051.8,463.4c-1.5-1.9-3.4-3.4-5.8-4.5c-2.4-1.1-4.7-1.7-6.9-1.7c-1.1,0-2.3,0.1-3.5,0.3
		c-1.2,0.2-2.2,0.6-3.2,1.2c-0.9,0.6-1.7,1.3-2.4,2.2c-0.6,0.9-1,2.1-1,3.5c0,1.2,0.3,2.2,0.8,3c0.5,0.8,1.2,1.5,2.2,2.1
		c1,0.6,2.1,1.2,3.5,1.7c1.3,0.5,2.8,1,4.5,1.6c2.4,0.8,4.9,1.7,7.5,2.7c2.6,1,5,2.3,7.1,3.9c2.1,1.6,3.9,3.6,5.3,6
		c1.4,2.4,2.1,5.3,2.1,8.9c0,4.1-0.8,7.6-2.3,10.6c-1.5,3-3.5,5.4-6.1,7.4c-2.5,1.9-5.5,3.4-8.7,4.3c-3.3,0.9-6.7,1.4-10.2,1.4
		c-5.1,0-10-0.9-14.8-2.7c-4.8-1.8-8.7-4.3-11.9-7.6l11.3-11.5c1.7,2.1,4,3.9,6.9,5.4c2.8,1.4,5.7,2.2,8.5,2.2
		c1.3,0,2.5-0.1,3.7-0.4c1.2-0.3,2.3-0.7,3.2-1.3c0.9-0.6,1.6-1.4,2.2-2.4c0.5-1,0.8-2.2,0.8-3.6c0-1.3-0.3-2.5-1-3.4
		c-0.7-0.9-1.6-1.8-2.9-2.6c-1.2-0.8-2.8-1.5-4.6-2.1c-1.8-0.6-3.9-1.3-6.3-2.1c-2.3-0.7-4.5-1.6-6.7-2.6c-2.2-1-4.1-2.3-5.8-3.9
		c-1.7-1.6-3.1-3.5-4.1-5.7c-1-2.2-1.6-5-1.6-8.2c0-4,0.8-7.3,2.4-10.2c1.6-2.8,3.7-5.1,6.3-6.9c2.6-1.8,5.6-3.1,8.9-4
		c3.3-0.8,6.6-1.3,10-1.3c4,0,8.1,0.7,12.3,2.2c4.2,1.5,7.9,3.7,11,6.5L1051.8,463.4z"/>
</g>
<rect x="-214.1" y="660" class="st2" width="255.3" height="255.3"/>
<g>
	<path class="st25" d="M124.6-177.2c-2.9-2.6-6.2-4.6-9.9-6.3c-3.7-1.7-7.5-3-11.3-4.1c-6.5-1.8-13-3.8-19.5-6.2c0,18,0,35.9,0,53.9
		c6.7,2.5,13.4,4.6,20.1,6.4c3.7,1,7.4,1.4,11,1.1c3.6-0.3,6.8-1.3,9.7-3c2.9-1.7,5.2-4.2,6.9-7.3c1.7-3.2,2.6-7.1,2.6-11.8
		c0-5.1-0.9-9.4-2.7-13.1C129.8-171.6,127.5-174.7,124.6-177.2z M119.2-149.7c-1,1.8-2.3,3.2-4,4.1c-1.6,0.9-3.6,1.3-5.7,1.3
		c-2.2,0-4.4-0.3-6.7-0.9c-2.1-0.6-4.1-1.2-6.2-1.8c0-10.5,0-21,0-31.5c2.2,0.7,4.3,1.3,6.5,1.9c2.2,0.6,4.4,1.4,6.5,2.4
		c2.1,1,4,2.3,5.6,3.8c1.6,1.5,3,3.4,4,5.6c1,2.2,1.5,4.8,1.5,7.9C120.7-153.9,120.2-151.5,119.2-149.7z"/>
	<path class="st25" d="M160.1-146.9c1.5,0.1,3,0.1,4.4,0.1c3.9,7.2,7.8,14.3,11.7,21.4c5.1-0.1,10.1-0.3,15.2-0.6
		c-4.7-7.4-9.4-14.9-14.1-22.5c3.5-1.1,6.2-3,8.2-5.6c2-2.6,3-5.7,3-9.3c0-3.1-0.6-5.6-1.8-7.7c-1.2-2-2.7-3.6-4.7-4.8
		c-2-1.2-4.2-2-6.6-2.5c-2.5-0.5-5-0.8-7.6-0.8c-6.8-0.1-13.7-0.4-20.5-0.9c0,18,0,35.9,0,53.9c4.2,0.3,8.5,0.6,12.7,0.7
		C160.1-132.6,160.1-139.8,160.1-146.9z M160-168.9c2.3,0.1,4.6,0.1,7,0.2c1,0,2,0.1,3,0.3c1,0.2,2,0.4,2.8,0.9
		c0.8,0.4,1.5,1,2.1,1.8c0.5,0.8,0.8,1.8,0.8,3.1c0,1.4-0.3,2.5-0.9,3.4c-0.6,0.9-1.3,1.5-2.3,2c-0.9,0.5-1.9,0.8-3.1,1
		c-1.1,0.2-2.2,0.2-3.3,0.2c-2.1,0-4.1-0.1-6.2-0.2C160-160.5,160-164.7,160-168.9z"/>
	<path class="st25" d="M215.4-128c0-18,0-35.9,0-53.9c-4.4,0.5-8.7,0.9-13.1,1.3c0,18,0,35.9,0,53.9
		C206.6-127.1,211-127.5,215.4-128z"/>
	<path class="st25" d="M265.2-135.6c4.9-0.9,9.8-1.8,14.8-2.7c0-18,0-35.9,0-53.9c-4.2,0.8-8.4,1.5-12.6,2.3
		c0.1,11.7,0.2,23.4,0.3,35.1c-0.1,0-0.2,0-0.2,0c-7.2-10.4-14.4-20.9-21.6-31.4c-4.9,0.8-9.9,1.5-14.8,2.2c0,18,0,35.9,0,53.9
		c4.2-0.6,8.4-1.2,12.6-1.9c-0.1-11.7-0.2-23.4-0.3-35.2c0.1,0,0.2,0,0.2,0C250.7-156.5,258-146,265.2-135.6z"/>
	<path class="st25" d="M295.5-195c0,18,0,35.9,0,53.9c4.2-0.8,8.5-1.6,12.7-2.3c0-8.3,0-16.5,0-24.8c0.1,0,0.1,0,0.2,0
		c6.7,7.1,13.3,14.1,20,21.3c5.7-0.9,11.3-1.8,17-2.7c-8.2-8.5-16.4-16.8-24.6-25.1c7.7-9.6,15.5-19.1,23.2-28.5
		c-5.4,0.8-10.9,1.7-16.3,2.6c-6.4,8.4-12.8,16.8-19.2,25.3c-0.1,0-0.2,0-0.2,0c0-7.3,0-14.6,0-21.9
		C304-196.6,299.8-195.8,295.5-195z"/>
	<path class="st25" d="M354.1-150.9c4.4-0.6,8.7-1.1,13.1-1.6c0-18,0-35.9,0-53.9c-4.4,0.5-8.7,1-13.1,1.6
		C354.1-186.8,354.1-168.8,354.1-150.9z"/>
	<path class="st25" d="M419.5-173.3c-0.1,0-0.2,0-0.2,0c-7.2-12-14.4-23.7-21.6-35.2c-4.9,0.2-9.9,0.4-14.8,0.8c0,18,0,35.9,0,53.9
		c4.2-0.3,8.4-0.5,12.6-0.7c-0.1-11.7-0.2-23.5-0.3-35.2c0.1,0,0.2,0,0.2,0c7.2,11.5,14.5,23.1,21.7,35.1c4.9,0.1,9.8,0.4,14.8,0.8
		c0-18,0-35.9,0-53.9c-4.2-0.3-8.4-0.6-12.6-0.7C419.3-196.7,419.4-185,419.5-173.3z"/>
	<path class="st25" d="M463.2-188.4c1.4-1.2,3.1-2,5-2.4c1.9-0.4,4-0.3,6.3,0.3c2.6,0.7,5,1.8,7.1,3.4c2.1,1.6,3.8,3.3,5,5.2
		c2.7-2.2,5.5-4.4,8.2-6.5c-2.3-3-5.2-5.8-8.9-8.3c-3.7-2.5-7.6-4.3-11.9-5.4c-4.1-1.1-7.9-1.3-11.5-0.7c-3.5,0.6-6.6,1.9-9.3,3.9
		c-2.6,2-4.7,4.7-6.2,8c-1.5,3.3-2.2,7.1-2.2,11.4c0,4.3,0.7,8.2,2.2,11.9c1.5,3.7,3.5,7,6.1,9.9c2.6,2.9,5.7,5.4,9.4,7.5
		c3.6,2.1,7.6,3.7,11.9,4.9c4.2,1.1,8,1.8,11.5,2.1c3.5,0.3,6.6,0.3,9.2-0.1c0-9.5,0-19,0-28.5c-7.4-2.8-14.8-5.1-22.2-7
		c0,3.5,0,7,0,10.5c3.4,0.9,6.8,1.9,10.3,2.9c0,3.3,0,6.5,0,9.8c-1.2,0.1-2.4,0.1-3.8,0c-1.4-0.2-2.8-0.5-4.3-0.9
		c-2.6-0.7-5-1.7-7-3c-2.1-1.3-3.8-2.9-5.2-4.6c-1.4-1.8-2.4-3.8-3.2-6c-0.7-2.2-1.1-4.6-1.1-7.1c0-2.4,0.4-4.6,1.2-6.5
		C460.7-185.6,461.8-187.2,463.2-188.4z"/>
	<path class="st25" d="M191-116.5c-11,27.1-21.5,52.4-32.5,78.6h20.5c1.9-5.3,3.5-9.4,5.4-14.7c10.2-0.6,20.4-1.6,30.5-2.8
		c2,4.9,5.3,12.6,7.4,17.5h22.3c-10.9-24.6-24.2-55.2-35.2-80.3C203.4-117.6,197.2-117,191-116.5z M189.9-68.3
		c3.3-9.3,6.7-18.6,10-27.9c3.3,8.7,6.5,17.4,9.8,26.1C203.1-69.4,196.5-68.8,189.9-68.3z"/>
	<polygon class="st25" points="327.4,-114 327.4,-114 327.4,-114 	"/>
	<path class="st25" d="M301-67.6c-0.1,0-0.3,0.1-0.4,0.1c-6-15.8-12.2-43.4-18-62c-9,1.6-18.1,3.2-27.1,4.7c0,26.3,0,60.6,0,86.9
		h18.4c-0.1-18.6-0.8-48.2-0.9-66.8c0.1,0,0.2,0,0.3-0.1c4.9,18,13.3,49.4,19.9,66.8h15.9c3.9-14.4,18.4-76,18.4-76c0,0-0.1,0,0,0
		c0.1,0,0,0,0,0c-0.1,18.6-0.3,57.4-0.4,76h18.7c0-26.3,0-75.4,0-101.7c-9.2,1.2-18.4,2.6-27.6,4.1C314.2-119.2,303.2-74.3,301-67.6
		z"/>
	<path class="st25" d="M386.8-55.6c0-5.5,0-23.5,0-29c10.9-0.6,21.8-0.7,32.8-0.3c0-5.1,0-10.2,0-15.3c-10.9-0.4-21.8-0.3-32.8,0.3
		c0-5,0-22.7,0-27.7c11.6-0.6,23.1-0.7,34.7-0.2c0-5.3,0-10.7,0-16c-17.7-0.8-35.4-0.1-53,1.6c0,26.3,0,78,0,104.3h55.1
		c0-5.4,0-12.2,0-17.6H386.8z"/>
	<path class="st25" d="M501.9-67.1c-2.9-10.3-12.2-19.3-27.5-26.6c-8.5-4.4-13.8-9.4-15.3-14.5c-1.2-4.2,0.6-7.2,0.7-7.4
		c1.7-2.8,4.8-3.6,7-3.8c5.2-0.4,13.3,2.2,20.5,10.8l13.4-11.2c-9.7-11.6-22.9-18-35.3-17c-8.8,0.7-16.4,5.1-20.6,12.1
		c-1.4,2.3-5.6,10.5-2.6,21.3c2.9,10.1,11,18.6,24.2,25.3l0.2,0.1c13.9,6.6,17.4,12.7,18.3,15.6c0.7,2.4,0.2,4.8-1.5,7.4
		c-1.5,2.4-3.9,3.7-7.2,3.9c-6,0.4-15.9-3.1-25.6-14.3l-13.3,11.4c11.1,12.9,25.1,20.5,37.9,20.5c0.7,0,1.5,0,2.2-0.1
		c8.8-0.6,16.1-4.8,20.7-11.9C502.7-52.3,504-59.8,501.9-67.1z"/>
	<path class="st25" d="M114.6-87.8l0.2,15.4c4.9,0.8,9.8,1.5,14.8,2.1l0.1,15.3c-1.7,0.7-3.5,1.3-5.4,1.6c-1.9,0.3-4,0.5-6.2,0.5
		c-3.8,0-7.1-0.6-10.1-1.8c-8.6-3.5-13.4-13.7-13.9-22.5c-0.5-9.3,3.6-19.3,12-23.3c4.9-2.4,10.5-2.4,15.7-1.3
		c9.1,2.1,12.6,6.7,12.8,6.5c1.5-1.7,7-8.2,7-8.2l4.4-5.2c-5.1-5.2-12-8.8-19.2-10.1c-11.6-2.2-24.9-1.5-35,4.9
		c-6.8,4.3-12.1,11-15,18.5c-4.1,10.7-3.7,23.5,0.9,34c2.2,5,5.3,10.1,9.1,13.7c3.8,3.5,8.3,6.3,13.5,8.2c5.2,1.9,10.8,2.9,16.9,2.9
		c5.9,0,11.3-0.6,16.3-1.8c2.9-0.7,5.7-1.6,8.2-2.5c1.7-0.7,3.4-1.4,4.9-2.2v-41c-1.7-0.1-3.4-0.2-5-0.3
		C132.7-85.2,123.6-86.3,114.6-87.8z"/>
	<path class="st4" d="M435.6-311.1c-6.3,34-36.4,59.5-71.9,59.5c-35.6,0-65.7-25.5-71.9-59.5c-0.6,0-1.3,0-1.9,0c-0.1,0-0.3,0-0.4,0
		c-6.3,34-36.3,59.5-71.9,59.5c-35.6,0-65.7-25.5-71.9-59.5c-0.6,0-1.3,0-1.9,0c-24.6,0-46.4-12.1-59.6-30.7l0,139.4
		c2.9,1.2,8.1,3.1,15.9,5.2c23.6,6.4,70.9,14.6,149.3,1.4c7.4-1.2,15.1-2.7,23.1-4.3c1.5-0.3,3.1-0.6,4.7-1
		c48.1-10.1,99-17.4,148.2-15.2c4.5,0.2,9,0.5,13.5,0.9c18.4,1.7,37.5,3.8,56.5,14.9c0,0,0-118.5,0-142.9
		C482.3-324.2,460.4-311.5,435.6-311.1z"/>
	<path class="st4" d="M143.6-319.7c3.2,0,6.3-0.2,9.4-0.7c2,33.5,30.2,60.2,64.5,60.2c34.2,0,62.3-26.6,64.5-60
		c2.6,0.3,5.2,0.5,7.9,0.5c3.2,0,6.3-0.2,9.4-0.7c2,33.5,30.2,60.2,64.5,60.2c34.2,0,62.2-26.5,64.5-59.8c2.1,0.2,4.2,0.3,6.3,0.3
		c35.6,0,64.6-28.8,64.6-64.1s-29-64.1-64.6-64.1c-34.2,0-62.2,26.5-64.5,59.8c-2.1-0.2-4.2-0.3-6.3-0.3c-3.2,0-6.3,0.2-9.4,0.7
		c-2-33.5-30.2-60.2-64.5-60.2c-34.2,0-62.3,26.6-64.5,60c-2.6-0.3-5.2-0.5-7.9-0.5c-3.2,0-6.3,0.2-9.4,0.7
		c-2-33.5-30.2-60.2-64.5-60.2c-35.6,0-64.6,28.8-64.6,64.1S108-319.7,143.6-319.7z M434.5-437.9c30.1,0,54.7,24.3,54.7,54.2
		c0,29.9-24.5,54.2-54.7,54.2c-2.2,0-4.3-0.1-6.5-0.4c-2.5-27.2-22.1-49.6-48.1-56.3C381.3-415,405.2-437.9,434.5-437.9z
		 M417.8-332.2c-19.5-6.2-34.3-23.1-37.3-43.6C399.9-369.6,414.7-352.8,417.8-332.2z M370.2-378c2.5,27.2,22.1,49.6,48.1,56.3
		c-1.3,28.7-25.3,51.6-54.6,51.6c-29.6,0-53.7-23.4-54.6-52.5c24.3-7.6,42.5-29,45-55c3.1-0.5,6.3-0.8,9.6-0.8
		C365.9-378.4,368-378.3,370.2-378z M309.8-333.4c3.2-18.9,16.4-34.4,33.9-41.3C340.5-355.8,327.3-340.2,309.8-333.4z M289.8-437.9
		c29.6,0,53.7,23.4,54.6,52.5c-24.3,7.6-42.5,29-45,55c-3.1,0.5-6.3,0.8-9.6,0.8c-2.7,0-5.4-0.2-8-0.6
		c-2.5-26.6-21.4-48.6-46.6-55.7C236.4-414.8,260.4-437.9,289.8-437.9z M271.5-332.7c-18.5-6.6-32.5-22.8-35.6-42.5
		C254.4-368.7,268.3-352.5,271.5-332.7z M225.5-377.8c2.5,26.6,21.4,48.6,46.6,55.7c-1.1,28.9-25.2,52-54.6,52
		c-29.6,0-53.7-23.4-54.6-52.5c24.3-7.6,42.5-29,45-55c3.1-0.5,6.3-0.8,9.6-0.8C220.2-378.4,222.9-378.2,225.5-377.8z M163.6-333.4
		c3.2-18.9,16.4-34.4,33.9-41.3C194.3-355.8,181.1-340.2,163.6-333.4z M143.6-437.9c29.6,0,53.7,23.4,54.6,52.5
		c-24.3,7.6-42.5,29-45,55c-3.1,0.5-6.3,0.8-9.6,0.8c-30.1,0-54.7-24.3-54.7-54.2C89-413.6,113.5-437.9,143.6-437.9z"/>
</g>
<g>
	<g>
		<g>
			<path class="st25" d="M129.2,344.3c-2.8-2.5-6-4.5-9.6-6.1c-3.6-1.6-7.2-2.9-10.9-3.9c-6.3-1.7-12.6-3.7-18.8-6
				c0,17.4,0,34.7,0,52.1c6.5,2.4,12.9,4.5,19.4,6.2c3.6,1,7.1,1.3,10.6,1.1c3.5-0.3,6.6-1.2,9.4-2.9c2.8-1.7,5-4,6.7-7.1
				c1.7-3.1,2.5-6.9,2.5-11.5c0-4.9-0.9-9.1-2.6-12.7C134.3,349.8,132,346.8,129.2,344.3z M124,371c-1,1.8-2.2,3.1-3.8,3.9
				c-1.6,0.8-3.4,1.3-5.5,1.3c-2.1,0-4.3-0.3-6.5-0.9c-2-0.5-4-1.1-6-1.7c0-10.1,0-20.3,0-30.4c2.1,0.6,4.2,1.2,6.3,1.8
				c2.2,0.6,4.3,1.4,6.3,2.4c2,1,3.8,2.2,5.4,3.7c1.6,1.5,2.9,3.3,3.8,5.4c1,2.1,1.4,4.7,1.4,7.6C125.5,366.9,125,369.2,124,371z"/>
			<path class="st25" d="M188.1,366.8c1.9-2.5,2.9-5.5,2.9-9c0-3-0.6-5.5-1.7-7.4c-1.1-2-2.6-3.5-4.5-4.7c-1.9-1.2-4-2-6.4-2.5
				c-2.4-0.5-4.8-0.7-7.3-0.8c-6.6-0.1-13.2-0.3-19.9-0.9c0,17.4,0,34.7,0,52.1c4.1,0.3,8.2,0.6,12.3,0.7c0-6.9,0-13.8,0-20.7
				c1.4,0.1,2.9,0.1,4.3,0.1c3.8,7,7.5,13.9,11.3,20.7c4.9-0.1,9.8-0.3,14.7-0.6c-4.5-7.2-9.1-14.4-13.6-21.7
				C183.6,371.1,186.2,369.2,188.1,366.8z M177.7,361.6c-0.6,0.8-1.3,1.5-2.2,1.9c-0.9,0.4-1.9,0.8-3,0.9c-1.1,0.2-2.1,0.2-3.2,0.2
				c-2,0-4-0.1-6-0.2c0-4,0-8.1,0-12.1c2.2,0.1,4.5,0.1,6.7,0.2c0.9,0,1.9,0.1,2.9,0.2c1,0.2,1.9,0.4,2.7,0.8c0.8,0.4,1.5,1,2,1.7
				c0.5,0.8,0.8,1.7,0.8,3C178.6,359.7,178.3,360.8,177.7,361.6z"/>
			<path class="st25" d="M204.3,393.1c4.2-0.4,8.4-0.8,12.6-1.3c0-17.4,0-34.7,0-52.1c-4.2,0.5-8.4,0.9-12.6,1.3
				C204.3,358.4,204.3,375.8,204.3,393.1z"/>
			<path class="st25" d="M267.5,366.1c-0.1,0-0.1,0-0.2,0c-7-10.1-13.9-20.2-20.9-30.4c-4.8,0.8-9.6,1.5-14.3,2.2
				c0,17.4,0,34.7,0,52.1c4.1-0.6,8.1-1.2,12.2-1.8c-0.1-11.3-0.2-22.7-0.3-34c0.1,0,0.1,0,0.2,0c7,10.2,14,20.4,21,30.5
				c4.8-0.8,9.5-1.7,14.3-2.6c0-17.4,0-34.7,0-52.1c-4.1,0.8-8.1,1.5-12.2,2.2C267.3,343.5,267.4,354.8,267.5,366.1z"/>
			<path class="st25" d="M341.3,319.1c-5.2,0.8-10.5,1.6-15.7,2.5c-6.2,8.1-12.4,16.3-18.6,24.4c-0.1,0-0.1,0-0.2,0
				c0-7.1,0-14.1,0-21.2c-4.1,0.7-8.2,1.5-12.3,2.3c0,17.4,0,34.7,0,52.1c4.1-0.8,8.2-1.5,12.3-2.3c0-8,0-16,0-24c0,0,0.1,0,0.1,0
				c6.4,6.8,12.9,13.7,19.3,20.6c5.5-0.9,10.9-1.8,16.4-2.6c-7.9-8.2-15.8-16.3-23.8-24.3C326.4,337.4,333.9,328.2,341.3,319.1z"/>
			<path class="st25" d="M351.1,369.8c4.2-0.6,8.4-1.1,12.7-1.5c0-17.4,0-34.7,0-52.1c-4.2,0.4-8.4,1-12.7,1.5
				C351.1,335.1,351.1,352.5,351.1,369.8z"/>
			<path class="st25" d="M414.3,348.1c-0.1,0-0.1,0-0.2,0c-7-11.6-13.9-22.9-20.9-34c-4.8,0.2-9.6,0.4-14.3,0.7
				c0,17.4,0,34.7,0,52.1c4.1-0.3,8.1-0.5,12.2-0.7c-0.1-11.3-0.2-22.7-0.3-34c0.1,0,0.1,0,0.2,0c7,11.1,14,22.4,21,33.9
				c4.8,0.1,9.5,0.4,14.3,0.8c0-17.4,0-34.7,0-52.1c-4.1-0.3-8.1-0.6-12.2-0.7C414.1,325.5,414.2,336.8,414.3,348.1z"/>
			<path class="st25" d="M466.1,342.8c0,3.4,0,6.8,0,10.1c3.3,0.9,6.6,1.8,9.9,2.8c0,3.2,0,6.3,0,9.5c-1.1,0.1-2.4,0.1-3.7,0
				c-1.3-0.2-2.7-0.4-4.2-0.8c-2.5-0.7-4.8-1.6-6.8-2.9c-2-1.3-3.7-2.8-5-4.5c-1.3-1.7-2.4-3.7-3.1-5.8c-0.7-2.1-1-4.4-1-6.8
				c0-2.4,0.4-4.5,1.1-6.3c0.8-1.8,1.8-3.3,3.2-4.5c1.4-1.2,3-1.9,4.9-2.3c1.9-0.4,3.9-0.3,6.1,0.3c2.5,0.7,4.8,1.8,6.8,3.3
				c2,1.5,3.6,3.2,4.9,5c2.6-2.2,5.3-4.2,7.9-6.3c-2.2-2.9-5.1-5.6-8.6-8c-3.5-2.4-7.4-4.2-11.5-5.2c-4-1-7.7-1.3-11.1-0.7
				c-3.4,0.6-6.4,1.8-9,3.8c-2.6,2-4.5,4.5-6,7.7c-1.4,3.2-2.2,6.9-2.2,11c0,4.1,0.7,7.9,2.1,11.5c1.4,3.6,3.4,6.7,5.9,9.6
				c2.5,2.8,5.5,5.2,9,7.3c3.5,2.1,7.3,3.6,11.5,4.7c4,1.1,7.7,1.8,11.1,2c3.4,0.3,6.4,0.2,8.9-0.1c0-9.2,0-18.4,0-27.6
				C480.4,346.9,473.2,344.6,466.1,342.8z"/>
		</g>
		<g>
			<path class="st25" d="M193.5,403c-10.7,26.2-20.7,50.7-31.4,76h19.8c1.9-5.1,3.4-9.1,5.2-14.2c9.8-0.6,19.7-1.5,29.5-2.7
				c2,4.8,5.1,12.2,7.1,16.9h21.6c-10.6-23.8-23.4-53.4-34-77.6C205.4,402,199.4,402.6,193.5,403z M192.4,449.6c3.2-9,6.5-18,9.7-27
				c3.2,8.4,6.3,16.8,9.5,25.2C205.2,448.6,198.8,449.2,192.4,449.6z"/>
			<path class="st25" d="M299.7,450.3c-0.1,0-0.3,0-0.4,0.1c-5.8-15.3-11.8-41.9-17.4-59.9c-8.7,1.5-17.5,3.1-26.2,4.5
				c0,25.4,0,58.5,0,84h17.8c-0.1-18-0.8-46.6-0.9-64.6c0.1,0,0.2,0,0.3-0.1c4.7,17.4,12.9,47.8,19.3,64.6h15.3
				c3.7-13.9,17.7-73.5,17.7-73.5c0.1,0-0.1,0,0,0c-0.1,18-0.3,55.5-0.4,73.5H343c0-25.4,0-72.9,0-98.4c-8.9,1.2-17.8,2.5-26.6,4
				C312.5,400.5,301.9,443.9,299.7,450.3z"/>
			<path class="st25" d="M382.8,433.9c10.6-0.6,21.1-0.7,31.7-0.3c0-4.9,0-9.8,0-14.8c-10.6-0.4-21.1-0.3-31.7,0.3
				c0-4.8,0-22,0-26.8c11.2-0.6,22.3-0.7,33.5-0.2c0-5.2,0-10.3,0-15.5c-17.1-0.8-34.2-0.1-51.3,1.5c0,25.4,0,75.4,0,100.8h53.2
				c0-5.2,0-11.8,0-17h-35.4C382.8,456.7,382.8,439.2,382.8,433.9z"/>
		</g>
		<g>
			<path class="st25" d="M468.4,480.2c-12.2,0-25.6-7.2-36.2-19.6l12.7-10.9c9.2,10.7,18.7,14.1,24.5,13.7c3.1-0.2,5.4-1.5,6.9-3.7
				c2.1-3.2,1.8-5.4,1.4-6.8c-0.8-2.7-4.1-8.3-17.5-14.7l-0.2-0.1c-12.8-6.5-20.7-14.6-23.3-23.8c-2.6-9.3,0.9-16.6,2.6-19.3
				c4.1-6.7,11.3-11,19.8-11.6c11.8-0.9,24.5,5.2,33.8,16.3l-12.9,10.8c-6.9-8.2-14.6-10.7-19.6-10.3c-2.2,0.2-5.1,0.9-6.7,3.6
				c-0.5,0.8-1.6,3.1-0.8,6c1.3,4.4,6.5,9.2,14.7,13.4c14.7,7.1,23.6,15.5,26.3,25.2c1.9,6.8,0.7,13.9-3.5,20.4
				c-4.4,6.8-11.4,10.8-19.8,11.4C469.8,480.1,469.1,480.2,468.4,480.2z"/>
		</g>
		<path class="st25" d="M150.6,434.1v39.7c-1.5,0.8-3.1,1.5-4.8,2.2c-2.4,0.9-5.1,1.8-7.9,2.5c-4.8,1.2-10.1,1.8-15.8,1.8
			c-5.9,0-11.4-0.9-16.4-2.8c-5-1.9-9.4-4.5-13-8c-3.7-3.4-6.6-8.4-8.8-13.2c-4.5-10.1-4.9-22.5-0.9-32.8
			c2.8-7.3,7.9-13.7,14.5-17.9c9.8-6.2,22.7-6.8,33.9-4.8c6.9,1.3,13.6,4.7,18.5,9.8l-4.3,5c0,0-5.4,6.3-6.8,8
			c-0.2,0.2-3.6-4.3-12.4-6.3c-5-1.1-10.5-1.1-15.2,1.2c-8.1,3.9-12,13.6-11.6,22.6c0.5,8.5,5.1,18.4,13.4,21.7
			c2.9,1.2,6.1,1.7,9.7,1.7c2.1,0,4.1-0.2,6-0.5c1.9-0.3,3.6-0.8,5.2-1.5l-0.1-14.8c-4.8-0.5-9.5-1.2-14.3-2l-0.2-14.9
			c8.8,1.5,17.5,2.5,26.2,3.1C147.4,433.9,149,434,150.6,434.1z"/>
	</g>
	<g>
		<path class="st4" d="M219,251.8c28.4,0,51.7-22.4,52.8-50.3c-24.3-6.9-42.7-28.1-45.1-53.8c-2.5-0.4-5.1-0.6-7.7-0.6
			c-3.2,0-6.2,0.3-9.3,0.8c-2.4,25.1-20,45.9-43.6,53.2C167.1,229.2,190.4,251.8,219,251.8z"/>
		<path class="st4" d="M199.7,150.7c-16.9,6.6-29.6,21.7-32.7,39.9C183.9,184,196.6,168.9,199.7,150.7z"/>
		<path class="st4" d="M147.6,89.5c-29.1,0-52.9,23.5-52.9,52.4c0,28.9,23.7,52.4,52.9,52.4c3.2,0,6.2-0.3,9.3-0.8
			c2.4-25.1,20-45.9,43.6-53.2C199.5,112.1,176.2,89.5,147.6,89.5z"/>
		<path class="st4" d="M271.2,191.2c-3-19.1-16.5-34.8-34.5-41.1C239.8,169.2,253.3,184.9,271.2,191.2z"/>
		<path class="st4" d="M428.8,194.3c29.1,0,52.8-23.5,52.8-52.4c0-28.9-23.7-52.4-52.8-52.4c-28.3,0-51.5,22.2-52.8,49.9
			c25.1,6.5,44.2,28.1,46.5,54.5C424.6,194.1,426.7,194.3,428.8,194.3z"/>
		<path class="st4" d="M412.7,191.7c-3-19.9-17.2-36.1-36.1-42.2C379.5,169.5,393.8,185.7,412.7,191.7z"/>
		<path class="st25" d="M428.8,203.9c-2.1,0-4.1-0.1-6.1-0.3c-2.2,32.3-29.3,57.8-62.3,57.8c-33.2,0-60.4-25.8-62.3-58.2
			c-3,0.4-6,0.7-9.1,0.7c-2.6,0-5.1-0.2-7.6-0.5c-2.1,32.3-29.2,58-62.3,58c-33.2,0-60.4-25.8-62.3-58.2c-3,0.4-6,0.7-9.1,0.7
			c-25.9,0-48.2-15.8-57.7-38.2V320c2.8,1.1,7.9,3,15.4,5c22.8,6.2,68.5,14.1,144.4,1.4c7.2-1.2,14.6-2.6,22.4-4.1
			c1.5-0.3,3-0.6,4.5-0.9c46.5-9.7,95.7-16.8,143.2-14.7c4.4,0.2,8.7,0.5,13,0.9c17.7,1.6,36.2,3.7,54.6,14.4c0,0,0-76.7,0-158.8
			C478.8,186.9,455.8,203.9,428.8,203.9z"/>
		<path class="st4" d="M360.4,251.8c28.3,0,51.5-22.2,52.8-49.9c-25.1-6.5-44.2-28.1-46.5-54.5c-2-0.2-4.1-0.4-6.2-0.4
			c-3.2,0-6.2,0.3-9.3,0.8c-2.4,25.1-20,45.9-43.6,53.2C308.5,229.2,331.8,251.8,360.4,251.8z"/>
		<path class="st4" d="M289,194.3c3.2,0,6.2-0.3,9.3-0.8c2.4-25.1,20-45.9,43.6-53.2c-0.9-28.1-24.2-50.7-52.8-50.7
			c-28.4,0-51.7,22.4-52.8,50.3c24.3,6.9,42.7,28.1,45.1,53.8C283.8,194.1,286.3,194.3,289,194.3z"/>
		<path class="st4" d="M341.1,150.7c-16.9,6.6-29.6,21.7-32.7,39.9C325.2,184,337.9,168.9,341.1,150.7z"/>
	</g>
</g>
</svg>
