<?xml version="1.0" encoding="utf-8"?>
<!-- Generator: Adobe Illustrator 22.1.0, SVG Export Plug-In . SVG Version: 6.00 Build 0)  -->
<svg version="1.1" id="Layer_1" xmlns="http://www.w3.org/2000/svg" xmlns:xlink="http://www.w3.org/1999/xlink" x="0px" y="0px"
	 viewBox="0 0 576 576" style="enable-background:new 0 0 576 576;" xml:space="preserve">
<g>
	<path d="M240,380.2c-23.5,0-42-6.5-55.5-19.5s-20.2-32.4-20.2-58.2v-100h38.5v99c0,14.3,3.3,25.1,10,32.4
		c6.7,7.2,15.9,10.9,27.8,10.9c11.8,0,21.1-3.5,27.8-10.5c6.7-7,10-17.5,10-31.5V202.5h38.5v98.8c0,13.3-1.8,24.9-5.4,34.8
		c-3.6,9.8-8.7,18-15.4,24.6c-6.7,6.6-14.8,11.5-24.2,14.8S251.7,380.2,240,380.2z"/>
	<path d="M357.7,202.5h38.5v175h-38.5V202.5z"/>
</g>
</svg>
